<svg xmlns="http://www.w3.org/2000/svg" xmlns:xlink="http://www.w3.org/1999/xlink" width="500" zoomAndPan="magnify" viewBox="0 0 375 374.999991" height="500" preserveAspectRatio="xMidYMid meet" version="1.0"><defs><g/><clipPath id="79b03a35d9"><path d="M 29.167969 37.5 L 260 37.5 L 260 320 L 29.167969 320 Z M 29.167969 37.5 " clip-rule="nonzero"/></clipPath><clipPath id="ae61f84f86"><path d="M 190 198 L 362.917969 198 L 362.917969 371.25 L 190 371.25 Z M 190 198 " clip-rule="nonzero"/></clipPath></defs><g clip-path="url(#79b03a35d9)"><path fill="#c3c9d3" d="M 259.339844 200.351562 L 259.339844 82.566406 C 259.339844 79.511719 258.125 76.566406 255.945312 74.386719 L 222.453125 40.894531 C 220.273438 38.714844 217.328125 37.5 214.269531 37.5 L 46.429688 37.5 C 36.875 37.5 29.167969 45.210938 29.167969 54.761719 L 29.167969 302.199219 C 29.167969 311.75 36.875 319.460938 46.429688 319.460938 L 197.480469 319.460938 L 259.339844 200.351562 " fill-opacity="1" fill-rule="nonzero"/></g><path fill="#edf0f2" d="M 103.972656 129.570312 L 69.445312 129.570312 C 63.085938 129.570312 57.9375 124.421875 57.9375 118.058594 L 57.9375 83.535156 C 57.9375 77.171875 63.085938 72.027344 69.445312 72.027344 L 103.972656 72.027344 C 110.332031 72.027344 115.480469 77.171875 115.480469 83.535156 L 115.480469 118.058594 C 115.480469 124.421875 110.332031 129.570312 103.972656 129.570312 " fill-opacity="1" fill-rule="nonzero"/><path fill="#edf0f2" d="M 103.972656 210.128906 L 69.445312 210.128906 C 63.085938 210.128906 57.9375 204.980469 57.9375 198.621094 L 57.9375 164.09375 C 57.9375 157.734375 63.085938 152.585938 69.445312 152.585938 L 103.972656 152.585938 C 110.332031 152.585938 115.480469 157.734375 115.480469 164.09375 L 115.480469 198.621094 C 115.480469 204.980469 110.332031 210.128906 103.972656 210.128906 " fill-opacity="1" fill-rule="nonzero"/><path fill="#edf0f2" d="M 103.972656 290.691406 L 69.445312 290.691406 C 63.085938 290.691406 57.9375 285.542969 57.9375 279.179688 L 57.9375 244.65625 C 57.9375 238.292969 63.085938 233.148438 69.445312 233.148438 L 103.972656 233.148438 C 110.332031 233.148438 115.480469 238.292969 115.480469 244.65625 L 115.480469 279.179688 C 115.480469 285.542969 110.332031 290.691406 103.972656 290.691406 " fill-opacity="1" fill-rule="nonzero"/><g clip-path="url(#ae61f84f86)"><path fill="#6dc732" d="M 362.917969 284.933594 C 362.917969 332.609375 324.277344 371.25 276.601562 371.25 C 228.925781 371.25 190.289062 332.609375 190.289062 284.933594 C 190.289062 237.261719 228.925781 198.621094 276.601562 198.621094 C 324.277344 198.621094 362.917969 237.261719 362.917969 284.933594 " fill-opacity="1" fill-rule="nonzero"/></g><path fill="#7c8798" d="M 258.304688 77.78125 L 236.320312 77.78125 C 226.769531 77.78125 219.058594 70.070312 219.058594 60.515625 L 219.058594 38.535156 C 220.316406 39.117188 221.464844 39.90625 222.453125 40.894531 L 255.945312 74.386719 C 256.933594 75.375 257.71875 76.519531 258.304688 77.78125 " fill-opacity="1" fill-rule="nonzero"/><path fill="#6dc732" d="M 92.464844 112.304688 C 90.980469 112.304688 89.519531 111.742188 88.394531 110.621094 L 76.886719 99.113281 C 74.640625 96.863281 74.640625 93.222656 76.886719 90.976562 C 79.132812 88.726562 82.777344 88.726562 85.023438 90.976562 L 92.464844 98.414062 L 128.675781 62.203125 C 130.921875 59.957031 134.566406 59.957031 136.8125 62.203125 C 139.058594 64.449219 139.058594 68.09375 136.8125 70.339844 L 96.53125 110.621094 C 95.410156 111.742188 93.949219 112.304688 92.464844 112.304688 " fill-opacity="1" fill-rule="nonzero"/><path fill="#6dc732" d="M 92.464844 192.867188 C 90.980469 192.867188 89.519531 192.304688 88.394531 191.179688 L 76.886719 179.671875 C 74.640625 177.425781 74.640625 173.78125 76.886719 171.535156 C 79.132812 169.289062 82.777344 169.289062 85.023438 171.535156 L 92.464844 178.976562 L 128.675781 142.761719 C 130.921875 140.515625 134.566406 140.515625 136.8125 142.761719 C 139.058594 145.011719 139.058594 148.652344 136.8125 150.898438 L 96.53125 191.179688 C 95.410156 192.304688 93.949219 192.867188 92.464844 192.867188 " fill-opacity="1" fill-rule="nonzero"/><path fill="#6dc732" d="M 92.464844 273.425781 C 90.980469 273.425781 89.519531 272.863281 88.394531 271.742188 L 76.886719 260.230469 C 74.640625 257.984375 74.640625 254.34375 76.886719 252.09375 C 79.132812 249.847656 82.777344 249.847656 85.023438 252.09375 L 92.464844 259.535156 L 128.675781 223.324219 C 130.921875 221.074219 134.566406 221.074219 136.8125 223.324219 C 139.058594 225.570312 139.058594 229.214844 136.8125 231.460938 L 96.53125 271.742188 C 95.410156 272.863281 93.949219 273.425781 92.464844 273.425781 " fill-opacity="1" fill-rule="nonzero"/><path fill="#edf0f2" d="M 259.339844 330.96875 C 257.8125 330.96875 256.347656 330.363281 255.269531 329.285156 L 238.007812 312.019531 C 235.761719 309.773438 235.761719 306.132812 238.007812 303.882812 C 240.253906 301.636719 243.898438 301.636719 246.144531 303.882812 L 258.371094 316.089844 L 306.296875 241.554688 C 308.003906 238.878906 311.554688 238.089844 314.230469 239.824219 C 316.90625 241.53125 317.691406 245.105469 315.960938 247.757812 L 264.171875 328.339844 C 263.226562 329.777344 261.675781 330.746094 259.945312 330.925781 C 259.742188 330.96875 259.542969 330.96875 259.339844 330.96875 " fill-opacity="1" fill-rule="nonzero"/><path fill="#6b7788" d="M 196.042969 89.289062 L 155.761719 89.289062 C 152.59375 89.289062 150.007812 86.703125 150.007812 83.535156 C 150.007812 80.363281 152.59375 77.78125 155.761719 77.78125 L 196.042969 77.78125 C 199.210938 77.78125 201.796875 80.363281 201.796875 83.535156 C 201.796875 86.703125 199.210938 89.289062 196.042969 89.289062 " fill-opacity="1" fill-rule="nonzero"/><path fill="#6b7788" d="M 190.289062 118.058594 L 155.761719 118.058594 C 152.59375 118.058594 150.007812 115.476562 150.007812 112.304688 C 150.007812 109.136719 152.59375 106.550781 155.761719 106.550781 L 190.289062 106.550781 C 193.457031 106.550781 196.042969 109.136719 196.042969 112.304688 C 196.042969 115.476562 193.457031 118.058594 190.289062 118.058594 " fill-opacity="1" fill-rule="nonzero"/><path fill="#6b7788" d="M 230.566406 169.847656 L 155.761719 169.847656 C 152.59375 169.847656 150.007812 167.265625 150.007812 164.09375 C 150.007812 160.925781 152.59375 158.339844 155.761719 158.339844 L 230.566406 158.339844 C 233.738281 158.339844 236.320312 160.925781 236.320312 164.09375 C 236.320312 167.265625 233.738281 169.847656 230.566406 169.847656 " fill-opacity="1" fill-rule="nonzero"/><path fill="#6b7788" d="M 190.289062 198.621094 L 155.761719 198.621094 C 152.59375 198.621094 150.007812 196.035156 150.007812 192.867188 C 150.007812 189.695312 152.59375 187.113281 155.761719 187.113281 L 190.289062 187.113281 C 193.457031 187.113281 196.042969 189.695312 196.042969 192.867188 C 196.042969 196.035156 193.457031 198.621094 190.289062 198.621094 " fill-opacity="1" fill-rule="nonzero"/><path fill="#6b7788" d="M 173.023438 250.410156 L 155.761719 250.410156 C 152.59375 250.410156 150.007812 247.824219 150.007812 244.65625 C 150.007812 241.484375 152.59375 238.902344 155.761719 238.902344 L 173.023438 238.902344 C 176.195312 238.902344 178.777344 241.484375 178.777344 244.65625 C 178.777344 247.824219 176.195312 250.410156 173.023438 250.410156 " fill-opacity="1" fill-rule="nonzero"/><path fill="#6b7788" d="M 167.269531 279.179688 L 155.761719 279.179688 C 152.59375 279.179688 150.007812 276.597656 150.007812 273.425781 C 150.007812 270.257812 152.59375 267.671875 155.761719 267.671875 L 167.269531 267.671875 C 170.441406 267.671875 173.023438 270.257812 173.023438 273.425781 C 173.023438 276.597656 170.441406 279.179688 167.269531 279.179688 " fill-opacity="1" fill-rule="nonzero"/><g fill="#c3c9d3" fill-opacity="1"><g transform="translate(138.496959, 52.523351)"><g><path d="M 3.6875 -7.265625 C 3.6875 -7.109375 3.632812 -6.96875 3.53125 -6.84375 C 3.4375 -6.726562 3.320312 -6.632812 3.1875 -6.5625 C 3.0625 -6.476562 2.929688 -6.394531 2.796875 -6.3125 C 2.671875 -6.226562 2.550781 -6.128906 2.4375 -6.015625 C 2.332031 -5.910156 2.242188 -5.789062 2.171875 -5.65625 C 2.097656 -5.53125 2.0625 -5.382812 2.0625 -5.21875 C 2.0625 -5.070312 2.097656 -4.941406 2.171875 -4.828125 C 2.242188 -4.710938 2.328125 -4.597656 2.421875 -4.484375 C 2.523438 -4.367188 2.632812 -4.25 2.75 -4.125 C 2.875 -4.007812 2.984375 -3.875 3.078125 -3.71875 C 3.179688 -3.570312 3.265625 -3.40625 3.328125 -3.21875 C 3.398438 -3.039062 3.4375 -2.828125 3.4375 -2.578125 C 3.4375 -2.398438 3.398438 -2.203125 3.328125 -1.984375 C 3.265625 -1.773438 3.171875 -1.554688 3.046875 -1.328125 C 2.921875 -1.109375 2.769531 -0.894531 2.59375 -0.6875 C 2.425781 -0.476562 2.25 -0.289062 2.0625 -0.125 C 1.875 0.03125 1.675781 0.15625 1.46875 0.25 C 1.257812 0.351562 1.0625 0.40625 0.875 0.40625 C 0.65625 0.40625 0.460938 0.34375 0.296875 0.21875 C 0.128906 0.101562 0.046875 -0.0664062 0.046875 -0.296875 C 0.046875 -0.453125 0.0820312 -0.597656 0.15625 -0.734375 C 0.238281 -0.867188 0.332031 -1 0.4375 -1.125 C 0.550781 -1.25 0.675781 -1.367188 0.8125 -1.484375 C 0.945312 -1.609375 1.066406 -1.726562 1.171875 -1.84375 C 1.285156 -1.957031 1.378906 -2.078125 1.453125 -2.203125 C 1.535156 -2.335938 1.578125 -2.476562 1.578125 -2.625 C 1.578125 -2.820312 1.503906 -3.023438 1.359375 -3.234375 C 1.210938 -3.441406 1.050781 -3.65625 0.875 -3.875 C 0.707031 -4.101562 0.550781 -4.332031 0.40625 -4.5625 C 0.269531 -4.800781 0.203125 -5.039062 0.203125 -5.28125 C 0.203125 -5.582031 0.28125 -5.894531 0.4375 -6.21875 C 0.601562 -6.550781 0.804688 -6.851562 1.046875 -7.125 C 1.296875 -7.394531 1.578125 -7.617188 1.890625 -7.796875 C 2.203125 -7.972656 2.507812 -8.0625 2.8125 -8.0625 C 3.050781 -8.0625 3.253906 -7.988281 3.421875 -7.84375 C 3.597656 -7.707031 3.6875 -7.515625 3.6875 -7.265625 Z M 3.6875 -7.265625 "/></g></g></g><g fill="#c3c9d3" fill-opacity="1"><g transform="translate(142.242015, 52.523351)"><g><path d="M 2.015625 -7.21875 C 2.015625 -7.125 1.988281 -7.035156 1.9375 -6.953125 C 1.882812 -6.878906 1.816406 -6.8125 1.734375 -6.75 C 1.648438 -6.695312 1.5625 -6.65625 1.46875 -6.625 C 1.375 -6.59375 1.285156 -6.578125 1.203125 -6.578125 C 1.066406 -6.578125 0.945312 -6.609375 0.84375 -6.671875 C 0.738281 -6.742188 0.6875 -6.851562 0.6875 -7 C 0.6875 -7.101562 0.710938 -7.191406 0.765625 -7.265625 C 0.816406 -7.347656 0.878906 -7.414062 0.953125 -7.46875 C 1.023438 -7.519531 1.109375 -7.5625 1.203125 -7.59375 C 1.304688 -7.625 1.398438 -7.640625 1.484375 -7.640625 C 1.617188 -7.640625 1.738281 -7.609375 1.84375 -7.546875 C 1.957031 -7.484375 2.015625 -7.375 2.015625 -7.21875 Z M 2.09375 -3.703125 C 2.09375 -3.609375 2.09375 -3.503906 2.09375 -3.390625 C 2.09375 -3.285156 2.09375 -3.1875 2.09375 -3.09375 C 2.082031 -2.976562 2.078125 -2.820312 2.078125 -2.625 C 2.078125 -2.425781 2.066406 -2.210938 2.046875 -1.984375 C 2.035156 -1.753906 2.015625 -1.519531 1.984375 -1.28125 C 1.953125 -1.050781 1.898438 -0.835938 1.828125 -0.640625 C 1.765625 -0.453125 1.675781 -0.296875 1.5625 -0.171875 C 1.445312 -0.0546875 1.304688 0.00390625 1.140625 0.015625 C 1.003906 0.015625 0.890625 -0.0351562 0.796875 -0.140625 C 0.710938 -0.253906 0.640625 -0.398438 0.578125 -0.578125 C 0.523438 -0.753906 0.484375 -0.945312 0.453125 -1.15625 C 0.421875 -1.375 0.398438 -1.582031 0.390625 -1.78125 C 0.378906 -1.988281 0.375 -2.179688 0.375 -2.359375 C 0.375 -2.535156 0.375 -2.660156 0.375 -2.734375 C 0.375 -2.847656 0.375 -3.003906 0.375 -3.203125 C 0.375 -3.410156 0.378906 -3.628906 0.390625 -3.859375 C 0.398438 -4.097656 0.425781 -4.335938 0.46875 -4.578125 C 0.507812 -4.816406 0.566406 -5.035156 0.640625 -5.234375 C 0.710938 -5.441406 0.804688 -5.609375 0.921875 -5.734375 C 1.035156 -5.859375 1.179688 -5.921875 1.359375 -5.921875 C 1.546875 -5.921875 1.6875 -5.828125 1.78125 -5.640625 C 1.882812 -5.453125 1.957031 -5.234375 2 -4.984375 C 2.050781 -4.734375 2.078125 -4.484375 2.078125 -4.234375 C 2.085938 -3.992188 2.09375 -3.816406 2.09375 -3.703125 Z M 2.09375 -3.703125 "/></g></g></g><g fill="#c3c9d3" fill-opacity="1"><g transform="translate(144.766307, 52.523351)"><g><path d="M 3.34375 -5.6875 C 3.34375 -5.488281 3.273438 -5.335938 3.140625 -5.234375 C 3.003906 -5.140625 2.851562 -5.050781 2.6875 -4.96875 C 2.519531 -4.882812 2.367188 -4.78125 2.234375 -4.65625 C 2.097656 -4.539062 2.03125 -4.367188 2.03125 -4.140625 C 2.03125 -4.015625 2.0625 -3.90625 2.125 -3.8125 C 2.1875 -3.726562 2.257812 -3.648438 2.34375 -3.578125 C 2.425781 -3.503906 2.519531 -3.425781 2.625 -3.34375 C 2.726562 -3.269531 2.820312 -3.1875 2.90625 -3.09375 C 3 -3 3.070312 -2.878906 3.125 -2.734375 C 3.1875 -2.597656 3.21875 -2.429688 3.21875 -2.234375 C 3.21875 -1.941406 3.140625 -1.65625 2.984375 -1.375 C 2.835938 -1.101562 2.648438 -0.859375 2.421875 -0.640625 C 2.191406 -0.421875 1.929688 -0.242188 1.640625 -0.109375 C 1.347656 0.015625 1.0625 0.078125 0.78125 0.078125 C 0.664062 0.078125 0.550781 0.0664062 0.4375 0.046875 C 0.320312 0.0351562 0.21875 0.0078125 0.125 -0.03125 C 0.03125 -0.0820312 -0.046875 -0.148438 -0.109375 -0.234375 C -0.171875 -0.328125 -0.203125 -0.441406 -0.203125 -0.578125 C -0.203125 -0.773438 -0.164062 -0.925781 -0.09375 -1.03125 C -0.0195312 -1.132812 0.0703125 -1.21875 0.1875 -1.28125 C 0.3125 -1.34375 0.441406 -1.390625 0.578125 -1.421875 C 0.710938 -1.460938 0.835938 -1.507812 0.953125 -1.5625 C 1.066406 -1.613281 1.160156 -1.679688 1.234375 -1.765625 C 1.316406 -1.847656 1.359375 -1.960938 1.359375 -2.109375 C 1.359375 -2.253906 1.300781 -2.40625 1.1875 -2.5625 C 1.070312 -2.71875 0.941406 -2.882812 0.796875 -3.0625 C 0.660156 -3.238281 0.535156 -3.425781 0.421875 -3.625 C 0.316406 -3.820312 0.265625 -4.039062 0.265625 -4.28125 C 0.265625 -4.582031 0.320312 -4.859375 0.4375 -5.109375 C 0.5625 -5.359375 0.722656 -5.578125 0.921875 -5.765625 C 1.128906 -5.953125 1.363281 -6.097656 1.625 -6.203125 C 1.882812 -6.304688 2.160156 -6.359375 2.453125 -6.359375 C 2.566406 -6.359375 2.675781 -6.347656 2.78125 -6.328125 C 2.882812 -6.304688 2.976562 -6.269531 3.0625 -6.21875 C 3.144531 -6.164062 3.210938 -6.097656 3.265625 -6.015625 C 3.316406 -5.929688 3.34375 -5.820312 3.34375 -5.6875 Z M 3.34375 -5.6875 "/></g></g></g><g fill="#c3c9d3" fill-opacity="1"><g transform="translate(148.211344, 52.523351)"><g><path d="M 2.71875 0.375 C 2.226562 0.375 1.847656 0.304688 1.578125 0.171875 C 1.304688 0.046875 1.101562 -0.128906 0.96875 -0.359375 C 0.832031 -0.597656 0.75 -0.878906 0.71875 -1.203125 C 0.695312 -1.535156 0.6875 -1.90625 0.6875 -2.3125 C 0.6875 -2.632812 0.695312 -2.957031 0.71875 -3.28125 C 0.738281 -3.613281 0.769531 -3.96875 0.8125 -4.34375 C 0.707031 -4.34375 0.628906 -4.335938 0.578125 -4.328125 C 0.523438 -4.328125 0.476562 -4.328125 0.4375 -4.328125 C 0.21875 -4.328125 0.03125 -4.375 -0.125 -4.46875 C -0.289062 -4.570312 -0.375 -4.722656 -0.375 -4.921875 C -0.375 -5.046875 -0.328125 -5.15625 -0.234375 -5.25 C -0.140625 -5.351562 -0.0195312 -5.4375 0.125 -5.5 C 0.269531 -5.570312 0.425781 -5.628906 0.59375 -5.671875 C 0.757812 -5.710938 0.921875 -5.738281 1.078125 -5.75 C 1.078125 -5.945312 1.085938 -6.160156 1.109375 -6.390625 C 1.140625 -6.628906 1.191406 -6.847656 1.265625 -7.046875 C 1.335938 -7.253906 1.4375 -7.425781 1.5625 -7.5625 C 1.6875 -7.695312 1.84375 -7.765625 2.03125 -7.765625 C 2.144531 -7.765625 2.242188 -7.734375 2.328125 -7.671875 C 2.421875 -7.609375 2.492188 -7.523438 2.546875 -7.421875 C 2.597656 -7.316406 2.632812 -7.203125 2.65625 -7.078125 C 2.6875 -6.960938 2.703125 -6.84375 2.703125 -6.71875 C 2.703125 -6.582031 2.691406 -6.441406 2.671875 -6.296875 C 2.660156 -6.148438 2.625 -5.972656 2.5625 -5.765625 C 2.675781 -5.773438 2.753906 -5.78125 2.796875 -5.78125 C 2.835938 -5.789062 2.878906 -5.796875 2.921875 -5.796875 C 3.035156 -5.796875 3.15625 -5.785156 3.28125 -5.765625 C 3.40625 -5.742188 3.519531 -5.707031 3.625 -5.65625 C 3.738281 -5.613281 3.828125 -5.550781 3.890625 -5.46875 C 3.960938 -5.382812 4 -5.289062 4 -5.1875 C 4 -5.0625 3.945312 -4.945312 3.84375 -4.84375 C 3.75 -4.75 3.625 -4.664062 3.46875 -4.59375 C 3.320312 -4.53125 3.160156 -4.476562 2.984375 -4.4375 C 2.816406 -4.40625 2.65625 -4.378906 2.5 -4.359375 C 2.457031 -4.078125 2.425781 -3.816406 2.40625 -3.578125 C 2.394531 -3.347656 2.378906 -3.109375 2.359375 -2.859375 C 2.347656 -2.742188 2.335938 -2.625 2.328125 -2.5 C 2.316406 -2.382812 2.3125 -2.265625 2.3125 -2.140625 C 2.3125 -2.046875 2.3125 -1.9375 2.3125 -1.8125 C 2.320312 -1.695312 2.347656 -1.582031 2.390625 -1.46875 C 2.429688 -1.363281 2.492188 -1.269531 2.578125 -1.1875 C 2.671875 -1.113281 2.796875 -1.078125 2.953125 -1.078125 C 3.054688 -1.078125 3.15625 -1.082031 3.25 -1.09375 C 3.351562 -1.113281 3.457031 -1.125 3.5625 -1.125 C 3.75 -1.125 3.878906 -1.0625 3.953125 -0.9375 C 4.035156 -0.8125 4.078125 -0.65625 4.078125 -0.46875 C 4.078125 -0.320312 4.03125 -0.191406 3.9375 -0.078125 C 3.851562 0.0234375 3.742188 0.109375 3.609375 0.171875 C 3.484375 0.234375 3.335938 0.28125 3.171875 0.3125 C 3.015625 0.351562 2.863281 0.375 2.71875 0.375 Z M 2.71875 0.375 "/></g></g></g><g fill="#c3c9d3" fill-opacity="1"><g transform="translate(152.184, 52.523351)"><g><path d="M 4.640625 -1.84375 C 4.640625 -1.601562 4.566406 -1.367188 4.421875 -1.140625 C 4.273438 -0.921875 4.085938 -0.722656 3.859375 -0.546875 C 3.640625 -0.378906 3.398438 -0.238281 3.140625 -0.125 C 2.890625 -0.0195312 2.65625 0.03125 2.4375 0.03125 C 2.070312 0.03125 1.742188 -0.0546875 1.453125 -0.234375 C 1.171875 -0.421875 0.929688 -0.65625 0.734375 -0.9375 C 0.546875 -1.21875 0.398438 -1.53125 0.296875 -1.875 C 0.203125 -2.21875 0.15625 -2.550781 0.15625 -2.875 C 0.15625 -3.21875 0.203125 -3.585938 0.296875 -3.984375 C 0.390625 -4.378906 0.535156 -4.738281 0.734375 -5.0625 C 0.929688 -5.394531 1.179688 -5.671875 1.484375 -5.890625 C 1.785156 -6.117188 2.144531 -6.234375 2.5625 -6.234375 C 2.789062 -6.234375 3.007812 -6.191406 3.21875 -6.109375 C 3.4375 -6.023438 3.625 -5.910156 3.78125 -5.765625 C 3.945312 -5.628906 4.078125 -5.457031 4.171875 -5.25 C 4.265625 -5.050781 4.3125 -4.828125 4.3125 -4.578125 C 4.3125 -4.253906 4.242188 -3.953125 4.109375 -3.671875 C 3.972656 -3.390625 3.789062 -3.144531 3.5625 -2.9375 C 3.332031 -2.726562 3.066406 -2.5625 2.765625 -2.4375 C 2.472656 -2.3125 2.171875 -2.238281 1.859375 -2.21875 C 1.890625 -2.019531 1.972656 -1.875 2.109375 -1.78125 C 2.242188 -1.695312 2.40625 -1.65625 2.59375 -1.65625 C 2.726562 -1.65625 2.859375 -1.6875 2.984375 -1.75 C 3.117188 -1.820312 3.25 -1.898438 3.375 -1.984375 C 3.5 -2.078125 3.617188 -2.15625 3.734375 -2.21875 C 3.859375 -2.289062 3.984375 -2.328125 4.109375 -2.328125 C 4.242188 -2.328125 4.363281 -2.28125 4.46875 -2.1875 C 4.582031 -2.101562 4.640625 -1.988281 4.640625 -1.84375 Z M 2.96875 -4.375 C 2.96875 -4.46875 2.941406 -4.5625 2.890625 -4.65625 C 2.847656 -4.75 2.773438 -4.796875 2.671875 -4.796875 C 2.515625 -4.796875 2.382812 -4.753906 2.28125 -4.671875 C 2.175781 -4.597656 2.085938 -4.5 2.015625 -4.375 C 1.953125 -4.257812 1.898438 -4.128906 1.859375 -3.984375 C 1.828125 -3.847656 1.804688 -3.722656 1.796875 -3.609375 C 1.890625 -3.628906 2.003906 -3.65625 2.140625 -3.6875 C 2.273438 -3.726562 2.398438 -3.773438 2.515625 -3.828125 C 2.640625 -3.890625 2.742188 -3.960938 2.828125 -4.046875 C 2.921875 -4.140625 2.96875 -4.25 2.96875 -4.375 Z M 2.96875 -4.375 "/></g></g></g><g fill="#c3c9d3" fill-opacity="1"><g transform="translate(156.932565, 52.523351)"><g><path d="M 6.59375 -3.40625 C 6.59375 -3.28125 6.59375 -3.101562 6.59375 -2.875 C 6.59375 -2.65625 6.585938 -2.414062 6.578125 -2.15625 C 6.566406 -1.894531 6.539062 -1.628906 6.5 -1.359375 C 6.46875 -1.097656 6.414062 -0.859375 6.34375 -0.640625 C 6.269531 -0.429688 6.175781 -0.253906 6.0625 -0.109375 C 5.957031 0.0234375 5.820312 0.09375 5.65625 0.09375 C 5.5 0.09375 5.378906 0.03125 5.296875 -0.09375 C 5.222656 -0.226562 5.164062 -0.378906 5.125 -0.546875 C 5.09375 -0.722656 5.070312 -0.898438 5.0625 -1.078125 C 5.0625 -1.253906 5.0625 -1.394531 5.0625 -1.5 C 5.0625 -1.8125 5.070312 -2.113281 5.09375 -2.40625 C 5.113281 -2.707031 5.125 -3.015625 5.125 -3.328125 C 5.125 -3.359375 5.125 -3.414062 5.125 -3.5 C 5.125 -3.59375 5.117188 -3.679688 5.109375 -3.765625 C 5.097656 -3.859375 5.078125 -3.941406 5.046875 -4.015625 C 5.015625 -4.085938 4.96875 -4.125 4.90625 -4.125 C 4.78125 -4.125 4.675781 -4.054688 4.59375 -3.921875 C 4.519531 -3.796875 4.457031 -3.644531 4.40625 -3.46875 C 4.363281 -3.300781 4.332031 -3.128906 4.3125 -2.953125 C 4.289062 -2.785156 4.273438 -2.664062 4.265625 -2.59375 C 4.253906 -2.5 4.242188 -2.359375 4.234375 -2.171875 C 4.222656 -1.992188 4.207031 -1.796875 4.1875 -1.578125 C 4.175781 -1.367188 4.148438 -1.148438 4.109375 -0.921875 C 4.078125 -0.703125 4.03125 -0.5 3.96875 -0.3125 C 3.90625 -0.132812 3.828125 0.0078125 3.734375 0.125 C 3.648438 0.238281 3.539062 0.296875 3.40625 0.296875 C 3.25 0.296875 3.125 0.222656 3.03125 0.078125 C 2.9375 -0.0664062 2.867188 -0.234375 2.828125 -0.421875 C 2.785156 -0.617188 2.757812 -0.816406 2.75 -1.015625 C 2.738281 -1.210938 2.734375 -1.367188 2.734375 -1.484375 C 2.734375 -1.597656 2.734375 -1.707031 2.734375 -1.8125 C 2.742188 -1.925781 2.75 -2.039062 2.75 -2.15625 C 2.75 -2.207031 2.75 -2.285156 2.75 -2.390625 C 2.75 -2.503906 2.742188 -2.628906 2.734375 -2.765625 C 2.734375 -2.898438 2.726562 -3.039062 2.71875 -3.1875 C 2.707031 -3.332031 2.691406 -3.460938 2.671875 -3.578125 C 2.660156 -3.703125 2.632812 -3.800781 2.59375 -3.875 C 2.550781 -3.957031 2.5 -4 2.4375 -4 C 2.351562 -4 2.269531 -3.941406 2.1875 -3.828125 C 2.113281 -3.710938 2.046875 -3.578125 1.984375 -3.421875 C 1.929688 -3.265625 1.890625 -3.109375 1.859375 -2.953125 C 1.835938 -2.804688 1.828125 -2.695312 1.828125 -2.625 L 1.828125 -2.5625 C 1.828125 -2.226562 1.84375 -1.90625 1.875 -1.59375 C 1.914062 -1.28125 1.9375 -0.957031 1.9375 -0.625 C 1.9375 -0.425781 1.875 -0.242188 1.75 -0.078125 C 1.632812 0.078125 1.460938 0.15625 1.234375 0.15625 C 1.078125 0.15625 0.945312 0.0976562 0.84375 -0.015625 C 0.738281 -0.140625 0.648438 -0.296875 0.578125 -0.484375 C 0.515625 -0.679688 0.460938 -0.894531 0.421875 -1.125 C 0.390625 -1.363281 0.363281 -1.59375 0.34375 -1.8125 C 0.332031 -2.039062 0.328125 -2.242188 0.328125 -2.421875 C 0.328125 -2.609375 0.328125 -2.742188 0.328125 -2.828125 C 0.328125 -2.929688 0.320312 -3.082031 0.3125 -3.28125 C 0.3125 -3.488281 0.316406 -3.707031 0.328125 -3.9375 C 0.335938 -4.175781 0.351562 -4.414062 0.375 -4.65625 C 0.40625 -4.90625 0.453125 -5.128906 0.515625 -5.328125 C 0.578125 -5.523438 0.65625 -5.6875 0.75 -5.8125 C 0.851562 -5.945312 0.984375 -6.015625 1.140625 -6.015625 C 1.328125 -6.015625 1.476562 -5.960938 1.59375 -5.859375 C 1.707031 -5.765625 1.765625 -5.625 1.765625 -5.4375 C 1.765625 -5.394531 1.757812 -5.351562 1.75 -5.3125 C 1.75 -5.269531 1.742188 -5.226562 1.734375 -5.1875 C 1.816406 -5.300781 1.910156 -5.414062 2.015625 -5.53125 C 2.128906 -5.644531 2.25 -5.75 2.375 -5.84375 C 2.5 -5.9375 2.632812 -6.007812 2.78125 -6.0625 C 2.925781 -6.125 3.070312 -6.15625 3.21875 -6.15625 C 3.351562 -6.15625 3.472656 -6.113281 3.578125 -6.03125 C 3.691406 -5.957031 3.789062 -5.863281 3.875 -5.75 C 3.957031 -5.644531 4.023438 -5.523438 4.078125 -5.390625 C 4.140625 -5.253906 4.179688 -5.128906 4.203125 -5.015625 C 4.265625 -5.140625 4.347656 -5.265625 4.453125 -5.390625 C 4.554688 -5.523438 4.664062 -5.640625 4.78125 -5.734375 C 4.894531 -5.828125 5.019531 -5.90625 5.15625 -5.96875 C 5.300781 -6.03125 5.453125 -6.0625 5.609375 -6.0625 C 5.753906 -6.0625 5.878906 -6.007812 5.984375 -5.90625 C 6.085938 -5.800781 6.175781 -5.664062 6.25 -5.5 C 6.320312 -5.34375 6.378906 -5.160156 6.421875 -4.953125 C 6.460938 -4.753906 6.492188 -4.554688 6.515625 -4.359375 C 6.546875 -4.160156 6.566406 -3.976562 6.578125 -3.8125 C 6.585938 -3.644531 6.59375 -3.507812 6.59375 -3.40625 Z M 6.59375 -3.40625 "/></g></g></g><g fill="#c3c9d3" fill-opacity="1"><g transform="translate(163.895059, 52.523351)"><g/></g></g><g fill="#c3c9d3" fill-opacity="1"><g transform="translate(166.388314, 52.523351)"><g><path d="M 5.28125 -5.921875 C 5.28125 -5.347656 5.265625 -4.769531 5.234375 -4.1875 C 5.203125 -3.613281 5.164062 -3.039062 5.125 -2.46875 C 5.125 -2.363281 5.117188 -2.222656 5.109375 -2.046875 C 5.097656 -1.878906 5.082031 -1.691406 5.0625 -1.484375 C 5.039062 -1.273438 5.015625 -1.066406 4.984375 -0.859375 C 4.953125 -0.660156 4.898438 -0.472656 4.828125 -0.296875 C 4.753906 -0.128906 4.660156 0.00390625 4.546875 0.109375 C 4.429688 0.210938 4.289062 0.265625 4.125 0.265625 C 3.976562 0.265625 3.847656 0.234375 3.734375 0.171875 C 3.617188 0.109375 3.523438 0.03125 3.453125 -0.0625 C 3.378906 -0.164062 3.320312 -0.28125 3.28125 -0.40625 C 3.238281 -0.53125 3.21875 -0.664062 3.21875 -0.8125 C 3.21875 -1.03125 3.222656 -1.253906 3.234375 -1.484375 C 3.253906 -1.722656 3.273438 -1.957031 3.296875 -2.1875 L 2.28125 -2.078125 C 2.257812 -1.898438 2.234375 -1.6875 2.203125 -1.4375 C 2.179688 -1.1875 2.132812 -0.941406 2.0625 -0.703125 C 1.988281 -0.472656 1.878906 -0.273438 1.734375 -0.109375 C 1.585938 0.0546875 1.390625 0.140625 1.140625 0.140625 C 0.984375 0.140625 0.851562 0.101562 0.75 0.03125 C 0.644531 -0.0390625 0.5625 -0.132812 0.5 -0.25 C 0.4375 -0.363281 0.390625 -0.488281 0.359375 -0.625 C 0.335938 -0.769531 0.328125 -0.90625 0.328125 -1.03125 C 0.328125 -1.4375 0.34375 -1.84375 0.375 -2.25 C 0.40625 -2.664062 0.425781 -3.082031 0.4375 -3.5 C 0.457031 -3.9375 0.460938 -4.375 0.453125 -4.8125 C 0.453125 -5.25 0.457031 -5.6875 0.46875 -6.125 C 0.476562 -6.269531 0.484375 -6.4375 0.484375 -6.625 C 0.492188 -6.820312 0.519531 -7.003906 0.5625 -7.171875 C 0.601562 -7.335938 0.675781 -7.476562 0.78125 -7.59375 C 0.894531 -7.71875 1.054688 -7.78125 1.265625 -7.78125 C 1.566406 -7.78125 1.789062 -7.703125 1.9375 -7.546875 C 2.09375 -7.390625 2.203125 -7.195312 2.265625 -6.96875 C 2.328125 -6.738281 2.359375 -6.492188 2.359375 -6.234375 C 2.359375 -5.972656 2.359375 -5.738281 2.359375 -5.53125 C 2.359375 -5.257812 2.347656 -4.988281 2.328125 -4.71875 C 2.316406 -4.457031 2.304688 -4.191406 2.296875 -3.921875 L 3.40625 -4.09375 C 3.40625 -4.425781 3.410156 -4.757812 3.421875 -5.09375 C 3.429688 -5.425781 3.445312 -5.753906 3.46875 -6.078125 C 3.46875 -6.242188 3.472656 -6.414062 3.484375 -6.59375 C 3.492188 -6.769531 3.519531 -6.929688 3.5625 -7.078125 C 3.613281 -7.234375 3.695312 -7.359375 3.8125 -7.453125 C 3.925781 -7.554688 4.097656 -7.609375 4.328125 -7.609375 C 4.515625 -7.609375 4.664062 -7.550781 4.78125 -7.4375 C 4.90625 -7.332031 5.003906 -7.203125 5.078125 -7.046875 C 5.148438 -6.890625 5.203125 -6.71875 5.234375 -6.53125 C 5.265625 -6.351562 5.28125 -6.191406 5.28125 -6.046875 Z M 5.28125 -5.921875 "/></g></g></g><g fill="#c3c9d3" fill-opacity="1"><g transform="translate(172.036935, 52.523351)"><g><path d="M 4.640625 -1.84375 C 4.640625 -1.601562 4.566406 -1.367188 4.421875 -1.140625 C 4.273438 -0.921875 4.085938 -0.722656 3.859375 -0.546875 C 3.640625 -0.378906 3.398438 -0.238281 3.140625 -0.125 C 2.890625 -0.0195312 2.65625 0.03125 2.4375 0.03125 C 2.070312 0.03125 1.742188 -0.0546875 1.453125 -0.234375 C 1.171875 -0.421875 0.929688 -0.65625 0.734375 -0.9375 C 0.546875 -1.21875 0.398438 -1.53125 0.296875 -1.875 C 0.203125 -2.21875 0.15625 -2.550781 0.15625 -2.875 C 0.15625 -3.21875 0.203125 -3.585938 0.296875 -3.984375 C 0.390625 -4.378906 0.535156 -4.738281 0.734375 -5.0625 C 0.929688 -5.394531 1.179688 -5.671875 1.484375 -5.890625 C 1.785156 -6.117188 2.144531 -6.234375 2.5625 -6.234375 C 2.789062 -6.234375 3.007812 -6.191406 3.21875 -6.109375 C 3.4375 -6.023438 3.625 -5.910156 3.78125 -5.765625 C 3.945312 -5.628906 4.078125 -5.457031 4.171875 -5.25 C 4.265625 -5.050781 4.3125 -4.828125 4.3125 -4.578125 C 4.3125 -4.253906 4.242188 -3.953125 4.109375 -3.671875 C 3.972656 -3.390625 3.789062 -3.144531 3.5625 -2.9375 C 3.332031 -2.726562 3.066406 -2.5625 2.765625 -2.4375 C 2.472656 -2.3125 2.171875 -2.238281 1.859375 -2.21875 C 1.890625 -2.019531 1.972656 -1.875 2.109375 -1.78125 C 2.242188 -1.695312 2.40625 -1.65625 2.59375 -1.65625 C 2.726562 -1.65625 2.859375 -1.6875 2.984375 -1.75 C 3.117188 -1.820312 3.25 -1.898438 3.375 -1.984375 C 3.5 -2.078125 3.617188 -2.15625 3.734375 -2.21875 C 3.859375 -2.289062 3.984375 -2.328125 4.109375 -2.328125 C 4.242188 -2.328125 4.363281 -2.28125 4.46875 -2.1875 C 4.582031 -2.101562 4.640625 -1.988281 4.640625 -1.84375 Z M 2.96875 -4.375 C 2.96875 -4.46875 2.941406 -4.5625 2.890625 -4.65625 C 2.847656 -4.75 2.773438 -4.796875 2.671875 -4.796875 C 2.515625 -4.796875 2.382812 -4.753906 2.28125 -4.671875 C 2.175781 -4.597656 2.085938 -4.5 2.015625 -4.375 C 1.953125 -4.257812 1.898438 -4.128906 1.859375 -3.984375 C 1.828125 -3.847656 1.804688 -3.722656 1.796875 -3.609375 C 1.890625 -3.628906 2.003906 -3.65625 2.140625 -3.6875 C 2.273438 -3.726562 2.398438 -3.773438 2.515625 -3.828125 C 2.640625 -3.890625 2.742188 -3.960938 2.828125 -4.046875 C 2.921875 -4.140625 2.96875 -4.25 2.96875 -4.375 Z M 2.96875 -4.375 "/></g></g></g><g fill="#c3c9d3" fill-opacity="1"><g transform="translate(176.7855, 52.523351)"><g><path d="M 2.25 -6.265625 C 2.25 -5.890625 2.234375 -5.515625 2.203125 -5.140625 C 2.171875 -4.765625 2.15625 -4.390625 2.15625 -4.015625 C 2.15625 -3.523438 2.171875 -3.035156 2.203125 -2.546875 C 2.234375 -2.054688 2.25 -1.5625 2.25 -1.0625 C 2.25 -0.9375 2.238281 -0.796875 2.21875 -0.640625 C 2.207031 -0.484375 2.175781 -0.335938 2.125 -0.203125 C 2.070312 -0.078125 1.992188 0.0234375 1.890625 0.109375 C 1.785156 0.203125 1.648438 0.25 1.484375 0.25 C 1.316406 0.25 1.171875 0.164062 1.046875 0 C 0.929688 -0.15625 0.832031 -0.359375 0.75 -0.609375 C 0.664062 -0.867188 0.597656 -1.148438 0.546875 -1.453125 C 0.492188 -1.765625 0.457031 -2.066406 0.4375 -2.359375 C 0.414062 -2.648438 0.398438 -2.914062 0.390625 -3.15625 C 0.378906 -3.40625 0.375 -3.59375 0.375 -3.71875 C 0.375 -3.84375 0.378906 -4.03125 0.390625 -4.28125 C 0.398438 -4.53125 0.421875 -4.800781 0.453125 -5.09375 C 0.484375 -5.382812 0.53125 -5.675781 0.59375 -5.96875 C 0.65625 -6.269531 0.734375 -6.539062 0.828125 -6.78125 C 0.921875 -7.03125 1.035156 -7.234375 1.171875 -7.390625 C 1.304688 -7.546875 1.46875 -7.625 1.65625 -7.625 C 1.8125 -7.625 1.925781 -7.570312 2 -7.46875 C 2.082031 -7.375 2.140625 -7.253906 2.171875 -7.109375 C 2.203125 -6.972656 2.222656 -6.828125 2.234375 -6.671875 C 2.242188 -6.515625 2.25 -6.378906 2.25 -6.265625 Z M 2.25 -6.265625 "/></g></g></g><g fill="#c3c9d3" fill-opacity="1"><g transform="translate(179.506355, 52.523351)"><g><path d="M 5.046875 -3.078125 C 5.046875 -2.773438 5.015625 -2.441406 4.953125 -2.078125 C 4.890625 -1.722656 4.78125 -1.390625 4.625 -1.078125 C 4.46875 -0.765625 4.257812 -0.503906 4 -0.296875 C 3.75 -0.0859375 3.4375 0.015625 3.0625 0.015625 C 2.96875 0.015625 2.867188 0.0078125 2.765625 0 C 2.660156 -0.0195312 2.5625 -0.046875 2.46875 -0.078125 C 2.375 -0.117188 2.285156 -0.164062 2.203125 -0.21875 C 2.128906 -0.28125 2.070312 -0.359375 2.03125 -0.453125 L 1.9375 1.03125 C 1.9375 1.1875 1.929688 1.375 1.921875 1.59375 C 1.921875 1.820312 1.894531 2.035156 1.84375 2.234375 C 1.789062 2.429688 1.703125 2.597656 1.578125 2.734375 C 1.460938 2.878906 1.289062 2.953125 1.0625 2.953125 C 0.9375 2.953125 0.828125 2.882812 0.734375 2.75 C 0.640625 2.625 0.566406 2.457031 0.515625 2.25 C 0.460938 2.039062 0.421875 1.804688 0.390625 1.546875 C 0.367188 1.296875 0.351562 1.050781 0.34375 0.8125 C 0.34375 0.582031 0.34375 0.367188 0.34375 0.171875 C 0.34375 -0.015625 0.34375 -0.15625 0.34375 -0.25 C 0.34375 -0.707031 0.335938 -1.164062 0.328125 -1.625 C 0.328125 -2.082031 0.328125 -2.546875 0.328125 -3.015625 C 0.328125 -3.097656 0.328125 -3.222656 0.328125 -3.390625 C 0.328125 -3.566406 0.332031 -3.757812 0.34375 -3.96875 C 0.351562 -4.175781 0.375 -4.390625 0.40625 -4.609375 C 0.4375 -4.828125 0.484375 -5.03125 0.546875 -5.21875 C 0.609375 -5.40625 0.6875 -5.550781 0.78125 -5.65625 C 0.882812 -5.769531 1.003906 -5.828125 1.140625 -5.828125 C 1.222656 -5.828125 1.300781 -5.800781 1.375 -5.75 C 1.445312 -5.695312 1.507812 -5.628906 1.5625 -5.546875 C 1.613281 -5.472656 1.65625 -5.390625 1.6875 -5.296875 C 1.726562 -5.210938 1.757812 -5.132812 1.78125 -5.0625 C 1.988281 -5.300781 2.234375 -5.484375 2.515625 -5.609375 C 2.796875 -5.734375 3.09375 -5.796875 3.40625 -5.796875 C 3.738281 -5.796875 4.007812 -5.703125 4.21875 -5.515625 C 4.4375 -5.328125 4.601562 -5.09375 4.71875 -4.8125 C 4.84375 -4.539062 4.925781 -4.25 4.96875 -3.9375 C 5.019531 -3.625 5.046875 -3.335938 5.046875 -3.078125 Z M 3.5625 -3.171875 C 3.5625 -3.273438 3.550781 -3.378906 3.53125 -3.484375 C 3.519531 -3.585938 3.492188 -3.6875 3.453125 -3.78125 C 3.410156 -3.875 3.347656 -3.945312 3.265625 -4 C 3.179688 -4.0625 3.078125 -4.09375 2.953125 -4.09375 C 2.785156 -4.09375 2.609375 -4.039062 2.421875 -3.9375 C 2.242188 -3.832031 2.109375 -3.707031 2.015625 -3.5625 C 1.984375 -3.507812 1.960938 -3.421875 1.953125 -3.296875 C 1.941406 -3.171875 1.9375 -3.078125 1.9375 -3.015625 C 1.9375 -2.972656 1.9375 -2.910156 1.9375 -2.828125 C 1.945312 -2.742188 1.953125 -2.660156 1.953125 -2.578125 C 1.960938 -2.503906 1.972656 -2.425781 1.984375 -2.34375 C 1.992188 -2.269531 2.007812 -2.210938 2.03125 -2.171875 C 2.050781 -2.109375 2.097656 -2.050781 2.171875 -2 C 2.242188 -1.945312 2.320312 -1.898438 2.40625 -1.859375 C 2.488281 -1.816406 2.570312 -1.785156 2.65625 -1.765625 C 2.738281 -1.742188 2.8125 -1.734375 2.875 -1.734375 C 3.019531 -1.734375 3.132812 -1.785156 3.21875 -1.890625 C 3.3125 -2.003906 3.382812 -2.140625 3.4375 -2.296875 C 3.488281 -2.453125 3.519531 -2.609375 3.53125 -2.765625 C 3.550781 -2.929688 3.5625 -3.066406 3.5625 -3.171875 Z M 3.5625 -3.171875 "/></g></g></g><g fill="#c3c9d3" fill-opacity="1"><g transform="translate(184.875648, 52.523351)"><g><path d="M 4.765625 -6.8125 C 4.765625 -6.300781 4.742188 -5.796875 4.703125 -5.296875 C 4.671875 -4.804688 4.65625 -4.3125 4.65625 -3.8125 C 4.65625 -3.40625 4.664062 -3 4.6875 -2.59375 C 4.71875 -2.195312 4.734375 -1.796875 4.734375 -1.390625 C 4.734375 -1.273438 4.726562 -1.140625 4.71875 -0.984375 C 4.707031 -0.828125 4.679688 -0.675781 4.640625 -0.53125 C 4.609375 -0.394531 4.546875 -0.273438 4.453125 -0.171875 C 4.367188 -0.0664062 4.25 -0.015625 4.09375 -0.015625 C 3.882812 -0.015625 3.710938 -0.0859375 3.578125 -0.234375 C 3.453125 -0.390625 3.367188 -0.566406 3.328125 -0.765625 C 3.203125 -0.515625 3.015625 -0.300781 2.765625 -0.125 C 2.515625 0.0390625 2.242188 0.125 1.953125 0.125 C 1.640625 0.125 1.367188 0.0195312 1.140625 -0.1875 C 0.921875 -0.40625 0.738281 -0.664062 0.59375 -0.96875 C 0.445312 -1.269531 0.335938 -1.585938 0.265625 -1.921875 C 0.191406 -2.253906 0.15625 -2.539062 0.15625 -2.78125 C 0.15625 -2.957031 0.164062 -3.15625 0.1875 -3.375 C 0.207031 -3.59375 0.242188 -3.816406 0.296875 -4.046875 C 0.347656 -4.273438 0.414062 -4.492188 0.5 -4.703125 C 0.582031 -4.921875 0.6875 -5.117188 0.8125 -5.296875 C 0.9375 -5.472656 1.085938 -5.609375 1.265625 -5.703125 C 1.441406 -5.804688 1.644531 -5.859375 1.875 -5.859375 C 2.125 -5.859375 2.359375 -5.785156 2.578125 -5.640625 C 2.804688 -5.503906 2.984375 -5.328125 3.109375 -5.109375 L 3.203125 -6.75 C 3.203125 -6.882812 3.207031 -7.039062 3.21875 -7.21875 C 3.238281 -7.394531 3.269531 -7.5625 3.3125 -7.71875 C 3.363281 -7.875 3.4375 -8.003906 3.53125 -8.109375 C 3.625 -8.222656 3.765625 -8.28125 3.953125 -8.28125 C 4.148438 -8.28125 4.300781 -8.234375 4.40625 -8.140625 C 4.519531 -8.046875 4.601562 -7.921875 4.65625 -7.765625 C 4.707031 -7.617188 4.738281 -7.457031 4.75 -7.28125 C 4.757812 -7.113281 4.765625 -6.957031 4.765625 -6.8125 Z M 3.078125 -2.21875 C 3.078125 -2.375 3.070312 -2.523438 3.0625 -2.671875 C 3.0625 -2.828125 3.066406 -2.984375 3.078125 -3.140625 C 3.035156 -3.234375 2.984375 -3.332031 2.921875 -3.4375 C 2.867188 -3.539062 2.800781 -3.640625 2.71875 -3.734375 C 2.644531 -3.828125 2.554688 -3.90625 2.453125 -3.96875 C 2.359375 -4.03125 2.257812 -4.0625 2.15625 -4.0625 C 2.03125 -4.0625 1.925781 -4.023438 1.84375 -3.953125 C 1.769531 -3.878906 1.71875 -3.785156 1.6875 -3.671875 C 1.65625 -3.566406 1.632812 -3.453125 1.625 -3.328125 C 1.613281 -3.203125 1.609375 -3.097656 1.609375 -3.015625 C 1.609375 -2.929688 1.613281 -2.804688 1.625 -2.640625 C 1.632812 -2.484375 1.660156 -2.320312 1.703125 -2.15625 C 1.742188 -1.988281 1.796875 -1.84375 1.859375 -1.71875 C 1.929688 -1.59375 2.023438 -1.53125 2.140625 -1.53125 C 2.234375 -1.53125 2.320312 -1.546875 2.40625 -1.578125 C 2.5 -1.617188 2.582031 -1.671875 2.65625 -1.734375 C 2.738281 -1.796875 2.816406 -1.859375 2.890625 -1.921875 C 2.960938 -1.992188 3.023438 -2.0625 3.078125 -2.125 Z M 3.078125 -2.21875 "/></g></g></g><g fill="#c3c9d3" fill-opacity="1"><g transform="translate(190.017341, 52.523351)"><g><path d="M 4.640625 -1.84375 C 4.640625 -1.601562 4.566406 -1.367188 4.421875 -1.140625 C 4.273438 -0.921875 4.085938 -0.722656 3.859375 -0.546875 C 3.640625 -0.378906 3.398438 -0.238281 3.140625 -0.125 C 2.890625 -0.0195312 2.65625 0.03125 2.4375 0.03125 C 2.070312 0.03125 1.742188 -0.0546875 1.453125 -0.234375 C 1.171875 -0.421875 0.929688 -0.65625 0.734375 -0.9375 C 0.546875 -1.21875 0.398438 -1.53125 0.296875 -1.875 C 0.203125 -2.21875 0.15625 -2.550781 0.15625 -2.875 C 0.15625 -3.21875 0.203125 -3.585938 0.296875 -3.984375 C 0.390625 -4.378906 0.535156 -4.738281 0.734375 -5.0625 C 0.929688 -5.394531 1.179688 -5.671875 1.484375 -5.890625 C 1.785156 -6.117188 2.144531 -6.234375 2.5625 -6.234375 C 2.789062 -6.234375 3.007812 -6.191406 3.21875 -6.109375 C 3.4375 -6.023438 3.625 -5.910156 3.78125 -5.765625 C 3.945312 -5.628906 4.078125 -5.457031 4.171875 -5.25 C 4.265625 -5.050781 4.3125 -4.828125 4.3125 -4.578125 C 4.3125 -4.253906 4.242188 -3.953125 4.109375 -3.671875 C 3.972656 -3.390625 3.789062 -3.144531 3.5625 -2.9375 C 3.332031 -2.726562 3.066406 -2.5625 2.765625 -2.4375 C 2.472656 -2.3125 2.171875 -2.238281 1.859375 -2.21875 C 1.890625 -2.019531 1.972656 -1.875 2.109375 -1.78125 C 2.242188 -1.695312 2.40625 -1.65625 2.59375 -1.65625 C 2.726562 -1.65625 2.859375 -1.6875 2.984375 -1.75 C 3.117188 -1.820312 3.25 -1.898438 3.375 -1.984375 C 3.5 -2.078125 3.617188 -2.15625 3.734375 -2.21875 C 3.859375 -2.289062 3.984375 -2.328125 4.109375 -2.328125 C 4.242188 -2.328125 4.363281 -2.28125 4.46875 -2.1875 C 4.582031 -2.101562 4.640625 -1.988281 4.640625 -1.84375 Z M 2.96875 -4.375 C 2.96875 -4.46875 2.941406 -4.5625 2.890625 -4.65625 C 2.847656 -4.75 2.773438 -4.796875 2.671875 -4.796875 C 2.515625 -4.796875 2.382812 -4.753906 2.28125 -4.671875 C 2.175781 -4.597656 2.085938 -4.5 2.015625 -4.375 C 1.953125 -4.257812 1.898438 -4.128906 1.859375 -3.984375 C 1.828125 -3.847656 1.804688 -3.722656 1.796875 -3.609375 C 1.890625 -3.628906 2.003906 -3.65625 2.140625 -3.6875 C 2.273438 -3.726562 2.398438 -3.773438 2.515625 -3.828125 C 2.640625 -3.890625 2.742188 -3.960938 2.828125 -4.046875 C 2.921875 -4.140625 2.96875 -4.25 2.96875 -4.375 Z M 2.96875 -4.375 "/></g></g></g><g fill="#c3c9d3" fill-opacity="1"><g transform="translate(194.765906, 52.523351)"><g><path d="M 3.34375 -5.6875 C 3.34375 -5.488281 3.273438 -5.335938 3.140625 -5.234375 C 3.003906 -5.140625 2.851562 -5.050781 2.6875 -4.96875 C 2.519531 -4.882812 2.367188 -4.78125 2.234375 -4.65625 C 2.097656 -4.539062 2.03125 -4.367188 2.03125 -4.140625 C 2.03125 -4.015625 2.0625 -3.90625 2.125 -3.8125 C 2.1875 -3.726562 2.257812 -3.648438 2.34375 -3.578125 C 2.425781 -3.503906 2.519531 -3.425781 2.625 -3.34375 C 2.726562 -3.269531 2.820312 -3.1875 2.90625 -3.09375 C 3 -3 3.070312 -2.878906 3.125 -2.734375 C 3.1875 -2.597656 3.21875 -2.429688 3.21875 -2.234375 C 3.21875 -1.941406 3.140625 -1.65625 2.984375 -1.375 C 2.835938 -1.101562 2.648438 -0.859375 2.421875 -0.640625 C 2.191406 -0.421875 1.929688 -0.242188 1.640625 -0.109375 C 1.347656 0.015625 1.0625 0.078125 0.78125 0.078125 C 0.664062 0.078125 0.550781 0.0664062 0.4375 0.046875 C 0.320312 0.0351562 0.21875 0.0078125 0.125 -0.03125 C 0.03125 -0.0820312 -0.046875 -0.148438 -0.109375 -0.234375 C -0.171875 -0.328125 -0.203125 -0.441406 -0.203125 -0.578125 C -0.203125 -0.773438 -0.164062 -0.925781 -0.09375 -1.03125 C -0.0195312 -1.132812 0.0703125 -1.21875 0.1875 -1.28125 C 0.3125 -1.34375 0.441406 -1.390625 0.578125 -1.421875 C 0.710938 -1.460938 0.835938 -1.507812 0.953125 -1.5625 C 1.066406 -1.613281 1.160156 -1.679688 1.234375 -1.765625 C 1.316406 -1.847656 1.359375 -1.960938 1.359375 -2.109375 C 1.359375 -2.253906 1.300781 -2.40625 1.1875 -2.5625 C 1.070312 -2.71875 0.941406 -2.882812 0.796875 -3.0625 C 0.660156 -3.238281 0.535156 -3.425781 0.421875 -3.625 C 0.316406 -3.820312 0.265625 -4.039062 0.265625 -4.28125 C 0.265625 -4.582031 0.320312 -4.859375 0.4375 -5.109375 C 0.5625 -5.359375 0.722656 -5.578125 0.921875 -5.765625 C 1.128906 -5.953125 1.363281 -6.097656 1.625 -6.203125 C 1.882812 -6.304688 2.160156 -6.359375 2.453125 -6.359375 C 2.566406 -6.359375 2.675781 -6.347656 2.78125 -6.328125 C 2.882812 -6.304688 2.976562 -6.269531 3.0625 -6.21875 C 3.144531 -6.164062 3.210938 -6.097656 3.265625 -6.015625 C 3.316406 -5.929688 3.34375 -5.820312 3.34375 -5.6875 Z M 3.34375 -5.6875 "/></g></g></g><g fill="#c3c9d3" fill-opacity="1"><g transform="translate(198.210944, 52.523351)"><g><path d="M 4.90625 -5.5625 C 4.90625 -5.375 4.851562 -5.175781 4.75 -4.96875 C 4.65625 -4.769531 4.535156 -4.570312 4.390625 -4.375 C 4.242188 -4.1875 4.09375 -4.003906 3.9375 -3.828125 C 3.789062 -3.648438 3.65625 -3.488281 3.53125 -3.34375 C 3.632812 -3.1875 3.757812 -2.984375 3.90625 -2.734375 C 4.050781 -2.484375 4.1875 -2.21875 4.3125 -1.9375 C 4.445312 -1.65625 4.5625 -1.378906 4.65625 -1.109375 C 4.75 -0.835938 4.796875 -0.613281 4.796875 -0.4375 C 4.796875 -0.289062 4.75 -0.15625 4.65625 -0.03125 C 4.5625 0.0820312 4.4375 0.140625 4.28125 0.140625 C 4.164062 0.140625 4.046875 0.09375 3.921875 0 C 3.804688 -0.101562 3.6875 -0.234375 3.5625 -0.390625 C 3.445312 -0.554688 3.332031 -0.738281 3.21875 -0.9375 C 3.101562 -1.132812 3 -1.332031 2.90625 -1.53125 C 2.8125 -1.726562 2.726562 -1.910156 2.65625 -2.078125 C 2.59375 -2.242188 2.539062 -2.378906 2.5 -2.484375 C 2.40625 -2.390625 2.304688 -2.3125 2.203125 -2.25 C 2.109375 -2.195312 2.007812 -2.132812 1.90625 -2.0625 C 1.90625 -1.914062 1.898438 -1.710938 1.890625 -1.453125 C 1.890625 -1.191406 1.863281 -0.929688 1.8125 -0.671875 C 1.757812 -0.421875 1.671875 -0.195312 1.546875 0 C 1.429688 0.1875 1.257812 0.28125 1.03125 0.28125 C 0.851562 0.28125 0.710938 0.195312 0.609375 0.03125 C 0.515625 -0.125 0.445312 -0.3125 0.40625 -0.53125 C 0.363281 -0.75 0.335938 -0.96875 0.328125 -1.1875 C 0.328125 -1.414062 0.328125 -1.585938 0.328125 -1.703125 C 0.328125 -2.210938 0.335938 -2.722656 0.359375 -3.234375 C 0.390625 -3.742188 0.40625 -4.253906 0.40625 -4.765625 C 0.40625 -4.878906 0.40625 -5.03125 0.40625 -5.21875 C 0.414062 -5.414062 0.429688 -5.625 0.453125 -5.84375 C 0.472656 -6.0625 0.503906 -6.285156 0.546875 -6.515625 C 0.585938 -6.742188 0.644531 -6.945312 0.71875 -7.125 C 0.800781 -7.3125 0.898438 -7.460938 1.015625 -7.578125 C 1.140625 -7.691406 1.285156 -7.75 1.453125 -7.75 C 1.578125 -7.75 1.679688 -7.703125 1.765625 -7.609375 C 1.859375 -7.515625 1.929688 -7.394531 1.984375 -7.25 C 2.035156 -7.101562 2.070312 -6.941406 2.09375 -6.765625 C 2.113281 -6.585938 2.128906 -6.410156 2.140625 -6.234375 C 2.148438 -6.054688 2.15625 -5.890625 2.15625 -5.734375 C 2.15625 -5.585938 2.15625 -5.46875 2.15625 -5.375 C 2.15625 -5.3125 2.15625 -5.21875 2.15625 -5.09375 C 2.15625 -4.976562 2.148438 -4.851562 2.140625 -4.71875 C 2.140625 -4.59375 2.140625 -4.472656 2.140625 -4.359375 C 2.140625 -4.253906 2.144531 -4.175781 2.15625 -4.125 C 2.207031 -4.125 2.28125 -4.171875 2.375 -4.265625 C 2.476562 -4.359375 2.59375 -4.476562 2.71875 -4.625 C 2.84375 -4.769531 2.976562 -4.921875 3.125 -5.078125 C 3.28125 -5.242188 3.429688 -5.398438 3.578125 -5.546875 C 3.734375 -5.691406 3.882812 -5.8125 4.03125 -5.90625 C 4.1875 -6 4.332031 -6.046875 4.46875 -6.046875 C 4.601562 -6.046875 4.707031 -5.992188 4.78125 -5.890625 C 4.863281 -5.796875 4.90625 -5.6875 4.90625 -5.5625 Z M 4.90625 -5.5625 "/></g></g></g><g fill="#c3c9d3" fill-opacity="1"><g transform="translate(203.166419, 52.523351)"><g/></g></g><g fill="#c3c9d3" fill-opacity="1"><g transform="translate(205.659674, 52.523351)"><g><path d="M 3.890625 -7.03125 C 3.890625 -6.894531 3.859375 -6.773438 3.796875 -6.671875 C 3.742188 -6.566406 3.664062 -6.476562 3.5625 -6.40625 C 3.46875 -6.332031 3.363281 -6.269531 3.25 -6.21875 C 3.132812 -6.175781 3.019531 -6.144531 2.90625 -6.125 C 2.894531 -5.34375 2.863281 -4.585938 2.8125 -3.859375 C 2.769531 -3.140625 2.703125 -2.394531 2.609375 -1.625 L 2.671875 -1.625 C 2.773438 -1.625 2.878906 -1.609375 2.984375 -1.578125 C 3.097656 -1.554688 3.195312 -1.515625 3.28125 -1.453125 C 3.363281 -1.398438 3.429688 -1.332031 3.484375 -1.25 C 3.535156 -1.164062 3.5625 -1.0625 3.5625 -0.9375 C 3.5625 -0.769531 3.507812 -0.628906 3.40625 -0.515625 C 3.3125 -0.398438 3.179688 -0.300781 3.015625 -0.21875 C 2.859375 -0.132812 2.679688 -0.0625 2.484375 0 C 2.285156 0.0507812 2.082031 0.09375 1.875 0.125 C 1.675781 0.15625 1.488281 0.175781 1.3125 0.1875 C 1.132812 0.195312 0.988281 0.203125 0.875 0.203125 C 0.789062 0.203125 0.6875 0.195312 0.5625 0.1875 C 0.445312 0.1875 0.335938 0.164062 0.234375 0.125 C 0.128906 0.09375 0.0390625 0.046875 -0.03125 -0.015625 C -0.113281 -0.0859375 -0.15625 -0.179688 -0.15625 -0.296875 C -0.15625 -0.441406 -0.125 -0.570312 -0.0625 -0.6875 C -0.0078125 -0.800781 0.0625 -0.898438 0.15625 -0.984375 C 0.257812 -1.078125 0.367188 -1.148438 0.484375 -1.203125 C 0.609375 -1.265625 0.734375 -1.304688 0.859375 -1.328125 C 0.910156 -1.710938 0.957031 -2.09375 1 -2.46875 C 1.039062 -2.84375 1.066406 -3.222656 1.078125 -3.609375 C 1.085938 -4.003906 1.097656 -4.390625 1.109375 -4.765625 C 1.128906 -5.148438 1.144531 -5.535156 1.15625 -5.921875 C 1.113281 -5.921875 1.070312 -5.914062 1.03125 -5.90625 C 0.988281 -5.90625 0.945312 -5.90625 0.90625 -5.90625 C 0.8125 -5.90625 0.707031 -5.914062 0.59375 -5.9375 C 0.488281 -5.957031 0.382812 -5.992188 0.28125 -6.046875 C 0.1875 -6.097656 0.109375 -6.160156 0.046875 -6.234375 C -0.015625 -6.316406 -0.046875 -6.414062 -0.046875 -6.53125 C -0.046875 -6.757812 0.046875 -6.945312 0.234375 -7.09375 C 0.429688 -7.25 0.664062 -7.367188 0.9375 -7.453125 C 1.21875 -7.535156 1.5 -7.59375 1.78125 -7.625 C 2.0625 -7.65625 2.289062 -7.671875 2.46875 -7.671875 C 2.5625 -7.671875 2.6875 -7.664062 2.84375 -7.65625 C 3 -7.644531 3.15625 -7.613281 3.3125 -7.5625 C 3.46875 -7.507812 3.601562 -7.441406 3.71875 -7.359375 C 3.832031 -7.273438 3.890625 -7.164062 3.890625 -7.03125 Z M 3.890625 -7.03125 "/></g></g></g><g fill="#c3c9d3" fill-opacity="1"><g transform="translate(209.384039, 52.523351)"><g><path d="M 4.796875 -7.0625 C 4.796875 -6.894531 4.726562 -6.738281 4.59375 -6.59375 C 4.457031 -6.457031 4.289062 -6.332031 4.09375 -6.21875 C 3.90625 -6.113281 3.710938 -6.023438 3.515625 -5.953125 C 3.316406 -5.890625 3.148438 -5.84375 3.015625 -5.8125 C 2.960938 -5.28125 2.921875 -4.75 2.890625 -4.21875 C 2.859375 -3.695312 2.84375 -3.171875 2.84375 -2.640625 C 2.84375 -2.359375 2.847656 -2.078125 2.859375 -1.796875 C 2.878906 -1.523438 2.890625 -1.25 2.890625 -0.96875 C 2.890625 -0.84375 2.875 -0.707031 2.84375 -0.5625 C 2.820312 -0.414062 2.78125 -0.273438 2.71875 -0.140625 C 2.664062 -0.015625 2.585938 0.09375 2.484375 0.1875 C 2.378906 0.28125 2.25 0.328125 2.09375 0.328125 C 1.914062 0.328125 1.773438 0.273438 1.671875 0.171875 C 1.566406 0.0664062 1.484375 -0.0507812 1.421875 -0.1875 C 1.359375 -0.332031 1.316406 -0.488281 1.296875 -0.65625 C 1.273438 -0.820312 1.265625 -0.96875 1.265625 -1.09375 C 1.253906 -1.507812 1.242188 -1.925781 1.234375 -2.34375 C 1.234375 -2.757812 1.234375 -3.175781 1.234375 -3.59375 C 1.234375 -3.945312 1.234375 -4.289062 1.234375 -4.625 C 1.234375 -4.96875 1.234375 -5.316406 1.234375 -5.671875 C 1.140625 -5.660156 1.039062 -5.648438 0.9375 -5.640625 C 0.84375 -5.628906 0.742188 -5.625 0.640625 -5.625 C 0.554688 -5.625 0.445312 -5.628906 0.3125 -5.640625 C 0.175781 -5.660156 0.046875 -5.691406 -0.078125 -5.734375 C -0.203125 -5.785156 -0.304688 -5.847656 -0.390625 -5.921875 C -0.484375 -6.003906 -0.53125 -6.109375 -0.53125 -6.234375 C -0.53125 -6.441406 -0.445312 -6.625 -0.28125 -6.78125 C -0.125 -6.9375 0.078125 -7.070312 0.328125 -7.1875 C 0.585938 -7.300781 0.867188 -7.394531 1.171875 -7.46875 C 1.484375 -7.550781 1.785156 -7.613281 2.078125 -7.65625 C 2.378906 -7.707031 2.65625 -7.742188 2.90625 -7.765625 C 3.164062 -7.785156 3.363281 -7.796875 3.5 -7.796875 C 3.625 -7.796875 3.757812 -7.789062 3.90625 -7.78125 C 4.0625 -7.769531 4.203125 -7.738281 4.328125 -7.6875 C 4.460938 -7.632812 4.570312 -7.5625 4.65625 -7.46875 C 4.75 -7.375 4.796875 -7.238281 4.796875 -7.0625 Z M 4.796875 -7.0625 "/></g></g></g></svg>