<svg xmlns="http://www.w3.org/2000/svg" xmlns:xlink="http://www.w3.org/1999/xlink" width="500" zoomAndPan="magnify" viewBox="0 0 375 374.999991" height="500" preserveAspectRatio="xMidYMid meet" version="1.0"><defs><g/><clipPath id="af222b4b70"><path d="M 248.234375 214.511719 L 277.484375 214.511719 L 277.484375 243.761719 L 248.234375 243.761719 Z M 248.234375 214.511719 " clip-rule="nonzero"/></clipPath><clipPath id="c425bcd9e4"><path d="M 113 184 L 262.992188 184 L 262.992188 205.683594 L 113 205.683594 Z M 113 184 " clip-rule="nonzero"/></clipPath><clipPath id="f9b6115773"><path d="M 113 189 L 262.992188 189 L 262.992188 205.683594 L 113 205.683594 Z M 113 189 " clip-rule="nonzero"/></clipPath><clipPath id="683aa386a1"><path d="M 167 55.683594 L 241 55.683594 L 241 130 L 167 130 Z M 167 55.683594 " clip-rule="nonzero"/></clipPath></defs><g fill="#004aad" fill-opacity="1"><g transform="translate(119.305413, 243.517688)"><g><path d="M 11.921875 0.390625 C 10.015625 0.390625 8.316406 0.15625 6.828125 -0.3125 C 5.347656 -0.789062 3.960938 -1.601562 2.671875 -2.75 C 1.953125 -3.382812 1.59375 -4.082031 1.59375 -4.84375 C 1.59375 -5.457031 1.816406 -5.992188 2.265625 -6.453125 C 2.710938 -6.921875 3.253906 -7.15625 3.890625 -7.15625 C 4.398438 -7.15625 4.851562 -7 5.25 -6.6875 C 6.3125 -5.8125 7.34375 -5.171875 8.34375 -4.765625 C 9.351562 -4.367188 10.546875 -4.171875 11.921875 -4.171875 C 13.410156 -4.171875 14.691406 -4.5 15.765625 -5.15625 C 16.835938 -5.820312 17.375 -6.648438 17.375 -7.640625 C 17.375 -8.828125 16.84375 -9.757812 15.78125 -10.4375 C 14.726562 -11.113281 13.046875 -11.625 10.734375 -11.96875 C 4.929688 -12.8125 2.03125 -15.515625 2.03125 -20.078125 C 2.03125 -21.753906 2.46875 -23.207031 3.34375 -24.4375 C 4.21875 -25.664062 5.410156 -26.601562 6.921875 -27.25 C 8.429688 -27.90625 10.113281 -28.234375 11.96875 -28.234375 C 13.632812 -28.234375 15.203125 -27.976562 16.671875 -27.46875 C 18.148438 -26.96875 19.378906 -26.304688 20.359375 -25.484375 C 21.128906 -24.878906 21.515625 -24.175781 21.515625 -23.375 C 21.515625 -22.769531 21.285156 -22.234375 20.828125 -21.765625 C 20.378906 -21.304688 19.851562 -21.078125 19.25 -21.078125 C 18.851562 -21.078125 18.492188 -21.195312 18.171875 -21.4375 C 17.484375 -21.988281 16.519531 -22.492188 15.28125 -22.953125 C 14.050781 -23.421875 12.945312 -23.65625 11.96875 -23.65625 C 10.300781 -23.65625 9.007812 -23.34375 8.09375 -22.71875 C 7.175781 -22.101562 6.71875 -21.289062 6.71875 -20.28125 C 6.71875 -19.144531 7.1875 -18.285156 8.125 -17.703125 C 9.070312 -17.117188 10.550781 -16.640625 12.5625 -16.265625 C 14.84375 -15.867188 16.664062 -15.359375 18.03125 -14.734375 C 19.394531 -14.109375 20.421875 -13.257812 21.109375 -12.1875 C 21.804688 -11.113281 22.15625 -9.6875 22.15625 -7.90625 C 22.15625 -6.238281 21.679688 -4.773438 20.734375 -3.515625 C 19.796875 -2.253906 18.546875 -1.285156 16.984375 -0.609375 C 15.421875 0.0546875 13.734375 0.390625 11.921875 0.390625 Z M 11.921875 0.390625 "/></g></g></g><g fill="#004aad" fill-opacity="1"><g transform="translate(143.043192, 243.517688)"><g><path d="M 7.953125 -2.421875 C 7.953125 -1.734375 7.695312 -1.15625 7.1875 -0.6875 C 6.6875 -0.226562 6.109375 0 5.453125 0 C 4.734375 0 4.140625 -0.226562 3.671875 -0.6875 C 3.210938 -1.15625 2.984375 -1.734375 2.984375 -2.421875 L 2.984375 -25.40625 C 2.984375 -26.09375 3.21875 -26.664062 3.6875 -27.125 C 4.164062 -27.59375 4.78125 -27.828125 5.53125 -27.828125 C 6.1875 -27.828125 6.753906 -27.59375 7.234375 -27.125 C 7.710938 -26.664062 7.953125 -26.09375 7.953125 -25.40625 Z M 7.953125 -2.421875 "/></g></g></g><g fill="#004aad" fill-opacity="1"><g transform="translate(153.977678, 243.517688)"><g><path d="M 23.140625 -27.828125 C 23.878906 -27.828125 24.472656 -27.601562 24.921875 -27.15625 C 25.378906 -26.707031 25.609375 -26.125 25.609375 -25.40625 L 25.609375 -2.421875 C 25.609375 -1.734375 25.367188 -1.15625 24.890625 -0.6875 C 24.410156 -0.226562 23.800781 0 23.0625 0 C 22.394531 0 21.820312 -0.226562 21.34375 -0.6875 C 20.875 -1.15625 20.640625 -1.734375 20.640625 -2.421875 L 20.640625 -11.6875 L 7.953125 -11.6875 L 7.953125 -2.421875 C 7.953125 -1.734375 7.695312 -1.15625 7.1875 -0.6875 C 6.6875 -0.226562 6.109375 0 5.453125 0 C 4.734375 0 4.140625 -0.226562 3.671875 -0.6875 C 3.210938 -1.15625 2.984375 -1.734375 2.984375 -2.421875 L 2.984375 -25.40625 C 2.984375 -26.09375 3.21875 -26.664062 3.6875 -27.125 C 4.164062 -27.59375 4.78125 -27.828125 5.53125 -27.828125 C 6.1875 -27.828125 6.753906 -27.59375 7.234375 -27.125 C 7.710938 -26.664062 7.953125 -26.09375 7.953125 -25.40625 L 7.953125 -16.265625 L 20.640625 -16.265625 L 20.640625 -25.40625 C 20.640625 -26.09375 20.890625 -26.664062 21.390625 -27.125 C 21.898438 -27.59375 22.484375 -27.828125 23.140625 -27.828125 Z M 23.140625 -27.828125 "/></g></g></g><g fill="#004aad" fill-opacity="1"><g transform="translate(182.566402, 243.517688)"><g><path d="M 18.734375 -4.578125 C 19.421875 -4.578125 19.992188 -4.34375 20.453125 -3.875 C 20.921875 -3.414062 21.15625 -2.878906 21.15625 -2.265625 C 21.15625 -1.597656 20.921875 -1.050781 20.453125 -0.625 C 19.992188 -0.207031 19.421875 0 18.734375 0 L 5.40625 0 C 4.71875 0 4.140625 -0.226562 3.671875 -0.6875 C 3.210938 -1.15625 2.984375 -1.734375 2.984375 -2.421875 L 2.984375 -25.40625 C 2.984375 -26.09375 3.210938 -26.664062 3.671875 -27.125 C 4.140625 -27.59375 4.71875 -27.828125 5.40625 -27.828125 L 18.734375 -27.828125 C 19.421875 -27.828125 19.992188 -27.609375 20.453125 -27.171875 C 20.921875 -26.742188 21.15625 -26.179688 21.15625 -25.484375 C 21.15625 -24.828125 20.925781 -24.289062 20.46875 -23.875 C 20.019531 -23.46875 19.441406 -23.265625 18.734375 -23.265625 L 7.953125 -23.265625 L 7.953125 -16.5 L 16.9375 -16.5 C 17.625 -16.5 18.195312 -16.28125 18.65625 -15.84375 C 19.125 -15.40625 19.359375 -14.84375 19.359375 -14.15625 C 19.359375 -13.488281 19.132812 -12.945312 18.6875 -12.53125 C 18.238281 -12.125 17.65625 -11.921875 16.9375 -11.921875 L 7.953125 -11.921875 L 7.953125 -4.578125 Z M 18.734375 -4.578125 "/></g></g></g><g fill="#004aad" fill-opacity="1"><g transform="translate(205.310137, 243.517688)"><g><path d="M 14.46875 -27.828125 C 15.820312 -27.828125 17.109375 -27.421875 18.328125 -26.609375 C 19.546875 -25.804688 20.523438 -24.722656 21.265625 -23.359375 C 22.015625 -21.992188 22.390625 -20.503906 22.390625 -18.890625 C 22.390625 -17.296875 22.015625 -15.804688 21.265625 -14.421875 C 20.523438 -13.046875 19.546875 -11.953125 18.328125 -11.140625 C 17.109375 -10.335938 15.820312 -9.9375 14.46875 -9.9375 L 7.5625 -9.9375 L 7.5625 -2.421875 C 7.5625 -1.710938 7.347656 -1.128906 6.921875 -0.671875 C 6.492188 -0.222656 5.9375 0 5.25 0 C 4.582031 0 4.035156 -0.226562 3.609375 -0.6875 C 3.191406 -1.15625 2.984375 -1.734375 2.984375 -2.421875 L 2.984375 -25.40625 C 2.984375 -26.09375 3.210938 -26.664062 3.671875 -27.125 C 4.140625 -27.59375 4.71875 -27.828125 5.40625 -27.828125 Z M 14.46875 -14.46875 C 14.976562 -14.46875 15.476562 -14.679688 15.96875 -15.109375 C 16.457031 -15.535156 16.851562 -16.085938 17.15625 -16.765625 C 17.457031 -17.441406 17.609375 -18.148438 17.609375 -18.890625 C 17.609375 -19.628906 17.457031 -20.335938 17.15625 -21.015625 C 16.851562 -21.691406 16.457031 -22.234375 15.96875 -22.640625 C 15.476562 -23.054688 14.976562 -23.265625 14.46875 -23.265625 L 7.5625 -23.265625 L 7.5625 -14.46875 Z M 14.46875 -14.46875 "/></g></g></g><g fill="#004aad" fill-opacity="1"><g transform="translate(229.286491, 243.517688)"><g><path d="M 7.953125 -2.421875 C 7.953125 -1.734375 7.695312 -1.15625 7.1875 -0.6875 C 6.6875 -0.226562 6.109375 0 5.453125 0 C 4.734375 0 4.140625 -0.226562 3.671875 -0.6875 C 3.210938 -1.15625 2.984375 -1.734375 2.984375 -2.421875 L 2.984375 -25.40625 C 2.984375 -26.09375 3.21875 -26.664062 3.6875 -27.125 C 4.164062 -27.59375 4.78125 -27.828125 5.53125 -27.828125 C 6.1875 -27.828125 6.753906 -27.59375 7.234375 -27.125 C 7.710938 -26.664062 7.953125 -26.09375 7.953125 -25.40625 Z M 7.953125 -2.421875 "/></g></g></g><g clip-path="url(#af222b4b70)"><path fill="#004aad" d="M 262.964844 244.019531 C 254.832031 244.019531 248.234375 237.375 248.234375 229.242188 C 248.234375 221.109375 254.832031 214.511719 262.964844 214.511719 C 271.101562 214.511719 277.695312 221.109375 277.695312 229.242188 C 277.742188 237.375 271.101562 244.019531 262.964844 244.019531 Z M 262.964844 216.316406 C 255.871094 216.316406 250.042969 222.148438 250.042969 229.242188 C 250.042969 236.335938 255.871094 242.164062 262.964844 242.164062 C 270.058594 242.164062 275.890625 236.335938 275.890625 229.242188 C 275.890625 222.148438 270.105469 216.316406 262.964844 216.316406 Z M 262.964844 216.316406 " fill-opacity="1" fill-rule="nonzero"/></g><path fill="#004aad" d="M 265.675781 228.066406 C 264.503906 230.507812 261.292969 230.507812 260.117188 228.066406 C 259.757812 227.296875 258.582031 227.976562 258.945312 228.746094 C 260.527344 232.089844 265.226562 232.089844 266.851562 228.746094 C 267.257812 227.976562 266.082031 227.296875 265.675781 228.066406 Z M 265.675781 228.066406 " fill-opacity="1" fill-rule="nonzero"/><path fill="#004aad" d="M 259.757812 224.269531 C 259.757812 224.445312 259.722656 224.613281 259.65625 224.773438 C 259.589844 224.933594 259.496094 225.074219 259.375 225.199219 C 259.25 225.320312 259.109375 225.414062 258.949219 225.480469 C 258.789062 225.546875 258.621094 225.582031 258.445312 225.582031 C 258.273438 225.582031 258.105469 225.546875 257.945312 225.480469 C 257.785156 225.414062 257.644531 225.320312 257.519531 225.199219 C 257.398438 225.074219 257.304688 224.933594 257.234375 224.773438 C 257.167969 224.613281 257.136719 224.445312 257.136719 224.269531 C 257.136719 224.097656 257.167969 223.929688 257.234375 223.769531 C 257.304688 223.609375 257.398438 223.46875 257.519531 223.34375 C 257.644531 223.222656 257.785156 223.125 257.945312 223.058594 C 258.105469 222.992188 258.273438 222.960938 258.445312 222.960938 C 258.621094 222.960938 258.789062 222.992188 258.949219 223.058594 C 259.109375 223.125 259.25 223.222656 259.375 223.34375 C 259.496094 223.46875 259.589844 223.609375 259.65625 223.769531 C 259.722656 223.929688 259.757812 224.097656 259.757812 224.269531 Z M 259.757812 224.269531 " fill-opacity="1" fill-rule="nonzero"/><path fill="#004aad" d="M 269.5625 224.269531 C 269.5625 224.445312 269.53125 224.613281 269.464844 224.773438 C 269.398438 224.933594 269.300781 225.074219 269.179688 225.199219 C 269.054688 225.320312 268.914062 225.414062 268.753906 225.480469 C 268.59375 225.546875 268.425781 225.582031 268.253906 225.582031 C 268.078125 225.582031 267.910156 225.546875 267.75 225.480469 C 267.589844 225.414062 267.449219 225.320312 267.328125 225.199219 C 267.203125 225.074219 267.109375 224.933594 267.042969 224.773438 C 266.976562 224.613281 266.941406 224.445312 266.941406 224.269531 C 266.941406 224.097656 266.976562 223.929688 267.042969 223.769531 C 267.109375 223.609375 267.203125 223.46875 267.328125 223.34375 C 267.449219 223.222656 267.589844 223.125 267.75 223.058594 C 267.910156 222.992188 268.078125 222.960938 268.253906 222.960938 C 268.425781 222.960938 268.59375 222.992188 268.753906 223.058594 C 268.914062 223.125 269.054688 223.222656 269.179688 223.34375 C 269.300781 223.46875 269.398438 223.609375 269.464844 223.769531 C 269.53125 223.929688 269.5625 224.097656 269.5625 224.269531 Z M 269.5625 224.269531 " fill-opacity="1" fill-rule="nonzero"/><path fill="#d5eaff" d="M 134.597656 90.066406 L 241.40625 90.066406 C 247.210938 90.066406 251.96875 94.8125 251.96875 100.636719 L 251.96875 173.949219 C 251.96875 179.757812 247.214844 184.523438 241.40625 184.523438 L 134.597656 184.523438 C 128.792969 184.523438 124.035156 179.761719 124.035156 173.949219 L 124.035156 100.636719 C 124.035156 94.816406 128.789062 90.066406 134.597656 90.066406 Z M 134.597656 90.066406 " fill-opacity="1" fill-rule="evenodd"/><path fill="#b0d8ff" d="M 130.214844 184.386719 C 181.117188 180.046875 244.199219 160.648438 251.957031 98.480469 C 251.96875 98.558594 251.96875 98.632812 251.96875 98.710938 L 251.96875 173.707031 C 251.96875 179.652344 247.105469 184.519531 241.167969 184.519531 L 131.902344 184.519531 C 131.332031 184.523438 130.765625 184.472656 130.214844 184.386719 Z M 130.214844 184.386719 " fill-opacity="1" fill-rule="evenodd"/><path fill="#305675" d="M 251.964844 168.996094 L 251.964844 173.949219 C 251.964844 179.757812 247.210938 184.523438 241.40625 184.523438 L 134.597656 184.523438 C 128.792969 184.523438 124.035156 179.761719 124.035156 173.949219 L 124.035156 168.996094 Z M 251.964844 168.996094 " fill-opacity="1" fill-rule="evenodd"/><path fill="#254259" d="M 251.964844 168.996094 L 251.964844 173.707031 C 251.964844 179.652344 247.101562 184.519531 241.164062 184.519531 L 134.597656 184.519531 C 133.742188 184.519531 132.902344 184.414062 132.09375 184.207031 C 152.894531 182.300781 175.5625 177.847656 195.582031 168.992188 L 251.964844 168.992188 Z M 251.964844 168.996094 " fill-opacity="1" fill-rule="evenodd"/><g clip-path="url(#c425bcd9e4)"><path fill="#4e7da3" d="M 123.632812 184.472656 L 252.339844 184.472656 C 258.175781 184.472656 262.9375 189.242188 262.9375 195.074219 C 262.9375 200.90625 258.175781 205.675781 252.339844 205.675781 L 123.632812 205.675781 C 117.808594 205.675781 113.046875 200.90625 113.046875 195.074219 C 113.046875 189.242188 117.808594 184.472656 123.632812 184.472656 Z M 123.632812 184.472656 " fill-opacity="1" fill-rule="evenodd"/></g><g clip-path="url(#f9b6115773)"><path fill="#3c688c" d="M 261.554688 189.839844 C 262.429688 191.390625 262.9375 193.175781 262.9375 195.070312 C 262.9375 200.902344 258.175781 205.671875 252.339844 205.671875 L 123.632812 205.671875 C 117.808594 205.671875 113.046875 200.902344 113.046875 195.070312 C 113.046875 193.175781 113.554688 191.390625 114.429688 189.839844 C 116.261719 193.046875 119.703125 195.21875 123.632812 195.21875 L 252.339844 195.21875 C 256.277344 195.21875 259.722656 193.046875 261.554688 189.839844 Z M 261.554688 189.839844 " fill-opacity="1" fill-rule="evenodd"/></g><path fill="#63bbff" d="M 187.996094 177.535156 C 192.652344 177.535156 196.445312 173.738281 196.445312 169.082031 C 196.445312 164.417969 192.652344 160.621094 187.996094 160.621094 C 183.347656 160.621094 179.554688 164.417969 179.554688 169.082031 C 179.554688 173.738281 183.347656 177.535156 187.996094 177.535156 Z M 187.996094 177.535156 " fill-opacity="1" fill-rule="evenodd"/><path fill="#3f9fe8" d="M 192.097656 161.683594 C 194.6875 163.125 196.445312 165.894531 196.445312 169.082031 C 196.445312 173.746094 192.664062 177.535156 187.996094 177.535156 C 184.652344 177.535156 181.777344 175.597656 180.398438 172.785156 C 181.613281 173.457031 183.007812 173.847656 184.5 173.847656 C 189.160156 173.847656 192.941406 170.058594 192.941406 165.382812 C 192.941406 164.050781 192.636719 162.796875 192.097656 161.683594 Z M 192.097656 161.683594 " fill-opacity="1" fill-rule="evenodd"/><path fill="#d5eaff" d="M 170.160156 184.472656 L 205.820312 184.472656 L 205.820312 193.484375 L 170.160156 193.484375 Z M 170.160156 184.472656 " fill-opacity="1" fill-rule="evenodd"/><g clip-path="url(#683aa386a1)"><path fill="#ffc400" d="M 220.992188 59.488281 L 221.398438 59.101562 C 226.632812 56.972656 232.851562 58.109375 237 62.4375 C 239.871094 65.441406 241.167969 69.375 240.929688 73.222656 C 240.871094 73.964844 240.417969 74.582031 239.707031 74.839844 C 239.003906 75.101562 238.253906 74.929688 237.734375 74.378906 L 232.351562 68.757812 C 232.082031 68.480469 231.714844 68.363281 231.332031 68.457031 L 225.242188 69.949219 C 224.863281 70.046875 224.585938 70.316406 224.480469 70.691406 L 222.730469 76.714844 C 222.625 77.09375 222.707031 77.46875 222.980469 77.746094 L 228.367188 83.375 C 228.886719 83.914062 229.035156 84.664062 228.746094 85.371094 C 228.457031 86.0625 227.820312 86.5 227.070312 86.503906 C 223.230469 86.601562 219.359375 85.128906 216.484375 82.128906 C 212.625 78.089844 211.605469 72.375 213.375 67.441406 C 210.640625 66.496094 207.695312 65.988281 204.632812 65.988281 C 189.839844 65.988281 177.835938 77.996094 177.835938 92.808594 C 177.835938 107.621094 189.839844 119.640625 204.632812 119.640625 C 217.609375 119.640625 228.425781 110.398438 230.902344 98.140625 C 232.875 92.460938 241.882812 93.9375 240.808594 101.011719 C 237.082031 117.570312 222.296875 129.945312 204.632812 129.945312 C 184.152344 129.945312 167.558594 113.320312 167.558594 92.8125 C 167.558594 72.3125 184.152344 55.6875 204.632812 55.6875 C 210.5 55.6875 216.054688 57.058594 220.992188 59.488281 Z M 220.992188 59.488281 " fill-opacity="1" fill-rule="evenodd"/></g><path fill="#ff9609" d="M 233.621094 59.832031 C 234.84375 60.507812 235.980469 61.375 237 62.433594 C 239.871094 65.441406 241.167969 69.375 240.929688 73.21875 C 240.871094 73.960938 240.417969 74.578125 239.707031 74.835938 C 239.003906 75.097656 238.253906 74.925781 237.734375 74.375 L 235.597656 72.148438 C 235.78125 72.136719 235.964844 72.101562 236.148438 72.03125 C 236.851562 71.769531 237.3125 71.15625 237.359375 70.402344 C 237.59375 66.648438 236.367188 62.800781 233.621094 59.832031 Z M 231.214844 68.488281 L 225.238281 69.953125 C 224.859375 70.050781 224.582031 70.320312 224.476562 70.695312 L 222.726562 76.71875 C 222.621094 77.097656 222.703125 77.472656 222.976562 77.75 L 228.367188 83.378906 C 228.886719 83.917969 229.03125 84.667969 228.742188 85.371094 C 228.453125 86.066406 227.820312 86.5 227.066406 86.507812 C 223.226562 86.601562 219.355469 85.132812 216.480469 82.132812 C 216.421875 82.066406 216.355469 82.007812 216.296875 81.9375 C 218.53125 83.171875 221.023438 83.761719 223.507812 83.703125 C 224.257812 83.691406 224.890625 83.261719 225.171875 82.558594 C 225.457031 81.863281 225.316406 81.113281 224.792969 80.570312 L 219.410156 74.945312 C 219.144531 74.667969 219.042969 74.289062 219.160156 73.914062 L 220.910156 67.882812 C 221.015625 67.515625 221.296875 67.25 221.671875 67.152344 L 227.765625 65.660156 C 228.140625 65.566406 228.515625 65.679688 228.777344 65.960938 Z M 209.296875 66.394531 C 207.785156 66.125 206.214844 65.992188 204.625 65.992188 C 189.832031 65.992188 177.828125 78 177.828125 92.8125 C 177.828125 100.558594 181.113281 107.535156 186.367188 112.441406 C 179.078125 107.640625 174.265625 99.394531 174.265625 90.007812 C 174.265625 75.195312 186.261719 63.183594 201.054688 63.183594 C 204.125 63.183594 207.0625 63.695312 209.804688 64.640625 C 209.59375 65.222656 209.433594 65.808594 209.296875 66.394531 Z M 236.863281 94.769531 C 239.277344 95.261719 241.351562 97.410156 240.800781 101.015625 C 237.074219 117.574219 222.289062 129.949219 204.625 129.949219 C 195.171875 129.949219 186.550781 126.402344 179.996094 120.570312 C 185.980469 124.707031 193.238281 127.144531 201.054688 127.144531 C 218.726562 127.144531 233.503906 114.765625 237.234375 98.210938 C 237.441406 96.851562 237.277344 95.703125 236.863281 94.769531 Z M 236.863281 94.769531 " fill-opacity="1" fill-rule="evenodd"/><path fill="#fe5151" d="M 163.460938 97.679688 L 169.460938 97.679688 C 170.5 97.679688 171.316406 98.441406 171.480469 99.453125 L 172.035156 103.078125 C 172.171875 103.925781 172.71875 104.601562 173.558594 104.832031 C 175.019531 105.238281 176.40625 105.796875 177.773438 106.472656 C 178.503906 106.828125 179.332031 106.742188 179.976562 106.242188 L 183.09375 103.8125 C 183.902344 103.175781 185.042969 103.253906 185.769531 103.988281 L 190.410156 108.632812 C 191.132812 109.355469 191.207031 110.492188 190.574219 111.308594 L 188.5625 113.902344 C 188.023438 114.597656 187.953125 115.511719 188.417969 116.273438 C 189.226562 117.613281 189.90625 119.03125 190.457031 120.503906 C 190.734375 121.246094 191.371094 121.746094 192.160156 121.851562 L 197.253906 122.488281 C 198.285156 122.613281 199.035156 123.460938 199.035156 124.496094 L 199.023438 132.964844 C 199.023438 134.007812 198.285156 134.855469 197.25 134.980469 L 192.6875 135.546875 C 191.859375 135.652344 191.199219 136.214844 190.945312 137.023438 C 190.601562 138.179688 190.160156 139.308594 189.644531 140.394531 C 189.300781 141.136719 189.394531 141.929688 189.898438 142.574219 L 192.652344 146.121094 C 193.277344 146.929688 193.199219 148.074219 192.476562 148.800781 L 186.5 154.792969 C 185.769531 155.519531 184.625 155.59375 183.816406 154.957031 L 180.582031 152.429688 C 179.917969 151.921875 179.070312 151.84375 178.332031 152.226562 C 177.136719 152.851562 175.886719 153.382812 174.617188 153.808594 C 173.828125 154.070312 173.300781 154.710938 173.199219 155.53125 L 172.703125 159.570312 C 172.574219 160.589844 171.71875 161.34375 170.691406 161.34375 L 162.230469 161.34375 C 161.199219 161.34375 160.34375 160.59375 160.21875 159.570312 L 159.71875 155.53125 C 159.617188 154.710938 159.097656 154.066406 158.304688 153.808594 C 157.035156 153.382812 155.78125 152.851562 154.589844 152.226562 C 153.847656 151.84375 153 151.917969 152.339844 152.429688 L 149.105469 154.957031 C 148.296875 155.59375 147.152344 155.515625 146.421875 154.792969 L 140.445312 148.800781 C 139.71875 148.074219 139.644531 146.929688 140.269531 146.121094 L 143.023438 142.574219 C 143.523438 141.929688 143.621094 141.140625 143.277344 140.394531 C 142.765625 139.308594 142.320312 138.179688 141.976562 137.023438 C 141.722656 136.214844 141.0625 135.652344 140.234375 135.546875 L 135.667969 134.980469 C 134.640625 134.855469 133.898438 134.007812 133.890625 132.964844 L 133.890625 124.496094 C 133.890625 123.464844 134.640625 122.613281 135.667969 122.488281 L 140.761719 121.851562 C 141.550781 121.746094 142.1875 121.246094 142.46875 120.503906 C 143.019531 119.027344 143.699219 117.613281 144.507812 116.273438 C 144.96875 115.511719 144.902344 114.597656 144.363281 113.902344 L 142.351562 111.308594 C 141.71875 110.492188 141.796875 109.355469 142.515625 108.632812 L 147.152344 103.988281 C 147.882812 103.253906 149.019531 103.175781 149.828125 103.8125 L 152.945312 106.242188 C 153.589844 106.742188 154.421875 106.828125 155.148438 106.472656 C 156.519531 105.800781 157.902344 105.238281 159.367188 104.832031 C 160.207031 104.601562 160.753906 103.929688 160.886719 103.078125 L 161.445312 99.453125 C 161.605469 98.441406 162.421875 97.679688 163.460938 97.679688 Z M 166.453125 113.328125 C 159.023438 113.328125 152.96875 119.324219 152.890625 126.765625 C 152.808594 134.332031 158.898438 140.507812 166.453125 140.507812 C 174.007812 140.507812 180.109375 134.332031 180.027344 126.765625 C 179.953125 119.324219 173.898438 113.328125 166.453125 113.328125 Z M 166.453125 113.328125 " fill-opacity="1" fill-rule="evenodd"/><path fill="#e32b2b" d="M 166.417969 97.679688 L 169.460938 97.679688 C 170.5 97.679688 171.316406 98.441406 171.480469 99.453125 L 172.035156 103.078125 C 172.171875 103.925781 172.71875 104.601562 173.558594 104.832031 C 174.28125 105.039062 174.984375 105.273438 175.675781 105.546875 L 175.523438 105.664062 C 174.878906 106.171875 174.050781 106.261719 173.320312 105.894531 C 171.953125 105.222656 170.566406 104.671875 169.101562 104.265625 C 168.265625 104.035156 167.71875 103.351562 167.582031 102.5 L 167.023438 98.886719 C 166.945312 98.410156 166.726562 97.984375 166.417969 97.679688 Z M 182.316406 104.414062 L 183.097656 103.804688 C 183.90625 103.171875 185.042969 103.25 185.773438 103.980469 L 190.414062 108.625 C 191.136719 109.347656 191.210938 110.484375 190.574219 111.304688 L 188.566406 113.898438 C 188.027344 114.589844 187.957031 115.503906 188.417969 116.265625 C 189.226562 117.605469 189.910156 119.023438 190.460938 120.496094 C 190.703125 121.152344 191.222656 121.613281 191.886719 121.789062 L 187.710938 121.269531 C 186.921875 121.171875 186.285156 120.660156 186.003906 119.917969 C 185.457031 118.453125 184.773438 117.035156 183.964844 115.6875 C 183.503906 114.9375 183.570312 114.023438 184.109375 113.320312 L 186.121094 110.726562 C 186.757812 109.917969 186.679688 108.777344 185.957031 108.046875 Z M 193.078125 121.953125 L 197.253906 122.484375 C 198.285156 122.609375 199.035156 123.457031 199.035156 124.492188 L 199.023438 132.964844 C 199.023438 134.003906 198.285156 134.855469 197.25 134.976562 L 192.6875 135.542969 C 191.859375 135.648438 191.199219 136.210938 190.945312 137.019531 C 190.601562 138.175781 190.160156 139.304688 189.644531 140.390625 C 189.300781 141.132812 189.394531 141.925781 189.898438 142.570312 L 192.652344 146.117188 C 193.277344 146.925781 193.199219 148.070312 192.476562 148.796875 L 186.5 154.789062 C 185.769531 155.515625 184.625 155.589844 183.816406 154.953125 L 182.398438 153.855469 L 188.019531 148.21875 C 188.742188 147.496094 188.816406 146.347656 188.191406 145.539062 L 185.4375 142.003906 C 184.9375 141.359375 184.839844 140.558594 185.1875 139.824219 C 185.695312 138.734375 186.140625 137.597656 186.488281 136.441406 C 186.738281 135.640625 187.402344 135.070312 188.230469 134.976562 L 192.792969 134.410156 C 193.820312 134.273438 194.566406 133.425781 194.566406 132.394531 L 194.574219 123.921875 C 194.578125 122.988281 193.953125 122.1875 193.078125 121.953125 Z M 177.277344 152.746094 C 176.410156 153.152344 175.523438 153.507812 174.621094 153.808594 C 173.832031 154.070312 173.304688 154.710938 173.203125 155.53125 L 172.707031 159.570312 C 172.578125 160.589844 171.722656 161.34375 170.695312 161.34375 L 162.234375 161.34375 C 161.683594 161.34375 161.183594 161.132812 160.816406 160.777344 L 166.238281 160.777344 C 167.265625 160.777344 168.125 160.027344 168.246094 158.996094 L 168.746094 154.96875 C 168.839844 154.136719 169.371094 153.5 170.160156 153.234375 C 171.433594 152.808594 172.683594 152.277344 173.875 151.652344 C 174.617188 151.269531 175.464844 151.34375 176.128906 151.863281 Z M 152.136719 152.59375 L 149.101562 154.953125 C 148.292969 155.589844 147.148438 155.511719 146.417969 154.789062 L 145.414062 153.777344 L 147.878906 151.859375 C 148.546875 151.339844 149.390625 151.261719 150.132812 151.648438 C 150.785156 151.996094 151.449219 152.304688 152.136719 152.59375 Z M 146.789062 104.339844 L 147.148438 103.984375 C 147.875 103.253906 149.015625 103.175781 149.824219 103.808594 L 151.824219 105.359375 C 151.441406 105.535156 151.066406 105.707031 150.691406 105.890625 C 149.960938 106.257812 149.132812 106.167969 148.488281 105.660156 Z M 146.789062 104.339844 " fill-opacity="1" fill-rule="evenodd"/><path fill="#24435e" d="M 212.867188 140.296875 C 214.285156 139.207031 215.9375 141.347656 214.523438 142.433594 L 206.035156 149.007812 L 214.523438 155.578125 C 215.941406 156.667969 214.285156 158.816406 212.867188 157.726562 C 211.75 156.859375 203.011719 150.179688 202.753906 149.832031 C 202.289062 149.246094 202.394531 148.386719 202.992188 147.9375 Z M 230.800781 142.433594 C 229.394531 141.347656 231.050781 139.207031 232.457031 140.296875 L 242.339844 147.941406 C 243.066406 148.496094 243.023438 149.566406 242.3125 150.109375 L 232.457031 157.730469 C 231.050781 158.820312 229.398438 156.671875 230.800781 155.582031 L 239.300781 149.011719 Z M 224.320312 139.332031 C 224.859375 137.632812 227.4375 138.453125 226.902344 140.152344 L 221 158.683594 C 220.46875 160.378906 217.890625 159.570312 218.417969 157.863281 Z M 224.320312 139.332031 " fill-opacity="1" fill-rule="nonzero"/><path fill="#ffffff" d="M 197.023438 97.910156 C 193.675781 97.910156 193.675781 92.8125 197.023438 92.8125 L 211.472656 92.8125 C 214.820312 92.8125 214.820312 97.910156 211.472656 97.910156 Z M 187.023438 97.910156 C 183.675781 97.910156 183.675781 92.8125 187.023438 92.8125 L 188.265625 92.8125 C 191.613281 92.8125 191.613281 97.910156 188.265625 97.910156 Z M 187.023438 97.910156 " fill-opacity="1" fill-rule="nonzero"/><g fill="#004aad" fill-opacity="1"><g transform="translate(137.384863, 263.840783)"><g><path d="M 4.1875 -8.234375 C 4.1875 -8.046875 4.128906 -7.882812 4.015625 -7.75 C 3.898438 -7.625 3.765625 -7.519531 3.609375 -7.4375 C 3.472656 -7.34375 3.328125 -7.25 3.171875 -7.15625 C 3.023438 -7.0625 2.890625 -6.953125 2.765625 -6.828125 C 2.640625 -6.703125 2.535156 -6.566406 2.453125 -6.421875 C 2.378906 -6.273438 2.34375 -6.109375 2.34375 -5.921875 C 2.34375 -5.753906 2.378906 -5.601562 2.453125 -5.46875 C 2.535156 -5.34375 2.632812 -5.210938 2.75 -5.078125 C 2.863281 -4.953125 2.988281 -4.820312 3.125 -4.6875 C 3.257812 -4.550781 3.382812 -4.394531 3.5 -4.21875 C 3.613281 -4.050781 3.707031 -3.863281 3.78125 -3.65625 C 3.863281 -3.445312 3.90625 -3.203125 3.90625 -2.921875 C 3.90625 -2.722656 3.863281 -2.5 3.78125 -2.25 C 3.695312 -2.007812 3.582031 -1.765625 3.4375 -1.515625 C 3.300781 -1.265625 3.132812 -1.019531 2.9375 -0.78125 C 2.75 -0.550781 2.546875 -0.34375 2.328125 -0.15625 C 2.117188 0.03125 1.894531 0.175781 1.65625 0.28125 C 1.425781 0.394531 1.203125 0.453125 0.984375 0.453125 C 0.742188 0.453125 0.53125 0.382812 0.34375 0.25 C 0.15625 0.125 0.0625 -0.0703125 0.0625 -0.34375 C 0.0625 -0.519531 0.101562 -0.679688 0.1875 -0.828125 C 0.269531 -0.984375 0.375 -1.128906 0.5 -1.265625 C 0.625 -1.410156 0.765625 -1.550781 0.921875 -1.6875 C 1.078125 -1.820312 1.21875 -1.953125 1.34375 -2.078125 C 1.46875 -2.210938 1.570312 -2.351562 1.65625 -2.5 C 1.738281 -2.644531 1.78125 -2.800781 1.78125 -2.96875 C 1.78125 -3.195312 1.695312 -3.425781 1.53125 -3.65625 C 1.375 -3.894531 1.195312 -4.140625 1 -4.390625 C 0.8125 -4.648438 0.632812 -4.910156 0.46875 -5.171875 C 0.3125 -5.441406 0.234375 -5.710938 0.234375 -5.984375 C 0.234375 -6.328125 0.320312 -6.679688 0.5 -7.046875 C 0.6875 -7.421875 0.921875 -7.757812 1.203125 -8.0625 C 1.484375 -8.375 1.796875 -8.628906 2.140625 -8.828125 C 2.492188 -9.035156 2.84375 -9.140625 3.1875 -9.140625 C 3.457031 -9.140625 3.691406 -9.054688 3.890625 -8.890625 C 4.085938 -8.734375 4.1875 -8.515625 4.1875 -8.234375 Z M 4.1875 -8.234375 "/></g></g><g transform="translate(141.62705, 263.840783)"><g><path d="M 2.28125 -8.1875 C 2.28125 -8.070312 2.25 -7.972656 2.1875 -7.890625 C 2.132812 -7.804688 2.0625 -7.726562 1.96875 -7.65625 C 1.875 -7.59375 1.769531 -7.539062 1.65625 -7.5 C 1.550781 -7.46875 1.453125 -7.453125 1.359375 -7.453125 C 1.203125 -7.453125 1.066406 -7.488281 0.953125 -7.5625 C 0.835938 -7.644531 0.78125 -7.769531 0.78125 -7.9375 C 0.78125 -8.050781 0.804688 -8.148438 0.859375 -8.234375 C 0.921875 -8.328125 0.992188 -8.40625 1.078125 -8.46875 C 1.160156 -8.53125 1.253906 -8.578125 1.359375 -8.609375 C 1.472656 -8.640625 1.582031 -8.65625 1.6875 -8.65625 C 1.832031 -8.65625 1.96875 -8.617188 2.09375 -8.546875 C 2.21875 -8.472656 2.28125 -8.351562 2.28125 -8.1875 Z M 2.375 -4.203125 C 2.375 -4.085938 2.375 -3.96875 2.375 -3.84375 C 2.375 -3.726562 2.375 -3.613281 2.375 -3.5 C 2.363281 -3.375 2.359375 -3.195312 2.359375 -2.96875 C 2.359375 -2.75 2.347656 -2.507812 2.328125 -2.25 C 2.316406 -1.988281 2.289062 -1.722656 2.25 -1.453125 C 2.21875 -1.191406 2.160156 -0.953125 2.078125 -0.734375 C 2.003906 -0.515625 1.898438 -0.335938 1.765625 -0.203125 C 1.640625 -0.0664062 1.484375 0.00390625 1.296875 0.015625 C 1.140625 0.0234375 1.007812 -0.03125 0.90625 -0.15625 C 0.8125 -0.289062 0.726562 -0.457031 0.65625 -0.65625 C 0.59375 -0.851562 0.546875 -1.070312 0.515625 -1.3125 C 0.484375 -1.5625 0.457031 -1.800781 0.4375 -2.03125 C 0.425781 -2.257812 0.421875 -2.472656 0.421875 -2.671875 C 0.421875 -2.867188 0.421875 -3.015625 0.421875 -3.109375 C 0.421875 -3.234375 0.421875 -3.410156 0.421875 -3.640625 C 0.421875 -3.867188 0.425781 -4.113281 0.4375 -4.375 C 0.457031 -4.644531 0.488281 -4.914062 0.53125 -5.1875 C 0.570312 -5.46875 0.632812 -5.71875 0.71875 -5.9375 C 0.800781 -6.164062 0.910156 -6.347656 1.046875 -6.484375 C 1.179688 -6.628906 1.347656 -6.703125 1.546875 -6.703125 C 1.753906 -6.703125 1.910156 -6.597656 2.015625 -6.390625 C 2.128906 -6.179688 2.210938 -5.9375 2.265625 -5.65625 C 2.328125 -5.375 2.359375 -5.09375 2.359375 -4.8125 C 2.367188 -4.53125 2.375 -4.328125 2.375 -4.203125 Z M 2.375 -4.203125 "/></g></g><g transform="translate(144.486425, 263.840783)"><g><path d="M 3.78125 -6.453125 C 3.78125 -6.222656 3.703125 -6.050781 3.546875 -5.9375 C 3.398438 -5.832031 3.234375 -5.726562 3.046875 -5.625 C 2.859375 -5.53125 2.6875 -5.414062 2.53125 -5.28125 C 2.382812 -5.15625 2.3125 -4.957031 2.3125 -4.6875 C 2.3125 -4.550781 2.34375 -4.429688 2.40625 -4.328125 C 2.476562 -4.222656 2.5625 -4.128906 2.65625 -4.046875 C 2.75 -3.960938 2.851562 -3.878906 2.96875 -3.796875 C 3.09375 -3.710938 3.203125 -3.613281 3.296875 -3.5 C 3.398438 -3.394531 3.484375 -3.265625 3.546875 -3.109375 C 3.609375 -2.953125 3.640625 -2.757812 3.640625 -2.53125 C 3.640625 -2.207031 3.554688 -1.882812 3.390625 -1.5625 C 3.222656 -1.25 3.007812 -0.96875 2.75 -0.71875 C 2.488281 -0.476562 2.191406 -0.28125 1.859375 -0.125 C 1.535156 0.0195312 1.210938 0.09375 0.890625 0.09375 C 0.753906 0.09375 0.617188 0.0820312 0.484375 0.0625 C 0.359375 0.0390625 0.238281 0.00390625 0.125 -0.046875 C 0.0195312 -0.0976562 -0.0625 -0.171875 -0.125 -0.265625 C -0.195312 -0.367188 -0.234375 -0.5 -0.234375 -0.65625 C -0.234375 -0.875 -0.1875 -1.039062 -0.09375 -1.15625 C -0.0078125 -1.28125 0.09375 -1.378906 0.21875 -1.453125 C 0.351562 -1.523438 0.492188 -1.578125 0.640625 -1.609375 C 0.796875 -1.648438 0.941406 -1.703125 1.078125 -1.765625 C 1.210938 -1.828125 1.320312 -1.90625 1.40625 -2 C 1.488281 -2.09375 1.53125 -2.222656 1.53125 -2.390625 C 1.53125 -2.554688 1.46875 -2.726562 1.34375 -2.90625 C 1.21875 -3.082031 1.078125 -3.269531 0.921875 -3.46875 C 0.765625 -3.664062 0.617188 -3.875 0.484375 -4.09375 C 0.359375 -4.320312 0.296875 -4.578125 0.296875 -4.859375 C 0.296875 -5.191406 0.363281 -5.5 0.5 -5.78125 C 0.632812 -6.070312 0.816406 -6.320312 1.046875 -6.53125 C 1.273438 -6.738281 1.535156 -6.898438 1.828125 -7.015625 C 2.128906 -7.140625 2.445312 -7.203125 2.78125 -7.203125 C 2.90625 -7.203125 3.023438 -7.191406 3.140625 -7.171875 C 3.265625 -7.148438 3.375 -7.109375 3.46875 -7.046875 C 3.5625 -6.992188 3.632812 -6.914062 3.6875 -6.8125 C 3.75 -6.71875 3.78125 -6.597656 3.78125 -6.453125 Z M 3.78125 -6.453125 "/></g></g><g transform="translate(148.388768, 263.840783)"><g><path d="M 3.078125 0.421875 C 2.523438 0.421875 2.09375 0.347656 1.78125 0.203125 C 1.476562 0.0546875 1.25 -0.144531 1.09375 -0.40625 C 0.945312 -0.675781 0.859375 -1 0.828125 -1.375 C 0.796875 -1.75 0.78125 -2.164062 0.78125 -2.625 C 0.78125 -2.988281 0.789062 -3.359375 0.8125 -3.734375 C 0.832031 -4.109375 0.867188 -4.503906 0.921875 -4.921875 C 0.804688 -4.921875 0.71875 -4.914062 0.65625 -4.90625 C 0.59375 -4.90625 0.539062 -4.90625 0.5 -4.90625 C 0.25 -4.90625 0.0351562 -4.957031 -0.140625 -5.0625 C -0.328125 -5.175781 -0.421875 -5.347656 -0.421875 -5.578125 C -0.421875 -5.722656 -0.367188 -5.847656 -0.265625 -5.953125 C -0.160156 -6.066406 -0.0234375 -6.160156 0.140625 -6.234375 C 0.304688 -6.316406 0.484375 -6.378906 0.671875 -6.421875 C 0.867188 -6.472656 1.050781 -6.503906 1.21875 -6.515625 C 1.21875 -6.734375 1.234375 -6.972656 1.265625 -7.234375 C 1.296875 -7.503906 1.351562 -7.753906 1.4375 -7.984375 C 1.519531 -8.210938 1.628906 -8.40625 1.765625 -8.5625 C 1.910156 -8.71875 2.09375 -8.796875 2.3125 -8.796875 C 2.4375 -8.796875 2.546875 -8.757812 2.640625 -8.6875 C 2.742188 -8.613281 2.828125 -8.519531 2.890625 -8.40625 C 2.953125 -8.289062 3 -8.160156 3.03125 -8.015625 C 3.0625 -7.878906 3.078125 -7.75 3.078125 -7.625 C 3.078125 -7.46875 3.0625 -7.304688 3.03125 -7.140625 C 3.007812 -6.972656 2.96875 -6.769531 2.90625 -6.53125 C 3.039062 -6.539062 3.128906 -6.546875 3.171875 -6.546875 C 3.222656 -6.554688 3.269531 -6.5625 3.3125 -6.5625 C 3.4375 -6.5625 3.570312 -6.550781 3.71875 -6.53125 C 3.863281 -6.507812 3.992188 -6.46875 4.109375 -6.40625 C 4.234375 -6.351562 4.332031 -6.28125 4.40625 -6.1875 C 4.488281 -6.101562 4.53125 -6 4.53125 -5.875 C 4.53125 -5.726562 4.472656 -5.597656 4.359375 -5.484375 C 4.253906 -5.378906 4.113281 -5.285156 3.9375 -5.203125 C 3.769531 -5.128906 3.585938 -5.070312 3.390625 -5.03125 C 3.191406 -4.988281 3.007812 -4.960938 2.84375 -4.953125 C 2.789062 -4.628906 2.753906 -4.332031 2.734375 -4.0625 C 2.710938 -3.789062 2.691406 -3.519531 2.671875 -3.25 C 2.660156 -3.113281 2.644531 -2.976562 2.625 -2.84375 C 2.613281 -2.707031 2.609375 -2.566406 2.609375 -2.421875 C 2.609375 -2.328125 2.613281 -2.207031 2.625 -2.0625 C 2.632812 -1.925781 2.660156 -1.796875 2.703125 -1.671875 C 2.753906 -1.546875 2.828125 -1.4375 2.921875 -1.34375 C 3.023438 -1.257812 3.171875 -1.21875 3.359375 -1.21875 C 3.460938 -1.21875 3.570312 -1.226562 3.6875 -1.25 C 3.8125 -1.269531 3.929688 -1.28125 4.046875 -1.28125 C 4.242188 -1.28125 4.390625 -1.207031 4.484375 -1.0625 C 4.578125 -0.925781 4.625 -0.75 4.625 -0.53125 C 4.625 -0.363281 4.570312 -0.21875 4.46875 -0.09375 C 4.375 0.0195312 4.25 0.113281 4.09375 0.1875 C 3.945312 0.269531 3.78125 0.328125 3.59375 0.359375 C 3.414062 0.398438 3.242188 0.421875 3.078125 0.421875 Z M 3.078125 0.421875 "/></g></g><g transform="translate(152.888768, 263.840783)"><g><path d="M 5.265625 -2.09375 C 5.265625 -1.820312 5.179688 -1.554688 5.015625 -1.296875 C 4.847656 -1.046875 4.632812 -0.820312 4.375 -0.625 C 4.125 -0.425781 3.851562 -0.265625 3.5625 -0.140625 C 3.269531 -0.0234375 3.003906 0.03125 2.765625 0.03125 C 2.347656 0.03125 1.976562 -0.0703125 1.65625 -0.28125 C 1.332031 -0.488281 1.0625 -0.75 0.84375 -1.0625 C 0.625 -1.382812 0.457031 -1.738281 0.34375 -2.125 C 0.226562 -2.507812 0.171875 -2.890625 0.171875 -3.265625 C 0.171875 -3.648438 0.222656 -4.066406 0.328125 -4.515625 C 0.441406 -4.960938 0.609375 -5.375 0.828125 -5.75 C 1.054688 -6.125 1.335938 -6.4375 1.671875 -6.6875 C 2.015625 -6.9375 2.421875 -7.0625 2.890625 -7.0625 C 3.160156 -7.0625 3.414062 -7.015625 3.65625 -6.921875 C 3.894531 -6.828125 4.101562 -6.695312 4.28125 -6.53125 C 4.46875 -6.375 4.613281 -6.179688 4.71875 -5.953125 C 4.832031 -5.722656 4.890625 -5.46875 4.890625 -5.1875 C 4.890625 -4.820312 4.8125 -4.476562 4.65625 -4.15625 C 4.5 -3.84375 4.289062 -3.566406 4.03125 -3.328125 C 3.769531 -3.097656 3.472656 -2.910156 3.140625 -2.765625 C 2.804688 -2.617188 2.460938 -2.535156 2.109375 -2.515625 C 2.140625 -2.296875 2.226562 -2.132812 2.375 -2.03125 C 2.53125 -1.925781 2.71875 -1.875 2.9375 -1.875 C 3.09375 -1.875 3.242188 -1.910156 3.390625 -1.984375 C 3.535156 -2.066406 3.675781 -2.15625 3.8125 -2.25 C 3.957031 -2.351562 4.097656 -2.441406 4.234375 -2.515625 C 4.367188 -2.597656 4.507812 -2.640625 4.65625 -2.640625 C 4.8125 -2.640625 4.953125 -2.585938 5.078125 -2.484375 C 5.203125 -2.378906 5.265625 -2.25 5.265625 -2.09375 Z M 3.359375 -4.953125 C 3.359375 -5.054688 3.332031 -5.160156 3.28125 -5.265625 C 3.226562 -5.378906 3.144531 -5.4375 3.03125 -5.4375 C 2.851562 -5.4375 2.707031 -5.390625 2.59375 -5.296875 C 2.476562 -5.210938 2.378906 -5.101562 2.296875 -4.96875 C 2.222656 -4.832031 2.160156 -4.6875 2.109375 -4.53125 C 2.066406 -4.375 2.046875 -4.226562 2.046875 -4.09375 C 2.148438 -4.113281 2.273438 -4.144531 2.421875 -4.1875 C 2.578125 -4.226562 2.722656 -4.28125 2.859375 -4.34375 C 3.003906 -4.40625 3.125 -4.488281 3.21875 -4.59375 C 3.3125 -4.695312 3.359375 -4.816406 3.359375 -4.953125 Z M 3.359375 -4.953125 "/></g></g><g transform="translate(158.267674, 263.840783)"><g><path d="M 7.46875 -3.875 C 7.46875 -3.71875 7.46875 -3.515625 7.46875 -3.265625 C 7.46875 -3.015625 7.460938 -2.738281 7.453125 -2.4375 C 7.441406 -2.144531 7.414062 -1.847656 7.375 -1.546875 C 7.332031 -1.242188 7.269531 -0.96875 7.1875 -0.71875 C 7.101562 -0.476562 7 -0.28125 6.875 -0.125 C 6.75 0.03125 6.59375 0.109375 6.40625 0.109375 C 6.226562 0.109375 6.09375 0.0351562 6 -0.109375 C 5.914062 -0.253906 5.851562 -0.425781 5.8125 -0.625 C 5.769531 -0.820312 5.75 -1.019531 5.75 -1.21875 C 5.75 -1.425781 5.75 -1.585938 5.75 -1.703125 C 5.75 -2.054688 5.757812 -2.398438 5.78125 -2.734375 C 5.800781 -3.066406 5.8125 -3.410156 5.8125 -3.765625 C 5.8125 -3.804688 5.8125 -3.875 5.8125 -3.96875 C 5.8125 -4.070312 5.800781 -4.175781 5.78125 -4.28125 C 5.769531 -4.382812 5.742188 -4.472656 5.703125 -4.546875 C 5.671875 -4.628906 5.625 -4.671875 5.5625 -4.671875 C 5.414062 -4.671875 5.300781 -4.597656 5.21875 -4.453125 C 5.132812 -4.304688 5.0625 -4.132812 5 -3.9375 C 4.945312 -3.738281 4.910156 -3.546875 4.890625 -3.359375 C 4.867188 -3.171875 4.851562 -3.03125 4.84375 -2.9375 C 4.820312 -2.832031 4.804688 -2.675781 4.796875 -2.46875 C 4.785156 -2.269531 4.769531 -2.046875 4.75 -1.796875 C 4.726562 -1.554688 4.695312 -1.3125 4.65625 -1.0625 C 4.613281 -0.8125 4.554688 -0.582031 4.484375 -0.375 C 4.421875 -0.164062 4.335938 0.00390625 4.234375 0.140625 C 4.140625 0.273438 4.019531 0.34375 3.875 0.34375 C 3.6875 0.34375 3.539062 0.257812 3.4375 0.09375 C 3.332031 -0.0703125 3.253906 -0.265625 3.203125 -0.484375 C 3.160156 -0.703125 3.132812 -0.921875 3.125 -1.140625 C 3.113281 -1.367188 3.109375 -1.546875 3.109375 -1.671875 C 3.109375 -1.804688 3.109375 -1.9375 3.109375 -2.0625 C 3.117188 -2.1875 3.125 -2.316406 3.125 -2.453125 C 3.125 -2.503906 3.125 -2.59375 3.125 -2.71875 C 3.125 -2.84375 3.117188 -2.976562 3.109375 -3.125 C 3.109375 -3.28125 3.101562 -3.441406 3.09375 -3.609375 C 3.082031 -3.773438 3.0625 -3.925781 3.03125 -4.0625 C 3.007812 -4.195312 2.972656 -4.304688 2.921875 -4.390625 C 2.878906 -4.484375 2.828125 -4.53125 2.765625 -4.53125 C 2.660156 -4.53125 2.566406 -4.460938 2.484375 -4.328125 C 2.398438 -4.203125 2.328125 -4.050781 2.265625 -3.875 C 2.203125 -3.695312 2.148438 -3.519531 2.109375 -3.34375 C 2.078125 -3.175781 2.0625 -3.054688 2.0625 -2.984375 L 2.0625 -2.90625 C 2.0625 -2.53125 2.082031 -2.160156 2.125 -1.796875 C 2.175781 -1.441406 2.203125 -1.078125 2.203125 -0.703125 C 2.203125 -0.484375 2.128906 -0.28125 1.984375 -0.09375 C 1.847656 0.0820312 1.65625 0.171875 1.40625 0.171875 C 1.226562 0.171875 1.078125 0.101562 0.953125 -0.03125 C 0.835938 -0.164062 0.738281 -0.34375 0.65625 -0.5625 C 0.582031 -0.78125 0.523438 -1.019531 0.484375 -1.28125 C 0.441406 -1.539062 0.410156 -1.796875 0.390625 -2.046875 C 0.378906 -2.304688 0.367188 -2.539062 0.359375 -2.75 C 0.359375 -2.957031 0.359375 -3.113281 0.359375 -3.21875 C 0.359375 -3.332031 0.359375 -3.5 0.359375 -3.71875 C 0.359375 -3.945312 0.363281 -4.191406 0.375 -4.453125 C 0.382812 -4.722656 0.40625 -5 0.4375 -5.28125 C 0.46875 -5.5625 0.515625 -5.8125 0.578125 -6.03125 C 0.648438 -6.257812 0.742188 -6.445312 0.859375 -6.59375 C 0.972656 -6.738281 1.117188 -6.8125 1.296875 -6.8125 C 1.503906 -6.8125 1.671875 -6.753906 1.796875 -6.640625 C 1.929688 -6.535156 2 -6.375 2 -6.15625 C 2 -6.101562 1.992188 -6.050781 1.984375 -6 C 1.984375 -5.957031 1.976562 -5.921875 1.96875 -5.890625 C 2.050781 -6.015625 2.15625 -6.140625 2.28125 -6.265625 C 2.40625 -6.390625 2.539062 -6.503906 2.6875 -6.609375 C 2.832031 -6.722656 2.988281 -6.8125 3.15625 -6.875 C 3.320312 -6.9375 3.484375 -6.96875 3.640625 -6.96875 C 3.796875 -6.96875 3.9375 -6.925781 4.0625 -6.84375 C 4.1875 -6.757812 4.296875 -6.648438 4.390625 -6.515625 C 4.484375 -6.390625 4.5625 -6.253906 4.625 -6.109375 C 4.6875 -5.960938 4.734375 -5.820312 4.765625 -5.6875 C 4.835938 -5.820312 4.929688 -5.960938 5.046875 -6.109375 C 5.160156 -6.253906 5.28125 -6.378906 5.40625 -6.484375 C 5.539062 -6.597656 5.6875 -6.691406 5.84375 -6.765625 C 6.007812 -6.835938 6.179688 -6.875 6.359375 -6.875 C 6.515625 -6.875 6.648438 -6.8125 6.765625 -6.6875 C 6.890625 -6.570312 6.992188 -6.421875 7.078125 -6.234375 C 7.160156 -6.054688 7.222656 -5.851562 7.265625 -5.625 C 7.316406 -5.394531 7.359375 -5.164062 7.390625 -4.9375 C 7.421875 -4.71875 7.441406 -4.507812 7.453125 -4.3125 C 7.460938 -4.125 7.46875 -3.976562 7.46875 -3.875 Z M 7.46875 -3.875 "/></g></g><g transform="translate(166.154392, 263.840783)"><g/></g><g transform="translate(168.978611, 263.840783)"><g><path d="M 5.984375 -6.703125 C 5.984375 -6.054688 5.96875 -5.40625 5.9375 -4.75 C 5.90625 -4.101562 5.863281 -3.453125 5.8125 -2.796875 C 5.800781 -2.679688 5.789062 -2.523438 5.78125 -2.328125 C 5.78125 -2.128906 5.765625 -1.914062 5.734375 -1.6875 C 5.710938 -1.457031 5.679688 -1.222656 5.640625 -0.984375 C 5.609375 -0.753906 5.550781 -0.539062 5.46875 -0.34375 C 5.382812 -0.15625 5.273438 0 5.140625 0.125 C 5.015625 0.25 4.859375 0.3125 4.671875 0.3125 C 4.515625 0.3125 4.367188 0.273438 4.234375 0.203125 C 4.109375 0.128906 4 0.0351562 3.90625 -0.078125 C 3.820312 -0.191406 3.753906 -0.320312 3.703125 -0.46875 C 3.660156 -0.613281 3.640625 -0.765625 3.640625 -0.921875 C 3.640625 -1.171875 3.644531 -1.425781 3.65625 -1.6875 C 3.675781 -1.957031 3.703125 -2.21875 3.734375 -2.46875 L 2.578125 -2.359375 C 2.554688 -2.148438 2.53125 -1.90625 2.5 -1.625 C 2.476562 -1.34375 2.425781 -1.066406 2.34375 -0.796875 C 2.257812 -0.535156 2.132812 -0.3125 1.96875 -0.125 C 1.800781 0.0625 1.578125 0.15625 1.296875 0.15625 C 1.109375 0.15625 0.957031 0.113281 0.84375 0.03125 C 0.726562 -0.0507812 0.632812 -0.15625 0.5625 -0.28125 C 0.488281 -0.414062 0.4375 -0.5625 0.40625 -0.71875 C 0.375 -0.875 0.359375 -1.019531 0.359375 -1.15625 C 0.359375 -1.625 0.378906 -2.09375 0.421875 -2.5625 C 0.460938 -3.03125 0.488281 -3.5 0.5 -3.96875 C 0.519531 -4.457031 0.523438 -4.945312 0.515625 -5.4375 C 0.515625 -5.9375 0.523438 -6.4375 0.546875 -6.9375 C 0.546875 -7.101562 0.546875 -7.296875 0.546875 -7.515625 C 0.554688 -7.734375 0.585938 -7.9375 0.640625 -8.125 C 0.691406 -8.320312 0.773438 -8.484375 0.890625 -8.609375 C 1.015625 -8.742188 1.195312 -8.8125 1.4375 -8.8125 C 1.78125 -8.8125 2.035156 -8.722656 2.203125 -8.546875 C 2.378906 -8.367188 2.5 -8.148438 2.5625 -7.890625 C 2.632812 -7.628906 2.671875 -7.351562 2.671875 -7.0625 C 2.671875 -6.769531 2.671875 -6.503906 2.671875 -6.265625 C 2.671875 -5.953125 2.660156 -5.644531 2.640625 -5.34375 C 2.628906 -5.050781 2.617188 -4.75 2.609375 -4.4375 L 3.859375 -4.625 C 3.867188 -5.007812 3.875 -5.390625 3.875 -5.765625 C 3.882812 -6.140625 3.898438 -6.515625 3.921875 -6.890625 C 3.929688 -7.066406 3.941406 -7.253906 3.953125 -7.453125 C 3.960938 -7.660156 3.992188 -7.847656 4.046875 -8.015625 C 4.097656 -8.191406 4.1875 -8.335938 4.3125 -8.453125 C 4.445312 -8.566406 4.644531 -8.625 4.90625 -8.625 C 5.125 -8.625 5.300781 -8.5625 5.4375 -8.4375 C 5.570312 -8.3125 5.679688 -8.160156 5.765625 -7.984375 C 5.847656 -7.804688 5.90625 -7.613281 5.9375 -7.40625 C 5.96875 -7.207031 5.984375 -7.023438 5.984375 -6.859375 Z M 5.984375 -6.703125 "/></g></g><g transform="translate(175.377048, 263.840783)"><g><path d="M 5.265625 -2.09375 C 5.265625 -1.820312 5.179688 -1.554688 5.015625 -1.296875 C 4.847656 -1.046875 4.632812 -0.820312 4.375 -0.625 C 4.125 -0.425781 3.851562 -0.265625 3.5625 -0.140625 C 3.269531 -0.0234375 3.003906 0.03125 2.765625 0.03125 C 2.347656 0.03125 1.976562 -0.0703125 1.65625 -0.28125 C 1.332031 -0.488281 1.0625 -0.75 0.84375 -1.0625 C 0.625 -1.382812 0.457031 -1.738281 0.34375 -2.125 C 0.226562 -2.507812 0.171875 -2.890625 0.171875 -3.265625 C 0.171875 -3.648438 0.222656 -4.066406 0.328125 -4.515625 C 0.441406 -4.960938 0.609375 -5.375 0.828125 -5.75 C 1.054688 -6.125 1.335938 -6.4375 1.671875 -6.6875 C 2.015625 -6.9375 2.421875 -7.0625 2.890625 -7.0625 C 3.160156 -7.0625 3.414062 -7.015625 3.65625 -6.921875 C 3.894531 -6.828125 4.101562 -6.695312 4.28125 -6.53125 C 4.46875 -6.375 4.613281 -6.179688 4.71875 -5.953125 C 4.832031 -5.722656 4.890625 -5.46875 4.890625 -5.1875 C 4.890625 -4.820312 4.8125 -4.476562 4.65625 -4.15625 C 4.5 -3.84375 4.289062 -3.566406 4.03125 -3.328125 C 3.769531 -3.097656 3.472656 -2.910156 3.140625 -2.765625 C 2.804688 -2.617188 2.460938 -2.535156 2.109375 -2.515625 C 2.140625 -2.296875 2.226562 -2.132812 2.375 -2.03125 C 2.53125 -1.925781 2.71875 -1.875 2.9375 -1.875 C 3.09375 -1.875 3.242188 -1.910156 3.390625 -1.984375 C 3.535156 -2.066406 3.675781 -2.15625 3.8125 -2.25 C 3.957031 -2.351562 4.097656 -2.441406 4.234375 -2.515625 C 4.367188 -2.597656 4.507812 -2.640625 4.65625 -2.640625 C 4.8125 -2.640625 4.953125 -2.585938 5.078125 -2.484375 C 5.203125 -2.378906 5.265625 -2.25 5.265625 -2.09375 Z M 3.359375 -4.953125 C 3.359375 -5.054688 3.332031 -5.160156 3.28125 -5.265625 C 3.226562 -5.378906 3.144531 -5.4375 3.03125 -5.4375 C 2.851562 -5.4375 2.707031 -5.390625 2.59375 -5.296875 C 2.476562 -5.210938 2.378906 -5.101562 2.296875 -4.96875 C 2.222656 -4.832031 2.160156 -4.6875 2.109375 -4.53125 C 2.066406 -4.375 2.046875 -4.226562 2.046875 -4.09375 C 2.148438 -4.113281 2.273438 -4.144531 2.421875 -4.1875 C 2.578125 -4.226562 2.722656 -4.28125 2.859375 -4.34375 C 3.003906 -4.40625 3.125 -4.488281 3.21875 -4.59375 C 3.3125 -4.695312 3.359375 -4.816406 3.359375 -4.953125 Z M 3.359375 -4.953125 "/></g></g><g transform="translate(180.755954, 263.840783)"><g><path d="M 2.546875 -7.109375 C 2.546875 -6.679688 2.523438 -6.253906 2.484375 -5.828125 C 2.453125 -5.398438 2.4375 -4.972656 2.4375 -4.546875 C 2.4375 -3.992188 2.453125 -3.4375 2.484375 -2.875 C 2.523438 -2.320312 2.546875 -1.765625 2.546875 -1.203125 C 2.546875 -1.066406 2.535156 -0.910156 2.515625 -0.734375 C 2.503906 -0.554688 2.46875 -0.394531 2.40625 -0.25 C 2.351562 -0.101562 2.265625 0.0195312 2.140625 0.125 C 2.023438 0.226562 1.867188 0.28125 1.671875 0.28125 C 1.484375 0.28125 1.320312 0.1875 1.1875 0 C 1.050781 -0.175781 0.9375 -0.40625 0.84375 -0.6875 C 0.757812 -0.976562 0.6875 -1.300781 0.625 -1.65625 C 0.570312 -2.007812 0.53125 -2.347656 0.5 -2.671875 C 0.46875 -3.003906 0.445312 -3.3125 0.4375 -3.59375 C 0.425781 -3.875 0.421875 -4.078125 0.421875 -4.203125 C 0.421875 -4.359375 0.425781 -4.578125 0.4375 -4.859375 C 0.445312 -5.140625 0.472656 -5.441406 0.515625 -5.765625 C 0.554688 -6.097656 0.609375 -6.429688 0.671875 -6.765625 C 0.742188 -7.109375 0.832031 -7.414062 0.9375 -7.6875 C 1.050781 -7.96875 1.179688 -8.195312 1.328125 -8.375 C 1.484375 -8.550781 1.664062 -8.640625 1.875 -8.640625 C 2.050781 -8.640625 2.179688 -8.582031 2.265625 -8.46875 C 2.359375 -8.351562 2.421875 -8.210938 2.453125 -8.046875 C 2.492188 -7.890625 2.519531 -7.722656 2.53125 -7.546875 C 2.539062 -7.378906 2.546875 -7.234375 2.546875 -7.109375 Z M 2.546875 -7.109375 "/></g></g><g transform="translate(183.837985, 263.840783)"><g><path d="M 5.71875 -3.5 C 5.71875 -3.15625 5.679688 -2.773438 5.609375 -2.359375 C 5.535156 -1.953125 5.410156 -1.570312 5.234375 -1.21875 C 5.054688 -0.863281 4.820312 -0.566406 4.53125 -0.328125 C 4.25 -0.0976562 3.894531 0.015625 3.46875 0.015625 C 3.363281 0.015625 3.25 0.0078125 3.125 0 C 3.007812 -0.0195312 2.898438 -0.0507812 2.796875 -0.09375 C 2.691406 -0.132812 2.59375 -0.1875 2.5 -0.25 C 2.414062 -0.320312 2.351562 -0.410156 2.3125 -0.515625 L 2.203125 1.171875 C 2.191406 1.347656 2.1875 1.5625 2.1875 1.8125 C 2.1875 2.0625 2.15625 2.300781 2.09375 2.53125 C 2.03125 2.757812 1.929688 2.953125 1.796875 3.109375 C 1.660156 3.273438 1.460938 3.359375 1.203125 3.359375 C 1.054688 3.359375 0.929688 3.28125 0.828125 3.125 C 0.734375 2.96875 0.65625 2.769531 0.59375 2.53125 C 0.53125 2.300781 0.484375 2.039062 0.453125 1.75 C 0.421875 1.46875 0.398438 1.191406 0.390625 0.921875 C 0.390625 0.660156 0.390625 0.421875 0.390625 0.203125 C 0.390625 -0.015625 0.390625 -0.175781 0.390625 -0.28125 C 0.390625 -0.800781 0.382812 -1.320312 0.375 -1.84375 C 0.363281 -2.363281 0.359375 -2.882812 0.359375 -3.40625 C 0.359375 -3.5 0.359375 -3.644531 0.359375 -3.84375 C 0.359375 -4.050781 0.363281 -4.269531 0.375 -4.5 C 0.394531 -4.738281 0.421875 -4.984375 0.453125 -5.234375 C 0.492188 -5.484375 0.550781 -5.707031 0.625 -5.90625 C 0.695312 -6.113281 0.785156 -6.28125 0.890625 -6.40625 C 1.003906 -6.539062 1.140625 -6.609375 1.296875 -6.609375 C 1.390625 -6.609375 1.476562 -6.578125 1.5625 -6.515625 C 1.644531 -6.460938 1.710938 -6.390625 1.765625 -6.296875 C 1.828125 -6.210938 1.878906 -6.117188 1.921875 -6.015625 C 1.960938 -5.910156 1.992188 -5.816406 2.015625 -5.734375 C 2.253906 -6.003906 2.53125 -6.207031 2.84375 -6.34375 C 3.164062 -6.488281 3.507812 -6.5625 3.875 -6.5625 C 4.25 -6.5625 4.550781 -6.457031 4.78125 -6.25 C 5.019531 -6.039062 5.207031 -5.78125 5.34375 -5.46875 C 5.488281 -5.15625 5.585938 -4.816406 5.640625 -4.453125 C 5.691406 -4.097656 5.71875 -3.78125 5.71875 -3.5 Z M 4.046875 -3.59375 C 4.046875 -3.707031 4.035156 -3.820312 4.015625 -3.9375 C 3.992188 -4.0625 3.957031 -4.175781 3.90625 -4.28125 C 3.851562 -4.382812 3.78125 -4.46875 3.6875 -4.53125 C 3.59375 -4.601562 3.476562 -4.640625 3.34375 -4.640625 C 3.15625 -4.640625 2.957031 -4.578125 2.75 -4.453125 C 2.539062 -4.335938 2.382812 -4.203125 2.28125 -4.046875 C 2.25 -3.984375 2.226562 -3.878906 2.21875 -3.734375 C 2.207031 -3.597656 2.203125 -3.492188 2.203125 -3.421875 C 2.203125 -3.367188 2.203125 -3.296875 2.203125 -3.203125 C 2.210938 -3.117188 2.21875 -3.03125 2.21875 -2.9375 C 2.226562 -2.84375 2.238281 -2.75 2.25 -2.65625 C 2.269531 -2.570312 2.289062 -2.507812 2.3125 -2.46875 C 2.332031 -2.394531 2.378906 -2.328125 2.453125 -2.265625 C 2.535156 -2.210938 2.625 -2.160156 2.71875 -2.109375 C 2.8125 -2.066406 2.90625 -2.03125 3 -2 C 3.101562 -1.976562 3.191406 -1.96875 3.265625 -1.96875 C 3.421875 -1.96875 3.550781 -2.03125 3.65625 -2.15625 C 3.757812 -2.28125 3.835938 -2.425781 3.890625 -2.59375 C 3.953125 -2.769531 3.992188 -2.945312 4.015625 -3.125 C 4.035156 -3.3125 4.046875 -3.46875 4.046875 -3.59375 Z M 4.046875 -3.59375 "/></g></g><g transform="translate(189.920016, 263.840783)"><g><path d="M 5.40625 -7.71875 C 5.40625 -7.144531 5.382812 -6.578125 5.34375 -6.015625 C 5.300781 -5.453125 5.28125 -4.882812 5.28125 -4.3125 C 5.28125 -3.851562 5.289062 -3.394531 5.3125 -2.9375 C 5.34375 -2.488281 5.359375 -2.035156 5.359375 -1.578125 C 5.359375 -1.453125 5.351562 -1.300781 5.34375 -1.125 C 5.332031 -0.945312 5.304688 -0.773438 5.265625 -0.609375 C 5.222656 -0.441406 5.148438 -0.300781 5.046875 -0.1875 C 4.953125 -0.0703125 4.816406 -0.015625 4.640625 -0.015625 C 4.410156 -0.015625 4.21875 -0.101562 4.0625 -0.28125 C 3.90625 -0.457031 3.8125 -0.65625 3.78125 -0.875 C 3.625 -0.59375 3.40625 -0.351562 3.125 -0.15625 C 2.84375 0.0390625 2.539062 0.140625 2.21875 0.140625 C 1.863281 0.140625 1.554688 0.0195312 1.296875 -0.21875 C 1.046875 -0.46875 0.835938 -0.765625 0.671875 -1.109375 C 0.503906 -1.453125 0.378906 -1.8125 0.296875 -2.1875 C 0.210938 -2.5625 0.171875 -2.882812 0.171875 -3.15625 C 0.171875 -3.351562 0.179688 -3.578125 0.203125 -3.828125 C 0.234375 -4.078125 0.273438 -4.328125 0.328125 -4.578125 C 0.390625 -4.835938 0.46875 -5.085938 0.5625 -5.328125 C 0.65625 -5.578125 0.773438 -5.800781 0.921875 -6 C 1.066406 -6.195312 1.238281 -6.351562 1.4375 -6.46875 C 1.632812 -6.582031 1.863281 -6.640625 2.125 -6.640625 C 2.40625 -6.640625 2.671875 -6.554688 2.921875 -6.390625 C 3.179688 -6.234375 3.378906 -6.035156 3.515625 -5.796875 L 3.625 -7.65625 C 3.632812 -7.800781 3.644531 -7.972656 3.65625 -8.171875 C 3.675781 -8.367188 3.707031 -8.554688 3.75 -8.734375 C 3.800781 -8.921875 3.878906 -9.078125 3.984375 -9.203125 C 4.097656 -9.328125 4.265625 -9.390625 4.484375 -9.390625 C 4.703125 -9.390625 4.875 -9.332031 5 -9.21875 C 5.125 -9.113281 5.21875 -8.976562 5.28125 -8.8125 C 5.34375 -8.644531 5.378906 -8.460938 5.390625 -8.265625 C 5.398438 -8.066406 5.40625 -7.882812 5.40625 -7.71875 Z M 3.5 -2.515625 C 3.5 -2.691406 3.492188 -2.863281 3.484375 -3.03125 C 3.472656 -3.207031 3.472656 -3.382812 3.484375 -3.5625 C 3.429688 -3.664062 3.375 -3.773438 3.3125 -3.890625 C 3.25 -4.015625 3.171875 -4.128906 3.078125 -4.234375 C 2.992188 -4.335938 2.894531 -4.425781 2.78125 -4.5 C 2.675781 -4.570312 2.5625 -4.609375 2.4375 -4.609375 C 2.300781 -4.609375 2.1875 -4.5625 2.09375 -4.46875 C 2.007812 -4.382812 1.945312 -4.28125 1.90625 -4.15625 C 1.875 -4.039062 1.847656 -3.910156 1.828125 -3.765625 C 1.816406 -3.628906 1.8125 -3.507812 1.8125 -3.40625 C 1.8125 -3.3125 1.816406 -3.171875 1.828125 -2.984375 C 1.847656 -2.804688 1.878906 -2.625 1.921875 -2.4375 C 1.972656 -2.25 2.035156 -2.082031 2.109375 -1.9375 C 2.191406 -1.800781 2.296875 -1.734375 2.421875 -1.734375 C 2.523438 -1.734375 2.628906 -1.753906 2.734375 -1.796875 C 2.835938 -1.835938 2.929688 -1.890625 3.015625 -1.953125 C 3.109375 -2.023438 3.195312 -2.101562 3.28125 -2.1875 C 3.363281 -2.269531 3.4375 -2.347656 3.5 -2.421875 Z M 3.5 -2.515625 "/></g></g><g transform="translate(195.744234, 263.840783)"><g><path d="M 5.265625 -2.09375 C 5.265625 -1.820312 5.179688 -1.554688 5.015625 -1.296875 C 4.847656 -1.046875 4.632812 -0.820312 4.375 -0.625 C 4.125 -0.425781 3.851562 -0.265625 3.5625 -0.140625 C 3.269531 -0.0234375 3.003906 0.03125 2.765625 0.03125 C 2.347656 0.03125 1.976562 -0.0703125 1.65625 -0.28125 C 1.332031 -0.488281 1.0625 -0.75 0.84375 -1.0625 C 0.625 -1.382812 0.457031 -1.738281 0.34375 -2.125 C 0.226562 -2.507812 0.171875 -2.890625 0.171875 -3.265625 C 0.171875 -3.648438 0.222656 -4.066406 0.328125 -4.515625 C 0.441406 -4.960938 0.609375 -5.375 0.828125 -5.75 C 1.054688 -6.125 1.335938 -6.4375 1.671875 -6.6875 C 2.015625 -6.9375 2.421875 -7.0625 2.890625 -7.0625 C 3.160156 -7.0625 3.414062 -7.015625 3.65625 -6.921875 C 3.894531 -6.828125 4.101562 -6.695312 4.28125 -6.53125 C 4.46875 -6.375 4.613281 -6.179688 4.71875 -5.953125 C 4.832031 -5.722656 4.890625 -5.46875 4.890625 -5.1875 C 4.890625 -4.820312 4.8125 -4.476562 4.65625 -4.15625 C 4.5 -3.84375 4.289062 -3.566406 4.03125 -3.328125 C 3.769531 -3.097656 3.472656 -2.910156 3.140625 -2.765625 C 2.804688 -2.617188 2.460938 -2.535156 2.109375 -2.515625 C 2.140625 -2.296875 2.226562 -2.132812 2.375 -2.03125 C 2.53125 -1.925781 2.71875 -1.875 2.9375 -1.875 C 3.09375 -1.875 3.242188 -1.910156 3.390625 -1.984375 C 3.535156 -2.066406 3.675781 -2.15625 3.8125 -2.25 C 3.957031 -2.351562 4.097656 -2.441406 4.234375 -2.515625 C 4.367188 -2.597656 4.507812 -2.640625 4.65625 -2.640625 C 4.8125 -2.640625 4.953125 -2.585938 5.078125 -2.484375 C 5.203125 -2.378906 5.265625 -2.25 5.265625 -2.09375 Z M 3.359375 -4.953125 C 3.359375 -5.054688 3.332031 -5.160156 3.28125 -5.265625 C 3.226562 -5.378906 3.144531 -5.4375 3.03125 -5.4375 C 2.851562 -5.4375 2.707031 -5.390625 2.59375 -5.296875 C 2.476562 -5.210938 2.378906 -5.101562 2.296875 -4.96875 C 2.222656 -4.832031 2.160156 -4.6875 2.109375 -4.53125 C 2.066406 -4.375 2.046875 -4.226562 2.046875 -4.09375 C 2.148438 -4.113281 2.273438 -4.144531 2.421875 -4.1875 C 2.578125 -4.226562 2.722656 -4.28125 2.859375 -4.34375 C 3.003906 -4.40625 3.125 -4.488281 3.21875 -4.59375 C 3.3125 -4.695312 3.359375 -4.816406 3.359375 -4.953125 Z M 3.359375 -4.953125 "/></g></g><g transform="translate(201.12314, 263.840783)"><g><path d="M 3.78125 -6.453125 C 3.78125 -6.222656 3.703125 -6.050781 3.546875 -5.9375 C 3.398438 -5.832031 3.234375 -5.726562 3.046875 -5.625 C 2.859375 -5.53125 2.6875 -5.414062 2.53125 -5.28125 C 2.382812 -5.15625 2.3125 -4.957031 2.3125 -4.6875 C 2.3125 -4.550781 2.34375 -4.429688 2.40625 -4.328125 C 2.476562 -4.222656 2.5625 -4.128906 2.65625 -4.046875 C 2.75 -3.960938 2.851562 -3.878906 2.96875 -3.796875 C 3.09375 -3.710938 3.203125 -3.613281 3.296875 -3.5 C 3.398438 -3.394531 3.484375 -3.265625 3.546875 -3.109375 C 3.609375 -2.953125 3.640625 -2.757812 3.640625 -2.53125 C 3.640625 -2.207031 3.554688 -1.882812 3.390625 -1.5625 C 3.222656 -1.25 3.007812 -0.96875 2.75 -0.71875 C 2.488281 -0.476562 2.191406 -0.28125 1.859375 -0.125 C 1.535156 0.0195312 1.210938 0.09375 0.890625 0.09375 C 0.753906 0.09375 0.617188 0.0820312 0.484375 0.0625 C 0.359375 0.0390625 0.238281 0.00390625 0.125 -0.046875 C 0.0195312 -0.0976562 -0.0625 -0.171875 -0.125 -0.265625 C -0.195312 -0.367188 -0.234375 -0.5 -0.234375 -0.65625 C -0.234375 -0.875 -0.1875 -1.039062 -0.09375 -1.15625 C -0.0078125 -1.28125 0.09375 -1.378906 0.21875 -1.453125 C 0.351562 -1.523438 0.492188 -1.578125 0.640625 -1.609375 C 0.796875 -1.648438 0.941406 -1.703125 1.078125 -1.765625 C 1.210938 -1.828125 1.320312 -1.90625 1.40625 -2 C 1.488281 -2.09375 1.53125 -2.222656 1.53125 -2.390625 C 1.53125 -2.554688 1.46875 -2.726562 1.34375 -2.90625 C 1.21875 -3.082031 1.078125 -3.269531 0.921875 -3.46875 C 0.765625 -3.664062 0.617188 -3.875 0.484375 -4.09375 C 0.359375 -4.320312 0.296875 -4.578125 0.296875 -4.859375 C 0.296875 -5.191406 0.363281 -5.5 0.5 -5.78125 C 0.632812 -6.070312 0.816406 -6.320312 1.046875 -6.53125 C 1.273438 -6.738281 1.535156 -6.898438 1.828125 -7.015625 C 2.128906 -7.140625 2.445312 -7.203125 2.78125 -7.203125 C 2.90625 -7.203125 3.023438 -7.191406 3.140625 -7.171875 C 3.265625 -7.148438 3.375 -7.109375 3.46875 -7.046875 C 3.5625 -6.992188 3.632812 -6.914062 3.6875 -6.8125 C 3.75 -6.71875 3.78125 -6.597656 3.78125 -6.453125 Z M 3.78125 -6.453125 "/></g></g><g transform="translate(205.025483, 263.840783)"><g><path d="M 5.5625 -6.3125 C 5.5625 -6.09375 5.503906 -5.867188 5.390625 -5.640625 C 5.273438 -5.410156 5.132812 -5.179688 4.96875 -4.953125 C 4.8125 -4.734375 4.644531 -4.523438 4.46875 -4.328125 C 4.289062 -4.128906 4.140625 -3.945312 4.015625 -3.78125 C 4.117188 -3.613281 4.253906 -3.382812 4.421875 -3.09375 C 4.585938 -2.8125 4.742188 -2.507812 4.890625 -2.1875 C 5.035156 -1.875 5.160156 -1.5625 5.265625 -1.25 C 5.367188 -0.945312 5.421875 -0.695312 5.421875 -0.5 C 5.421875 -0.332031 5.367188 -0.175781 5.265625 -0.03125 C 5.171875 0.101562 5.035156 0.171875 4.859375 0.171875 C 4.722656 0.171875 4.585938 0.113281 4.453125 0 C 4.316406 -0.113281 4.175781 -0.265625 4.03125 -0.453125 C 3.894531 -0.640625 3.765625 -0.84375 3.640625 -1.0625 C 3.515625 -1.289062 3.398438 -1.515625 3.296875 -1.734375 C 3.191406 -1.953125 3.097656 -2.15625 3.015625 -2.34375 C 2.929688 -2.539062 2.867188 -2.695312 2.828125 -2.8125 C 2.722656 -2.707031 2.613281 -2.625 2.5 -2.5625 C 2.382812 -2.5 2.273438 -2.421875 2.171875 -2.328125 C 2.171875 -2.171875 2.164062 -1.941406 2.15625 -1.640625 C 2.144531 -1.347656 2.109375 -1.054688 2.046875 -0.765625 C 1.984375 -0.472656 1.882812 -0.21875 1.75 0 C 1.625 0.207031 1.429688 0.3125 1.171875 0.3125 C 0.972656 0.3125 0.816406 0.21875 0.703125 0.03125 C 0.597656 -0.144531 0.519531 -0.351562 0.46875 -0.59375 C 0.414062 -0.84375 0.382812 -1.09375 0.375 -1.34375 C 0.363281 -1.601562 0.359375 -1.800781 0.359375 -1.9375 C 0.359375 -2.507812 0.375 -3.082031 0.40625 -3.65625 C 0.4375 -4.238281 0.457031 -4.820312 0.46875 -5.40625 C 0.46875 -5.539062 0.46875 -5.710938 0.46875 -5.921875 C 0.476562 -6.140625 0.492188 -6.375 0.515625 -6.625 C 0.535156 -6.875 0.566406 -7.125 0.609375 -7.375 C 0.660156 -7.632812 0.726562 -7.867188 0.8125 -8.078125 C 0.90625 -8.285156 1.019531 -8.453125 1.15625 -8.578125 C 1.289062 -8.710938 1.457031 -8.78125 1.65625 -8.78125 C 1.789062 -8.78125 1.90625 -8.726562 2 -8.625 C 2.101562 -8.519531 2.179688 -8.382812 2.234375 -8.21875 C 2.296875 -8.050781 2.34375 -7.863281 2.375 -7.65625 C 2.40625 -7.457031 2.425781 -7.257812 2.4375 -7.0625 C 2.445312 -6.863281 2.453125 -6.675781 2.453125 -6.5 C 2.453125 -6.332031 2.453125 -6.195312 2.453125 -6.09375 C 2.453125 -6.019531 2.445312 -5.914062 2.4375 -5.78125 C 2.4375 -5.644531 2.429688 -5.503906 2.421875 -5.359375 C 2.421875 -5.210938 2.421875 -5.078125 2.421875 -4.953125 C 2.421875 -4.828125 2.429688 -4.734375 2.453125 -4.671875 C 2.503906 -4.671875 2.582031 -4.722656 2.6875 -4.828125 C 2.800781 -4.941406 2.929688 -5.078125 3.078125 -5.234375 C 3.222656 -5.398438 3.378906 -5.570312 3.546875 -5.75 C 3.710938 -5.9375 3.882812 -6.113281 4.0625 -6.28125 C 4.238281 -6.445312 4.410156 -6.582031 4.578125 -6.6875 C 4.753906 -6.789062 4.914062 -6.84375 5.0625 -6.84375 C 5.21875 -6.84375 5.335938 -6.785156 5.421875 -6.671875 C 5.515625 -6.566406 5.5625 -6.445312 5.5625 -6.3125 Z M 5.5625 -6.3125 "/></g></g><g transform="translate(210.638764, 263.840783)"><g/></g><g transform="translate(213.462983, 263.840783)"><g><path d="M 4.40625 -7.953125 C 4.40625 -7.804688 4.367188 -7.675781 4.296875 -7.5625 C 4.234375 -7.445312 4.144531 -7.347656 4.03125 -7.265625 C 3.925781 -7.179688 3.804688 -7.109375 3.671875 -7.046875 C 3.546875 -6.992188 3.421875 -6.957031 3.296875 -6.9375 C 3.273438 -6.050781 3.238281 -5.195312 3.1875 -4.375 C 3.144531 -3.5625 3.066406 -2.71875 2.953125 -1.84375 L 3.03125 -1.84375 C 3.15625 -1.84375 3.273438 -1.828125 3.390625 -1.796875 C 3.515625 -1.773438 3.625 -1.726562 3.71875 -1.65625 C 3.820312 -1.59375 3.898438 -1.507812 3.953125 -1.40625 C 4.015625 -1.3125 4.046875 -1.195312 4.046875 -1.0625 C 4.046875 -0.875 3.988281 -0.710938 3.875 -0.578125 C 3.757812 -0.453125 3.609375 -0.34375 3.421875 -0.25 C 3.242188 -0.15625 3.039062 -0.078125 2.8125 -0.015625 C 2.582031 0.046875 2.351562 0.09375 2.125 0.125 C 1.90625 0.164062 1.691406 0.191406 1.484375 0.203125 C 1.285156 0.222656 1.125 0.234375 1 0.234375 C 0.90625 0.234375 0.789062 0.226562 0.65625 0.21875 C 0.519531 0.21875 0.390625 0.195312 0.265625 0.15625 C 0.140625 0.113281 0.0351562 0.0546875 -0.046875 -0.015625 C -0.128906 -0.0976562 -0.171875 -0.207031 -0.171875 -0.34375 C -0.171875 -0.507812 -0.132812 -0.65625 -0.0625 -0.78125 C 0 -0.90625 0.0820312 -1.019531 0.1875 -1.125 C 0.300781 -1.226562 0.425781 -1.3125 0.5625 -1.375 C 0.695312 -1.4375 0.832031 -1.484375 0.96875 -1.515625 C 1.03125 -1.941406 1.082031 -2.367188 1.125 -2.796875 C 1.175781 -3.222656 1.207031 -3.65625 1.21875 -4.09375 C 1.238281 -4.539062 1.253906 -4.976562 1.265625 -5.40625 C 1.285156 -5.84375 1.300781 -6.28125 1.3125 -6.71875 C 1.257812 -6.707031 1.207031 -6.695312 1.15625 -6.6875 C 1.113281 -6.6875 1.070312 -6.6875 1.03125 -6.6875 C 0.925781 -6.6875 0.8125 -6.695312 0.6875 -6.71875 C 0.5625 -6.75 0.441406 -6.789062 0.328125 -6.84375 C 0.222656 -6.90625 0.128906 -6.976562 0.046875 -7.0625 C -0.0234375 -7.15625 -0.0625 -7.265625 -0.0625 -7.390625 C -0.0625 -7.660156 0.046875 -7.878906 0.265625 -8.046875 C 0.492188 -8.222656 0.757812 -8.359375 1.0625 -8.453125 C 1.375 -8.546875 1.691406 -8.609375 2.015625 -8.640625 C 2.335938 -8.679688 2.597656 -8.703125 2.796875 -8.703125 C 2.898438 -8.703125 3.039062 -8.691406 3.21875 -8.671875 C 3.40625 -8.660156 3.582031 -8.625 3.75 -8.5625 C 3.925781 -8.507812 4.078125 -8.4375 4.203125 -8.34375 C 4.335938 -8.25 4.40625 -8.117188 4.40625 -7.953125 Z M 4.40625 -7.953125 "/></g></g><g transform="translate(217.681732, 263.840783)"><g><path d="M 5.421875 -8 C 5.421875 -7.8125 5.34375 -7.632812 5.1875 -7.46875 C 5.039062 -7.3125 4.859375 -7.171875 4.640625 -7.046875 C 4.429688 -6.929688 4.210938 -6.832031 3.984375 -6.75 C 3.753906 -6.675781 3.566406 -6.625 3.421875 -6.59375 C 3.359375 -5.988281 3.304688 -5.382812 3.265625 -4.78125 C 3.234375 -4.1875 3.21875 -3.585938 3.21875 -2.984375 C 3.21875 -2.671875 3.222656 -2.359375 3.234375 -2.046875 C 3.253906 -1.734375 3.265625 -1.421875 3.265625 -1.109375 C 3.265625 -0.960938 3.25 -0.804688 3.21875 -0.640625 C 3.195312 -0.472656 3.148438 -0.3125 3.078125 -0.15625 C 3.015625 -0.0078125 2.925781 0.109375 2.8125 0.203125 C 2.695312 0.304688 2.550781 0.359375 2.375 0.359375 C 2.175781 0.359375 2.015625 0.300781 1.890625 0.1875 C 1.773438 0.0820312 1.679688 -0.0507812 1.609375 -0.21875 C 1.546875 -0.382812 1.5 -0.554688 1.46875 -0.734375 C 1.445312 -0.921875 1.4375 -1.09375 1.4375 -1.25 C 1.425781 -1.71875 1.414062 -2.1875 1.40625 -2.65625 C 1.394531 -3.125 1.390625 -3.597656 1.390625 -4.078125 C 1.390625 -4.472656 1.390625 -4.863281 1.390625 -5.25 C 1.398438 -5.632812 1.40625 -6.023438 1.40625 -6.421875 C 1.300781 -6.410156 1.191406 -6.398438 1.078125 -6.390625 C 0.960938 -6.378906 0.847656 -6.375 0.734375 -6.375 C 0.640625 -6.375 0.515625 -6.382812 0.359375 -6.40625 C 0.203125 -6.425781 0.0546875 -6.460938 -0.078125 -6.515625 C -0.222656 -6.566406 -0.34375 -6.632812 -0.4375 -6.71875 C -0.539062 -6.8125 -0.59375 -6.925781 -0.59375 -7.0625 C -0.59375 -7.300781 -0.5 -7.507812 -0.3125 -7.6875 C -0.132812 -7.863281 0.09375 -8.015625 0.375 -8.140625 C 0.664062 -8.265625 0.984375 -8.375 1.328125 -8.46875 C 1.679688 -8.5625 2.023438 -8.628906 2.359375 -8.671875 C 2.703125 -8.722656 3.015625 -8.757812 3.296875 -8.78125 C 3.585938 -8.8125 3.8125 -8.828125 3.96875 -8.828125 C 4.113281 -8.828125 4.269531 -8.820312 4.4375 -8.8125 C 4.601562 -8.800781 4.757812 -8.765625 4.90625 -8.703125 C 5.0625 -8.648438 5.1875 -8.566406 5.28125 -8.453125 C 5.375 -8.347656 5.421875 -8.195312 5.421875 -8 Z M 5.421875 -8 "/></g></g></g></svg>