<svg xmlns="http://www.w3.org/2000/svg" xmlns:xlink="http://www.w3.org/1999/xlink" width="500" zoomAndPan="magnify" viewBox="0 0 375 374.999991" height="500" preserveAspectRatio="xMidYMid meet" version="1.0"><defs><g/><clipPath id="108802c58f"><path d="M 50 146 L 370 146 L 370 367.394531 L 50 367.394531 Z M 50 146 " clip-rule="nonzero"/></clipPath><clipPath id="abe8b049f3"><path d="M 4 80.144531 L 372 80.144531 L 372 199 L 4 199 Z M 4 80.144531 " clip-rule="nonzero"/></clipPath></defs><path fill="#afe4eb" d="M 187.804688 86.625 C 118.753906 86.625 56.101562 114.75 10.71875 160.152344 L 42.6875 192.109375 C 79.769531 155.039062 131.058594 132.125 187.828125 132.125 C 244.578125 132.125 295.863281 155.039062 332.945312 192.109375 L 364.890625 160.152344 C 319.507812 114.75 256.878906 86.625 187.828125 86.625 Z M 288.035156 237.042969 L 318.320312 206.714844 C 284.871094 173.253906 238.699219 152.515625 187.828125 152.492188 L 187.804688 152.492188 C 136.9375 152.515625 90.761719 173.253906 57.289062 206.714844 L 89.257812 238.722656 C 114.429688 213.539062 149.242188 198.015625 187.828125 198.015625 C 211.816406 198.015625 234.347656 204.046875 254.015625 214.648438 Z M 244.578125 230.222656 C 227.605469 221.148438 208.308594 215.960938 187.828125 215.960938 C 154.453125 215.960938 124.140625 229.601562 102.152344 251.625 L 134.121094 283.582031 C 147.808594 269.890625 166.757812 261.484375 187.828125 261.484375 C 199.761719 261.484375 211.003906 264.253906 221.007812 269.097656 Z M 210.113281 287.113281 C 203.121094 283.753906 195.511719 281.925781 187.78125 281.753906 C 173.476562 282.023438 159.839844 287.90625 149.832031 298.164062 L 183.210938 331.503906 L 210.113281 287.113281 " fill-opacity="1" fill-rule="nonzero"/><path fill="#54c6d6" d="M 187.78125 281.753906 C 182.914062 281.851562 178.144531 282.640625 173.550781 283.976562 C 176.441406 284.816406 179.257812 285.804688 181.972656 287.113281 L 165.667969 313.980469 L 183.210938 331.503906 L 210.113281 287.113281 C 203.121094 283.753906 195.511719 281.925781 187.78125 281.753906 " fill-opacity="1" fill-rule="nonzero"/><path fill="#54c6d6" d="M 187.828125 215.960938 C 183.109375 215.960938 178.492188 216.304688 173.921875 216.824219 C 189.113281 218.628906 203.441406 223.277344 216.4375 230.222656 L 197.117188 262.054688 C 205.617188 263.117188 213.644531 265.539062 221.007812 269.097656 L 244.578125 230.222656 C 227.605469 221.148438 208.308594 215.960938 187.828125 215.960938 " fill-opacity="1" fill-rule="nonzero"/><path fill="#54c6d6" d="M 187.804688 152.492188 C 183.0625 152.492188 178.390625 152.738281 173.746094 153.085938 C 219.007812 156.542969 259.820312 176.367188 290.15625 206.714844 L 271.0625 225.847656 L 288.035156 237.042969 L 318.320312 206.714844 C 284.871094 173.253906 238.699219 152.515625 187.828125 152.492188 L 187.804688 152.492188 " fill-opacity="1" fill-rule="nonzero"/><path fill="#54c6d6" d="M 187.804688 86.625 C 183.085938 86.625 178.390625 86.773438 173.746094 87.046875 C 237.214844 90.578125 294.457031 117.839844 336.726562 160.152344 L 318.171875 178.738281 C 323.3125 182.941406 328.226562 187.414062 332.945312 192.109375 L 364.890625 160.152344 C 319.507812 114.75 256.878906 86.625 187.828125 86.625 L 187.804688 86.625 " fill-opacity="1" fill-rule="nonzero"/><path fill="#f6f570" d="M 264.242188 197.769531 L 363.085938 360.914062 L 165.371094 360.914062 Z M 264.242188 197.769531 " fill-opacity="1" fill-rule="nonzero"/><path fill="#f250aa" d="M 278.496094 259.582031 C 278.496094 267.464844 272.125 305.554688 264.242188 305.554688 C 256.363281 305.554688 249.988281 267.464844 249.988281 259.582031 C 249.988281 251.722656 256.363281 245.320312 264.242188 245.320312 C 272.125 245.320312 278.496094 251.722656 278.496094 259.582031 " fill-opacity="1" fill-rule="nonzero"/><path fill="#f250aa" d="M 273.582031 330.960938 C 273.582031 336.125 269.40625 340.300781 264.242188 340.300781 C 259.078125 340.300781 254.902344 336.125 254.902344 330.960938 C 254.902344 325.820312 259.078125 321.640625 264.242188 321.640625 C 269.40625 321.640625 273.582031 325.820312 273.582031 330.960938 " fill-opacity="1" fill-rule="nonzero"/><path fill="#f6f239" d="M 264.242188 197.769531 L 255.125 212.796875 L 344.878906 360.914062 L 363.085938 360.914062 L 264.242188 197.769531 " fill-opacity="1" fill-rule="nonzero"/><g clip-path="url(#108802c58f)"><path fill="#151722" d="M 322.792969 202.242188 C 286.648438 166.085938 238.699219 146.1875 187.804688 146.164062 C 136.914062 146.1875 88.960938 166.085938 52.816406 202.242188 C 50.347656 204.714844 50.347656 208.71875 52.816406 211.214844 L 84.785156 243.195312 C 85.96875 244.382812 87.578125 245.050781 89.257812 245.050781 C 90.9375 245.050781 92.542969 244.382812 93.726562 243.195312 C 118.777344 218.136719 152.179688 204.34375 187.828125 204.34375 C 207.667969 204.34375 227.285156 208.816406 245.046875 217.246094 L 242.179688 221.964844 C 225.183594 213.910156 206.53125 209.632812 187.828125 209.632812 C 153.859375 209.632812 121.84375 222.953125 97.679688 247.152344 C 96.496094 248.335938 95.828125 249.945312 95.828125 251.625 C 95.828125 253.28125 96.496094 254.886719 97.679688 256.074219 L 129.648438 288.054688 C 130.882812 289.289062 132.515625 289.90625 134.121094 289.90625 C 135.75 289.90625 137.355469 289.289062 138.59375 288.054688 C 151.636719 274.980469 169.128906 267.8125 187.828125 267.8125 C 196.082031 267.8125 204.109375 269.269531 211.792969 272.113281 L 207.519531 279.183594 C 201.21875 276.859375 194.625 275.574219 187.65625 275.425781 C 171.597656 275.722656 156.554688 282.222656 145.3125 293.738281 C 142.914062 296.210938 142.941406 300.191406 145.363281 302.636719 L 175.230469 332.46875 L 159.960938 357.652344 C 158.777344 359.605469 158.75 362.050781 159.863281 364.027344 C 161 366.03125 163.101562 367.242188 165.371094 367.242188 L 363.113281 367.242188 C 365.386719 367.242188 367.484375 366.03125 368.621094 364.027344 C 369.734375 362.050781 369.683594 359.605469 368.523438 357.652344 L 296.011719 238.007812 L 322.792969 211.214844 C 325.265625 208.71875 325.265625 204.714844 322.792969 202.242188 Z M 187.828125 255.160156 C 167.890625 255.160156 149.117188 262.078125 134.292969 274.808594 L 111.21875 251.722656 C 132.367188 232.691406 159.34375 222.289062 187.828125 222.289062 C 204.234375 222.289062 220.613281 225.921875 235.585938 232.816406 L 218.414062 261.1875 C 208.632812 257.257812 198.402344 255.160156 187.828125 255.160156 Z M 159.023438 298.386719 C 167.199219 291.886719 177.230469 288.277344 187.632812 288.078125 C 192.152344 288.179688 196.550781 288.96875 200.773438 290.277344 L 181.972656 321.320312 Z M 176.613281 354.585938 L 264.242188 209.980469 L 351.871094 354.585938 Z M 289.269531 226.859375 L 269.652344 194.484375 C 267.355469 190.703125 261.128906 190.703125 258.832031 194.484375 L 251.617188 206.394531 C 231.878906 196.78125 209.964844 191.691406 187.828125 191.691406 C 150.921875 191.691406 116.210938 205.210938 89.355469 229.875 L 66.304688 206.816406 C 99.484375 175.824219 142.398438 158.84375 187.828125 158.820312 C 233.210938 158.84375 276.125 175.824219 309.304688 206.816406 L 289.269531 226.859375 " fill-opacity="1" fill-rule="nonzero"/></g><g clip-path="url(#abe8b049f3)"><path fill="#151722" d="M 187.804688 80.296875 C 119.324219 80.296875 54.84375 107.066406 6.246094 155.65625 C 5.0625 156.839844 4.394531 158.472656 4.394531 160.152344 C 4.394531 161.808594 5.0625 163.441406 6.246094 164.625 L 38.214844 196.609375 C 40.6875 199.054688 44.6875 199.054688 47.160156 196.609375 C 84.636719 159.113281 134.589844 138.453125 187.828125 138.453125 C 241.019531 138.453125 290.972656 159.113281 328.476562 196.609375 C 329.660156 197.792969 331.265625 198.4375 332.945312 198.4375 C 334.628906 198.4375 336.234375 197.792969 337.417969 196.609375 L 369.363281 164.625 C 371.832031 162.15625 371.832031 158.125 369.363281 155.65625 C 320.765625 107.066406 256.289062 80.296875 187.804688 80.296875 Z M 187.828125 92.953125 C 250.804688 92.953125 310.242188 116.777344 355.898438 160.203125 L 332.871094 183.238281 C 293.542969 146.140625 242.28125 125.800781 187.828125 125.800781 C 133.332031 125.800781 82.066406 146.140625 42.761719 183.238281 L 19.710938 160.203125 C 65.367188 116.777344 124.808594 92.953125 187.804688 92.953125 " fill-opacity="1" fill-rule="nonzero"/></g><path fill="#151722" d="M 243.664062 259.582031 C 243.664062 260.125 247.46875 311.878906 264.242188 311.878906 C 281.015625 311.878906 284.820312 260.125 284.820312 259.582031 C 284.820312 248.238281 275.582031 238.996094 264.242188 238.996094 C 252.878906 238.996094 243.664062 248.238281 243.664062 259.582031 Z M 272.171875 259.582031 C 272.171875 266.503906 268.046875 287.957031 264.242188 296.605469 C 260.4375 287.957031 256.3125 266.503906 256.3125 259.582031 C 256.3125 255.207031 259.871094 251.648438 264.242188 251.648438 C 268.613281 251.648438 272.171875 255.207031 272.171875 259.582031 " fill-opacity="1" fill-rule="nonzero"/><path fill="#151722" d="M 264.242188 315.316406 C 255.59375 315.316406 248.578125 322.335938 248.578125 330.960938 C 248.578125 339.609375 255.59375 346.628906 264.242188 346.628906 C 272.863281 346.628906 279.878906 339.609375 279.878906 330.960938 C 279.878906 322.335938 272.863281 315.316406 264.242188 315.316406 Z M 264.242188 333.976562 C 262.585938 333.976562 261.226562 332.640625 261.226562 330.960938 C 261.226562 329.304688 262.585938 327.96875 264.242188 327.96875 C 265.898438 327.96875 267.230469 329.304688 267.230469 330.960938 C 267.230469 332.640625 265.898438 333.976562 264.242188 333.976562 " fill-opacity="1" fill-rule="nonzero"/><g fill="#afe4eb" fill-opacity="1"><g transform="translate(134.29925, 116.933563)"><g><path d="M 4.1875 -8.234375 C 4.1875 -8.046875 4.128906 -7.882812 4.015625 -7.75 C 3.898438 -7.625 3.765625 -7.519531 3.609375 -7.4375 C 3.472656 -7.34375 3.328125 -7.25 3.171875 -7.15625 C 3.023438 -7.0625 2.890625 -6.953125 2.765625 -6.828125 C 2.640625 -6.703125 2.535156 -6.566406 2.453125 -6.421875 C 2.378906 -6.273438 2.34375 -6.109375 2.34375 -5.921875 C 2.34375 -5.753906 2.378906 -5.601562 2.453125 -5.46875 C 2.535156 -5.34375 2.632812 -5.210938 2.75 -5.078125 C 2.863281 -4.953125 2.988281 -4.820312 3.125 -4.6875 C 3.257812 -4.550781 3.382812 -4.394531 3.5 -4.21875 C 3.613281 -4.050781 3.707031 -3.863281 3.78125 -3.65625 C 3.863281 -3.445312 3.90625 -3.203125 3.90625 -2.921875 C 3.90625 -2.722656 3.863281 -2.5 3.78125 -2.25 C 3.695312 -2.007812 3.582031 -1.765625 3.4375 -1.515625 C 3.300781 -1.265625 3.132812 -1.019531 2.9375 -0.78125 C 2.75 -0.550781 2.546875 -0.34375 2.328125 -0.15625 C 2.117188 0.03125 1.894531 0.175781 1.65625 0.28125 C 1.425781 0.394531 1.203125 0.453125 0.984375 0.453125 C 0.742188 0.453125 0.53125 0.382812 0.34375 0.25 C 0.15625 0.125 0.0625 -0.0703125 0.0625 -0.34375 C 0.0625 -0.519531 0.101562 -0.679688 0.1875 -0.828125 C 0.269531 -0.984375 0.375 -1.128906 0.5 -1.265625 C 0.625 -1.410156 0.765625 -1.550781 0.921875 -1.6875 C 1.078125 -1.820312 1.21875 -1.953125 1.34375 -2.078125 C 1.46875 -2.210938 1.570312 -2.351562 1.65625 -2.5 C 1.738281 -2.644531 1.78125 -2.800781 1.78125 -2.96875 C 1.78125 -3.195312 1.695312 -3.425781 1.53125 -3.65625 C 1.375 -3.894531 1.195312 -4.140625 1 -4.390625 C 0.8125 -4.648438 0.632812 -4.910156 0.46875 -5.171875 C 0.3125 -5.441406 0.234375 -5.710938 0.234375 -5.984375 C 0.234375 -6.328125 0.320312 -6.679688 0.5 -7.046875 C 0.6875 -7.421875 0.921875 -7.757812 1.203125 -8.0625 C 1.484375 -8.375 1.796875 -8.628906 2.140625 -8.828125 C 2.492188 -9.035156 2.84375 -9.140625 3.1875 -9.140625 C 3.457031 -9.140625 3.691406 -9.054688 3.890625 -8.890625 C 4.085938 -8.734375 4.1875 -8.515625 4.1875 -8.234375 Z M 4.1875 -8.234375 "/></g></g><g transform="translate(138.541437, 116.933563)"><g><path d="M 2.28125 -8.1875 C 2.28125 -8.070312 2.25 -7.972656 2.1875 -7.890625 C 2.132812 -7.804688 2.0625 -7.726562 1.96875 -7.65625 C 1.875 -7.59375 1.769531 -7.539062 1.65625 -7.5 C 1.550781 -7.46875 1.453125 -7.453125 1.359375 -7.453125 C 1.203125 -7.453125 1.066406 -7.488281 0.953125 -7.5625 C 0.835938 -7.644531 0.78125 -7.769531 0.78125 -7.9375 C 0.78125 -8.050781 0.804688 -8.148438 0.859375 -8.234375 C 0.921875 -8.328125 0.992188 -8.40625 1.078125 -8.46875 C 1.160156 -8.53125 1.253906 -8.578125 1.359375 -8.609375 C 1.472656 -8.640625 1.582031 -8.65625 1.6875 -8.65625 C 1.832031 -8.65625 1.96875 -8.617188 2.09375 -8.546875 C 2.21875 -8.472656 2.28125 -8.351562 2.28125 -8.1875 Z M 2.375 -4.203125 C 2.375 -4.085938 2.375 -3.96875 2.375 -3.84375 C 2.375 -3.726562 2.375 -3.613281 2.375 -3.5 C 2.363281 -3.375 2.359375 -3.195312 2.359375 -2.96875 C 2.359375 -2.75 2.347656 -2.507812 2.328125 -2.25 C 2.316406 -1.988281 2.289062 -1.722656 2.25 -1.453125 C 2.21875 -1.191406 2.160156 -0.953125 2.078125 -0.734375 C 2.003906 -0.515625 1.898438 -0.335938 1.765625 -0.203125 C 1.640625 -0.0664062 1.484375 0.00390625 1.296875 0.015625 C 1.140625 0.0234375 1.007812 -0.03125 0.90625 -0.15625 C 0.8125 -0.289062 0.726562 -0.457031 0.65625 -0.65625 C 0.59375 -0.851562 0.546875 -1.070312 0.515625 -1.3125 C 0.484375 -1.5625 0.457031 -1.800781 0.4375 -2.03125 C 0.425781 -2.257812 0.421875 -2.472656 0.421875 -2.671875 C 0.421875 -2.867188 0.421875 -3.015625 0.421875 -3.109375 C 0.421875 -3.234375 0.421875 -3.410156 0.421875 -3.640625 C 0.421875 -3.867188 0.425781 -4.113281 0.4375 -4.375 C 0.457031 -4.644531 0.488281 -4.914062 0.53125 -5.1875 C 0.570312 -5.46875 0.632812 -5.71875 0.71875 -5.9375 C 0.800781 -6.164062 0.910156 -6.347656 1.046875 -6.484375 C 1.179688 -6.628906 1.347656 -6.703125 1.546875 -6.703125 C 1.753906 -6.703125 1.910156 -6.597656 2.015625 -6.390625 C 2.128906 -6.179688 2.210938 -5.9375 2.265625 -5.65625 C 2.328125 -5.375 2.359375 -5.09375 2.359375 -4.8125 C 2.367188 -4.53125 2.375 -4.328125 2.375 -4.203125 Z M 2.375 -4.203125 "/></g></g><g transform="translate(141.400812, 116.933563)"><g><path d="M 3.78125 -6.453125 C 3.78125 -6.222656 3.703125 -6.050781 3.546875 -5.9375 C 3.398438 -5.832031 3.234375 -5.726562 3.046875 -5.625 C 2.859375 -5.53125 2.6875 -5.414062 2.53125 -5.28125 C 2.382812 -5.15625 2.3125 -4.957031 2.3125 -4.6875 C 2.3125 -4.550781 2.34375 -4.429688 2.40625 -4.328125 C 2.476562 -4.222656 2.5625 -4.128906 2.65625 -4.046875 C 2.75 -3.960938 2.851562 -3.878906 2.96875 -3.796875 C 3.09375 -3.710938 3.203125 -3.613281 3.296875 -3.5 C 3.398438 -3.394531 3.484375 -3.265625 3.546875 -3.109375 C 3.609375 -2.953125 3.640625 -2.757812 3.640625 -2.53125 C 3.640625 -2.207031 3.554688 -1.882812 3.390625 -1.5625 C 3.222656 -1.25 3.007812 -0.96875 2.75 -0.71875 C 2.488281 -0.476562 2.191406 -0.28125 1.859375 -0.125 C 1.535156 0.0195312 1.210938 0.09375 0.890625 0.09375 C 0.753906 0.09375 0.617188 0.0820312 0.484375 0.0625 C 0.359375 0.0390625 0.238281 0.00390625 0.125 -0.046875 C 0.0195312 -0.0976562 -0.0625 -0.171875 -0.125 -0.265625 C -0.195312 -0.367188 -0.234375 -0.5 -0.234375 -0.65625 C -0.234375 -0.875 -0.1875 -1.039062 -0.09375 -1.15625 C -0.0078125 -1.28125 0.09375 -1.378906 0.21875 -1.453125 C 0.351562 -1.523438 0.492188 -1.578125 0.640625 -1.609375 C 0.796875 -1.648438 0.941406 -1.703125 1.078125 -1.765625 C 1.210938 -1.828125 1.320312 -1.90625 1.40625 -2 C 1.488281 -2.09375 1.53125 -2.222656 1.53125 -2.390625 C 1.53125 -2.554688 1.46875 -2.726562 1.34375 -2.90625 C 1.21875 -3.082031 1.078125 -3.269531 0.921875 -3.46875 C 0.765625 -3.664062 0.617188 -3.875 0.484375 -4.09375 C 0.359375 -4.320312 0.296875 -4.578125 0.296875 -4.859375 C 0.296875 -5.191406 0.363281 -5.5 0.5 -5.78125 C 0.632812 -6.070312 0.816406 -6.320312 1.046875 -6.53125 C 1.273438 -6.738281 1.535156 -6.898438 1.828125 -7.015625 C 2.128906 -7.140625 2.445312 -7.203125 2.78125 -7.203125 C 2.90625 -7.203125 3.023438 -7.191406 3.140625 -7.171875 C 3.265625 -7.148438 3.375 -7.109375 3.46875 -7.046875 C 3.5625 -6.992188 3.632812 -6.914062 3.6875 -6.8125 C 3.75 -6.71875 3.78125 -6.597656 3.78125 -6.453125 Z M 3.78125 -6.453125 "/></g></g><g transform="translate(145.303156, 116.933563)"><g><path d="M 3.078125 0.421875 C 2.523438 0.421875 2.09375 0.347656 1.78125 0.203125 C 1.476562 0.0546875 1.25 -0.144531 1.09375 -0.40625 C 0.945312 -0.675781 0.859375 -1 0.828125 -1.375 C 0.796875 -1.75 0.78125 -2.164062 0.78125 -2.625 C 0.78125 -2.988281 0.789062 -3.359375 0.8125 -3.734375 C 0.832031 -4.109375 0.867188 -4.503906 0.921875 -4.921875 C 0.804688 -4.921875 0.71875 -4.914062 0.65625 -4.90625 C 0.59375 -4.90625 0.539062 -4.90625 0.5 -4.90625 C 0.25 -4.90625 0.0351562 -4.957031 -0.140625 -5.0625 C -0.328125 -5.175781 -0.421875 -5.347656 -0.421875 -5.578125 C -0.421875 -5.722656 -0.367188 -5.847656 -0.265625 -5.953125 C -0.160156 -6.066406 -0.0234375 -6.160156 0.140625 -6.234375 C 0.304688 -6.316406 0.484375 -6.378906 0.671875 -6.421875 C 0.867188 -6.472656 1.050781 -6.503906 1.21875 -6.515625 C 1.21875 -6.734375 1.234375 -6.972656 1.265625 -7.234375 C 1.296875 -7.503906 1.351562 -7.753906 1.4375 -7.984375 C 1.519531 -8.210938 1.628906 -8.40625 1.765625 -8.5625 C 1.910156 -8.71875 2.09375 -8.796875 2.3125 -8.796875 C 2.4375 -8.796875 2.546875 -8.757812 2.640625 -8.6875 C 2.742188 -8.613281 2.828125 -8.519531 2.890625 -8.40625 C 2.953125 -8.289062 3 -8.160156 3.03125 -8.015625 C 3.0625 -7.878906 3.078125 -7.75 3.078125 -7.625 C 3.078125 -7.46875 3.0625 -7.304688 3.03125 -7.140625 C 3.007812 -6.972656 2.96875 -6.769531 2.90625 -6.53125 C 3.039062 -6.539062 3.128906 -6.546875 3.171875 -6.546875 C 3.222656 -6.554688 3.269531 -6.5625 3.3125 -6.5625 C 3.4375 -6.5625 3.570312 -6.550781 3.71875 -6.53125 C 3.863281 -6.507812 3.992188 -6.46875 4.109375 -6.40625 C 4.234375 -6.351562 4.332031 -6.28125 4.40625 -6.1875 C 4.488281 -6.101562 4.53125 -6 4.53125 -5.875 C 4.53125 -5.726562 4.472656 -5.597656 4.359375 -5.484375 C 4.253906 -5.378906 4.113281 -5.285156 3.9375 -5.203125 C 3.769531 -5.128906 3.585938 -5.070312 3.390625 -5.03125 C 3.191406 -4.988281 3.007812 -4.960938 2.84375 -4.953125 C 2.789062 -4.628906 2.753906 -4.332031 2.734375 -4.0625 C 2.710938 -3.789062 2.691406 -3.519531 2.671875 -3.25 C 2.660156 -3.113281 2.644531 -2.976562 2.625 -2.84375 C 2.613281 -2.707031 2.609375 -2.566406 2.609375 -2.421875 C 2.609375 -2.328125 2.613281 -2.207031 2.625 -2.0625 C 2.632812 -1.925781 2.660156 -1.796875 2.703125 -1.671875 C 2.753906 -1.546875 2.828125 -1.4375 2.921875 -1.34375 C 3.023438 -1.257812 3.171875 -1.21875 3.359375 -1.21875 C 3.460938 -1.21875 3.570312 -1.226562 3.6875 -1.25 C 3.8125 -1.269531 3.929688 -1.28125 4.046875 -1.28125 C 4.242188 -1.28125 4.390625 -1.207031 4.484375 -1.0625 C 4.578125 -0.925781 4.625 -0.75 4.625 -0.53125 C 4.625 -0.363281 4.570312 -0.21875 4.46875 -0.09375 C 4.375 0.0195312 4.25 0.113281 4.09375 0.1875 C 3.945312 0.269531 3.78125 0.328125 3.59375 0.359375 C 3.414062 0.398438 3.242188 0.421875 3.078125 0.421875 Z M 3.078125 0.421875 "/></g></g><g transform="translate(149.803155, 116.933563)"><g><path d="M 5.265625 -2.09375 C 5.265625 -1.820312 5.179688 -1.554688 5.015625 -1.296875 C 4.847656 -1.046875 4.632812 -0.820312 4.375 -0.625 C 4.125 -0.425781 3.851562 -0.265625 3.5625 -0.140625 C 3.269531 -0.0234375 3.003906 0.03125 2.765625 0.03125 C 2.347656 0.03125 1.976562 -0.0703125 1.65625 -0.28125 C 1.332031 -0.488281 1.0625 -0.75 0.84375 -1.0625 C 0.625 -1.382812 0.457031 -1.738281 0.34375 -2.125 C 0.226562 -2.507812 0.171875 -2.890625 0.171875 -3.265625 C 0.171875 -3.648438 0.222656 -4.066406 0.328125 -4.515625 C 0.441406 -4.960938 0.609375 -5.375 0.828125 -5.75 C 1.054688 -6.125 1.335938 -6.4375 1.671875 -6.6875 C 2.015625 -6.9375 2.421875 -7.0625 2.890625 -7.0625 C 3.160156 -7.0625 3.414062 -7.015625 3.65625 -6.921875 C 3.894531 -6.828125 4.101562 -6.695312 4.28125 -6.53125 C 4.46875 -6.375 4.613281 -6.179688 4.71875 -5.953125 C 4.832031 -5.722656 4.890625 -5.46875 4.890625 -5.1875 C 4.890625 -4.820312 4.8125 -4.476562 4.65625 -4.15625 C 4.5 -3.84375 4.289062 -3.566406 4.03125 -3.328125 C 3.769531 -3.097656 3.472656 -2.910156 3.140625 -2.765625 C 2.804688 -2.617188 2.460938 -2.535156 2.109375 -2.515625 C 2.140625 -2.296875 2.226562 -2.132812 2.375 -2.03125 C 2.53125 -1.925781 2.71875 -1.875 2.9375 -1.875 C 3.09375 -1.875 3.242188 -1.910156 3.390625 -1.984375 C 3.535156 -2.066406 3.675781 -2.15625 3.8125 -2.25 C 3.957031 -2.351562 4.097656 -2.441406 4.234375 -2.515625 C 4.367188 -2.597656 4.507812 -2.640625 4.65625 -2.640625 C 4.8125 -2.640625 4.953125 -2.585938 5.078125 -2.484375 C 5.203125 -2.378906 5.265625 -2.25 5.265625 -2.09375 Z M 3.359375 -4.953125 C 3.359375 -5.054688 3.332031 -5.160156 3.28125 -5.265625 C 3.226562 -5.378906 3.144531 -5.4375 3.03125 -5.4375 C 2.851562 -5.4375 2.707031 -5.390625 2.59375 -5.296875 C 2.476562 -5.210938 2.378906 -5.101562 2.296875 -4.96875 C 2.222656 -4.832031 2.160156 -4.6875 2.109375 -4.53125 C 2.066406 -4.375 2.046875 -4.226562 2.046875 -4.09375 C 2.148438 -4.113281 2.273438 -4.144531 2.421875 -4.1875 C 2.578125 -4.226562 2.722656 -4.28125 2.859375 -4.34375 C 3.003906 -4.40625 3.125 -4.488281 3.21875 -4.59375 C 3.3125 -4.695312 3.359375 -4.816406 3.359375 -4.953125 Z M 3.359375 -4.953125 "/></g></g><g transform="translate(155.182061, 116.933563)"><g><path d="M 7.46875 -3.875 C 7.46875 -3.71875 7.46875 -3.515625 7.46875 -3.265625 C 7.46875 -3.015625 7.460938 -2.738281 7.453125 -2.4375 C 7.441406 -2.144531 7.414062 -1.847656 7.375 -1.546875 C 7.332031 -1.242188 7.269531 -0.96875 7.1875 -0.71875 C 7.101562 -0.476562 7 -0.28125 6.875 -0.125 C 6.75 0.03125 6.59375 0.109375 6.40625 0.109375 C 6.226562 0.109375 6.09375 0.0351562 6 -0.109375 C 5.914062 -0.253906 5.851562 -0.425781 5.8125 -0.625 C 5.769531 -0.820312 5.75 -1.019531 5.75 -1.21875 C 5.75 -1.425781 5.75 -1.585938 5.75 -1.703125 C 5.75 -2.054688 5.757812 -2.398438 5.78125 -2.734375 C 5.800781 -3.066406 5.8125 -3.410156 5.8125 -3.765625 C 5.8125 -3.804688 5.8125 -3.875 5.8125 -3.96875 C 5.8125 -4.070312 5.800781 -4.175781 5.78125 -4.28125 C 5.769531 -4.382812 5.742188 -4.472656 5.703125 -4.546875 C 5.671875 -4.628906 5.625 -4.671875 5.5625 -4.671875 C 5.414062 -4.671875 5.300781 -4.597656 5.21875 -4.453125 C 5.132812 -4.304688 5.0625 -4.132812 5 -3.9375 C 4.945312 -3.738281 4.910156 -3.546875 4.890625 -3.359375 C 4.867188 -3.171875 4.851562 -3.03125 4.84375 -2.9375 C 4.820312 -2.832031 4.804688 -2.675781 4.796875 -2.46875 C 4.785156 -2.269531 4.769531 -2.046875 4.75 -1.796875 C 4.726562 -1.554688 4.695312 -1.3125 4.65625 -1.0625 C 4.613281 -0.8125 4.554688 -0.582031 4.484375 -0.375 C 4.421875 -0.164062 4.335938 0.00390625 4.234375 0.140625 C 4.140625 0.273438 4.019531 0.34375 3.875 0.34375 C 3.6875 0.34375 3.539062 0.257812 3.4375 0.09375 C 3.332031 -0.0703125 3.253906 -0.265625 3.203125 -0.484375 C 3.160156 -0.703125 3.132812 -0.921875 3.125 -1.140625 C 3.113281 -1.367188 3.109375 -1.546875 3.109375 -1.671875 C 3.109375 -1.804688 3.109375 -1.9375 3.109375 -2.0625 C 3.117188 -2.1875 3.125 -2.316406 3.125 -2.453125 C 3.125 -2.503906 3.125 -2.59375 3.125 -2.71875 C 3.125 -2.84375 3.117188 -2.976562 3.109375 -3.125 C 3.109375 -3.28125 3.101562 -3.441406 3.09375 -3.609375 C 3.082031 -3.773438 3.0625 -3.925781 3.03125 -4.0625 C 3.007812 -4.195312 2.972656 -4.304688 2.921875 -4.390625 C 2.878906 -4.484375 2.828125 -4.53125 2.765625 -4.53125 C 2.660156 -4.53125 2.566406 -4.460938 2.484375 -4.328125 C 2.398438 -4.203125 2.328125 -4.050781 2.265625 -3.875 C 2.203125 -3.695312 2.148438 -3.519531 2.109375 -3.34375 C 2.078125 -3.175781 2.0625 -3.054688 2.0625 -2.984375 L 2.0625 -2.90625 C 2.0625 -2.53125 2.082031 -2.160156 2.125 -1.796875 C 2.175781 -1.441406 2.203125 -1.078125 2.203125 -0.703125 C 2.203125 -0.484375 2.128906 -0.28125 1.984375 -0.09375 C 1.847656 0.0820312 1.65625 0.171875 1.40625 0.171875 C 1.226562 0.171875 1.078125 0.101562 0.953125 -0.03125 C 0.835938 -0.164062 0.738281 -0.34375 0.65625 -0.5625 C 0.582031 -0.78125 0.523438 -1.019531 0.484375 -1.28125 C 0.441406 -1.539062 0.410156 -1.796875 0.390625 -2.046875 C 0.378906 -2.304688 0.367188 -2.539062 0.359375 -2.75 C 0.359375 -2.957031 0.359375 -3.113281 0.359375 -3.21875 C 0.359375 -3.332031 0.359375 -3.5 0.359375 -3.71875 C 0.359375 -3.945312 0.363281 -4.191406 0.375 -4.453125 C 0.382812 -4.722656 0.40625 -5 0.4375 -5.28125 C 0.46875 -5.5625 0.515625 -5.8125 0.578125 -6.03125 C 0.648438 -6.257812 0.742188 -6.445312 0.859375 -6.59375 C 0.972656 -6.738281 1.117188 -6.8125 1.296875 -6.8125 C 1.503906 -6.8125 1.671875 -6.753906 1.796875 -6.640625 C 1.929688 -6.535156 2 -6.375 2 -6.15625 C 2 -6.101562 1.992188 -6.050781 1.984375 -6 C 1.984375 -5.957031 1.976562 -5.921875 1.96875 -5.890625 C 2.050781 -6.015625 2.15625 -6.140625 2.28125 -6.265625 C 2.40625 -6.390625 2.539062 -6.503906 2.6875 -6.609375 C 2.832031 -6.722656 2.988281 -6.8125 3.15625 -6.875 C 3.320312 -6.9375 3.484375 -6.96875 3.640625 -6.96875 C 3.796875 -6.96875 3.9375 -6.925781 4.0625 -6.84375 C 4.1875 -6.757812 4.296875 -6.648438 4.390625 -6.515625 C 4.484375 -6.390625 4.5625 -6.253906 4.625 -6.109375 C 4.6875 -5.960938 4.734375 -5.820312 4.765625 -5.6875 C 4.835938 -5.820312 4.929688 -5.960938 5.046875 -6.109375 C 5.160156 -6.253906 5.28125 -6.378906 5.40625 -6.484375 C 5.539062 -6.597656 5.6875 -6.691406 5.84375 -6.765625 C 6.007812 -6.835938 6.179688 -6.875 6.359375 -6.875 C 6.515625 -6.875 6.648438 -6.8125 6.765625 -6.6875 C 6.890625 -6.570312 6.992188 -6.421875 7.078125 -6.234375 C 7.160156 -6.054688 7.222656 -5.851562 7.265625 -5.625 C 7.316406 -5.394531 7.359375 -5.164062 7.390625 -4.9375 C 7.421875 -4.71875 7.441406 -4.507812 7.453125 -4.3125 C 7.460938 -4.125 7.46875 -3.976562 7.46875 -3.875 Z M 7.46875 -3.875 "/></g></g><g transform="translate(163.068779, 116.933563)"><g/></g><g transform="translate(165.892998, 116.933563)"><g><path d="M 5.984375 -6.703125 C 5.984375 -6.054688 5.96875 -5.40625 5.9375 -4.75 C 5.90625 -4.101562 5.863281 -3.453125 5.8125 -2.796875 C 5.800781 -2.679688 5.789062 -2.523438 5.78125 -2.328125 C 5.78125 -2.128906 5.765625 -1.914062 5.734375 -1.6875 C 5.710938 -1.457031 5.679688 -1.222656 5.640625 -0.984375 C 5.609375 -0.753906 5.550781 -0.539062 5.46875 -0.34375 C 5.382812 -0.15625 5.273438 0 5.140625 0.125 C 5.015625 0.25 4.859375 0.3125 4.671875 0.3125 C 4.515625 0.3125 4.367188 0.273438 4.234375 0.203125 C 4.109375 0.128906 4 0.0351562 3.90625 -0.078125 C 3.820312 -0.191406 3.753906 -0.320312 3.703125 -0.46875 C 3.660156 -0.613281 3.640625 -0.765625 3.640625 -0.921875 C 3.640625 -1.171875 3.644531 -1.425781 3.65625 -1.6875 C 3.675781 -1.957031 3.703125 -2.21875 3.734375 -2.46875 L 2.578125 -2.359375 C 2.554688 -2.148438 2.53125 -1.90625 2.5 -1.625 C 2.476562 -1.34375 2.425781 -1.066406 2.34375 -0.796875 C 2.257812 -0.535156 2.132812 -0.3125 1.96875 -0.125 C 1.800781 0.0625 1.578125 0.15625 1.296875 0.15625 C 1.109375 0.15625 0.957031 0.113281 0.84375 0.03125 C 0.726562 -0.0507812 0.632812 -0.15625 0.5625 -0.28125 C 0.488281 -0.414062 0.4375 -0.5625 0.40625 -0.71875 C 0.375 -0.875 0.359375 -1.019531 0.359375 -1.15625 C 0.359375 -1.625 0.378906 -2.09375 0.421875 -2.5625 C 0.460938 -3.03125 0.488281 -3.5 0.5 -3.96875 C 0.519531 -4.457031 0.523438 -4.945312 0.515625 -5.4375 C 0.515625 -5.9375 0.523438 -6.4375 0.546875 -6.9375 C 0.546875 -7.101562 0.546875 -7.296875 0.546875 -7.515625 C 0.554688 -7.734375 0.585938 -7.9375 0.640625 -8.125 C 0.691406 -8.320312 0.773438 -8.484375 0.890625 -8.609375 C 1.015625 -8.742188 1.195312 -8.8125 1.4375 -8.8125 C 1.78125 -8.8125 2.035156 -8.722656 2.203125 -8.546875 C 2.378906 -8.367188 2.5 -8.148438 2.5625 -7.890625 C 2.632812 -7.628906 2.671875 -7.351562 2.671875 -7.0625 C 2.671875 -6.769531 2.671875 -6.503906 2.671875 -6.265625 C 2.671875 -5.953125 2.660156 -5.644531 2.640625 -5.34375 C 2.628906 -5.050781 2.617188 -4.75 2.609375 -4.4375 L 3.859375 -4.625 C 3.867188 -5.007812 3.875 -5.390625 3.875 -5.765625 C 3.882812 -6.140625 3.898438 -6.515625 3.921875 -6.890625 C 3.929688 -7.066406 3.941406 -7.253906 3.953125 -7.453125 C 3.960938 -7.660156 3.992188 -7.847656 4.046875 -8.015625 C 4.097656 -8.191406 4.1875 -8.335938 4.3125 -8.453125 C 4.445312 -8.566406 4.644531 -8.625 4.90625 -8.625 C 5.125 -8.625 5.300781 -8.5625 5.4375 -8.4375 C 5.570312 -8.3125 5.679688 -8.160156 5.765625 -7.984375 C 5.847656 -7.804688 5.90625 -7.613281 5.9375 -7.40625 C 5.96875 -7.207031 5.984375 -7.023438 5.984375 -6.859375 Z M 5.984375 -6.703125 "/></g></g><g transform="translate(172.291435, 116.933563)"><g><path d="M 5.265625 -2.09375 C 5.265625 -1.820312 5.179688 -1.554688 5.015625 -1.296875 C 4.847656 -1.046875 4.632812 -0.820312 4.375 -0.625 C 4.125 -0.425781 3.851562 -0.265625 3.5625 -0.140625 C 3.269531 -0.0234375 3.003906 0.03125 2.765625 0.03125 C 2.347656 0.03125 1.976562 -0.0703125 1.65625 -0.28125 C 1.332031 -0.488281 1.0625 -0.75 0.84375 -1.0625 C 0.625 -1.382812 0.457031 -1.738281 0.34375 -2.125 C 0.226562 -2.507812 0.171875 -2.890625 0.171875 -3.265625 C 0.171875 -3.648438 0.222656 -4.066406 0.328125 -4.515625 C 0.441406 -4.960938 0.609375 -5.375 0.828125 -5.75 C 1.054688 -6.125 1.335938 -6.4375 1.671875 -6.6875 C 2.015625 -6.9375 2.421875 -7.0625 2.890625 -7.0625 C 3.160156 -7.0625 3.414062 -7.015625 3.65625 -6.921875 C 3.894531 -6.828125 4.101562 -6.695312 4.28125 -6.53125 C 4.46875 -6.375 4.613281 -6.179688 4.71875 -5.953125 C 4.832031 -5.722656 4.890625 -5.46875 4.890625 -5.1875 C 4.890625 -4.820312 4.8125 -4.476562 4.65625 -4.15625 C 4.5 -3.84375 4.289062 -3.566406 4.03125 -3.328125 C 3.769531 -3.097656 3.472656 -2.910156 3.140625 -2.765625 C 2.804688 -2.617188 2.460938 -2.535156 2.109375 -2.515625 C 2.140625 -2.296875 2.226562 -2.132812 2.375 -2.03125 C 2.53125 -1.925781 2.71875 -1.875 2.9375 -1.875 C 3.09375 -1.875 3.242188 -1.910156 3.390625 -1.984375 C 3.535156 -2.066406 3.675781 -2.15625 3.8125 -2.25 C 3.957031 -2.351562 4.097656 -2.441406 4.234375 -2.515625 C 4.367188 -2.597656 4.507812 -2.640625 4.65625 -2.640625 C 4.8125 -2.640625 4.953125 -2.585938 5.078125 -2.484375 C 5.203125 -2.378906 5.265625 -2.25 5.265625 -2.09375 Z M 3.359375 -4.953125 C 3.359375 -5.054688 3.332031 -5.160156 3.28125 -5.265625 C 3.226562 -5.378906 3.144531 -5.4375 3.03125 -5.4375 C 2.851562 -5.4375 2.707031 -5.390625 2.59375 -5.296875 C 2.476562 -5.210938 2.378906 -5.101562 2.296875 -4.96875 C 2.222656 -4.832031 2.160156 -4.6875 2.109375 -4.53125 C 2.066406 -4.375 2.046875 -4.226562 2.046875 -4.09375 C 2.148438 -4.113281 2.273438 -4.144531 2.421875 -4.1875 C 2.578125 -4.226562 2.722656 -4.28125 2.859375 -4.34375 C 3.003906 -4.40625 3.125 -4.488281 3.21875 -4.59375 C 3.3125 -4.695312 3.359375 -4.816406 3.359375 -4.953125 Z M 3.359375 -4.953125 "/></g></g><g transform="translate(177.670341, 116.933563)"><g><path d="M 2.546875 -7.109375 C 2.546875 -6.679688 2.523438 -6.253906 2.484375 -5.828125 C 2.453125 -5.398438 2.4375 -4.972656 2.4375 -4.546875 C 2.4375 -3.992188 2.453125 -3.4375 2.484375 -2.875 C 2.523438 -2.320312 2.546875 -1.765625 2.546875 -1.203125 C 2.546875 -1.066406 2.535156 -0.910156 2.515625 -0.734375 C 2.503906 -0.554688 2.46875 -0.394531 2.40625 -0.25 C 2.351562 -0.101562 2.265625 0.0195312 2.140625 0.125 C 2.023438 0.226562 1.867188 0.28125 1.671875 0.28125 C 1.484375 0.28125 1.320312 0.1875 1.1875 0 C 1.050781 -0.175781 0.9375 -0.40625 0.84375 -0.6875 C 0.757812 -0.976562 0.6875 -1.300781 0.625 -1.65625 C 0.570312 -2.007812 0.53125 -2.347656 0.5 -2.671875 C 0.46875 -3.003906 0.445312 -3.3125 0.4375 -3.59375 C 0.425781 -3.875 0.421875 -4.078125 0.421875 -4.203125 C 0.421875 -4.359375 0.425781 -4.578125 0.4375 -4.859375 C 0.445312 -5.140625 0.472656 -5.441406 0.515625 -5.765625 C 0.554688 -6.097656 0.609375 -6.429688 0.671875 -6.765625 C 0.742188 -7.109375 0.832031 -7.414062 0.9375 -7.6875 C 1.050781 -7.96875 1.179688 -8.195312 1.328125 -8.375 C 1.484375 -8.550781 1.664062 -8.640625 1.875 -8.640625 C 2.050781 -8.640625 2.179688 -8.582031 2.265625 -8.46875 C 2.359375 -8.351562 2.421875 -8.210938 2.453125 -8.046875 C 2.492188 -7.890625 2.519531 -7.722656 2.53125 -7.546875 C 2.539062 -7.378906 2.546875 -7.234375 2.546875 -7.109375 Z M 2.546875 -7.109375 "/></g></g><g transform="translate(180.752372, 116.933563)"><g><path d="M 5.71875 -3.5 C 5.71875 -3.15625 5.679688 -2.773438 5.609375 -2.359375 C 5.535156 -1.953125 5.410156 -1.570312 5.234375 -1.21875 C 5.054688 -0.863281 4.820312 -0.566406 4.53125 -0.328125 C 4.25 -0.0976562 3.894531 0.015625 3.46875 0.015625 C 3.363281 0.015625 3.25 0.0078125 3.125 0 C 3.007812 -0.0195312 2.898438 -0.0507812 2.796875 -0.09375 C 2.691406 -0.132812 2.59375 -0.1875 2.5 -0.25 C 2.414062 -0.320312 2.351562 -0.410156 2.3125 -0.515625 L 2.203125 1.171875 C 2.191406 1.347656 2.1875 1.5625 2.1875 1.8125 C 2.1875 2.0625 2.15625 2.300781 2.09375 2.53125 C 2.03125 2.757812 1.929688 2.953125 1.796875 3.109375 C 1.660156 3.273438 1.460938 3.359375 1.203125 3.359375 C 1.054688 3.359375 0.929688 3.28125 0.828125 3.125 C 0.734375 2.96875 0.65625 2.769531 0.59375 2.53125 C 0.53125 2.300781 0.484375 2.039062 0.453125 1.75 C 0.421875 1.46875 0.398438 1.191406 0.390625 0.921875 C 0.390625 0.660156 0.390625 0.421875 0.390625 0.203125 C 0.390625 -0.015625 0.390625 -0.175781 0.390625 -0.28125 C 0.390625 -0.800781 0.382812 -1.320312 0.375 -1.84375 C 0.363281 -2.363281 0.359375 -2.882812 0.359375 -3.40625 C 0.359375 -3.5 0.359375 -3.644531 0.359375 -3.84375 C 0.359375 -4.050781 0.363281 -4.269531 0.375 -4.5 C 0.394531 -4.738281 0.421875 -4.984375 0.453125 -5.234375 C 0.492188 -5.484375 0.550781 -5.707031 0.625 -5.90625 C 0.695312 -6.113281 0.785156 -6.28125 0.890625 -6.40625 C 1.003906 -6.539062 1.140625 -6.609375 1.296875 -6.609375 C 1.390625 -6.609375 1.476562 -6.578125 1.5625 -6.515625 C 1.644531 -6.460938 1.710938 -6.390625 1.765625 -6.296875 C 1.828125 -6.210938 1.878906 -6.117188 1.921875 -6.015625 C 1.960938 -5.910156 1.992188 -5.816406 2.015625 -5.734375 C 2.253906 -6.003906 2.53125 -6.207031 2.84375 -6.34375 C 3.164062 -6.488281 3.507812 -6.5625 3.875 -6.5625 C 4.25 -6.5625 4.550781 -6.457031 4.78125 -6.25 C 5.019531 -6.039062 5.207031 -5.78125 5.34375 -5.46875 C 5.488281 -5.15625 5.585938 -4.816406 5.640625 -4.453125 C 5.691406 -4.097656 5.71875 -3.78125 5.71875 -3.5 Z M 4.046875 -3.59375 C 4.046875 -3.707031 4.035156 -3.820312 4.015625 -3.9375 C 3.992188 -4.0625 3.957031 -4.175781 3.90625 -4.28125 C 3.851562 -4.382812 3.78125 -4.46875 3.6875 -4.53125 C 3.59375 -4.601562 3.476562 -4.640625 3.34375 -4.640625 C 3.15625 -4.640625 2.957031 -4.578125 2.75 -4.453125 C 2.539062 -4.335938 2.382812 -4.203125 2.28125 -4.046875 C 2.25 -3.984375 2.226562 -3.878906 2.21875 -3.734375 C 2.207031 -3.597656 2.203125 -3.492188 2.203125 -3.421875 C 2.203125 -3.367188 2.203125 -3.296875 2.203125 -3.203125 C 2.210938 -3.117188 2.21875 -3.03125 2.21875 -2.9375 C 2.226562 -2.84375 2.238281 -2.75 2.25 -2.65625 C 2.269531 -2.570312 2.289062 -2.507812 2.3125 -2.46875 C 2.332031 -2.394531 2.378906 -2.328125 2.453125 -2.265625 C 2.535156 -2.210938 2.625 -2.160156 2.71875 -2.109375 C 2.8125 -2.066406 2.90625 -2.03125 3 -2 C 3.101562 -1.976562 3.191406 -1.96875 3.265625 -1.96875 C 3.421875 -1.96875 3.550781 -2.03125 3.65625 -2.15625 C 3.757812 -2.28125 3.835938 -2.425781 3.890625 -2.59375 C 3.953125 -2.769531 3.992188 -2.945312 4.015625 -3.125 C 4.035156 -3.3125 4.046875 -3.46875 4.046875 -3.59375 Z M 4.046875 -3.59375 "/></g></g><g transform="translate(186.834403, 116.933563)"><g><path d="M 5.40625 -7.71875 C 5.40625 -7.144531 5.382812 -6.578125 5.34375 -6.015625 C 5.300781 -5.453125 5.28125 -4.882812 5.28125 -4.3125 C 5.28125 -3.851562 5.289062 -3.394531 5.3125 -2.9375 C 5.34375 -2.488281 5.359375 -2.035156 5.359375 -1.578125 C 5.359375 -1.453125 5.351562 -1.300781 5.34375 -1.125 C 5.332031 -0.945312 5.304688 -0.773438 5.265625 -0.609375 C 5.222656 -0.441406 5.148438 -0.300781 5.046875 -0.1875 C 4.953125 -0.0703125 4.816406 -0.015625 4.640625 -0.015625 C 4.410156 -0.015625 4.21875 -0.101562 4.0625 -0.28125 C 3.90625 -0.457031 3.8125 -0.65625 3.78125 -0.875 C 3.625 -0.59375 3.40625 -0.351562 3.125 -0.15625 C 2.84375 0.0390625 2.539062 0.140625 2.21875 0.140625 C 1.863281 0.140625 1.554688 0.0195312 1.296875 -0.21875 C 1.046875 -0.46875 0.835938 -0.765625 0.671875 -1.109375 C 0.503906 -1.453125 0.378906 -1.8125 0.296875 -2.1875 C 0.210938 -2.5625 0.171875 -2.882812 0.171875 -3.15625 C 0.171875 -3.351562 0.179688 -3.578125 0.203125 -3.828125 C 0.234375 -4.078125 0.273438 -4.328125 0.328125 -4.578125 C 0.390625 -4.835938 0.46875 -5.085938 0.5625 -5.328125 C 0.65625 -5.578125 0.773438 -5.800781 0.921875 -6 C 1.066406 -6.195312 1.238281 -6.351562 1.4375 -6.46875 C 1.632812 -6.582031 1.863281 -6.640625 2.125 -6.640625 C 2.40625 -6.640625 2.671875 -6.554688 2.921875 -6.390625 C 3.179688 -6.234375 3.378906 -6.035156 3.515625 -5.796875 L 3.625 -7.65625 C 3.632812 -7.800781 3.644531 -7.972656 3.65625 -8.171875 C 3.675781 -8.367188 3.707031 -8.554688 3.75 -8.734375 C 3.800781 -8.921875 3.878906 -9.078125 3.984375 -9.203125 C 4.097656 -9.328125 4.265625 -9.390625 4.484375 -9.390625 C 4.703125 -9.390625 4.875 -9.332031 5 -9.21875 C 5.125 -9.113281 5.21875 -8.976562 5.28125 -8.8125 C 5.34375 -8.644531 5.378906 -8.460938 5.390625 -8.265625 C 5.398438 -8.066406 5.40625 -7.882812 5.40625 -7.71875 Z M 3.5 -2.515625 C 3.5 -2.691406 3.492188 -2.863281 3.484375 -3.03125 C 3.472656 -3.207031 3.472656 -3.382812 3.484375 -3.5625 C 3.429688 -3.664062 3.375 -3.773438 3.3125 -3.890625 C 3.25 -4.015625 3.171875 -4.128906 3.078125 -4.234375 C 2.992188 -4.335938 2.894531 -4.425781 2.78125 -4.5 C 2.675781 -4.570312 2.5625 -4.609375 2.4375 -4.609375 C 2.300781 -4.609375 2.1875 -4.5625 2.09375 -4.46875 C 2.007812 -4.382812 1.945312 -4.28125 1.90625 -4.15625 C 1.875 -4.039062 1.847656 -3.910156 1.828125 -3.765625 C 1.816406 -3.628906 1.8125 -3.507812 1.8125 -3.40625 C 1.8125 -3.3125 1.816406 -3.171875 1.828125 -2.984375 C 1.847656 -2.804688 1.878906 -2.625 1.921875 -2.4375 C 1.972656 -2.25 2.035156 -2.082031 2.109375 -1.9375 C 2.191406 -1.800781 2.296875 -1.734375 2.421875 -1.734375 C 2.523438 -1.734375 2.628906 -1.753906 2.734375 -1.796875 C 2.835938 -1.835938 2.929688 -1.890625 3.015625 -1.953125 C 3.109375 -2.023438 3.195312 -2.101562 3.28125 -2.1875 C 3.363281 -2.269531 3.4375 -2.347656 3.5 -2.421875 Z M 3.5 -2.515625 "/></g></g><g transform="translate(192.658621, 116.933563)"><g><path d="M 5.265625 -2.09375 C 5.265625 -1.820312 5.179688 -1.554688 5.015625 -1.296875 C 4.847656 -1.046875 4.632812 -0.820312 4.375 -0.625 C 4.125 -0.425781 3.851562 -0.265625 3.5625 -0.140625 C 3.269531 -0.0234375 3.003906 0.03125 2.765625 0.03125 C 2.347656 0.03125 1.976562 -0.0703125 1.65625 -0.28125 C 1.332031 -0.488281 1.0625 -0.75 0.84375 -1.0625 C 0.625 -1.382812 0.457031 -1.738281 0.34375 -2.125 C 0.226562 -2.507812 0.171875 -2.890625 0.171875 -3.265625 C 0.171875 -3.648438 0.222656 -4.066406 0.328125 -4.515625 C 0.441406 -4.960938 0.609375 -5.375 0.828125 -5.75 C 1.054688 -6.125 1.335938 -6.4375 1.671875 -6.6875 C 2.015625 -6.9375 2.421875 -7.0625 2.890625 -7.0625 C 3.160156 -7.0625 3.414062 -7.015625 3.65625 -6.921875 C 3.894531 -6.828125 4.101562 -6.695312 4.28125 -6.53125 C 4.46875 -6.375 4.613281 -6.179688 4.71875 -5.953125 C 4.832031 -5.722656 4.890625 -5.46875 4.890625 -5.1875 C 4.890625 -4.820312 4.8125 -4.476562 4.65625 -4.15625 C 4.5 -3.84375 4.289062 -3.566406 4.03125 -3.328125 C 3.769531 -3.097656 3.472656 -2.910156 3.140625 -2.765625 C 2.804688 -2.617188 2.460938 -2.535156 2.109375 -2.515625 C 2.140625 -2.296875 2.226562 -2.132812 2.375 -2.03125 C 2.53125 -1.925781 2.71875 -1.875 2.9375 -1.875 C 3.09375 -1.875 3.242188 -1.910156 3.390625 -1.984375 C 3.535156 -2.066406 3.675781 -2.15625 3.8125 -2.25 C 3.957031 -2.351562 4.097656 -2.441406 4.234375 -2.515625 C 4.367188 -2.597656 4.507812 -2.640625 4.65625 -2.640625 C 4.8125 -2.640625 4.953125 -2.585938 5.078125 -2.484375 C 5.203125 -2.378906 5.265625 -2.25 5.265625 -2.09375 Z M 3.359375 -4.953125 C 3.359375 -5.054688 3.332031 -5.160156 3.28125 -5.265625 C 3.226562 -5.378906 3.144531 -5.4375 3.03125 -5.4375 C 2.851562 -5.4375 2.707031 -5.390625 2.59375 -5.296875 C 2.476562 -5.210938 2.378906 -5.101562 2.296875 -4.96875 C 2.222656 -4.832031 2.160156 -4.6875 2.109375 -4.53125 C 2.066406 -4.375 2.046875 -4.226562 2.046875 -4.09375 C 2.148438 -4.113281 2.273438 -4.144531 2.421875 -4.1875 C 2.578125 -4.226562 2.722656 -4.28125 2.859375 -4.34375 C 3.003906 -4.40625 3.125 -4.488281 3.21875 -4.59375 C 3.3125 -4.695312 3.359375 -4.816406 3.359375 -4.953125 Z M 3.359375 -4.953125 "/></g></g><g transform="translate(198.037527, 116.933563)"><g><path d="M 3.78125 -6.453125 C 3.78125 -6.222656 3.703125 -6.050781 3.546875 -5.9375 C 3.398438 -5.832031 3.234375 -5.726562 3.046875 -5.625 C 2.859375 -5.53125 2.6875 -5.414062 2.53125 -5.28125 C 2.382812 -5.15625 2.3125 -4.957031 2.3125 -4.6875 C 2.3125 -4.550781 2.34375 -4.429688 2.40625 -4.328125 C 2.476562 -4.222656 2.5625 -4.128906 2.65625 -4.046875 C 2.75 -3.960938 2.851562 -3.878906 2.96875 -3.796875 C 3.09375 -3.710938 3.203125 -3.613281 3.296875 -3.5 C 3.398438 -3.394531 3.484375 -3.265625 3.546875 -3.109375 C 3.609375 -2.953125 3.640625 -2.757812 3.640625 -2.53125 C 3.640625 -2.207031 3.554688 -1.882812 3.390625 -1.5625 C 3.222656 -1.25 3.007812 -0.96875 2.75 -0.71875 C 2.488281 -0.476562 2.191406 -0.28125 1.859375 -0.125 C 1.535156 0.0195312 1.210938 0.09375 0.890625 0.09375 C 0.753906 0.09375 0.617188 0.0820312 0.484375 0.0625 C 0.359375 0.0390625 0.238281 0.00390625 0.125 -0.046875 C 0.0195312 -0.0976562 -0.0625 -0.171875 -0.125 -0.265625 C -0.195312 -0.367188 -0.234375 -0.5 -0.234375 -0.65625 C -0.234375 -0.875 -0.1875 -1.039062 -0.09375 -1.15625 C -0.0078125 -1.28125 0.09375 -1.378906 0.21875 -1.453125 C 0.351562 -1.523438 0.492188 -1.578125 0.640625 -1.609375 C 0.796875 -1.648438 0.941406 -1.703125 1.078125 -1.765625 C 1.210938 -1.828125 1.320312 -1.90625 1.40625 -2 C 1.488281 -2.09375 1.53125 -2.222656 1.53125 -2.390625 C 1.53125 -2.554688 1.46875 -2.726562 1.34375 -2.90625 C 1.21875 -3.082031 1.078125 -3.269531 0.921875 -3.46875 C 0.765625 -3.664062 0.617188 -3.875 0.484375 -4.09375 C 0.359375 -4.320312 0.296875 -4.578125 0.296875 -4.859375 C 0.296875 -5.191406 0.363281 -5.5 0.5 -5.78125 C 0.632812 -6.070312 0.816406 -6.320312 1.046875 -6.53125 C 1.273438 -6.738281 1.535156 -6.898438 1.828125 -7.015625 C 2.128906 -7.140625 2.445312 -7.203125 2.78125 -7.203125 C 2.90625 -7.203125 3.023438 -7.191406 3.140625 -7.171875 C 3.265625 -7.148438 3.375 -7.109375 3.46875 -7.046875 C 3.5625 -6.992188 3.632812 -6.914062 3.6875 -6.8125 C 3.75 -6.71875 3.78125 -6.597656 3.78125 -6.453125 Z M 3.78125 -6.453125 "/></g></g><g transform="translate(201.939871, 116.933563)"><g><path d="M 5.5625 -6.3125 C 5.5625 -6.09375 5.503906 -5.867188 5.390625 -5.640625 C 5.273438 -5.410156 5.132812 -5.179688 4.96875 -4.953125 C 4.8125 -4.734375 4.644531 -4.523438 4.46875 -4.328125 C 4.289062 -4.128906 4.140625 -3.945312 4.015625 -3.78125 C 4.117188 -3.613281 4.253906 -3.382812 4.421875 -3.09375 C 4.585938 -2.8125 4.742188 -2.507812 4.890625 -2.1875 C 5.035156 -1.875 5.160156 -1.5625 5.265625 -1.25 C 5.367188 -0.945312 5.421875 -0.695312 5.421875 -0.5 C 5.421875 -0.332031 5.367188 -0.175781 5.265625 -0.03125 C 5.171875 0.101562 5.035156 0.171875 4.859375 0.171875 C 4.722656 0.171875 4.585938 0.113281 4.453125 0 C 4.316406 -0.113281 4.175781 -0.265625 4.03125 -0.453125 C 3.894531 -0.640625 3.765625 -0.84375 3.640625 -1.0625 C 3.515625 -1.289062 3.398438 -1.515625 3.296875 -1.734375 C 3.191406 -1.953125 3.097656 -2.15625 3.015625 -2.34375 C 2.929688 -2.539062 2.867188 -2.695312 2.828125 -2.8125 C 2.722656 -2.707031 2.613281 -2.625 2.5 -2.5625 C 2.382812 -2.5 2.273438 -2.421875 2.171875 -2.328125 C 2.171875 -2.171875 2.164062 -1.941406 2.15625 -1.640625 C 2.144531 -1.347656 2.109375 -1.054688 2.046875 -0.765625 C 1.984375 -0.472656 1.882812 -0.21875 1.75 0 C 1.625 0.207031 1.429688 0.3125 1.171875 0.3125 C 0.972656 0.3125 0.816406 0.21875 0.703125 0.03125 C 0.597656 -0.144531 0.519531 -0.351562 0.46875 -0.59375 C 0.414062 -0.84375 0.382812 -1.09375 0.375 -1.34375 C 0.363281 -1.601562 0.359375 -1.800781 0.359375 -1.9375 C 0.359375 -2.507812 0.375 -3.082031 0.40625 -3.65625 C 0.4375 -4.238281 0.457031 -4.820312 0.46875 -5.40625 C 0.46875 -5.539062 0.46875 -5.710938 0.46875 -5.921875 C 0.476562 -6.140625 0.492188 -6.375 0.515625 -6.625 C 0.535156 -6.875 0.566406 -7.125 0.609375 -7.375 C 0.660156 -7.632812 0.726562 -7.867188 0.8125 -8.078125 C 0.90625 -8.285156 1.019531 -8.453125 1.15625 -8.578125 C 1.289062 -8.710938 1.457031 -8.78125 1.65625 -8.78125 C 1.789062 -8.78125 1.90625 -8.726562 2 -8.625 C 2.101562 -8.519531 2.179688 -8.382812 2.234375 -8.21875 C 2.296875 -8.050781 2.34375 -7.863281 2.375 -7.65625 C 2.40625 -7.457031 2.425781 -7.257812 2.4375 -7.0625 C 2.445312 -6.863281 2.453125 -6.675781 2.453125 -6.5 C 2.453125 -6.332031 2.453125 -6.195312 2.453125 -6.09375 C 2.453125 -6.019531 2.445312 -5.914062 2.4375 -5.78125 C 2.4375 -5.644531 2.429688 -5.503906 2.421875 -5.359375 C 2.421875 -5.210938 2.421875 -5.078125 2.421875 -4.953125 C 2.421875 -4.828125 2.429688 -4.734375 2.453125 -4.671875 C 2.503906 -4.671875 2.582031 -4.722656 2.6875 -4.828125 C 2.800781 -4.941406 2.929688 -5.078125 3.078125 -5.234375 C 3.222656 -5.398438 3.378906 -5.570312 3.546875 -5.75 C 3.710938 -5.9375 3.882812 -6.113281 4.0625 -6.28125 C 4.238281 -6.445312 4.410156 -6.582031 4.578125 -6.6875 C 4.753906 -6.789062 4.914062 -6.84375 5.0625 -6.84375 C 5.21875 -6.84375 5.335938 -6.785156 5.421875 -6.671875 C 5.515625 -6.566406 5.5625 -6.445312 5.5625 -6.3125 Z M 5.5625 -6.3125 "/></g></g><g transform="translate(207.553152, 116.933563)"><g/></g><g transform="translate(210.37737, 116.933563)"><g><path d="M 4.40625 -7.953125 C 4.40625 -7.804688 4.367188 -7.675781 4.296875 -7.5625 C 4.234375 -7.445312 4.144531 -7.347656 4.03125 -7.265625 C 3.925781 -7.179688 3.804688 -7.109375 3.671875 -7.046875 C 3.546875 -6.992188 3.421875 -6.957031 3.296875 -6.9375 C 3.273438 -6.050781 3.238281 -5.195312 3.1875 -4.375 C 3.144531 -3.5625 3.066406 -2.71875 2.953125 -1.84375 L 3.03125 -1.84375 C 3.15625 -1.84375 3.273438 -1.828125 3.390625 -1.796875 C 3.515625 -1.773438 3.625 -1.726562 3.71875 -1.65625 C 3.820312 -1.59375 3.898438 -1.507812 3.953125 -1.40625 C 4.015625 -1.3125 4.046875 -1.195312 4.046875 -1.0625 C 4.046875 -0.875 3.988281 -0.710938 3.875 -0.578125 C 3.757812 -0.453125 3.609375 -0.34375 3.421875 -0.25 C 3.242188 -0.15625 3.039062 -0.078125 2.8125 -0.015625 C 2.582031 0.046875 2.351562 0.09375 2.125 0.125 C 1.90625 0.164062 1.691406 0.191406 1.484375 0.203125 C 1.285156 0.222656 1.125 0.234375 1 0.234375 C 0.90625 0.234375 0.789062 0.226562 0.65625 0.21875 C 0.519531 0.21875 0.390625 0.195312 0.265625 0.15625 C 0.140625 0.113281 0.0351562 0.0546875 -0.046875 -0.015625 C -0.128906 -0.0976562 -0.171875 -0.207031 -0.171875 -0.34375 C -0.171875 -0.507812 -0.132812 -0.65625 -0.0625 -0.78125 C 0 -0.90625 0.0820312 -1.019531 0.1875 -1.125 C 0.300781 -1.226562 0.425781 -1.3125 0.5625 -1.375 C 0.695312 -1.4375 0.832031 -1.484375 0.96875 -1.515625 C 1.03125 -1.941406 1.082031 -2.367188 1.125 -2.796875 C 1.175781 -3.222656 1.207031 -3.65625 1.21875 -4.09375 C 1.238281 -4.539062 1.253906 -4.976562 1.265625 -5.40625 C 1.285156 -5.84375 1.300781 -6.28125 1.3125 -6.71875 C 1.257812 -6.707031 1.207031 -6.695312 1.15625 -6.6875 C 1.113281 -6.6875 1.070312 -6.6875 1.03125 -6.6875 C 0.925781 -6.6875 0.8125 -6.695312 0.6875 -6.71875 C 0.5625 -6.75 0.441406 -6.789062 0.328125 -6.84375 C 0.222656 -6.90625 0.128906 -6.976562 0.046875 -7.0625 C -0.0234375 -7.15625 -0.0625 -7.265625 -0.0625 -7.390625 C -0.0625 -7.660156 0.046875 -7.878906 0.265625 -8.046875 C 0.492188 -8.222656 0.757812 -8.359375 1.0625 -8.453125 C 1.375 -8.546875 1.691406 -8.609375 2.015625 -8.640625 C 2.335938 -8.679688 2.597656 -8.703125 2.796875 -8.703125 C 2.898438 -8.703125 3.039062 -8.691406 3.21875 -8.671875 C 3.40625 -8.660156 3.582031 -8.625 3.75 -8.5625 C 3.925781 -8.507812 4.078125 -8.4375 4.203125 -8.34375 C 4.335938 -8.25 4.40625 -8.117188 4.40625 -7.953125 Z M 4.40625 -7.953125 "/></g></g><g transform="translate(214.59612, 116.933563)"><g><path d="M 5.421875 -8 C 5.421875 -7.8125 5.34375 -7.632812 5.1875 -7.46875 C 5.039062 -7.3125 4.859375 -7.171875 4.640625 -7.046875 C 4.429688 -6.929688 4.210938 -6.832031 3.984375 -6.75 C 3.753906 -6.675781 3.566406 -6.625 3.421875 -6.59375 C 3.359375 -5.988281 3.304688 -5.382812 3.265625 -4.78125 C 3.234375 -4.1875 3.21875 -3.585938 3.21875 -2.984375 C 3.21875 -2.671875 3.222656 -2.359375 3.234375 -2.046875 C 3.253906 -1.734375 3.265625 -1.421875 3.265625 -1.109375 C 3.265625 -0.960938 3.25 -0.804688 3.21875 -0.640625 C 3.195312 -0.472656 3.148438 -0.3125 3.078125 -0.15625 C 3.015625 -0.0078125 2.925781 0.109375 2.8125 0.203125 C 2.695312 0.304688 2.550781 0.359375 2.375 0.359375 C 2.175781 0.359375 2.015625 0.300781 1.890625 0.1875 C 1.773438 0.0820312 1.679688 -0.0507812 1.609375 -0.21875 C 1.546875 -0.382812 1.5 -0.554688 1.46875 -0.734375 C 1.445312 -0.921875 1.4375 -1.09375 1.4375 -1.25 C 1.425781 -1.71875 1.414062 -2.1875 1.40625 -2.65625 C 1.394531 -3.125 1.390625 -3.597656 1.390625 -4.078125 C 1.390625 -4.472656 1.390625 -4.863281 1.390625 -5.25 C 1.398438 -5.632812 1.40625 -6.023438 1.40625 -6.421875 C 1.300781 -6.410156 1.191406 -6.398438 1.078125 -6.390625 C 0.960938 -6.378906 0.847656 -6.375 0.734375 -6.375 C 0.640625 -6.375 0.515625 -6.382812 0.359375 -6.40625 C 0.203125 -6.425781 0.0546875 -6.460938 -0.078125 -6.515625 C -0.222656 -6.566406 -0.34375 -6.632812 -0.4375 -6.71875 C -0.539062 -6.8125 -0.59375 -6.925781 -0.59375 -7.0625 C -0.59375 -7.300781 -0.5 -7.507812 -0.3125 -7.6875 C -0.132812 -7.863281 0.09375 -8.015625 0.375 -8.140625 C 0.664062 -8.265625 0.984375 -8.375 1.328125 -8.46875 C 1.679688 -8.5625 2.023438 -8.628906 2.359375 -8.671875 C 2.703125 -8.722656 3.015625 -8.757812 3.296875 -8.78125 C 3.585938 -8.8125 3.8125 -8.828125 3.96875 -8.828125 C 4.113281 -8.828125 4.269531 -8.820312 4.4375 -8.8125 C 4.601562 -8.800781 4.757812 -8.765625 4.90625 -8.703125 C 5.0625 -8.648438 5.1875 -8.566406 5.28125 -8.453125 C 5.375 -8.347656 5.421875 -8.195312 5.421875 -8 Z M 5.421875 -8 "/></g></g></g></svg>