<svg xmlns="http://www.w3.org/2000/svg" xmlns:xlink="http://www.w3.org/1999/xlink" width="500" zoomAndPan="magnify" viewBox="0 0 375 374.999991" height="500" preserveAspectRatio="xMidYMid meet" version="1.0"><defs><g/><clipPath id="e04117bfe5"><path d="M 248.234375 214.511719 L 277.484375 214.511719 L 277.484375 243.761719 L 248.234375 243.761719 Z M 248.234375 214.511719 " clip-rule="nonzero"/></clipPath><clipPath id="d3f6d06ffc"><path d="M 151 168 L 208 168 L 208 210.515625 L 151 210.515625 Z M 151 168 " clip-rule="nonzero"/></clipPath><clipPath id="29990a6019"><path d="M 214 117 L 254.570312 117 L 254.570312 159 L 214 159 Z M 214 117 " clip-rule="nonzero"/></clipPath><clipPath id="8ca1ed33dc"><path d="M 105.320312 113 L 141 113 L 141 138 L 105.320312 138 Z M 105.320312 113 " clip-rule="nonzero"/></clipPath><clipPath id="b4417b9486"><path d="M 123 169 L 150 169 L 150 210.515625 L 123 210.515625 Z M 123 169 " clip-rule="nonzero"/></clipPath><clipPath id="cce1e06137"><path d="M 210 169 L 237 169 L 237 210.515625 L 210 210.515625 Z M 210 169 " clip-rule="nonzero"/></clipPath><clipPath id="f80d82a557"><path d="M 166 60.515625 L 194 60.515625 L 194 65 L 166 65 Z M 166 60.515625 " clip-rule="nonzero"/></clipPath></defs><rect x="-37.5" width="450" fill="#ffffff" y="-37.499999" height="449.999989" fill-opacity="1"/><rect x="-37.5" width="450" fill="#134071" y="-37.499999" height="449.999989" fill-opacity="1"/><g fill="#ffffff" fill-opacity="1"><g transform="translate(119.305413, 243.517688)"><g><path d="M 11.921875 0.390625 C 10.015625 0.390625 8.316406 0.15625 6.828125 -0.3125 C 5.347656 -0.789062 3.960938 -1.601562 2.671875 -2.75 C 1.953125 -3.382812 1.59375 -4.082031 1.59375 -4.84375 C 1.59375 -5.457031 1.816406 -5.992188 2.265625 -6.453125 C 2.710938 -6.921875 3.253906 -7.15625 3.890625 -7.15625 C 4.398438 -7.15625 4.851562 -7 5.25 -6.6875 C 6.3125 -5.8125 7.34375 -5.171875 8.34375 -4.765625 C 9.351562 -4.367188 10.546875 -4.171875 11.921875 -4.171875 C 13.410156 -4.171875 14.691406 -4.5 15.765625 -5.15625 C 16.835938 -5.820312 17.375 -6.648438 17.375 -7.640625 C 17.375 -8.828125 16.84375 -9.757812 15.78125 -10.4375 C 14.726562 -11.113281 13.046875 -11.625 10.734375 -11.96875 C 4.929688 -12.8125 2.03125 -15.515625 2.03125 -20.078125 C 2.03125 -21.753906 2.46875 -23.207031 3.34375 -24.4375 C 4.21875 -25.664062 5.410156 -26.601562 6.921875 -27.25 C 8.429688 -27.90625 10.113281 -28.234375 11.96875 -28.234375 C 13.632812 -28.234375 15.203125 -27.976562 16.671875 -27.46875 C 18.148438 -26.96875 19.378906 -26.304688 20.359375 -25.484375 C 21.128906 -24.878906 21.515625 -24.175781 21.515625 -23.375 C 21.515625 -22.769531 21.285156 -22.234375 20.828125 -21.765625 C 20.378906 -21.304688 19.851562 -21.078125 19.25 -21.078125 C 18.851562 -21.078125 18.492188 -21.195312 18.171875 -21.4375 C 17.484375 -21.988281 16.519531 -22.492188 15.28125 -22.953125 C 14.050781 -23.421875 12.945312 -23.65625 11.96875 -23.65625 C 10.300781 -23.65625 9.007812 -23.34375 8.09375 -22.71875 C 7.175781 -22.101562 6.71875 -21.289062 6.71875 -20.28125 C 6.71875 -19.144531 7.1875 -18.285156 8.125 -17.703125 C 9.070312 -17.117188 10.550781 -16.640625 12.5625 -16.265625 C 14.84375 -15.867188 16.664062 -15.359375 18.03125 -14.734375 C 19.394531 -14.109375 20.421875 -13.257812 21.109375 -12.1875 C 21.804688 -11.113281 22.15625 -9.6875 22.15625 -7.90625 C 22.15625 -6.238281 21.679688 -4.773438 20.734375 -3.515625 C 19.796875 -2.253906 18.546875 -1.285156 16.984375 -0.609375 C 15.421875 0.0546875 13.734375 0.390625 11.921875 0.390625 Z M 11.921875 0.390625 "/></g></g></g><g fill="#ffffff" fill-opacity="1"><g transform="translate(143.043192, 243.517688)"><g><path d="M 7.953125 -2.421875 C 7.953125 -1.734375 7.695312 -1.15625 7.1875 -0.6875 C 6.6875 -0.226562 6.109375 0 5.453125 0 C 4.734375 0 4.140625 -0.226562 3.671875 -0.6875 C 3.210938 -1.15625 2.984375 -1.734375 2.984375 -2.421875 L 2.984375 -25.40625 C 2.984375 -26.09375 3.21875 -26.664062 3.6875 -27.125 C 4.164062 -27.59375 4.78125 -27.828125 5.53125 -27.828125 C 6.1875 -27.828125 6.753906 -27.59375 7.234375 -27.125 C 7.710938 -26.664062 7.953125 -26.09375 7.953125 -25.40625 Z M 7.953125 -2.421875 "/></g></g></g><g fill="#ffffff" fill-opacity="1"><g transform="translate(153.977678, 243.517688)"><g><path d="M 23.140625 -27.828125 C 23.878906 -27.828125 24.472656 -27.601562 24.921875 -27.15625 C 25.378906 -26.707031 25.609375 -26.125 25.609375 -25.40625 L 25.609375 -2.421875 C 25.609375 -1.734375 25.367188 -1.15625 24.890625 -0.6875 C 24.410156 -0.226562 23.800781 0 23.0625 0 C 22.394531 0 21.820312 -0.226562 21.34375 -0.6875 C 20.875 -1.15625 20.640625 -1.734375 20.640625 -2.421875 L 20.640625 -11.6875 L 7.953125 -11.6875 L 7.953125 -2.421875 C 7.953125 -1.734375 7.695312 -1.15625 7.1875 -0.6875 C 6.6875 -0.226562 6.109375 0 5.453125 0 C 4.734375 0 4.140625 -0.226562 3.671875 -0.6875 C 3.210938 -1.15625 2.984375 -1.734375 2.984375 -2.421875 L 2.984375 -25.40625 C 2.984375 -26.09375 3.21875 -26.664062 3.6875 -27.125 C 4.164062 -27.59375 4.78125 -27.828125 5.53125 -27.828125 C 6.1875 -27.828125 6.753906 -27.59375 7.234375 -27.125 C 7.710938 -26.664062 7.953125 -26.09375 7.953125 -25.40625 L 7.953125 -16.265625 L 20.640625 -16.265625 L 20.640625 -25.40625 C 20.640625 -26.09375 20.890625 -26.664062 21.390625 -27.125 C 21.898438 -27.59375 22.484375 -27.828125 23.140625 -27.828125 Z M 23.140625 -27.828125 "/></g></g></g><g fill="#ffffff" fill-opacity="1"><g transform="translate(182.566402, 243.517688)"><g><path d="M 18.734375 -4.578125 C 19.421875 -4.578125 19.992188 -4.34375 20.453125 -3.875 C 20.921875 -3.414062 21.15625 -2.878906 21.15625 -2.265625 C 21.15625 -1.597656 20.921875 -1.050781 20.453125 -0.625 C 19.992188 -0.207031 19.421875 0 18.734375 0 L 5.40625 0 C 4.71875 0 4.140625 -0.226562 3.671875 -0.6875 C 3.210938 -1.15625 2.984375 -1.734375 2.984375 -2.421875 L 2.984375 -25.40625 C 2.984375 -26.09375 3.210938 -26.664062 3.671875 -27.125 C 4.140625 -27.59375 4.71875 -27.828125 5.40625 -27.828125 L 18.734375 -27.828125 C 19.421875 -27.828125 19.992188 -27.609375 20.453125 -27.171875 C 20.921875 -26.742188 21.15625 -26.179688 21.15625 -25.484375 C 21.15625 -24.828125 20.925781 -24.289062 20.46875 -23.875 C 20.019531 -23.46875 19.441406 -23.265625 18.734375 -23.265625 L 7.953125 -23.265625 L 7.953125 -16.5 L 16.9375 -16.5 C 17.625 -16.5 18.195312 -16.28125 18.65625 -15.84375 C 19.125 -15.40625 19.359375 -14.84375 19.359375 -14.15625 C 19.359375 -13.488281 19.132812 -12.945312 18.6875 -12.53125 C 18.238281 -12.125 17.65625 -11.921875 16.9375 -11.921875 L 7.953125 -11.921875 L 7.953125 -4.578125 Z M 18.734375 -4.578125 "/></g></g></g><g fill="#ffffff" fill-opacity="1"><g transform="translate(205.310137, 243.517688)"><g><path d="M 14.46875 -27.828125 C 15.820312 -27.828125 17.109375 -27.421875 18.328125 -26.609375 C 19.546875 -25.804688 20.523438 -24.722656 21.265625 -23.359375 C 22.015625 -21.992188 22.390625 -20.503906 22.390625 -18.890625 C 22.390625 -17.296875 22.015625 -15.804688 21.265625 -14.421875 C 20.523438 -13.046875 19.546875 -11.953125 18.328125 -11.140625 C 17.109375 -10.335938 15.820312 -9.9375 14.46875 -9.9375 L 7.5625 -9.9375 L 7.5625 -2.421875 C 7.5625 -1.710938 7.347656 -1.128906 6.921875 -0.671875 C 6.492188 -0.222656 5.9375 0 5.25 0 C 4.582031 0 4.035156 -0.226562 3.609375 -0.6875 C 3.191406 -1.15625 2.984375 -1.734375 2.984375 -2.421875 L 2.984375 -25.40625 C 2.984375 -26.09375 3.210938 -26.664062 3.671875 -27.125 C 4.140625 -27.59375 4.71875 -27.828125 5.40625 -27.828125 Z M 14.46875 -14.46875 C 14.976562 -14.46875 15.476562 -14.679688 15.96875 -15.109375 C 16.457031 -15.535156 16.851562 -16.085938 17.15625 -16.765625 C 17.457031 -17.441406 17.609375 -18.148438 17.609375 -18.890625 C 17.609375 -19.628906 17.457031 -20.335938 17.15625 -21.015625 C 16.851562 -21.691406 16.457031 -22.234375 15.96875 -22.640625 C 15.476562 -23.054688 14.976562 -23.265625 14.46875 -23.265625 L 7.5625 -23.265625 L 7.5625 -14.46875 Z M 14.46875 -14.46875 "/></g></g></g><g fill="#ffffff" fill-opacity="1"><g transform="translate(229.286491, 243.517688)"><g><path d="M 7.953125 -2.421875 C 7.953125 -1.734375 7.695312 -1.15625 7.1875 -0.6875 C 6.6875 -0.226562 6.109375 0 5.453125 0 C 4.734375 0 4.140625 -0.226562 3.671875 -0.6875 C 3.210938 -1.15625 2.984375 -1.734375 2.984375 -2.421875 L 2.984375 -25.40625 C 2.984375 -26.09375 3.21875 -26.664062 3.6875 -27.125 C 4.164062 -27.59375 4.78125 -27.828125 5.53125 -27.828125 C 6.1875 -27.828125 6.753906 -27.59375 7.234375 -27.125 C 7.710938 -26.664062 7.953125 -26.09375 7.953125 -25.40625 Z M 7.953125 -2.421875 "/></g></g></g><g clip-path="url(#e04117bfe5)"><path fill="#ffffff" d="M 262.964844 244.019531 C 254.832031 244.019531 248.234375 237.375 248.234375 229.242188 C 248.234375 221.109375 254.832031 214.511719 262.964844 214.511719 C 271.101562 214.511719 277.695312 221.109375 277.695312 229.242188 C 277.742188 237.375 271.101562 244.019531 262.964844 244.019531 Z M 262.964844 216.316406 C 255.871094 216.316406 250.042969 222.148438 250.042969 229.242188 C 250.042969 236.335938 255.871094 242.164062 262.964844 242.164062 C 270.058594 242.164062 275.890625 236.335938 275.890625 229.242188 C 275.890625 222.148438 270.105469 216.316406 262.964844 216.316406 Z M 262.964844 216.316406 " fill-opacity="1" fill-rule="nonzero"/></g><path fill="#ffffff" d="M 265.675781 228.066406 C 264.503906 230.507812 261.292969 230.507812 260.117188 228.066406 C 259.757812 227.296875 258.582031 227.976562 258.945312 228.746094 C 260.527344 232.089844 265.226562 232.089844 266.851562 228.746094 C 267.257812 227.976562 266.082031 227.296875 265.675781 228.066406 Z M 265.675781 228.066406 " fill-opacity="1" fill-rule="nonzero"/><path fill="#ffffff" d="M 259.757812 224.269531 C 259.757812 224.445312 259.722656 224.613281 259.65625 224.773438 C 259.589844 224.933594 259.496094 225.074219 259.375 225.199219 C 259.25 225.320312 259.109375 225.414062 258.949219 225.480469 C 258.789062 225.546875 258.621094 225.582031 258.445312 225.582031 C 258.273438 225.582031 258.105469 225.546875 257.945312 225.480469 C 257.785156 225.414062 257.644531 225.320312 257.519531 225.199219 C 257.398438 225.074219 257.304688 224.933594 257.234375 224.773438 C 257.167969 224.613281 257.136719 224.445312 257.136719 224.269531 C 257.136719 224.097656 257.167969 223.929688 257.234375 223.769531 C 257.304688 223.609375 257.398438 223.46875 257.519531 223.34375 C 257.644531 223.222656 257.785156 223.125 257.945312 223.058594 C 258.105469 222.992188 258.273438 222.960938 258.445312 222.960938 C 258.621094 222.960938 258.789062 222.992188 258.949219 223.058594 C 259.109375 223.125 259.25 223.222656 259.375 223.34375 C 259.496094 223.46875 259.589844 223.609375 259.65625 223.769531 C 259.722656 223.929688 259.757812 224.097656 259.757812 224.269531 Z M 259.757812 224.269531 " fill-opacity="1" fill-rule="nonzero"/><path fill="#ffffff" d="M 269.5625 224.269531 C 269.5625 224.445312 269.53125 224.613281 269.464844 224.773438 C 269.398438 224.933594 269.300781 225.074219 269.179688 225.199219 C 269.054688 225.320312 268.914062 225.414062 268.753906 225.480469 C 268.59375 225.546875 268.425781 225.582031 268.253906 225.582031 C 268.078125 225.582031 267.910156 225.546875 267.75 225.480469 C 267.589844 225.414062 267.449219 225.320312 267.328125 225.199219 C 267.203125 225.074219 267.109375 224.933594 267.042969 224.773438 C 266.976562 224.613281 266.941406 224.445312 266.941406 224.269531 C 266.941406 224.097656 266.976562 223.929688 267.042969 223.769531 C 267.109375 223.609375 267.203125 223.46875 267.328125 223.34375 C 267.449219 223.222656 267.589844 223.125 267.75 223.058594 C 267.910156 222.992188 268.078125 222.960938 268.253906 222.960938 C 268.425781 222.960938 268.59375 222.992188 268.753906 223.058594 C 268.914062 223.125 269.054688 223.222656 269.179688 223.34375 C 269.300781 223.46875 269.398438 223.609375 269.464844 223.769531 C 269.53125 223.929688 269.5625 224.097656 269.5625 224.269531 Z M 269.5625 224.269531 " fill-opacity="1" fill-rule="nonzero"/><g clip-path="url(#d3f6d06ffc)"><path fill="#ffffff" d="M 190.875 168.320312 L 186.835938 172.882812 C 186.605469 173.148438 186.269531 173.296875 185.921875 173.296875 C 185.878906 173.296875 185.835938 173.292969 185.796875 173.289062 C 185.402344 173.246094 185.054688 173.019531 184.859375 172.675781 L 184.800781 172.574219 L 184.800781 191.847656 C 184.800781 192.519531 184.253906 193.066406 183.582031 193.066406 L 176.082031 193.066406 C 175.410156 193.066406 174.859375 192.519531 174.859375 191.847656 L 174.859375 172.570312 L 174.800781 172.675781 C 174.609375 173.019531 174.261719 173.246094 173.867188 173.289062 C 173.824219 173.292969 173.78125 173.292969 173.738281 173.292969 C 173.390625 173.292969 173.058594 173.144531 172.824219 172.882812 L 168.785156 168.316406 C 163.765625 170.96875 157.023438 176.054688 151.734375 185.558594 L 151.734375 197.59375 C 152.894531 198.875 154.359375 199.925781 156.117188 200.726562 L 156.117188 185.8125 C 156.117188 185.136719 156.664062 184.589844 157.339844 184.589844 C 158.011719 184.589844 158.5625 185.136719 158.5625 185.8125 L 158.5625 210.371094 L 201.105469 210.371094 L 201.105469 185.8125 C 201.105469 185.136719 201.652344 184.589844 202.324219 184.589844 C 203 184.589844 203.546875 185.136719 203.546875 185.8125 L 203.546875 200.726562 C 205.304688 199.925781 206.769531 198.875 207.929688 197.59375 L 207.929688 185.5625 C 202.640625 176.058594 195.894531 170.972656 190.875 168.320312 Z M 190.875 168.320312 " fill-opacity="1" fill-rule="nonzero"/></g><path fill="#ffffff" d="M 169.660156 102.921875 C 170.269531 102.980469 170.742188 103.476562 170.769531 104.085938 C 170.773438 104.164062 171.238281 112.183594 178.175781 116.671875 C 182.738281 119.621094 186.441406 120.039062 189.703125 120.410156 C 191.714844 120.636719 193.613281 120.851562 195.484375 121.605469 C 198.757812 122.917969 201.46875 125.539062 202.980469 127.230469 C 205.234375 121.285156 204.171875 112.4375 200.199219 105.726562 C 197.128906 100.53125 191.097656 94.335938 179.832031 94.335938 C 168.566406 94.335938 162.539062 100.527344 159.464844 105.71875 C 155.496094 112.429688 154.425781 121.269531 156.675781 127.21875 C 162.441406 120.175781 166.382812 112.335938 168.359375 103.863281 C 168.496094 103.265625 169.0625 102.875 169.660156 102.921875 Z M 169.660156 102.921875 " fill-opacity="1" fill-rule="nonzero"/><g clip-path="url(#29990a6019)"><path fill="#ffffff" d="M 252.429688 147.25 C 250.492188 145.222656 247.546875 144.558594 244.925781 145.558594 C 244.46875 145.734375 243.945312 145.617188 243.605469 145.261719 L 227.410156 128.308594 C 227.070312 127.949219 226.980469 127.425781 227.175781 126.976562 C 228.292969 124.40625 227.765625 121.429688 225.828125 119.402344 C 224.925781 118.457031 223.808594 117.808594 222.601562 117.488281 C 224.40625 119.871094 224.175781 123.292969 221.960938 125.40625 C 219.746094 127.519531 216.320312 127.59375 214.023438 125.683594 C 214.285156 126.90625 214.882812 128.050781 215.785156 128.996094 C 217.722656 131.023438 220.667969 131.6875 223.289062 130.6875 C 223.433594 130.632812 223.578125 130.605469 223.726562 130.605469 C 224.054688 130.605469 224.375 130.738281 224.609375 130.984375 L 240.804688 147.941406 C 241.144531 148.296875 241.238281 148.820312 241.042969 149.269531 C 239.921875 151.84375 240.449219 154.816406 242.386719 156.84375 C 243.289062 157.789062 244.40625 158.4375 245.613281 158.757812 C 244.800781 157.6875 244.378906 156.386719 244.410156 155.019531 C 244.445312 153.425781 245.101562 151.941406 246.253906 150.839844 C 247.410156 149.738281 248.921875 149.148438 250.515625 149.1875 C 251.878906 149.21875 253.164062 149.703125 254.195312 150.5625 C 253.929688 149.34375 253.332031 148.195312 252.429688 147.25 Z M 252.429688 147.25 " fill-opacity="1" fill-rule="nonzero"/></g><path fill="#ffffff" d="M 151.730469 203.523438 C 152.871094 204.75 154.273438 205.554688 156.113281 206.023438 L 156.113281 203.355469 C 154.460938 202.710938 152.996094 201.890625 151.730469 200.898438 Z M 151.730469 203.523438 " fill-opacity="1" fill-rule="nonzero"/><path fill="#ffffff" d="M 205.894531 137.769531 C 206.851562 135.167969 206.132812 132.421875 204.320312 131.238281 C 203.871094 135.054688 203.199219 138.507812 202.359375 141.394531 C 203.863281 140.929688 205.226562 139.585938 205.894531 137.769531 Z M 205.894531 137.769531 " fill-opacity="1" fill-rule="nonzero"/><path fill="#ffffff" d="M 179.832031 156.863281 C 188.238281 156.863281 195.371094 150.195312 197.894531 145.992188 C 199.757812 142.886719 201.289062 136.882812 202.023438 129.875 C 201.132812 128.761719 198.167969 125.3125 194.574219 123.871094 C 193.011719 123.242188 191.351562 123.054688 189.429688 122.835938 C 186.074219 122.457031 181.898438 121.984375 176.851562 118.722656 C 172.621094 115.984375 170.488281 112.203125 169.414062 109.179688 C 166.984375 116.652344 163.03125 123.597656 157.640625 129.894531 C 158.378906 136.898438 159.910156 142.890625 161.769531 145.992188 C 164.289062 150.195312 171.425781 156.863281 179.832031 156.863281 Z M 187.710938 126.679688 C 187.792969 126.636719 187.878906 126.621094 187.96875 126.597656 C 187.972656 126.597656 187.980469 126.597656 187.984375 126.597656 C 188.070312 126.578125 188.152344 126.542969 188.246094 126.542969 C 188.519531 126.542969 189.027344 126.484375 189.335938 126.082031 C 189.746094 125.546875 190.515625 125.445312 191.046875 125.855469 C 191.582031 126.265625 191.683594 127.035156 191.273438 127.570312 C 191.253906 127.59375 191.226562 127.613281 191.207031 127.636719 C 191.296875 127.609375 191.382812 127.585938 191.464844 127.550781 C 192.085938 127.289062 192.804688 127.574219 193.070312 128.195312 C 193.335938 128.8125 193.046875 129.53125 192.425781 129.796875 C 191.734375 130.09375 190.957031 130.210938 190.21875 130.210938 C 190.125 130.210938 190.035156 130.199219 189.941406 130.195312 C 189.554688 130.597656 189.011719 130.84375 188.410156 130.84375 C 187.222656 130.84375 186.261719 129.882812 186.261719 128.699219 C 186.261719 127.761719 186.871094 126.96875 187.710938 126.679688 Z M 174.230469 134.769531 C 174.578125 133.542969 175.710938 132.683594 176.988281 132.683594 C 177.253906 132.683594 177.515625 132.722656 177.773438 132.792969 C 178.460938 132.988281 179.160156 133.089844 179.851562 133.089844 C 180.546875 133.089844 181.246094 132.988281 181.941406 132.792969 C 182.195312 132.722656 182.457031 132.683594 182.71875 132.683594 C 184 132.683594 185.136719 133.542969 185.480469 134.773438 C 185.910156 136.292969 185.023438 137.878906 183.503906 138.308594 C 182.296875 138.652344 181.070312 138.824219 179.855469 138.824219 C 178.636719 138.824219 177.410156 138.652344 176.207031 138.308594 C 174.6875 137.878906 173.800781 136.292969 174.230469 134.769531 Z M 171.25 130.84375 C 170.644531 130.84375 170.101562 130.59375 169.710938 130.1875 C 169.609375 130.191406 169.515625 130.203125 169.417969 130.203125 C 168.664062 130.203125 167.878906 130.085938 167.214844 129.789062 C 166.601562 129.515625 166.324219 128.792969 166.597656 128.175781 C 166.875 127.5625 167.59375 127.285156 168.210938 127.558594 C 168.289062 127.59375 168.371094 127.617188 168.457031 127.640625 C 168.4375 127.613281 168.40625 127.597656 168.386719 127.570312 C 167.976562 127.035156 168.078125 126.265625 168.613281 125.855469 C 169.144531 125.445312 169.914062 125.546875 170.324219 126.082031 C 170.632812 126.484375 171.140625 126.542969 171.414062 126.542969 C 171.507812 126.542969 171.589844 126.578125 171.675781 126.597656 C 171.683594 126.597656 171.6875 126.597656 171.691406 126.597656 C 171.78125 126.621094 171.867188 126.640625 171.949219 126.679688 C 172.789062 126.96875 173.398438 127.761719 173.398438 128.699219 C 173.398438 129.886719 172.4375 130.84375 171.25 130.84375 Z M 166.441406 119.808594 C 168.914062 118.066406 172.253906 118.621094 172.394531 118.644531 C 173.058594 118.761719 173.503906 119.394531 173.386719 120.058594 C 173.273438 120.722656 172.648438 121.167969 171.980469 121.054688 C 171.953125 121.050781 169.480469 120.652344 167.847656 121.804688 C 167.632812 121.957031 167.386719 122.027344 167.144531 122.027344 C 166.761719 122.027344 166.382812 121.847656 166.144531 121.507812 C 165.757812 120.957031 165.890625 120.195312 166.441406 119.808594 Z M 166.441406 119.808594 " fill-opacity="1" fill-rule="nonzero"/><path fill="#ffffff" d="M 153.765625 137.769531 C 154.433594 139.585938 155.796875 140.929688 157.300781 141.394531 C 156.460938 138.507812 155.789062 135.054688 155.339844 131.238281 C 153.527344 132.421875 152.808594 135.167969 153.765625 137.769531 Z M 153.765625 137.769531 " fill-opacity="1" fill-rule="nonzero"/><path fill="#ffffff" d="M 144.882812 85.164062 C 146.996094 88.355469 150.589844 90.332031 154.441406 90.332031 C 160.769531 90.332031 165.917969 85.1875 165.917969 78.859375 C 165.917969 72.535156 160.769531 67.386719 154.441406 67.386719 C 150.589844 67.386719 146.996094 69.363281 144.882812 72.554688 C 145.851562 74.449219 146.410156 76.589844 146.410156 78.859375 C 146.410156 81.128906 145.851562 83.269531 144.882812 85.164062 Z M 156.21875 73.847656 C 156.21875 73.171875 156.765625 72.625 157.441406 72.625 C 158.113281 72.625 158.660156 73.171875 158.660156 73.847656 L 158.660156 76.9375 C 158.660156 77.613281 158.113281 78.160156 157.441406 78.160156 C 156.765625 78.160156 156.21875 77.613281 156.21875 76.9375 Z M 150.222656 73.847656 C 150.222656 73.171875 150.769531 72.625 151.445312 72.625 C 152.121094 72.625 152.667969 73.171875 152.667969 73.847656 L 152.667969 76.9375 C 152.667969 77.613281 152.121094 78.160156 151.445312 78.160156 C 150.769531 78.160156 150.222656 77.613281 150.222656 76.9375 Z M 147.203125 82.589844 C 147.285156 82.445312 149.292969 79.074219 154.441406 79.074219 C 159.59375 79.074219 161.601562 82.445312 161.683594 82.589844 C 162.019531 83.175781 161.820312 83.921875 161.238281 84.257812 C 161.046875 84.371094 160.835938 84.421875 160.628906 84.421875 C 160.203125 84.421875 159.792969 84.203125 159.566406 83.8125 C 159.515625 83.726562 158.128906 81.515625 154.441406 81.515625 C 150.757812 81.515625 149.367188 83.730469 149.308594 83.824219 C 148.960938 84.394531 148.214844 84.585938 147.640625 84.246094 C 147.0625 83.902344 146.867188 83.167969 147.203125 82.589844 Z M 147.203125 82.589844 " fill-opacity="1" fill-rule="nonzero"/><path fill="#ffffff" d="M 199.386719 80.863281 C 198.964844 80.410156 198.394531 80.183594 197.820312 80.183594 C 197.300781 80.183594 196.78125 80.371094 196.371094 80.75 L 193.949219 83 C 193.53125 83.386719 193.289062 83.914062 193.269531 84.484375 C 193.25 85.050781 193.449219 85.59375 193.839844 86.011719 L 196.128906 88.476562 C 197.199219 89.632812 198.695312 90.25 200.246094 90.1875 C 203.28125 90.050781 208.257812 88.621094 214.726562 82.613281 C 221.195312 76.609375 222.988281 71.75 223.351562 68.730469 C 223.535156 67.199219 223.023438 65.65625 221.949219 64.496094 L 219.660156 62.035156 C 219.273438 61.617188 218.746094 61.375 218.175781 61.351562 C 217.613281 61.332031 217.066406 61.535156 216.648438 61.921875 L 214.226562 64.167969 C 213.363281 64.96875 213.316406 66.320312 214.113281 67.183594 C 215.457031 68.628906 215.765625 70.710938 214.902344 72.492188 C 214.144531 74.050781 212.796875 76.324219 210.699219 78.273438 C 208.597656 80.222656 206.234375 81.398438 204.617188 82.039062 C 202.78125 82.773438 200.726562 82.308594 199.386719 80.863281 Z M 199.386719 80.863281 " fill-opacity="1" fill-rule="nonzero"/><g clip-path="url(#8ca1ed33dc)"><path fill="#ffffff" d="M 136.34375 134.253906 C 136.039062 134.019531 135.855469 133.660156 135.855469 133.273438 L 135.855469 118.273438 C 135.855469 115.703125 133.765625 113.613281 131.195312 113.613281 L 109.980469 113.613281 C 107.410156 113.613281 105.320312 115.703125 105.320312 118.273438 L 105.320312 132.941406 C 105.320312 135.511719 107.410156 137.601562 109.980469 137.601562 L 140.800781 137.601562 C 139.421875 136.5625 137.765625 135.320312 136.34375 134.253906 Z M 108.382812 119.0625 L 119.796875 119.0625 C 120.472656 119.0625 121.019531 119.609375 121.019531 120.28125 C 121.019531 120.957031 120.472656 121.503906 119.796875 121.503906 L 108.382812 121.503906 C 107.710938 121.503906 107.160156 120.957031 107.160156 120.28125 C 107.160156 119.609375 107.710938 119.0625 108.382812 119.0625 Z M 132.195312 128.046875 L 108.382812 128.046875 C 107.710938 128.046875 107.160156 127.5 107.160156 126.824219 C 107.160156 126.152344 107.710938 125.605469 108.382812 125.605469 L 132.195312 125.605469 C 132.871094 125.605469 133.417969 126.152344 133.417969 126.824219 C 133.417969 127.5 132.871094 128.046875 132.195312 128.046875 Z M 132.195312 128.046875 " fill-opacity="1" fill-rule="nonzero"/></g><path fill="#ffffff" d="M 132.492188 90.332031 C 138.820312 90.332031 143.964844 85.1875 143.964844 78.859375 C 143.964844 72.535156 138.820312 67.386719 132.492188 67.386719 C 126.164062 67.386719 121.019531 72.535156 121.019531 78.859375 C 121.019531 85.1875 126.164062 90.332031 132.492188 90.332031 Z M 134.269531 73.847656 C 134.269531 73.171875 134.816406 72.625 135.492188 72.625 C 136.164062 72.625 136.710938 73.171875 136.710938 73.847656 L 136.710938 76.9375 C 136.710938 77.613281 136.164062 78.160156 135.492188 78.160156 C 134.816406 78.160156 134.269531 77.613281 134.269531 76.9375 Z M 128.273438 73.847656 C 128.273438 73.171875 128.820312 72.625 129.496094 72.625 C 130.167969 72.625 130.71875 73.171875 130.71875 73.847656 L 130.71875 76.9375 C 130.71875 77.613281 130.167969 78.160156 129.496094 78.160156 C 128.820312 78.160156 128.273438 77.613281 128.273438 76.9375 Z M 125.699219 79.539062 C 126.28125 79.199219 127.027344 79.402344 127.367188 79.988281 C 127.417969 80.070312 128.804688 82.28125 132.492188 82.28125 C 136.179688 82.28125 137.566406 80.070312 137.625 79.976562 C 137.972656 79.402344 138.722656 79.210938 139.296875 79.554688 C 139.871094 79.894531 140.070312 80.628906 139.734375 81.210938 C 139.652344 81.351562 137.644531 84.722656 132.492188 84.722656 C 127.34375 84.722656 125.335938 81.351562 125.253906 81.210938 C 124.914062 80.625 125.113281 79.878906 125.699219 79.539062 Z M 125.699219 79.539062 " fill-opacity="1" fill-rule="nonzero"/><g clip-path="url(#b4417b9486)"><path fill="#ffffff" d="M 144.417969 172.363281 L 133.355469 169.0625 C 133.027344 168.960938 132.679688 169 132.378906 169.164062 C 132.082031 169.328125 131.863281 169.597656 131.765625 169.925781 C 131.582031 170.558594 131.917969 171.242188 132.535156 171.476562 L 139.484375 174.121094 C 140.117188 174.363281 140.433594 175.066406 140.191406 175.699219 C 139.953125 176.328125 139.246094 176.640625 138.617188 176.40625 L 131.667969 173.757812 C 130.265625 173.222656 129.355469 171.898438 129.277344 170.464844 L 125.832031 169.421875 C 124.820312 169.121094 123.753906 169.65625 123.410156 170.660156 C 123.085938 171.605469 123.519531 172.640625 124.425781 173.070312 L 133.039062 177.160156 C 135.855469 178.496094 137.671875 181.371094 137.671875 184.488281 L 137.671875 210.375 L 149.289062 210.375 L 149.289062 178.894531 C 149.285156 175.902344 147.285156 173.21875 144.417969 172.363281 Z M 144.417969 172.363281 " fill-opacity="1" fill-rule="nonzero"/></g><path fill="#ffffff" d="M 203.546875 206.023438 C 205.390625 205.554688 206.789062 204.75 207.929688 203.523438 L 207.929688 200.898438 C 206.664062 201.890625 205.199219 202.710938 203.546875 203.355469 Z M 203.546875 206.023438 " fill-opacity="1" fill-rule="nonzero"/><path fill="#ffffff" d="M 178.304688 166.480469 L 177.304688 168.253906 L 177.304688 190.625 L 182.359375 190.625 L 182.359375 168.253906 L 181.355469 166.480469 Z M 179.832031 185.085938 C 179.15625 185.085938 178.609375 184.539062 178.609375 183.863281 C 178.609375 183.191406 179.15625 182.644531 179.832031 182.644531 C 180.503906 182.644531 181.050781 183.191406 181.050781 183.863281 C 181.050781 184.539062 180.503906 185.085938 179.832031 185.085938 Z M 179.832031 173.679688 C 179.15625 173.679688 178.609375 173.132812 178.609375 172.457031 C 178.609375 171.78125 179.15625 171.234375 179.832031 171.234375 C 180.503906 171.234375 181.050781 171.78125 181.050781 172.457031 C 181.050781 173.132812 180.503906 173.679688 179.832031 173.679688 Z M 179.832031 173.679688 " fill-opacity="1" fill-rule="nonzero"/><path fill="#ffffff" d="M 170.367188 166.421875 L 173.519531 169.980469 L 176.121094 165.382812 L 173.695312 162.386719 C 171.820312 163.171875 170.746094 164.476562 170.367188 166.421875 Z M 170.367188 166.421875 " fill-opacity="1" fill-rule="nonzero"/><path fill="#ffffff" d="M 189.292969 166.421875 C 188.914062 164.476562 187.84375 163.171875 185.964844 162.386719 L 183.542969 165.382812 L 186.144531 169.980469 Z M 189.292969 166.421875 " fill-opacity="1" fill-rule="nonzero"/><path fill="#ffffff" d="M 191.769531 162.417969 C 196.914062 162.417969 201.101562 158.230469 201.101562 153.082031 C 201.101562 151.226562 200.554688 149.449219 199.546875 147.929688 C 197.273438 151.328125 192.617188 155.800781 186.785156 157.984375 L 186.785156 160.101562 C 188.058594 160.613281 189.101562 161.316406 189.898438 162.214844 C 190.511719 162.339844 191.136719 162.417969 191.769531 162.417969 Z M 191.769531 162.417969 " fill-opacity="1" fill-rule="nonzero"/><path fill="#ffffff" d="M 214.542969 170.023438 L 221.726562 167.878906 C 227.847656 161.628906 232.539062 154.003906 235.351562 145.769531 L 223.375 133.230469 C 220.042969 134.179688 216.445312 133.222656 214.019531 130.683594 C 211.558594 128.105469 210.773438 124.414062 211.972656 121.046875 C 212.164062 120.503906 212.714844 120.171875 213.285156 120.246094 C 213.855469 120.320312 214.296875 120.785156 214.339844 121.363281 C 214.386719 121.945312 214.585938 122.792969 215.285156 123.523438 C 216.628906 124.929688 218.863281 124.980469 220.273438 123.636719 C 221.679688 122.296875 221.730469 120.058594 220.386719 118.652344 C 219.6875 117.917969 218.851562 117.679688 218.269531 117.609375 C 217.699219 117.539062 217.253906 117.074219 217.203125 116.5 C 217.152344 115.925781 217.511719 115.394531 218.0625 115.226562 C 221.480469 114.183594 225.136719 115.136719 227.59375 117.714844 C 230.023438 120.253906 230.8125 123.890625 229.710938 127.175781 L 237.820312 135.671875 C 238.261719 132.753906 238.492188 129.792969 238.492188 126.824219 C 238.492188 109.773438 231.128906 93.707031 218.277344 82.542969 C 217.6875 83.152344 217.070312 83.773438 216.390625 84.402344 C 209.375 90.914062 203.800781 92.46875 200.355469 92.625 C 200.238281 92.632812 200.125 92.632812 200.007812 92.632812 C 197.871094 92.632812 195.820312 91.734375 194.335938 90.136719 L 192.046875 87.671875 C 191.214844 86.777344 190.78125 85.613281 190.828125 84.390625 C 190.871094 83.167969 191.390625 82.039062 192.285156 81.207031 L 194.707031 78.957031 C 196.558594 77.242188 199.457031 77.351562 201.171875 79.199219 C 201.824219 79.898438 202.820312 80.121094 203.714844 79.769531 C 205.132812 79.203125 207.210938 78.175781 209.03125 76.480469 C 209.152344 76.371094 209.25 76.25 209.363281 76.132812 C 200.429688 70.917969 190.25 68.160156 179.832031 68.160156 C 174.859375 68.160156 169.9375 68.78125 165.171875 70.007812 C 167.164062 72.414062 168.359375 75.5 168.359375 78.859375 C 168.359375 86.535156 162.117188 92.777344 154.441406 92.777344 C 150.136719 92.777344 146.074219 90.753906 143.457031 87.398438 C 140.90625 90.664062 136.945312 92.777344 132.492188 92.777344 C 132.351562 92.777344 132.21875 92.757812 132.082031 92.757812 C 128.066406 98.367188 125.117188 104.554688 123.292969 111.167969 L 131.195312 111.167969 C 135.113281 111.167969 138.300781 114.355469 138.300781 118.273438 L 138.300781 132.664062 C 141.363281 134.964844 145.1875 137.851562 145.1875 137.851562 C 145.605469 138.167969 145.777344 138.714844 145.609375 139.214844 C 145.441406 139.710938 144.976562 140.046875 144.453125 140.046875 L 122.667969 140.046875 C 125.082031 150.542969 130.335938 160.128906 137.925781 167.878906 L 145.117188 170.023438 C 149.011719 171.183594 151.730469 174.832031 151.730469 178.894531 L 151.730469 180.855469 C 157.042969 172.859375 163.277344 168.410156 167.984375 165.984375 C 168.527344 163.175781 170.164062 161.203125 172.875 160.105469 L 172.875 157.988281 C 166.648438 155.652344 161.746094 150.703125 159.671875 147.25 C 159.132812 146.347656 158.621094 145.25 158.148438 143.992188 C 155.292969 143.867188 152.640625 141.785156 151.472656 138.613281 C 150.015625 134.65625 151.457031 130.371094 154.671875 128.804688 C 151.832031 122.171875 152.894531 112.027344 157.363281 104.476562 C 162.164062 96.359375 170.144531 91.886719 179.832031 91.886719 C 189.519531 91.886719 197.5 96.359375 202.304688 104.480469 C 206.769531 112.035156 207.828125 122.175781 204.992188 128.804688 C 208.207031 130.367188 209.644531 134.652344 208.1875 138.613281 C 207.023438 141.78125 204.367188 143.863281 201.511719 143.992188 C 201.296875 144.5625 201.070312 145.089844 200.84375 145.59375 C 202.585938 147.699219 203.542969 150.324219 203.542969 153.082031 C 203.542969 159.578125 198.261719 164.859375 191.765625 164.859375 C 191.636719 164.859375 191.507812 164.839844 191.378906 164.835938 C 191.5 165.203125 191.597656 165.585938 191.675781 165.984375 C 196.386719 168.414062 202.617188 172.863281 207.929688 180.855469 L 207.929688 178.894531 C 207.929688 174.832031 210.648438 171.183594 214.542969 170.023438 Z M 220.191406 161.195312 C 224.214844 156.472656 227.347656 151.148438 229.507812 145.363281 C 229.742188 144.730469 230.449219 144.414062 231.078125 144.648438 C 231.710938 144.882812 232.03125 145.589844 231.796875 146.21875 C 229.539062 152.273438 226.257812 157.84375 222.050781 162.78125 C 221.808594 163.0625 221.464844 163.210938 221.117188 163.210938 C 220.839844 163.210938 220.558594 163.113281 220.328125 162.917969 C 219.8125 162.476562 219.753906 161.707031 220.191406 161.195312 Z M 136.261719 96.621094 C 133.828125 100.121094 131.824219 103.910156 130.304688 107.878906 C 130.117188 108.367188 129.65625 108.664062 129.164062 108.664062 C 129.019531 108.664062 128.871094 108.640625 128.726562 108.585938 C 128.097656 108.34375 127.78125 107.636719 128.023438 107.007812 C 129.613281 102.851562 131.710938 98.890625 134.253906 95.226562 C 134.640625 94.671875 135.398438 94.539062 135.953125 94.921875 C 136.507812 95.308594 136.644531 96.070312 136.261719 96.621094 Z M 136.261719 96.621094 " fill-opacity="1" fill-rule="nonzero"/><g clip-path="url(#cce1e06137)"><path fill="#ffffff" d="M 233.828125 169.421875 L 230.382812 170.460938 C 230.304688 171.898438 229.398438 173.222656 227.992188 173.757812 L 221.042969 176.40625 C 220.414062 176.644531 219.707031 176.328125 219.46875 175.699219 C 219.226562 175.066406 219.542969 174.363281 220.175781 174.121094 L 227.125 171.472656 C 227.742188 171.238281 228.078125 170.558594 227.894531 169.925781 C 227.796875 169.597656 227.578125 169.328125 227.277344 169.160156 C 226.976562 169 226.628906 168.960938 226.304688 169.058594 L 215.238281 172.363281 C 212.375 173.21875 210.371094 175.902344 210.371094 178.894531 L 210.371094 210.371094 L 221.988281 210.371094 L 221.988281 184.484375 C 221.988281 181.371094 223.804688 178.492188 226.621094 177.15625 L 235.234375 173.070312 C 236.140625 172.640625 236.574219 171.605469 236.25 170.660156 C 235.90625 169.65625 234.839844 169.121094 233.828125 169.421875 Z M 233.828125 169.421875 " fill-opacity="1" fill-rule="nonzero"/></g><path fill="#ffffff" d="M 184.339844 158.734375 C 182.886719 159.089844 181.382812 159.308594 179.832031 159.308594 C 178.277344 159.308594 176.773438 159.089844 175.316406 158.734375 L 175.316406 160.507812 L 178.175781 164.039062 L 181.484375 164.039062 L 184.339844 160.515625 Z M 184.339844 158.734375 " fill-opacity="1" fill-rule="nonzero"/><path fill="#ffffff" d="M 127.132812 165.535156 C 127.378906 165.535156 127.625 165.460938 127.839844 165.308594 C 128.390625 164.914062 128.519531 164.152344 128.128906 163.601562 C 124.417969 158.398438 121.527344 152.6875 119.542969 146.640625 C 119.332031 146 118.644531 145.652344 118 145.859375 C 117.359375 146.070312 117.007812 146.761719 117.222656 147.402344 C 119.285156 153.6875 122.285156 159.613281 126.140625 165.019531 C 126.375 165.355469 126.753906 165.535156 127.132812 165.535156 Z M 127.132812 165.535156 " fill-opacity="1" fill-rule="nonzero"/><path fill="#ffffff" d="M 240.9375 109.707031 C 241.089844 110.246094 241.578125 110.597656 242.113281 110.597656 C 242.222656 110.597656 242.332031 110.582031 242.441406 110.550781 C 243.09375 110.371094 243.472656 109.695312 243.289062 109.046875 C 241.007812 100.886719 237.214844 93.332031 232.015625 86.597656 C 231.605469 86.0625 230.835938 85.964844 230.304688 86.375 C 229.769531 86.785156 229.671875 87.554688 230.082031 88.085938 C 235.089844 94.578125 238.742188 101.851562 240.9375 109.707031 Z M 240.9375 109.707031 " fill-opacity="1" fill-rule="nonzero"/><g clip-path="url(#f80d82a557)"><path fill="#ffffff" d="M 167.847656 64.511719 C 175.6875 63.011719 183.96875 63.011719 191.816406 64.511719 C 191.894531 64.527344 191.972656 64.535156 192.046875 64.535156 C 192.625 64.535156 193.136719 64.125 193.246094 63.542969 C 193.375 62.878906 192.9375 62.238281 192.277344 62.113281 C 184.125 60.554688 175.53125 60.554688 167.386719 62.113281 C 166.726562 62.238281 166.292969 62.878906 166.417969 63.542969 C 166.546875 64.203125 167.183594 64.636719 167.847656 64.511719 Z M 167.847656 64.511719 " fill-opacity="1" fill-rule="nonzero"/></g><g fill="#ffffff" fill-opacity="1"><g transform="translate(137.384863, 263.840783)"><g><path d="M 4.1875 -8.234375 C 4.1875 -8.046875 4.128906 -7.882812 4.015625 -7.75 C 3.898438 -7.625 3.765625 -7.519531 3.609375 -7.4375 C 3.472656 -7.34375 3.328125 -7.25 3.171875 -7.15625 C 3.023438 -7.0625 2.890625 -6.953125 2.765625 -6.828125 C 2.640625 -6.703125 2.535156 -6.566406 2.453125 -6.421875 C 2.378906 -6.273438 2.34375 -6.109375 2.34375 -5.921875 C 2.34375 -5.753906 2.378906 -5.601562 2.453125 -5.46875 C 2.535156 -5.34375 2.632812 -5.210938 2.75 -5.078125 C 2.863281 -4.953125 2.988281 -4.820312 3.125 -4.6875 C 3.257812 -4.550781 3.382812 -4.394531 3.5 -4.21875 C 3.613281 -4.050781 3.707031 -3.863281 3.78125 -3.65625 C 3.863281 -3.445312 3.90625 -3.203125 3.90625 -2.921875 C 3.90625 -2.722656 3.863281 -2.5 3.78125 -2.25 C 3.695312 -2.007812 3.582031 -1.765625 3.4375 -1.515625 C 3.300781 -1.265625 3.132812 -1.019531 2.9375 -0.78125 C 2.75 -0.550781 2.546875 -0.34375 2.328125 -0.15625 C 2.117188 0.03125 1.894531 0.175781 1.65625 0.28125 C 1.425781 0.394531 1.203125 0.453125 0.984375 0.453125 C 0.742188 0.453125 0.53125 0.382812 0.34375 0.25 C 0.15625 0.125 0.0625 -0.0703125 0.0625 -0.34375 C 0.0625 -0.519531 0.101562 -0.679688 0.1875 -0.828125 C 0.269531 -0.984375 0.375 -1.128906 0.5 -1.265625 C 0.625 -1.410156 0.765625 -1.550781 0.921875 -1.6875 C 1.078125 -1.820312 1.21875 -1.953125 1.34375 -2.078125 C 1.46875 -2.210938 1.570312 -2.351562 1.65625 -2.5 C 1.738281 -2.644531 1.78125 -2.800781 1.78125 -2.96875 C 1.78125 -3.195312 1.695312 -3.425781 1.53125 -3.65625 C 1.375 -3.894531 1.195312 -4.140625 1 -4.390625 C 0.8125 -4.648438 0.632812 -4.910156 0.46875 -5.171875 C 0.3125 -5.441406 0.234375 -5.710938 0.234375 -5.984375 C 0.234375 -6.328125 0.320312 -6.679688 0.5 -7.046875 C 0.6875 -7.421875 0.921875 -7.757812 1.203125 -8.0625 C 1.484375 -8.375 1.796875 -8.628906 2.140625 -8.828125 C 2.492188 -9.035156 2.84375 -9.140625 3.1875 -9.140625 C 3.457031 -9.140625 3.691406 -9.054688 3.890625 -8.890625 C 4.085938 -8.734375 4.1875 -8.515625 4.1875 -8.234375 Z M 4.1875 -8.234375 "/></g></g><g transform="translate(141.62705, 263.840783)"><g><path d="M 2.28125 -8.1875 C 2.28125 -8.070312 2.25 -7.972656 2.1875 -7.890625 C 2.132812 -7.804688 2.0625 -7.726562 1.96875 -7.65625 C 1.875 -7.59375 1.769531 -7.539062 1.65625 -7.5 C 1.550781 -7.46875 1.453125 -7.453125 1.359375 -7.453125 C 1.203125 -7.453125 1.066406 -7.488281 0.953125 -7.5625 C 0.835938 -7.644531 0.78125 -7.769531 0.78125 -7.9375 C 0.78125 -8.050781 0.804688 -8.148438 0.859375 -8.234375 C 0.921875 -8.328125 0.992188 -8.40625 1.078125 -8.46875 C 1.160156 -8.53125 1.253906 -8.578125 1.359375 -8.609375 C 1.472656 -8.640625 1.582031 -8.65625 1.6875 -8.65625 C 1.832031 -8.65625 1.96875 -8.617188 2.09375 -8.546875 C 2.21875 -8.472656 2.28125 -8.351562 2.28125 -8.1875 Z M 2.375 -4.203125 C 2.375 -4.085938 2.375 -3.96875 2.375 -3.84375 C 2.375 -3.726562 2.375 -3.613281 2.375 -3.5 C 2.363281 -3.375 2.359375 -3.195312 2.359375 -2.96875 C 2.359375 -2.75 2.347656 -2.507812 2.328125 -2.25 C 2.316406 -1.988281 2.289062 -1.722656 2.25 -1.453125 C 2.21875 -1.191406 2.160156 -0.953125 2.078125 -0.734375 C 2.003906 -0.515625 1.898438 -0.335938 1.765625 -0.203125 C 1.640625 -0.0664062 1.484375 0.00390625 1.296875 0.015625 C 1.140625 0.0234375 1.007812 -0.03125 0.90625 -0.15625 C 0.8125 -0.289062 0.726562 -0.457031 0.65625 -0.65625 C 0.59375 -0.851562 0.546875 -1.070312 0.515625 -1.3125 C 0.484375 -1.5625 0.457031 -1.800781 0.4375 -2.03125 C 0.425781 -2.257812 0.421875 -2.472656 0.421875 -2.671875 C 0.421875 -2.867188 0.421875 -3.015625 0.421875 -3.109375 C 0.421875 -3.234375 0.421875 -3.410156 0.421875 -3.640625 C 0.421875 -3.867188 0.425781 -4.113281 0.4375 -4.375 C 0.457031 -4.644531 0.488281 -4.914062 0.53125 -5.1875 C 0.570312 -5.46875 0.632812 -5.71875 0.71875 -5.9375 C 0.800781 -6.164062 0.910156 -6.347656 1.046875 -6.484375 C 1.179688 -6.628906 1.347656 -6.703125 1.546875 -6.703125 C 1.753906 -6.703125 1.910156 -6.597656 2.015625 -6.390625 C 2.128906 -6.179688 2.210938 -5.9375 2.265625 -5.65625 C 2.328125 -5.375 2.359375 -5.09375 2.359375 -4.8125 C 2.367188 -4.53125 2.375 -4.328125 2.375 -4.203125 Z M 2.375 -4.203125 "/></g></g><g transform="translate(144.486425, 263.840783)"><g><path d="M 3.78125 -6.453125 C 3.78125 -6.222656 3.703125 -6.050781 3.546875 -5.9375 C 3.398438 -5.832031 3.234375 -5.726562 3.046875 -5.625 C 2.859375 -5.53125 2.6875 -5.414062 2.53125 -5.28125 C 2.382812 -5.15625 2.3125 -4.957031 2.3125 -4.6875 C 2.3125 -4.550781 2.34375 -4.429688 2.40625 -4.328125 C 2.476562 -4.222656 2.5625 -4.128906 2.65625 -4.046875 C 2.75 -3.960938 2.851562 -3.878906 2.96875 -3.796875 C 3.09375 -3.710938 3.203125 -3.613281 3.296875 -3.5 C 3.398438 -3.394531 3.484375 -3.265625 3.546875 -3.109375 C 3.609375 -2.953125 3.640625 -2.757812 3.640625 -2.53125 C 3.640625 -2.207031 3.554688 -1.882812 3.390625 -1.5625 C 3.222656 -1.25 3.007812 -0.96875 2.75 -0.71875 C 2.488281 -0.476562 2.191406 -0.28125 1.859375 -0.125 C 1.535156 0.0195312 1.210938 0.09375 0.890625 0.09375 C 0.753906 0.09375 0.617188 0.0820312 0.484375 0.0625 C 0.359375 0.0390625 0.238281 0.00390625 0.125 -0.046875 C 0.0195312 -0.0976562 -0.0625 -0.171875 -0.125 -0.265625 C -0.195312 -0.367188 -0.234375 -0.5 -0.234375 -0.65625 C -0.234375 -0.875 -0.1875 -1.039062 -0.09375 -1.15625 C -0.0078125 -1.28125 0.09375 -1.378906 0.21875 -1.453125 C 0.351562 -1.523438 0.492188 -1.578125 0.640625 -1.609375 C 0.796875 -1.648438 0.941406 -1.703125 1.078125 -1.765625 C 1.210938 -1.828125 1.320312 -1.90625 1.40625 -2 C 1.488281 -2.09375 1.53125 -2.222656 1.53125 -2.390625 C 1.53125 -2.554688 1.46875 -2.726562 1.34375 -2.90625 C 1.21875 -3.082031 1.078125 -3.269531 0.921875 -3.46875 C 0.765625 -3.664062 0.617188 -3.875 0.484375 -4.09375 C 0.359375 -4.320312 0.296875 -4.578125 0.296875 -4.859375 C 0.296875 -5.191406 0.363281 -5.5 0.5 -5.78125 C 0.632812 -6.070312 0.816406 -6.320312 1.046875 -6.53125 C 1.273438 -6.738281 1.535156 -6.898438 1.828125 -7.015625 C 2.128906 -7.140625 2.445312 -7.203125 2.78125 -7.203125 C 2.90625 -7.203125 3.023438 -7.191406 3.140625 -7.171875 C 3.265625 -7.148438 3.375 -7.109375 3.46875 -7.046875 C 3.5625 -6.992188 3.632812 -6.914062 3.6875 -6.8125 C 3.75 -6.71875 3.78125 -6.597656 3.78125 -6.453125 Z M 3.78125 -6.453125 "/></g></g><g transform="translate(148.388768, 263.840783)"><g><path d="M 3.078125 0.421875 C 2.523438 0.421875 2.09375 0.347656 1.78125 0.203125 C 1.476562 0.0546875 1.25 -0.144531 1.09375 -0.40625 C 0.945312 -0.675781 0.859375 -1 0.828125 -1.375 C 0.796875 -1.75 0.78125 -2.164062 0.78125 -2.625 C 0.78125 -2.988281 0.789062 -3.359375 0.8125 -3.734375 C 0.832031 -4.109375 0.867188 -4.503906 0.921875 -4.921875 C 0.804688 -4.921875 0.71875 -4.914062 0.65625 -4.90625 C 0.59375 -4.90625 0.539062 -4.90625 0.5 -4.90625 C 0.25 -4.90625 0.0351562 -4.957031 -0.140625 -5.0625 C -0.328125 -5.175781 -0.421875 -5.347656 -0.421875 -5.578125 C -0.421875 -5.722656 -0.367188 -5.847656 -0.265625 -5.953125 C -0.160156 -6.066406 -0.0234375 -6.160156 0.140625 -6.234375 C 0.304688 -6.316406 0.484375 -6.378906 0.671875 -6.421875 C 0.867188 -6.472656 1.050781 -6.503906 1.21875 -6.515625 C 1.21875 -6.734375 1.234375 -6.972656 1.265625 -7.234375 C 1.296875 -7.503906 1.351562 -7.753906 1.4375 -7.984375 C 1.519531 -8.210938 1.628906 -8.40625 1.765625 -8.5625 C 1.910156 -8.71875 2.09375 -8.796875 2.3125 -8.796875 C 2.4375 -8.796875 2.546875 -8.757812 2.640625 -8.6875 C 2.742188 -8.613281 2.828125 -8.519531 2.890625 -8.40625 C 2.953125 -8.289062 3 -8.160156 3.03125 -8.015625 C 3.0625 -7.878906 3.078125 -7.75 3.078125 -7.625 C 3.078125 -7.46875 3.0625 -7.304688 3.03125 -7.140625 C 3.007812 -6.972656 2.96875 -6.769531 2.90625 -6.53125 C 3.039062 -6.539062 3.128906 -6.546875 3.171875 -6.546875 C 3.222656 -6.554688 3.269531 -6.5625 3.3125 -6.5625 C 3.4375 -6.5625 3.570312 -6.550781 3.71875 -6.53125 C 3.863281 -6.507812 3.992188 -6.46875 4.109375 -6.40625 C 4.234375 -6.351562 4.332031 -6.28125 4.40625 -6.1875 C 4.488281 -6.101562 4.53125 -6 4.53125 -5.875 C 4.53125 -5.726562 4.472656 -5.597656 4.359375 -5.484375 C 4.253906 -5.378906 4.113281 -5.285156 3.9375 -5.203125 C 3.769531 -5.128906 3.585938 -5.070312 3.390625 -5.03125 C 3.191406 -4.988281 3.007812 -4.960938 2.84375 -4.953125 C 2.789062 -4.628906 2.753906 -4.332031 2.734375 -4.0625 C 2.710938 -3.789062 2.691406 -3.519531 2.671875 -3.25 C 2.660156 -3.113281 2.644531 -2.976562 2.625 -2.84375 C 2.613281 -2.707031 2.609375 -2.566406 2.609375 -2.421875 C 2.609375 -2.328125 2.613281 -2.207031 2.625 -2.0625 C 2.632812 -1.925781 2.660156 -1.796875 2.703125 -1.671875 C 2.753906 -1.546875 2.828125 -1.4375 2.921875 -1.34375 C 3.023438 -1.257812 3.171875 -1.21875 3.359375 -1.21875 C 3.460938 -1.21875 3.570312 -1.226562 3.6875 -1.25 C 3.8125 -1.269531 3.929688 -1.28125 4.046875 -1.28125 C 4.242188 -1.28125 4.390625 -1.207031 4.484375 -1.0625 C 4.578125 -0.925781 4.625 -0.75 4.625 -0.53125 C 4.625 -0.363281 4.570312 -0.21875 4.46875 -0.09375 C 4.375 0.0195312 4.25 0.113281 4.09375 0.1875 C 3.945312 0.269531 3.78125 0.328125 3.59375 0.359375 C 3.414062 0.398438 3.242188 0.421875 3.078125 0.421875 Z M 3.078125 0.421875 "/></g></g><g transform="translate(152.888768, 263.840783)"><g><path d="M 5.265625 -2.09375 C 5.265625 -1.820312 5.179688 -1.554688 5.015625 -1.296875 C 4.847656 -1.046875 4.632812 -0.820312 4.375 -0.625 C 4.125 -0.425781 3.851562 -0.265625 3.5625 -0.140625 C 3.269531 -0.0234375 3.003906 0.03125 2.765625 0.03125 C 2.347656 0.03125 1.976562 -0.0703125 1.65625 -0.28125 C 1.332031 -0.488281 1.0625 -0.75 0.84375 -1.0625 C 0.625 -1.382812 0.457031 -1.738281 0.34375 -2.125 C 0.226562 -2.507812 0.171875 -2.890625 0.171875 -3.265625 C 0.171875 -3.648438 0.222656 -4.066406 0.328125 -4.515625 C 0.441406 -4.960938 0.609375 -5.375 0.828125 -5.75 C 1.054688 -6.125 1.335938 -6.4375 1.671875 -6.6875 C 2.015625 -6.9375 2.421875 -7.0625 2.890625 -7.0625 C 3.160156 -7.0625 3.414062 -7.015625 3.65625 -6.921875 C 3.894531 -6.828125 4.101562 -6.695312 4.28125 -6.53125 C 4.46875 -6.375 4.613281 -6.179688 4.71875 -5.953125 C 4.832031 -5.722656 4.890625 -5.46875 4.890625 -5.1875 C 4.890625 -4.820312 4.8125 -4.476562 4.65625 -4.15625 C 4.5 -3.84375 4.289062 -3.566406 4.03125 -3.328125 C 3.769531 -3.097656 3.472656 -2.910156 3.140625 -2.765625 C 2.804688 -2.617188 2.460938 -2.535156 2.109375 -2.515625 C 2.140625 -2.296875 2.226562 -2.132812 2.375 -2.03125 C 2.53125 -1.925781 2.71875 -1.875 2.9375 -1.875 C 3.09375 -1.875 3.242188 -1.910156 3.390625 -1.984375 C 3.535156 -2.066406 3.675781 -2.15625 3.8125 -2.25 C 3.957031 -2.351562 4.097656 -2.441406 4.234375 -2.515625 C 4.367188 -2.597656 4.507812 -2.640625 4.65625 -2.640625 C 4.8125 -2.640625 4.953125 -2.585938 5.078125 -2.484375 C 5.203125 -2.378906 5.265625 -2.25 5.265625 -2.09375 Z M 3.359375 -4.953125 C 3.359375 -5.054688 3.332031 -5.160156 3.28125 -5.265625 C 3.226562 -5.378906 3.144531 -5.4375 3.03125 -5.4375 C 2.851562 -5.4375 2.707031 -5.390625 2.59375 -5.296875 C 2.476562 -5.210938 2.378906 -5.101562 2.296875 -4.96875 C 2.222656 -4.832031 2.160156 -4.6875 2.109375 -4.53125 C 2.066406 -4.375 2.046875 -4.226562 2.046875 -4.09375 C 2.148438 -4.113281 2.273438 -4.144531 2.421875 -4.1875 C 2.578125 -4.226562 2.722656 -4.28125 2.859375 -4.34375 C 3.003906 -4.40625 3.125 -4.488281 3.21875 -4.59375 C 3.3125 -4.695312 3.359375 -4.816406 3.359375 -4.953125 Z M 3.359375 -4.953125 "/></g></g><g transform="translate(158.267674, 263.840783)"><g><path d="M 7.46875 -3.875 C 7.46875 -3.71875 7.46875 -3.515625 7.46875 -3.265625 C 7.46875 -3.015625 7.460938 -2.738281 7.453125 -2.4375 C 7.441406 -2.144531 7.414062 -1.847656 7.375 -1.546875 C 7.332031 -1.242188 7.269531 -0.96875 7.1875 -0.71875 C 7.101562 -0.476562 7 -0.28125 6.875 -0.125 C 6.75 0.03125 6.59375 0.109375 6.40625 0.109375 C 6.226562 0.109375 6.09375 0.0351562 6 -0.109375 C 5.914062 -0.253906 5.851562 -0.425781 5.8125 -0.625 C 5.769531 -0.820312 5.75 -1.019531 5.75 -1.21875 C 5.75 -1.425781 5.75 -1.585938 5.75 -1.703125 C 5.75 -2.054688 5.757812 -2.398438 5.78125 -2.734375 C 5.800781 -3.066406 5.8125 -3.410156 5.8125 -3.765625 C 5.8125 -3.804688 5.8125 -3.875 5.8125 -3.96875 C 5.8125 -4.070312 5.800781 -4.175781 5.78125 -4.28125 C 5.769531 -4.382812 5.742188 -4.472656 5.703125 -4.546875 C 5.671875 -4.628906 5.625 -4.671875 5.5625 -4.671875 C 5.414062 -4.671875 5.300781 -4.597656 5.21875 -4.453125 C 5.132812 -4.304688 5.0625 -4.132812 5 -3.9375 C 4.945312 -3.738281 4.910156 -3.546875 4.890625 -3.359375 C 4.867188 -3.171875 4.851562 -3.03125 4.84375 -2.9375 C 4.820312 -2.832031 4.804688 -2.675781 4.796875 -2.46875 C 4.785156 -2.269531 4.769531 -2.046875 4.75 -1.796875 C 4.726562 -1.554688 4.695312 -1.3125 4.65625 -1.0625 C 4.613281 -0.8125 4.554688 -0.582031 4.484375 -0.375 C 4.421875 -0.164062 4.335938 0.00390625 4.234375 0.140625 C 4.140625 0.273438 4.019531 0.34375 3.875 0.34375 C 3.6875 0.34375 3.539062 0.257812 3.4375 0.09375 C 3.332031 -0.0703125 3.253906 -0.265625 3.203125 -0.484375 C 3.160156 -0.703125 3.132812 -0.921875 3.125 -1.140625 C 3.113281 -1.367188 3.109375 -1.546875 3.109375 -1.671875 C 3.109375 -1.804688 3.109375 -1.9375 3.109375 -2.0625 C 3.117188 -2.1875 3.125 -2.316406 3.125 -2.453125 C 3.125 -2.503906 3.125 -2.59375 3.125 -2.71875 C 3.125 -2.84375 3.117188 -2.976562 3.109375 -3.125 C 3.109375 -3.28125 3.101562 -3.441406 3.09375 -3.609375 C 3.082031 -3.773438 3.0625 -3.925781 3.03125 -4.0625 C 3.007812 -4.195312 2.972656 -4.304688 2.921875 -4.390625 C 2.878906 -4.484375 2.828125 -4.53125 2.765625 -4.53125 C 2.660156 -4.53125 2.566406 -4.460938 2.484375 -4.328125 C 2.398438 -4.203125 2.328125 -4.050781 2.265625 -3.875 C 2.203125 -3.695312 2.148438 -3.519531 2.109375 -3.34375 C 2.078125 -3.175781 2.0625 -3.054688 2.0625 -2.984375 L 2.0625 -2.90625 C 2.0625 -2.53125 2.082031 -2.160156 2.125 -1.796875 C 2.175781 -1.441406 2.203125 -1.078125 2.203125 -0.703125 C 2.203125 -0.484375 2.128906 -0.28125 1.984375 -0.09375 C 1.847656 0.0820312 1.65625 0.171875 1.40625 0.171875 C 1.226562 0.171875 1.078125 0.101562 0.953125 -0.03125 C 0.835938 -0.164062 0.738281 -0.34375 0.65625 -0.5625 C 0.582031 -0.78125 0.523438 -1.019531 0.484375 -1.28125 C 0.441406 -1.539062 0.410156 -1.796875 0.390625 -2.046875 C 0.378906 -2.304688 0.367188 -2.539062 0.359375 -2.75 C 0.359375 -2.957031 0.359375 -3.113281 0.359375 -3.21875 C 0.359375 -3.332031 0.359375 -3.5 0.359375 -3.71875 C 0.359375 -3.945312 0.363281 -4.191406 0.375 -4.453125 C 0.382812 -4.722656 0.40625 -5 0.4375 -5.28125 C 0.46875 -5.5625 0.515625 -5.8125 0.578125 -6.03125 C 0.648438 -6.257812 0.742188 -6.445312 0.859375 -6.59375 C 0.972656 -6.738281 1.117188 -6.8125 1.296875 -6.8125 C 1.503906 -6.8125 1.671875 -6.753906 1.796875 -6.640625 C 1.929688 -6.535156 2 -6.375 2 -6.15625 C 2 -6.101562 1.992188 -6.050781 1.984375 -6 C 1.984375 -5.957031 1.976562 -5.921875 1.96875 -5.890625 C 2.050781 -6.015625 2.15625 -6.140625 2.28125 -6.265625 C 2.40625 -6.390625 2.539062 -6.503906 2.6875 -6.609375 C 2.832031 -6.722656 2.988281 -6.8125 3.15625 -6.875 C 3.320312 -6.9375 3.484375 -6.96875 3.640625 -6.96875 C 3.796875 -6.96875 3.9375 -6.925781 4.0625 -6.84375 C 4.1875 -6.757812 4.296875 -6.648438 4.390625 -6.515625 C 4.484375 -6.390625 4.5625 -6.253906 4.625 -6.109375 C 4.6875 -5.960938 4.734375 -5.820312 4.765625 -5.6875 C 4.835938 -5.820312 4.929688 -5.960938 5.046875 -6.109375 C 5.160156 -6.253906 5.28125 -6.378906 5.40625 -6.484375 C 5.539062 -6.597656 5.6875 -6.691406 5.84375 -6.765625 C 6.007812 -6.835938 6.179688 -6.875 6.359375 -6.875 C 6.515625 -6.875 6.648438 -6.8125 6.765625 -6.6875 C 6.890625 -6.570312 6.992188 -6.421875 7.078125 -6.234375 C 7.160156 -6.054688 7.222656 -5.851562 7.265625 -5.625 C 7.316406 -5.394531 7.359375 -5.164062 7.390625 -4.9375 C 7.421875 -4.71875 7.441406 -4.507812 7.453125 -4.3125 C 7.460938 -4.125 7.46875 -3.976562 7.46875 -3.875 Z M 7.46875 -3.875 "/></g></g><g transform="translate(166.154392, 263.840783)"><g/></g><g transform="translate(168.978611, 263.840783)"><g><path d="M 5.984375 -6.703125 C 5.984375 -6.054688 5.96875 -5.40625 5.9375 -4.75 C 5.90625 -4.101562 5.863281 -3.453125 5.8125 -2.796875 C 5.800781 -2.679688 5.789062 -2.523438 5.78125 -2.328125 C 5.78125 -2.128906 5.765625 -1.914062 5.734375 -1.6875 C 5.710938 -1.457031 5.679688 -1.222656 5.640625 -0.984375 C 5.609375 -0.753906 5.550781 -0.539062 5.46875 -0.34375 C 5.382812 -0.15625 5.273438 0 5.140625 0.125 C 5.015625 0.25 4.859375 0.3125 4.671875 0.3125 C 4.515625 0.3125 4.367188 0.273438 4.234375 0.203125 C 4.109375 0.128906 4 0.0351562 3.90625 -0.078125 C 3.820312 -0.191406 3.753906 -0.320312 3.703125 -0.46875 C 3.660156 -0.613281 3.640625 -0.765625 3.640625 -0.921875 C 3.640625 -1.171875 3.644531 -1.425781 3.65625 -1.6875 C 3.675781 -1.957031 3.703125 -2.21875 3.734375 -2.46875 L 2.578125 -2.359375 C 2.554688 -2.148438 2.53125 -1.90625 2.5 -1.625 C 2.476562 -1.34375 2.425781 -1.066406 2.34375 -0.796875 C 2.257812 -0.535156 2.132812 -0.3125 1.96875 -0.125 C 1.800781 0.0625 1.578125 0.15625 1.296875 0.15625 C 1.109375 0.15625 0.957031 0.113281 0.84375 0.03125 C 0.726562 -0.0507812 0.632812 -0.15625 0.5625 -0.28125 C 0.488281 -0.414062 0.4375 -0.5625 0.40625 -0.71875 C 0.375 -0.875 0.359375 -1.019531 0.359375 -1.15625 C 0.359375 -1.625 0.378906 -2.09375 0.421875 -2.5625 C 0.460938 -3.03125 0.488281 -3.5 0.5 -3.96875 C 0.519531 -4.457031 0.523438 -4.945312 0.515625 -5.4375 C 0.515625 -5.9375 0.523438 -6.4375 0.546875 -6.9375 C 0.546875 -7.101562 0.546875 -7.296875 0.546875 -7.515625 C 0.554688 -7.734375 0.585938 -7.9375 0.640625 -8.125 C 0.691406 -8.320312 0.773438 -8.484375 0.890625 -8.609375 C 1.015625 -8.742188 1.195312 -8.8125 1.4375 -8.8125 C 1.78125 -8.8125 2.035156 -8.722656 2.203125 -8.546875 C 2.378906 -8.367188 2.5 -8.148438 2.5625 -7.890625 C 2.632812 -7.628906 2.671875 -7.351562 2.671875 -7.0625 C 2.671875 -6.769531 2.671875 -6.503906 2.671875 -6.265625 C 2.671875 -5.953125 2.660156 -5.644531 2.640625 -5.34375 C 2.628906 -5.050781 2.617188 -4.75 2.609375 -4.4375 L 3.859375 -4.625 C 3.867188 -5.007812 3.875 -5.390625 3.875 -5.765625 C 3.882812 -6.140625 3.898438 -6.515625 3.921875 -6.890625 C 3.929688 -7.066406 3.941406 -7.253906 3.953125 -7.453125 C 3.960938 -7.660156 3.992188 -7.847656 4.046875 -8.015625 C 4.097656 -8.191406 4.1875 -8.335938 4.3125 -8.453125 C 4.445312 -8.566406 4.644531 -8.625 4.90625 -8.625 C 5.125 -8.625 5.300781 -8.5625 5.4375 -8.4375 C 5.570312 -8.3125 5.679688 -8.160156 5.765625 -7.984375 C 5.847656 -7.804688 5.90625 -7.613281 5.9375 -7.40625 C 5.96875 -7.207031 5.984375 -7.023438 5.984375 -6.859375 Z M 5.984375 -6.703125 "/></g></g><g transform="translate(175.377048, 263.840783)"><g><path d="M 5.265625 -2.09375 C 5.265625 -1.820312 5.179688 -1.554688 5.015625 -1.296875 C 4.847656 -1.046875 4.632812 -0.820312 4.375 -0.625 C 4.125 -0.425781 3.851562 -0.265625 3.5625 -0.140625 C 3.269531 -0.0234375 3.003906 0.03125 2.765625 0.03125 C 2.347656 0.03125 1.976562 -0.0703125 1.65625 -0.28125 C 1.332031 -0.488281 1.0625 -0.75 0.84375 -1.0625 C 0.625 -1.382812 0.457031 -1.738281 0.34375 -2.125 C 0.226562 -2.507812 0.171875 -2.890625 0.171875 -3.265625 C 0.171875 -3.648438 0.222656 -4.066406 0.328125 -4.515625 C 0.441406 -4.960938 0.609375 -5.375 0.828125 -5.75 C 1.054688 -6.125 1.335938 -6.4375 1.671875 -6.6875 C 2.015625 -6.9375 2.421875 -7.0625 2.890625 -7.0625 C 3.160156 -7.0625 3.414062 -7.015625 3.65625 -6.921875 C 3.894531 -6.828125 4.101562 -6.695312 4.28125 -6.53125 C 4.46875 -6.375 4.613281 -6.179688 4.71875 -5.953125 C 4.832031 -5.722656 4.890625 -5.46875 4.890625 -5.1875 C 4.890625 -4.820312 4.8125 -4.476562 4.65625 -4.15625 C 4.5 -3.84375 4.289062 -3.566406 4.03125 -3.328125 C 3.769531 -3.097656 3.472656 -2.910156 3.140625 -2.765625 C 2.804688 -2.617188 2.460938 -2.535156 2.109375 -2.515625 C 2.140625 -2.296875 2.226562 -2.132812 2.375 -2.03125 C 2.53125 -1.925781 2.71875 -1.875 2.9375 -1.875 C 3.09375 -1.875 3.242188 -1.910156 3.390625 -1.984375 C 3.535156 -2.066406 3.675781 -2.15625 3.8125 -2.25 C 3.957031 -2.351562 4.097656 -2.441406 4.234375 -2.515625 C 4.367188 -2.597656 4.507812 -2.640625 4.65625 -2.640625 C 4.8125 -2.640625 4.953125 -2.585938 5.078125 -2.484375 C 5.203125 -2.378906 5.265625 -2.25 5.265625 -2.09375 Z M 3.359375 -4.953125 C 3.359375 -5.054688 3.332031 -5.160156 3.28125 -5.265625 C 3.226562 -5.378906 3.144531 -5.4375 3.03125 -5.4375 C 2.851562 -5.4375 2.707031 -5.390625 2.59375 -5.296875 C 2.476562 -5.210938 2.378906 -5.101562 2.296875 -4.96875 C 2.222656 -4.832031 2.160156 -4.6875 2.109375 -4.53125 C 2.066406 -4.375 2.046875 -4.226562 2.046875 -4.09375 C 2.148438 -4.113281 2.273438 -4.144531 2.421875 -4.1875 C 2.578125 -4.226562 2.722656 -4.28125 2.859375 -4.34375 C 3.003906 -4.40625 3.125 -4.488281 3.21875 -4.59375 C 3.3125 -4.695312 3.359375 -4.816406 3.359375 -4.953125 Z M 3.359375 -4.953125 "/></g></g><g transform="translate(180.755954, 263.840783)"><g><path d="M 2.546875 -7.109375 C 2.546875 -6.679688 2.523438 -6.253906 2.484375 -5.828125 C 2.453125 -5.398438 2.4375 -4.972656 2.4375 -4.546875 C 2.4375 -3.992188 2.453125 -3.4375 2.484375 -2.875 C 2.523438 -2.320312 2.546875 -1.765625 2.546875 -1.203125 C 2.546875 -1.066406 2.535156 -0.910156 2.515625 -0.734375 C 2.503906 -0.554688 2.46875 -0.394531 2.40625 -0.25 C 2.351562 -0.101562 2.265625 0.0195312 2.140625 0.125 C 2.023438 0.226562 1.867188 0.28125 1.671875 0.28125 C 1.484375 0.28125 1.320312 0.1875 1.1875 0 C 1.050781 -0.175781 0.9375 -0.40625 0.84375 -0.6875 C 0.757812 -0.976562 0.6875 -1.300781 0.625 -1.65625 C 0.570312 -2.007812 0.53125 -2.347656 0.5 -2.671875 C 0.46875 -3.003906 0.445312 -3.3125 0.4375 -3.59375 C 0.425781 -3.875 0.421875 -4.078125 0.421875 -4.203125 C 0.421875 -4.359375 0.425781 -4.578125 0.4375 -4.859375 C 0.445312 -5.140625 0.472656 -5.441406 0.515625 -5.765625 C 0.554688 -6.097656 0.609375 -6.429688 0.671875 -6.765625 C 0.742188 -7.109375 0.832031 -7.414062 0.9375 -7.6875 C 1.050781 -7.96875 1.179688 -8.195312 1.328125 -8.375 C 1.484375 -8.550781 1.664062 -8.640625 1.875 -8.640625 C 2.050781 -8.640625 2.179688 -8.582031 2.265625 -8.46875 C 2.359375 -8.351562 2.421875 -8.210938 2.453125 -8.046875 C 2.492188 -7.890625 2.519531 -7.722656 2.53125 -7.546875 C 2.539062 -7.378906 2.546875 -7.234375 2.546875 -7.109375 Z M 2.546875 -7.109375 "/></g></g><g transform="translate(183.837985, 263.840783)"><g><path d="M 5.71875 -3.5 C 5.71875 -3.15625 5.679688 -2.773438 5.609375 -2.359375 C 5.535156 -1.953125 5.410156 -1.570312 5.234375 -1.21875 C 5.054688 -0.863281 4.820312 -0.566406 4.53125 -0.328125 C 4.25 -0.0976562 3.894531 0.015625 3.46875 0.015625 C 3.363281 0.015625 3.25 0.0078125 3.125 0 C 3.007812 -0.0195312 2.898438 -0.0507812 2.796875 -0.09375 C 2.691406 -0.132812 2.59375 -0.1875 2.5 -0.25 C 2.414062 -0.320312 2.351562 -0.410156 2.3125 -0.515625 L 2.203125 1.171875 C 2.191406 1.347656 2.1875 1.5625 2.1875 1.8125 C 2.1875 2.0625 2.15625 2.300781 2.09375 2.53125 C 2.03125 2.757812 1.929688 2.953125 1.796875 3.109375 C 1.660156 3.273438 1.460938 3.359375 1.203125 3.359375 C 1.054688 3.359375 0.929688 3.28125 0.828125 3.125 C 0.734375 2.96875 0.65625 2.769531 0.59375 2.53125 C 0.53125 2.300781 0.484375 2.039062 0.453125 1.75 C 0.421875 1.46875 0.398438 1.191406 0.390625 0.921875 C 0.390625 0.660156 0.390625 0.421875 0.390625 0.203125 C 0.390625 -0.015625 0.390625 -0.175781 0.390625 -0.28125 C 0.390625 -0.800781 0.382812 -1.320312 0.375 -1.84375 C 0.363281 -2.363281 0.359375 -2.882812 0.359375 -3.40625 C 0.359375 -3.5 0.359375 -3.644531 0.359375 -3.84375 C 0.359375 -4.050781 0.363281 -4.269531 0.375 -4.5 C 0.394531 -4.738281 0.421875 -4.984375 0.453125 -5.234375 C 0.492188 -5.484375 0.550781 -5.707031 0.625 -5.90625 C 0.695312 -6.113281 0.785156 -6.28125 0.890625 -6.40625 C 1.003906 -6.539062 1.140625 -6.609375 1.296875 -6.609375 C 1.390625 -6.609375 1.476562 -6.578125 1.5625 -6.515625 C 1.644531 -6.460938 1.710938 -6.390625 1.765625 -6.296875 C 1.828125 -6.210938 1.878906 -6.117188 1.921875 -6.015625 C 1.960938 -5.910156 1.992188 -5.816406 2.015625 -5.734375 C 2.253906 -6.003906 2.53125 -6.207031 2.84375 -6.34375 C 3.164062 -6.488281 3.507812 -6.5625 3.875 -6.5625 C 4.25 -6.5625 4.550781 -6.457031 4.78125 -6.25 C 5.019531 -6.039062 5.207031 -5.78125 5.34375 -5.46875 C 5.488281 -5.15625 5.585938 -4.816406 5.640625 -4.453125 C 5.691406 -4.097656 5.71875 -3.78125 5.71875 -3.5 Z M 4.046875 -3.59375 C 4.046875 -3.707031 4.035156 -3.820312 4.015625 -3.9375 C 3.992188 -4.0625 3.957031 -4.175781 3.90625 -4.28125 C 3.851562 -4.382812 3.78125 -4.46875 3.6875 -4.53125 C 3.59375 -4.601562 3.476562 -4.640625 3.34375 -4.640625 C 3.15625 -4.640625 2.957031 -4.578125 2.75 -4.453125 C 2.539062 -4.335938 2.382812 -4.203125 2.28125 -4.046875 C 2.25 -3.984375 2.226562 -3.878906 2.21875 -3.734375 C 2.207031 -3.597656 2.203125 -3.492188 2.203125 -3.421875 C 2.203125 -3.367188 2.203125 -3.296875 2.203125 -3.203125 C 2.210938 -3.117188 2.21875 -3.03125 2.21875 -2.9375 C 2.226562 -2.84375 2.238281 -2.75 2.25 -2.65625 C 2.269531 -2.570312 2.289062 -2.507812 2.3125 -2.46875 C 2.332031 -2.394531 2.378906 -2.328125 2.453125 -2.265625 C 2.535156 -2.210938 2.625 -2.160156 2.71875 -2.109375 C 2.8125 -2.066406 2.90625 -2.03125 3 -2 C 3.101562 -1.976562 3.191406 -1.96875 3.265625 -1.96875 C 3.421875 -1.96875 3.550781 -2.03125 3.65625 -2.15625 C 3.757812 -2.28125 3.835938 -2.425781 3.890625 -2.59375 C 3.953125 -2.769531 3.992188 -2.945312 4.015625 -3.125 C 4.035156 -3.3125 4.046875 -3.46875 4.046875 -3.59375 Z M 4.046875 -3.59375 "/></g></g><g transform="translate(189.920016, 263.840783)"><g><path d="M 5.40625 -7.71875 C 5.40625 -7.144531 5.382812 -6.578125 5.34375 -6.015625 C 5.300781 -5.453125 5.28125 -4.882812 5.28125 -4.3125 C 5.28125 -3.851562 5.289062 -3.394531 5.3125 -2.9375 C 5.34375 -2.488281 5.359375 -2.035156 5.359375 -1.578125 C 5.359375 -1.453125 5.351562 -1.300781 5.34375 -1.125 C 5.332031 -0.945312 5.304688 -0.773438 5.265625 -0.609375 C 5.222656 -0.441406 5.148438 -0.300781 5.046875 -0.1875 C 4.953125 -0.0703125 4.816406 -0.015625 4.640625 -0.015625 C 4.410156 -0.015625 4.21875 -0.101562 4.0625 -0.28125 C 3.90625 -0.457031 3.8125 -0.65625 3.78125 -0.875 C 3.625 -0.59375 3.40625 -0.351562 3.125 -0.15625 C 2.84375 0.0390625 2.539062 0.140625 2.21875 0.140625 C 1.863281 0.140625 1.554688 0.0195312 1.296875 -0.21875 C 1.046875 -0.46875 0.835938 -0.765625 0.671875 -1.109375 C 0.503906 -1.453125 0.378906 -1.8125 0.296875 -2.1875 C 0.210938 -2.5625 0.171875 -2.882812 0.171875 -3.15625 C 0.171875 -3.351562 0.179688 -3.578125 0.203125 -3.828125 C 0.234375 -4.078125 0.273438 -4.328125 0.328125 -4.578125 C 0.390625 -4.835938 0.46875 -5.085938 0.5625 -5.328125 C 0.65625 -5.578125 0.773438 -5.800781 0.921875 -6 C 1.066406 -6.195312 1.238281 -6.351562 1.4375 -6.46875 C 1.632812 -6.582031 1.863281 -6.640625 2.125 -6.640625 C 2.40625 -6.640625 2.671875 -6.554688 2.921875 -6.390625 C 3.179688 -6.234375 3.378906 -6.035156 3.515625 -5.796875 L 3.625 -7.65625 C 3.632812 -7.800781 3.644531 -7.972656 3.65625 -8.171875 C 3.675781 -8.367188 3.707031 -8.554688 3.75 -8.734375 C 3.800781 -8.921875 3.878906 -9.078125 3.984375 -9.203125 C 4.097656 -9.328125 4.265625 -9.390625 4.484375 -9.390625 C 4.703125 -9.390625 4.875 -9.332031 5 -9.21875 C 5.125 -9.113281 5.21875 -8.976562 5.28125 -8.8125 C 5.34375 -8.644531 5.378906 -8.460938 5.390625 -8.265625 C 5.398438 -8.066406 5.40625 -7.882812 5.40625 -7.71875 Z M 3.5 -2.515625 C 3.5 -2.691406 3.492188 -2.863281 3.484375 -3.03125 C 3.472656 -3.207031 3.472656 -3.382812 3.484375 -3.5625 C 3.429688 -3.664062 3.375 -3.773438 3.3125 -3.890625 C 3.25 -4.015625 3.171875 -4.128906 3.078125 -4.234375 C 2.992188 -4.335938 2.894531 -4.425781 2.78125 -4.5 C 2.675781 -4.570312 2.5625 -4.609375 2.4375 -4.609375 C 2.300781 -4.609375 2.1875 -4.5625 2.09375 -4.46875 C 2.007812 -4.382812 1.945312 -4.28125 1.90625 -4.15625 C 1.875 -4.039062 1.847656 -3.910156 1.828125 -3.765625 C 1.816406 -3.628906 1.8125 -3.507812 1.8125 -3.40625 C 1.8125 -3.3125 1.816406 -3.171875 1.828125 -2.984375 C 1.847656 -2.804688 1.878906 -2.625 1.921875 -2.4375 C 1.972656 -2.25 2.035156 -2.082031 2.109375 -1.9375 C 2.191406 -1.800781 2.296875 -1.734375 2.421875 -1.734375 C 2.523438 -1.734375 2.628906 -1.753906 2.734375 -1.796875 C 2.835938 -1.835938 2.929688 -1.890625 3.015625 -1.953125 C 3.109375 -2.023438 3.195312 -2.101562 3.28125 -2.1875 C 3.363281 -2.269531 3.4375 -2.347656 3.5 -2.421875 Z M 3.5 -2.515625 "/></g></g><g transform="translate(195.744234, 263.840783)"><g><path d="M 5.265625 -2.09375 C 5.265625 -1.820312 5.179688 -1.554688 5.015625 -1.296875 C 4.847656 -1.046875 4.632812 -0.820312 4.375 -0.625 C 4.125 -0.425781 3.851562 -0.265625 3.5625 -0.140625 C 3.269531 -0.0234375 3.003906 0.03125 2.765625 0.03125 C 2.347656 0.03125 1.976562 -0.0703125 1.65625 -0.28125 C 1.332031 -0.488281 1.0625 -0.75 0.84375 -1.0625 C 0.625 -1.382812 0.457031 -1.738281 0.34375 -2.125 C 0.226562 -2.507812 0.171875 -2.890625 0.171875 -3.265625 C 0.171875 -3.648438 0.222656 -4.066406 0.328125 -4.515625 C 0.441406 -4.960938 0.609375 -5.375 0.828125 -5.75 C 1.054688 -6.125 1.335938 -6.4375 1.671875 -6.6875 C 2.015625 -6.9375 2.421875 -7.0625 2.890625 -7.0625 C 3.160156 -7.0625 3.414062 -7.015625 3.65625 -6.921875 C 3.894531 -6.828125 4.101562 -6.695312 4.28125 -6.53125 C 4.46875 -6.375 4.613281 -6.179688 4.71875 -5.953125 C 4.832031 -5.722656 4.890625 -5.46875 4.890625 -5.1875 C 4.890625 -4.820312 4.8125 -4.476562 4.65625 -4.15625 C 4.5 -3.84375 4.289062 -3.566406 4.03125 -3.328125 C 3.769531 -3.097656 3.472656 -2.910156 3.140625 -2.765625 C 2.804688 -2.617188 2.460938 -2.535156 2.109375 -2.515625 C 2.140625 -2.296875 2.226562 -2.132812 2.375 -2.03125 C 2.53125 -1.925781 2.71875 -1.875 2.9375 -1.875 C 3.09375 -1.875 3.242188 -1.910156 3.390625 -1.984375 C 3.535156 -2.066406 3.675781 -2.15625 3.8125 -2.25 C 3.957031 -2.351562 4.097656 -2.441406 4.234375 -2.515625 C 4.367188 -2.597656 4.507812 -2.640625 4.65625 -2.640625 C 4.8125 -2.640625 4.953125 -2.585938 5.078125 -2.484375 C 5.203125 -2.378906 5.265625 -2.25 5.265625 -2.09375 Z M 3.359375 -4.953125 C 3.359375 -5.054688 3.332031 -5.160156 3.28125 -5.265625 C 3.226562 -5.378906 3.144531 -5.4375 3.03125 -5.4375 C 2.851562 -5.4375 2.707031 -5.390625 2.59375 -5.296875 C 2.476562 -5.210938 2.378906 -5.101562 2.296875 -4.96875 C 2.222656 -4.832031 2.160156 -4.6875 2.109375 -4.53125 C 2.066406 -4.375 2.046875 -4.226562 2.046875 -4.09375 C 2.148438 -4.113281 2.273438 -4.144531 2.421875 -4.1875 C 2.578125 -4.226562 2.722656 -4.28125 2.859375 -4.34375 C 3.003906 -4.40625 3.125 -4.488281 3.21875 -4.59375 C 3.3125 -4.695312 3.359375 -4.816406 3.359375 -4.953125 Z M 3.359375 -4.953125 "/></g></g><g transform="translate(201.12314, 263.840783)"><g><path d="M 3.78125 -6.453125 C 3.78125 -6.222656 3.703125 -6.050781 3.546875 -5.9375 C 3.398438 -5.832031 3.234375 -5.726562 3.046875 -5.625 C 2.859375 -5.53125 2.6875 -5.414062 2.53125 -5.28125 C 2.382812 -5.15625 2.3125 -4.957031 2.3125 -4.6875 C 2.3125 -4.550781 2.34375 -4.429688 2.40625 -4.328125 C 2.476562 -4.222656 2.5625 -4.128906 2.65625 -4.046875 C 2.75 -3.960938 2.851562 -3.878906 2.96875 -3.796875 C 3.09375 -3.710938 3.203125 -3.613281 3.296875 -3.5 C 3.398438 -3.394531 3.484375 -3.265625 3.546875 -3.109375 C 3.609375 -2.953125 3.640625 -2.757812 3.640625 -2.53125 C 3.640625 -2.207031 3.554688 -1.882812 3.390625 -1.5625 C 3.222656 -1.25 3.007812 -0.96875 2.75 -0.71875 C 2.488281 -0.476562 2.191406 -0.28125 1.859375 -0.125 C 1.535156 0.0195312 1.210938 0.09375 0.890625 0.09375 C 0.753906 0.09375 0.617188 0.0820312 0.484375 0.0625 C 0.359375 0.0390625 0.238281 0.00390625 0.125 -0.046875 C 0.0195312 -0.0976562 -0.0625 -0.171875 -0.125 -0.265625 C -0.195312 -0.367188 -0.234375 -0.5 -0.234375 -0.65625 C -0.234375 -0.875 -0.1875 -1.039062 -0.09375 -1.15625 C -0.0078125 -1.28125 0.09375 -1.378906 0.21875 -1.453125 C 0.351562 -1.523438 0.492188 -1.578125 0.640625 -1.609375 C 0.796875 -1.648438 0.941406 -1.703125 1.078125 -1.765625 C 1.210938 -1.828125 1.320312 -1.90625 1.40625 -2 C 1.488281 -2.09375 1.53125 -2.222656 1.53125 -2.390625 C 1.53125 -2.554688 1.46875 -2.726562 1.34375 -2.90625 C 1.21875 -3.082031 1.078125 -3.269531 0.921875 -3.46875 C 0.765625 -3.664062 0.617188 -3.875 0.484375 -4.09375 C 0.359375 -4.320312 0.296875 -4.578125 0.296875 -4.859375 C 0.296875 -5.191406 0.363281 -5.5 0.5 -5.78125 C 0.632812 -6.070312 0.816406 -6.320312 1.046875 -6.53125 C 1.273438 -6.738281 1.535156 -6.898438 1.828125 -7.015625 C 2.128906 -7.140625 2.445312 -7.203125 2.78125 -7.203125 C 2.90625 -7.203125 3.023438 -7.191406 3.140625 -7.171875 C 3.265625 -7.148438 3.375 -7.109375 3.46875 -7.046875 C 3.5625 -6.992188 3.632812 -6.914062 3.6875 -6.8125 C 3.75 -6.71875 3.78125 -6.597656 3.78125 -6.453125 Z M 3.78125 -6.453125 "/></g></g><g transform="translate(205.025483, 263.840783)"><g><path d="M 5.5625 -6.3125 C 5.5625 -6.09375 5.503906 -5.867188 5.390625 -5.640625 C 5.273438 -5.410156 5.132812 -5.179688 4.96875 -4.953125 C 4.8125 -4.734375 4.644531 -4.523438 4.46875 -4.328125 C 4.289062 -4.128906 4.140625 -3.945312 4.015625 -3.78125 C 4.117188 -3.613281 4.253906 -3.382812 4.421875 -3.09375 C 4.585938 -2.8125 4.742188 -2.507812 4.890625 -2.1875 C 5.035156 -1.875 5.160156 -1.5625 5.265625 -1.25 C 5.367188 -0.945312 5.421875 -0.695312 5.421875 -0.5 C 5.421875 -0.332031 5.367188 -0.175781 5.265625 -0.03125 C 5.171875 0.101562 5.035156 0.171875 4.859375 0.171875 C 4.722656 0.171875 4.585938 0.113281 4.453125 0 C 4.316406 -0.113281 4.175781 -0.265625 4.03125 -0.453125 C 3.894531 -0.640625 3.765625 -0.84375 3.640625 -1.0625 C 3.515625 -1.289062 3.398438 -1.515625 3.296875 -1.734375 C 3.191406 -1.953125 3.097656 -2.15625 3.015625 -2.34375 C 2.929688 -2.539062 2.867188 -2.695312 2.828125 -2.8125 C 2.722656 -2.707031 2.613281 -2.625 2.5 -2.5625 C 2.382812 -2.5 2.273438 -2.421875 2.171875 -2.328125 C 2.171875 -2.171875 2.164062 -1.941406 2.15625 -1.640625 C 2.144531 -1.347656 2.109375 -1.054688 2.046875 -0.765625 C 1.984375 -0.472656 1.882812 -0.21875 1.75 0 C 1.625 0.207031 1.429688 0.3125 1.171875 0.3125 C 0.972656 0.3125 0.816406 0.21875 0.703125 0.03125 C 0.597656 -0.144531 0.519531 -0.351562 0.46875 -0.59375 C 0.414062 -0.84375 0.382812 -1.09375 0.375 -1.34375 C 0.363281 -1.601562 0.359375 -1.800781 0.359375 -1.9375 C 0.359375 -2.507812 0.375 -3.082031 0.40625 -3.65625 C 0.4375 -4.238281 0.457031 -4.820312 0.46875 -5.40625 C 0.46875 -5.539062 0.46875 -5.710938 0.46875 -5.921875 C 0.476562 -6.140625 0.492188 -6.375 0.515625 -6.625 C 0.535156 -6.875 0.566406 -7.125 0.609375 -7.375 C 0.660156 -7.632812 0.726562 -7.867188 0.8125 -8.078125 C 0.90625 -8.285156 1.019531 -8.453125 1.15625 -8.578125 C 1.289062 -8.710938 1.457031 -8.78125 1.65625 -8.78125 C 1.789062 -8.78125 1.90625 -8.726562 2 -8.625 C 2.101562 -8.519531 2.179688 -8.382812 2.234375 -8.21875 C 2.296875 -8.050781 2.34375 -7.863281 2.375 -7.65625 C 2.40625 -7.457031 2.425781 -7.257812 2.4375 -7.0625 C 2.445312 -6.863281 2.453125 -6.675781 2.453125 -6.5 C 2.453125 -6.332031 2.453125 -6.195312 2.453125 -6.09375 C 2.453125 -6.019531 2.445312 -5.914062 2.4375 -5.78125 C 2.4375 -5.644531 2.429688 -5.503906 2.421875 -5.359375 C 2.421875 -5.210938 2.421875 -5.078125 2.421875 -4.953125 C 2.421875 -4.828125 2.429688 -4.734375 2.453125 -4.671875 C 2.503906 -4.671875 2.582031 -4.722656 2.6875 -4.828125 C 2.800781 -4.941406 2.929688 -5.078125 3.078125 -5.234375 C 3.222656 -5.398438 3.378906 -5.570312 3.546875 -5.75 C 3.710938 -5.9375 3.882812 -6.113281 4.0625 -6.28125 C 4.238281 -6.445312 4.410156 -6.582031 4.578125 -6.6875 C 4.753906 -6.789062 4.914062 -6.84375 5.0625 -6.84375 C 5.21875 -6.84375 5.335938 -6.785156 5.421875 -6.671875 C 5.515625 -6.566406 5.5625 -6.445312 5.5625 -6.3125 Z M 5.5625 -6.3125 "/></g></g><g transform="translate(210.638764, 263.840783)"><g/></g><g transform="translate(213.462983, 263.840783)"><g><path d="M 4.40625 -7.953125 C 4.40625 -7.804688 4.367188 -7.675781 4.296875 -7.5625 C 4.234375 -7.445312 4.144531 -7.347656 4.03125 -7.265625 C 3.925781 -7.179688 3.804688 -7.109375 3.671875 -7.046875 C 3.546875 -6.992188 3.421875 -6.957031 3.296875 -6.9375 C 3.273438 -6.050781 3.238281 -5.195312 3.1875 -4.375 C 3.144531 -3.5625 3.066406 -2.71875 2.953125 -1.84375 L 3.03125 -1.84375 C 3.15625 -1.84375 3.273438 -1.828125 3.390625 -1.796875 C 3.515625 -1.773438 3.625 -1.726562 3.71875 -1.65625 C 3.820312 -1.59375 3.898438 -1.507812 3.953125 -1.40625 C 4.015625 -1.3125 4.046875 -1.195312 4.046875 -1.0625 C 4.046875 -0.875 3.988281 -0.710938 3.875 -0.578125 C 3.757812 -0.453125 3.609375 -0.34375 3.421875 -0.25 C 3.242188 -0.15625 3.039062 -0.078125 2.8125 -0.015625 C 2.582031 0.046875 2.351562 0.09375 2.125 0.125 C 1.90625 0.164062 1.691406 0.191406 1.484375 0.203125 C 1.285156 0.222656 1.125 0.234375 1 0.234375 C 0.90625 0.234375 0.789062 0.226562 0.65625 0.21875 C 0.519531 0.21875 0.390625 0.195312 0.265625 0.15625 C 0.140625 0.113281 0.0351562 0.0546875 -0.046875 -0.015625 C -0.128906 -0.0976562 -0.171875 -0.207031 -0.171875 -0.34375 C -0.171875 -0.507812 -0.132812 -0.65625 -0.0625 -0.78125 C 0 -0.90625 0.0820312 -1.019531 0.1875 -1.125 C 0.300781 -1.226562 0.425781 -1.3125 0.5625 -1.375 C 0.695312 -1.4375 0.832031 -1.484375 0.96875 -1.515625 C 1.03125 -1.941406 1.082031 -2.367188 1.125 -2.796875 C 1.175781 -3.222656 1.207031 -3.65625 1.21875 -4.09375 C 1.238281 -4.539062 1.253906 -4.976562 1.265625 -5.40625 C 1.285156 -5.84375 1.300781 -6.28125 1.3125 -6.71875 C 1.257812 -6.707031 1.207031 -6.695312 1.15625 -6.6875 C 1.113281 -6.6875 1.070312 -6.6875 1.03125 -6.6875 C 0.925781 -6.6875 0.8125 -6.695312 0.6875 -6.71875 C 0.5625 -6.75 0.441406 -6.789062 0.328125 -6.84375 C 0.222656 -6.90625 0.128906 -6.976562 0.046875 -7.0625 C -0.0234375 -7.15625 -0.0625 -7.265625 -0.0625 -7.390625 C -0.0625 -7.660156 0.046875 -7.878906 0.265625 -8.046875 C 0.492188 -8.222656 0.757812 -8.359375 1.0625 -8.453125 C 1.375 -8.546875 1.691406 -8.609375 2.015625 -8.640625 C 2.335938 -8.679688 2.597656 -8.703125 2.796875 -8.703125 C 2.898438 -8.703125 3.039062 -8.691406 3.21875 -8.671875 C 3.40625 -8.660156 3.582031 -8.625 3.75 -8.5625 C 3.925781 -8.507812 4.078125 -8.4375 4.203125 -8.34375 C 4.335938 -8.25 4.40625 -8.117188 4.40625 -7.953125 Z M 4.40625 -7.953125 "/></g></g><g transform="translate(217.681732, 263.840783)"><g><path d="M 5.421875 -8 C 5.421875 -7.8125 5.34375 -7.632812 5.1875 -7.46875 C 5.039062 -7.3125 4.859375 -7.171875 4.640625 -7.046875 C 4.429688 -6.929688 4.210938 -6.832031 3.984375 -6.75 C 3.753906 -6.675781 3.566406 -6.625 3.421875 -6.59375 C 3.359375 -5.988281 3.304688 -5.382812 3.265625 -4.78125 C 3.234375 -4.1875 3.21875 -3.585938 3.21875 -2.984375 C 3.21875 -2.671875 3.222656 -2.359375 3.234375 -2.046875 C 3.253906 -1.734375 3.265625 -1.421875 3.265625 -1.109375 C 3.265625 -0.960938 3.25 -0.804688 3.21875 -0.640625 C 3.195312 -0.472656 3.148438 -0.3125 3.078125 -0.15625 C 3.015625 -0.0078125 2.925781 0.109375 2.8125 0.203125 C 2.695312 0.304688 2.550781 0.359375 2.375 0.359375 C 2.175781 0.359375 2.015625 0.300781 1.890625 0.1875 C 1.773438 0.0820312 1.679688 -0.0507812 1.609375 -0.21875 C 1.546875 -0.382812 1.5 -0.554688 1.46875 -0.734375 C 1.445312 -0.921875 1.4375 -1.09375 1.4375 -1.25 C 1.425781 -1.71875 1.414062 -2.1875 1.40625 -2.65625 C 1.394531 -3.125 1.390625 -3.597656 1.390625 -4.078125 C 1.390625 -4.472656 1.390625 -4.863281 1.390625 -5.25 C 1.398438 -5.632812 1.40625 -6.023438 1.40625 -6.421875 C 1.300781 -6.410156 1.191406 -6.398438 1.078125 -6.390625 C 0.960938 -6.378906 0.847656 -6.375 0.734375 -6.375 C 0.640625 -6.375 0.515625 -6.382812 0.359375 -6.40625 C 0.203125 -6.425781 0.0546875 -6.460938 -0.078125 -6.515625 C -0.222656 -6.566406 -0.34375 -6.632812 -0.4375 -6.71875 C -0.539062 -6.8125 -0.59375 -6.925781 -0.59375 -7.0625 C -0.59375 -7.300781 -0.5 -7.507812 -0.3125 -7.6875 C -0.132812 -7.863281 0.09375 -8.015625 0.375 -8.140625 C 0.664062 -8.265625 0.984375 -8.375 1.328125 -8.46875 C 1.679688 -8.5625 2.023438 -8.628906 2.359375 -8.671875 C 2.703125 -8.722656 3.015625 -8.757812 3.296875 -8.78125 C 3.585938 -8.8125 3.8125 -8.828125 3.96875 -8.828125 C 4.113281 -8.828125 4.269531 -8.820312 4.4375 -8.8125 C 4.601562 -8.800781 4.757812 -8.765625 4.90625 -8.703125 C 5.0625 -8.648438 5.1875 -8.566406 5.28125 -8.453125 C 5.375 -8.347656 5.421875 -8.195312 5.421875 -8 Z M 5.421875 -8 "/></g></g></g></svg>