<svg xmlns="http://www.w3.org/2000/svg" xmlns:xlink="http://www.w3.org/1999/xlink" width="500" zoomAndPan="magnify" viewBox="0 0 375 374.999991" height="500" preserveAspectRatio="xMidYMid meet" version="1.0"><defs><g/><clipPath id="fe38a18f6a"><path d="M 22.816406 29.664062 L 352 29.664062 L 352 374.664062 L 22.816406 374.664062 Z M 22.816406 29.664062 " clip-rule="nonzero"/></clipPath></defs><path fill="#ffeb92" d="M 248.144531 175.695312 C 248.144531 176.675781 248.046875 177.644531 247.855469 178.605469 C 247.664062 179.566406 247.382812 180.5 247.007812 181.40625 C 246.632812 182.3125 246.171875 183.171875 245.628906 183.984375 C 245.082031 184.800781 244.464844 185.554688 243.769531 186.246094 C 243.078125 186.9375 242.324219 187.558594 241.507812 188.101562 C 240.695312 188.644531 239.832031 189.105469 238.929688 189.480469 C 238.023438 189.855469 237.089844 190.136719 236.128906 190.328125 C 235.164062 190.519531 234.195312 190.617188 233.214844 190.617188 C 232.234375 190.617188 231.265625 190.519531 230.300781 190.328125 C 229.339844 190.136719 228.40625 189.855469 227.5 189.480469 C 226.597656 189.105469 225.734375 188.644531 224.921875 188.101562 C 224.105469 187.558594 223.351562 186.9375 222.660156 186.246094 C 221.964844 185.554688 221.347656 184.800781 220.800781 183.984375 C 220.257812 183.171875 219.796875 182.3125 219.421875 181.40625 C 219.046875 180.5 218.765625 179.566406 218.574219 178.605469 C 218.382812 177.644531 218.285156 176.675781 218.285156 175.695312 C 218.285156 174.71875 218.382812 173.746094 218.574219 172.785156 C 218.765625 171.824219 219.046875 170.890625 219.421875 169.988281 C 219.796875 169.082031 220.257812 168.222656 220.800781 167.40625 C 221.347656 166.59375 221.964844 165.839844 222.660156 165.148438 C 223.351562 164.453125 224.105469 163.835938 224.921875 163.292969 C 225.734375 162.746094 226.597656 162.289062 227.5 161.914062 C 228.40625 161.539062 229.339844 161.253906 230.300781 161.0625 C 231.265625 160.871094 232.234375 160.777344 233.214844 160.777344 C 234.195312 160.777344 235.164062 160.871094 236.128906 161.0625 C 237.089844 161.253906 238.023438 161.539062 238.929688 161.914062 C 239.832031 162.289062 240.695312 162.746094 241.507812 163.292969 C 242.324219 163.835938 243.078125 164.453125 243.769531 165.148438 C 244.464844 165.839844 245.082031 166.59375 245.628906 167.40625 C 246.171875 168.222656 246.632812 169.082031 247.007812 169.988281 C 247.382812 170.890625 247.664062 171.824219 247.855469 172.785156 C 248.046875 173.746094 248.144531 174.71875 248.144531 175.695312 Z M 248.144531 175.695312 " fill-opacity="1" fill-rule="nonzero"/><path fill="#ffeb92" d="M 156.601562 175.695312 C 156.601562 176.675781 156.503906 177.644531 156.3125 178.605469 C 156.121094 179.566406 155.839844 180.5 155.464844 181.40625 C 155.089844 182.3125 154.628906 183.171875 154.082031 183.984375 C 153.539062 184.800781 152.921875 185.554688 152.226562 186.246094 C 151.535156 186.9375 150.78125 187.558594 149.964844 188.101562 C 149.148438 188.644531 148.289062 189.105469 147.382812 189.480469 C 146.476562 189.855469 145.542969 190.136719 144.582031 190.328125 C 143.621094 190.519531 142.652344 190.617188 141.671875 190.617188 C 140.691406 190.617188 139.71875 190.519531 138.757812 190.328125 C 137.796875 190.136719 136.863281 189.855469 135.957031 189.480469 C 135.050781 189.105469 134.191406 188.644531 133.375 188.101562 C 132.5625 187.558594 131.808594 186.9375 131.113281 186.246094 C 130.421875 185.554688 129.800781 184.800781 129.257812 183.984375 C 128.714844 183.171875 128.253906 182.3125 127.878906 181.40625 C 127.503906 180.5 127.21875 179.566406 127.027344 178.605469 C 126.835938 177.644531 126.742188 176.675781 126.742188 175.695312 C 126.742188 174.71875 126.835938 173.746094 127.027344 172.785156 C 127.21875 171.824219 127.503906 170.890625 127.878906 169.988281 C 128.253906 169.082031 128.714844 168.222656 129.257812 167.40625 C 129.800781 166.59375 130.421875 165.839844 131.113281 165.148438 C 131.808594 164.453125 132.5625 163.835938 133.375 163.292969 C 134.191406 162.746094 135.050781 162.289062 135.957031 161.914062 C 136.863281 161.539062 137.796875 161.253906 138.757812 161.0625 C 139.71875 160.871094 140.691406 160.777344 141.671875 160.777344 C 142.652344 160.777344 143.621094 160.871094 144.582031 161.0625 C 145.542969 161.253906 146.476562 161.539062 147.382812 161.914062 C 148.289062 162.289062 149.148438 162.746094 149.964844 163.292969 C 150.78125 163.835938 151.535156 164.453125 152.226562 165.148438 C 152.921875 165.839844 153.539062 166.59375 154.082031 167.40625 C 154.628906 168.222656 155.089844 169.082031 155.464844 169.988281 C 155.839844 170.890625 156.121094 171.824219 156.3125 172.785156 C 156.503906 173.746094 156.601562 174.71875 156.601562 175.695312 Z M 156.601562 175.695312 " fill-opacity="1" fill-rule="nonzero"/><path fill="#ff7863" d="M 150.746094 103.902344 C 149.792969 102.234375 148.898438 100.503906 148.179688 98.710938 C 146.148438 93.757812 145.015625 88.449219 145.015625 82.777344 C 145.015625 81.523438 145.132812 80.210938 145.253906 78.957031 C 145.375 77.882812 145.492188 76.75 145.730469 75.558594 C 149.136719 55.625 166.511719 40.40625 187.414062 40.40625 C 208.253906 40.40625 225.570312 55.503906 229.15625 75.257812 C 229.332031 76.570312 229.511719 77.824219 229.632812 79.019531 C 229.753906 80.273438 229.8125 81.523438 229.8125 82.777344 C 229.8125 88.386719 228.738281 93.757812 226.707031 98.652344 C 225.988281 100.503906 225.09375 102.234375 224.140625 103.902344 C 223.960938 104.261719 223.71875 104.621094 223.480469 104.976562 C 222.707031 106.292969 221.808594 107.542969 220.855469 108.738281 C 220.554688 109.15625 220.257812 109.574219 219.957031 109.933594 C 219.003906 111.125 217.929688 112.199219 216.792969 113.273438 C 216.253906 113.8125 215.660156 114.347656 215.0625 114.886719 C 214.226562 115.601562 213.390625 116.257812 212.496094 116.914062 C 211.65625 117.511719 210.761719 118.109375 209.867188 118.703125 C 208.851562 119.300781 207.835938 119.898438 206.820312 120.433594 C 206.164062 120.792969 205.507812 121.089844 204.789062 121.390625 C 203.476562 121.984375 202.101562 122.582031 200.671875 123 C 200.253906 123.179688 199.832031 123.300781 199.355469 123.417969 C 197.804688 123.898438 196.25 124.253906 194.640625 124.492188 C 194.160156 124.613281 193.625 124.671875 193.085938 124.730469 C 191.234375 124.96875 189.382812 125.148438 187.414062 125.148438 C 185.503906 125.148438 183.652344 124.96875 181.742188 124.730469 C 181.261719 124.671875 180.726562 124.613281 180.246094 124.492188 C 178.636719 124.253906 177.023438 123.898438 175.472656 123.417969 C 175.050781 123.300781 174.632812 123.179688 174.277344 123.0625 C 172.84375 122.582031 171.410156 121.988281 170.035156 121.390625 C 169.378906 121.089844 168.722656 120.792969 168.066406 120.433594 C 167.050781 119.898438 165.976562 119.300781 164.960938 118.644531 C 164.125 118.109375 163.230469 117.570312 162.453125 116.914062 C 161.496094 116.257812 160.660156 115.601562 159.824219 114.886719 C 159.226562 114.347656 158.628906 113.8125 158.09375 113.273438 C 156.957031 112.199219 155.882812 111.125 154.929688 109.933594 C 154.628906 109.574219 154.332031 109.15625 154.03125 108.738281 C 153.078125 107.542969 152.179688 106.292969 151.40625 104.976562 C 151.164062 104.621094 150.925781 104.261719 150.746094 103.902344 Z M 163.347656 99.308594 C 161.257812 101.398438 161.257812 104.800781 163.347656 106.886719 C 164.363281 107.960938 165.738281 108.441406 167.109375 108.441406 C 168.484375 108.441406 169.855469 107.960938 170.929688 106.886719 L 187.414062 90.417969 L 203.953125 106.886719 C 204.96875 107.960938 206.34375 108.441406 207.714844 108.441406 C 209.148438 108.441406 210.523438 107.960938 211.539062 106.886719 C 213.628906 104.800781 213.628906 101.398438 211.539062 99.308594 L 195.058594 82.777344 L 211.539062 66.308594 C 213.628906 64.21875 213.628906 60.816406 211.539062 58.726562 C 209.449219 56.640625 206.042969 56.640625 203.953125 58.726562 L 187.414062 75.199219 L 170.929688 58.726562 C 168.84375 56.640625 165.4375 56.640625 163.347656 58.726562 C 161.257812 60.816406 161.257812 64.21875 163.347656 66.308594 L 179.828125 82.777344 Z M 163.347656 99.308594 " fill-opacity="1" fill-rule="nonzero"/><path fill="#97d0dc" d="M 334.613281 363.921875 L 40.273438 363.921875 C 36.628906 363.921875 33.644531 360.9375 33.644531 357.296875 L 33.644531 349.957031 L 200.3125 349.957031 C 203.296875 349.957031 205.6875 347.570312 205.6875 344.585938 C 205.6875 341.664062 203.296875 339.214844 200.3125 339.214844 L 38.660156 339.214844 L 57.054688 313.316406 C 57.171875 313.375 57.292969 313.433594 57.410156 313.496094 C 57.949219 313.734375 58.488281 313.972656 59.023438 314.210938 C 60.277344 314.6875 61.53125 315.105469 62.847656 315.34375 C 63.085938 315.40625 63.382812 315.464844 63.683594 315.523438 C 65.234375 315.824219 66.789062 316 68.398438 316 L 306.488281 316 C 308.398438 316 310.308594 315.761719 312.101562 315.34375 C 312.457031 315.285156 312.816406 315.105469 313.113281 315.046875 C 314.667969 314.628906 316.160156 314.09375 317.59375 313.4375 C 317.652344 313.375 317.773438 313.375 317.832031 313.375 L 336.226562 339.214844 L 235.84375 339.214844 C 232.917969 339.214844 230.46875 341.664062 230.46875 344.585938 C 230.46875 347.570312 232.914062 349.960938 235.84375 349.960938 L 341.242188 349.960938 L 341.242188 357.300781 C 341.242188 360.9375 338.253906 363.921875 334.613281 363.921875 Z M 334.613281 363.921875 " fill-opacity="1" fill-rule="nonzero"/><path fill="#97d0dc" d="M 294.421875 116.199219 L 294.421875 275.359375 C 294.421875 276.730469 293.289062 277.925781 291.914062 277.925781 L 82.96875 277.925781 C 81.597656 277.925781 80.402344 276.730469 80.402344 275.359375 L 80.402344 116.199219 C 80.402344 110.527344 85 105.933594 90.675781 105.933594 L 139.640625 105.933594 C 139.699219 106.171875 139.878906 106.351562 139.941406 106.53125 C 140.894531 108.4375 141.96875 110.289062 143.105469 112.078125 C 143.34375 112.4375 143.582031 112.734375 143.820312 113.09375 C 144.835938 114.585938 145.972656 115.957031 147.164062 117.332031 C 147.761719 118.046875 148.417969 118.761719 149.078125 119.480469 C 149.851562 120.316406 150.6875 121.089844 151.523438 121.867188 C 152.660156 122.878906 153.851562 123.894531 155.046875 124.851562 C 156.0625 125.625 157.078125 126.34375 158.152344 127.058594 C 158.988281 127.65625 159.945312 128.191406 160.839844 128.730469 C 161.855469 129.265625 162.871094 129.804688 163.886719 130.339844 C 164.722656 130.757812 165.558594 131.175781 166.394531 131.535156 C 168.246094 132.371094 170.097656 133.027344 172.007812 133.625 C 172.605469 133.800781 173.261719 133.921875 173.917969 134.101562 C 175.472656 134.519531 177.082031 134.878906 178.695312 135.117188 C 179.351562 135.234375 180.007812 135.355469 180.726562 135.414062 C 182.933594 135.710938 185.144531 135.890625 187.414062 135.890625 C 189.742188 135.890625 191.953125 135.710938 194.160156 135.414062 C 194.878906 135.355469 195.535156 135.234375 196.191406 135.117188 C 197.804688 134.878906 199.417969 134.519531 200.96875 134.101562 C 201.625 133.921875 202.28125 133.804688 202.878906 133.625 C 204.792969 133.027344 206.640625 132.371094 208.492188 131.535156 C 209.328125 131.175781 210.164062 130.757812 211 130.339844 C 212.015625 129.804688 213.03125 129.265625 214.046875 128.730469 C 214.941406 128.191406 215.898438 127.65625 216.734375 127.058594 C 217.808594 126.34375 218.824219 125.566406 219.839844 124.789062 C 221.035156 123.894531 222.167969 122.878906 223.304688 121.867188 C 224.199219 121.089844 225.035156 120.316406 225.8125 119.480469 C 226.46875 118.761719 227.125 118.046875 227.722656 117.332031 C 228.917969 115.957031 230.050781 114.464844 231.125 112.976562 C 231.304688 112.675781 231.484375 112.4375 231.664062 112.140625 C 232.917969 110.347656 233.992188 108.4375 234.949219 106.46875 C 235.066406 106.289062 235.1875 106.113281 235.246094 105.933594 L 284.214844 105.933594 C 289.824219 105.933594 294.421875 110.527344 294.421875 116.199219 Z M 258.894531 175.695312 C 258.894531 161.554688 247.367188 150.035156 233.214844 150.035156 C 219.0625 150.035156 207.476562 161.550781 207.476562 175.695312 C 207.476562 189.839844 219.0625 201.359375 233.214844 201.359375 C 247.367188 201.359375 258.894531 189.839844 258.894531 175.695312 Z M 243.546875 252.800781 C 245.816406 250.890625 246.171875 247.550781 244.261719 245.222656 C 230.230469 228.214844 209.507812 218.484375 187.414062 218.484375 C 165.199219 218.484375 144.417969 228.332031 130.324219 245.578125 C 128.472656 247.847656 128.832031 251.25 131.101562 253.097656 C 132.117188 253.933594 133.308594 254.292969 134.503906 254.292969 C 136.058594 254.292969 137.609375 253.636719 138.683594 252.324219 C 150.6875 237.640625 168.484375 229.167969 187.414062 229.167969 C 206.285156 229.167969 223.960938 237.523438 235.960938 252.085938 C 237.875 254.351562 241.21875 254.710938 243.546875 252.800781 Z M 167.347656 175.695312 C 167.347656 161.554688 155.824219 150.035156 141.671875 150.035156 C 127.515625 150.035156 115.992188 161.550781 115.992188 175.695312 C 115.992188 189.839844 127.515625 201.359375 141.671875 201.359375 C 155.824219 201.359375 167.347656 189.839844 167.347656 175.695312 Z M 167.347656 175.695312 " fill-opacity="1" fill-rule="nonzero"/><path fill="#43aac2" d="M 52.933594 113.871094 C 52.933594 95.011719 68.28125 79.675781 87.148438 79.675781 L 134.386719 79.675781 C 134.324219 80.75 134.265625 81.765625 134.265625 82.777344 C 134.265625 87.074219 134.863281 91.191406 135.816406 95.191406 L 90.671875 95.191406 C 79.089844 95.191406 69.652344 104.621094 69.652344 116.199219 L 69.652344 275.359375 C 69.652344 282.699219 75.625 288.609375 82.96875 288.609375 L 291.914062 288.609375 C 299.203125 288.609375 305.171875 282.699219 305.171875 275.359375 L 305.171875 116.199219 C 305.171875 104.621094 295.796875 95.191406 284.210938 95.191406 L 239.066406 95.191406 C 240.023438 91.191406 240.621094 87.074219 240.621094 82.777344 C 240.621094 81.765625 240.558594 80.75 240.5 79.675781 L 287.734375 79.675781 C 306.605469 79.675781 321.953125 95.011719 321.953125 113.871094 L 321.953125 289.800781 C 321.953125 294.695312 319.5625 299.050781 315.980469 301.917969 L 315.921875 301.917969 C 315.265625 302.453125 314.546875 302.871094 313.832031 303.289062 C 313.773438 303.347656 313.710938 303.347656 313.652344 303.410156 C 312.996094 303.765625 312.339844 304.003906 311.683594 304.304688 C 311.382812 304.421875 311.027344 304.484375 310.667969 304.601562 C 310.1875 304.722656 309.710938 304.902344 309.234375 304.960938 C 308.339844 305.140625 307.441406 305.257812 306.488281 305.257812 L 68.398438 305.257812 C 67.445312 305.257812 66.546875 305.140625 65.652344 304.960938 C 65.175781 304.902344 64.636719 304.722656 64.160156 304.601562 C 63.859375 304.484375 63.503906 304.421875 63.203125 304.304688 C 62.488281 304.003906 61.832031 303.765625 61.234375 303.410156 C 61.175781 303.347656 61.113281 303.347656 61.054688 303.289062 C 60.339844 302.929688 59.621094 302.453125 58.964844 301.917969 C 58.90625 301.917969 58.90625 301.917969 58.90625 301.917969 C 55.324219 299.050781 52.933594 294.695312 52.933594 289.800781 Z M 52.933594 113.871094 " fill-opacity="1" fill-rule="nonzero"/><path fill="#000000" d="M 218.285156 175.695312 C 218.285156 183.933594 224.972656 190.617188 233.214844 190.617188 C 241.457031 190.617188 248.144531 183.933594 248.144531 175.695312 C 248.144531 167.460938 241.457031 160.777344 233.214844 160.777344 C 224.972656 160.777344 218.285156 167.460938 218.285156 175.695312 Z M 233.214844 201.359375 C 219.0625 201.359375 207.476562 189.839844 207.476562 175.695312 C 207.476562 161.554688 219.0625 150.035156 233.214844 150.035156 C 247.367188 150.035156 258.894531 161.550781 258.894531 175.695312 C 258.894531 189.839844 247.367188 201.359375 233.214844 201.359375 Z M 233.214844 201.359375 " fill-opacity="1" fill-rule="nonzero"/><path fill="#000000" d="M 170.929688 106.886719 C 169.855469 107.960938 168.484375 108.441406 167.109375 108.441406 C 165.738281 108.441406 164.363281 107.960938 163.347656 106.886719 C 161.257812 104.800781 161.257812 101.398438 163.347656 99.308594 L 179.828125 82.777344 L 163.347656 66.308594 C 161.257812 64.21875 161.257812 60.816406 163.347656 58.726562 C 165.4375 56.640625 168.839844 56.640625 170.929688 58.726562 L 187.414062 75.199219 L 203.953125 58.726562 C 206.042969 56.640625 209.449219 56.640625 211.539062 58.726562 C 213.628906 60.816406 213.628906 64.21875 211.539062 66.308594 L 195.058594 82.777344 L 211.539062 99.308594 C 213.628906 101.398438 213.628906 104.800781 211.539062 106.886719 C 210.523438 107.960938 209.148438 108.441406 207.714844 108.441406 C 206.34375 108.441406 204.96875 107.960938 203.953125 106.886719 L 187.414062 90.417969 Z M 170.929688 106.886719 " fill-opacity="1" fill-rule="nonzero"/><path fill="#000000" d="M 131.101562 253.101562 C 128.832031 251.25 128.472656 247.847656 130.324219 245.582031 C 144.417969 228.332031 165.199219 218.488281 187.414062 218.488281 C 209.507812 218.488281 230.230469 228.214844 244.261719 245.222656 C 246.171875 247.550781 245.816406 250.890625 243.546875 252.800781 C 241.21875 254.710938 237.875 254.351562 235.960938 252.085938 C 223.960938 237.523438 206.285156 229.167969 187.414062 229.167969 C 168.484375 229.167969 150.6875 237.644531 138.683594 252.324219 C 137.609375 253.636719 136.058594 254.292969 134.503906 254.292969 C 133.308594 254.292969 132.117188 253.933594 131.101562 253.101562 Z M 131.101562 253.101562 " fill-opacity="1" fill-rule="nonzero"/><path fill="#000000" d="M 141.671875 160.777344 C 133.429688 160.777344 126.742188 167.460938 126.742188 175.695312 C 126.742188 183.933594 133.429688 190.617188 141.671875 190.617188 C 149.910156 190.617188 156.601562 183.933594 156.601562 175.695312 C 156.601562 167.460938 149.910156 160.777344 141.671875 160.777344 Z M 141.671875 201.359375 C 127.519531 201.359375 115.992188 189.839844 115.992188 175.695312 C 115.992188 161.554688 127.519531 150.035156 141.671875 150.035156 C 155.824219 150.035156 167.347656 161.550781 167.347656 175.695312 C 167.347656 189.839844 155.824219 201.359375 141.671875 201.359375 Z M 141.671875 201.359375 " fill-opacity="1" fill-rule="nonzero"/><g clip-path="url(#fe38a18f6a)"><path fill="#000000" d="M 187.414062 40.40625 C 166.511719 40.40625 149.136719 55.625 145.730469 75.554688 C 145.492188 76.75 145.375 77.882812 145.253906 78.957031 C 145.132812 80.210938 145.015625 81.523438 145.015625 82.777344 C 145.015625 88.445312 146.148438 93.757812 148.179688 98.710938 C 148.898438 100.5 149.792969 102.234375 150.746094 103.902344 C 150.925781 104.261719 151.164062 104.621094 151.40625 104.976562 C 152.179688 106.289062 153.078125 107.542969 154.03125 108.738281 C 154.332031 109.15625 154.628906 109.574219 154.929688 109.929688 C 155.882812 111.125 156.957031 112.199219 158.09375 113.273438 C 158.632812 113.808594 159.226562 114.347656 159.824219 114.882812 C 160.660156 115.601562 161.496094 116.257812 162.453125 116.914062 C 163.230469 117.570312 164.125 118.109375 164.960938 118.644531 C 165.976562 119.300781 167.050781 119.898438 168.066406 120.433594 C 168.722656 120.792969 169.378906 121.089844 170.035156 121.390625 C 171.410156 121.984375 172.84375 122.582031 174.277344 123.058594 C 174.632812 123.179688 175.050781 123.296875 175.472656 123.417969 C 177.023438 123.894531 178.636719 124.253906 180.246094 124.492188 C 180.726562 124.613281 181.261719 124.671875 181.742188 124.730469 C 183.652344 124.96875 185.503906 125.148438 187.414062 125.148438 C 189.382812 125.148438 191.234375 124.96875 193.085938 124.730469 C 193.625 124.671875 194.160156 124.609375 194.640625 124.492188 C 196.253906 124.253906 197.804688 123.894531 199.355469 123.417969 C 199.835938 123.296875 200.253906 123.179688 200.671875 123 C 202.101562 122.582031 203.476562 121.984375 204.789062 121.390625 C 205.507812 121.089844 206.164062 120.792969 206.820312 120.433594 C 207.835938 119.898438 208.851562 119.300781 209.867188 118.703125 C 210.761719 118.109375 211.65625 117.511719 212.496094 116.914062 C 213.390625 116.257812 214.226562 115.601562 215.0625 114.882812 C 215.660156 114.347656 216.257812 113.808594 216.792969 113.273438 C 217.929688 112.199219 219.003906 111.125 219.957031 109.929688 C 220.257812 109.574219 220.554688 109.15625 220.855469 108.738281 C 221.808594 107.542969 222.707031 106.289062 223.480469 104.976562 C 223.71875 104.621094 223.960938 104.261719 224.140625 103.902344 C 225.09375 102.230469 225.988281 100.5 226.707031 98.652344 C 228.738281 93.757812 229.8125 88.386719 229.8125 82.777344 C 229.8125 81.523438 229.753906 80.269531 229.632812 79.015625 C 229.511719 77.824219 229.332031 76.570312 229.15625 75.257812 C 225.570312 55.503906 208.253906 40.40625 187.414062 40.40625 Z M 82.96875 277.925781 L 291.914062 277.925781 C 293.289062 277.925781 294.421875 276.730469 294.421875 275.359375 L 294.421875 116.199219 C 294.421875 110.527344 289.824219 105.933594 284.210938 105.933594 L 235.246094 105.933594 C 235.183594 106.113281 235.066406 106.289062 234.945312 106.46875 C 233.992188 108.441406 232.914062 110.347656 231.664062 112.140625 C 231.484375 112.4375 231.304688 112.675781 231.125 112.976562 C 230.050781 114.46875 228.914062 115.960938 227.71875 117.332031 C 227.125 118.046875 226.464844 118.765625 225.808594 119.480469 C 225.035156 120.316406 224.195312 121.089844 223.300781 121.867188 C 222.167969 122.882812 221.03125 123.898438 219.839844 124.792969 C 218.824219 125.566406 217.808594 126.34375 216.734375 127.058594 C 215.894531 127.65625 214.941406 128.191406 214.046875 128.730469 C 213.03125 129.269531 212.015625 129.804688 211 130.34375 C 210.164062 130.761719 209.328125 131.175781 208.492188 131.535156 C 206.640625 132.371094 204.789062 133.027344 202.878906 133.625 C 202.28125 133.804688 201.625 133.921875 200.96875 134.101562 C 199.414062 134.519531 197.800781 134.878906 196.191406 135.117188 C 195.535156 135.238281 194.878906 135.355469 194.160156 135.414062 C 191.949219 135.714844 189.742188 135.894531 187.414062 135.894531 C 185.144531 135.894531 182.933594 135.714844 180.722656 135.414062 C 180.007812 135.355469 179.351562 135.234375 178.695312 135.117188 C 177.082031 134.878906 175.46875 134.519531 173.917969 134.101562 C 173.261719 133.921875 172.601562 133.804688 172.003906 133.625 C 170.09375 133.027344 168.242188 132.371094 166.390625 131.535156 C 165.554688 131.175781 164.71875 130.761719 163.882812 130.34375 C 162.871094 129.804688 161.855469 129.269531 160.839844 128.730469 C 159.941406 128.191406 158.988281 127.65625 158.152344 127.058594 C 157.078125 126.34375 156.0625 125.628906 155.046875 124.851562 C 153.851562 123.898438 152.65625 122.882812 151.523438 121.867188 C 150.6875 121.089844 149.851562 120.316406 149.074219 119.480469 C 148.417969 118.765625 147.761719 118.046875 147.164062 117.332031 C 145.96875 115.960938 144.835938 114.585938 143.820312 113.09375 C 143.582031 112.734375 143.339844 112.4375 143.101562 112.078125 C 141.96875 110.289062 140.894531 108.441406 139.9375 106.53125 C 139.878906 106.351562 139.699219 106.171875 139.640625 105.933594 L 90.671875 105.933594 C 85 105.933594 80.402344 110.527344 80.402344 116.199219 L 80.402344 275.359375 C 80.402344 276.730469 81.597656 277.925781 82.96875 277.925781 Z M 87.148438 79.675781 C 68.28125 79.675781 52.933594 95.011719 52.933594 113.871094 L 52.933594 289.800781 C 52.933594 294.695312 55.320312 299.050781 58.90625 301.917969 C 58.90625 301.917969 58.90625 301.917969 58.964844 301.917969 C 59.621094 302.453125 60.335938 302.929688 61.054688 303.289062 C 61.113281 303.347656 61.175781 303.347656 61.234375 303.410156 C 61.828125 303.765625 62.488281 304.003906 63.203125 304.304688 C 63.503906 304.421875 63.859375 304.484375 64.160156 304.601562 C 64.636719 304.722656 65.171875 304.902344 65.652344 304.960938 C 66.546875 305.140625 67.441406 305.257812 68.398438 305.257812 L 306.484375 305.257812 C 307.441406 305.257812 308.335938 305.140625 309.234375 304.960938 C 309.710938 304.902344 310.1875 304.722656 310.667969 304.601562 C 311.023438 304.484375 311.382812 304.421875 311.679688 304.304688 C 312.339844 304.003906 312.996094 303.765625 313.652344 303.410156 C 313.710938 303.347656 313.773438 303.347656 313.832031 303.289062 C 314.546875 302.871094 315.265625 302.453125 315.921875 301.917969 L 315.980469 301.917969 C 319.5625 299.050781 321.953125 294.695312 321.953125 289.800781 L 321.953125 113.871094 C 321.953125 95.011719 306.605469 79.675781 287.734375 79.675781 L 240.5 79.675781 C 240.558594 80.75 240.621094 81.765625 240.621094 82.777344 C 240.621094 87.074219 240.023438 91.191406 239.066406 95.191406 L 284.210938 95.191406 C 295.796875 95.191406 305.171875 104.621094 305.171875 116.199219 L 305.171875 275.359375 C 305.171875 282.699219 299.199219 288.609375 291.914062 288.609375 L 82.96875 288.609375 C 75.625 288.609375 69.652344 282.699219 69.652344 275.359375 L 69.652344 116.199219 C 69.652344 104.621094 79.089844 95.191406 90.671875 95.191406 L 135.816406 95.191406 C 134.863281 91.191406 134.265625 87.074219 134.265625 82.777344 C 134.265625 81.765625 134.324219 80.75 134.386719 79.675781 Z M 23.851562 341.484375 L 48.574219 306.691406 C 44.632812 302.15625 42.183594 296.308594 42.183594 289.800781 L 42.183594 113.871094 C 42.183594 89.105469 62.367188 68.933594 87.148438 68.933594 L 136.175781 68.933594 C 142.328125 46.375 162.929688 29.664062 187.414062 29.664062 C 211.957031 29.664062 232.558594 46.375 238.710938 68.933594 L 287.734375 68.933594 C 312.519531 68.933594 332.703125 89.105469 332.703125 113.871094 L 332.703125 289.800781 C 332.703125 296.308594 330.253906 302.15625 326.3125 306.691406 L 351.035156 341.484375 C 351.152344 341.722656 351.214844 341.960938 351.332031 342.140625 C 351.453125 342.378906 351.570312 342.496094 351.632812 342.734375 C 351.871094 343.332031 351.988281 343.929688 351.988281 344.585938 L 351.988281 357.296875 C 351.988281 366.90625 344.226562 374.664062 334.613281 374.664062 L 40.273438 374.664062 C 30.65625 374.664062 22.894531 366.90625 22.894531 357.296875 L 22.894531 344.585938 C 22.894531 343.929688 23.015625 343.332031 23.253906 342.734375 C 23.3125 342.496094 23.433594 342.378906 23.550781 342.140625 C 23.671875 341.960938 23.730469 341.722656 23.851562 341.484375 Z M 40.273438 363.921875 L 334.613281 363.921875 C 338.253906 363.921875 341.242188 360.9375 341.242188 357.296875 L 341.242188 349.957031 L 235.84375 349.957031 C 232.917969 349.957031 230.46875 347.570312 230.46875 344.585938 C 230.46875 341.664062 232.914062 339.214844 235.84375 339.214844 L 336.226562 339.214844 L 317.832031 313.375 C 317.773438 313.375 317.652344 313.375 317.59375 313.433594 C 316.160156 314.089844 314.667969 314.628906 313.113281 315.046875 C 312.816406 315.105469 312.457031 315.285156 312.101562 315.34375 C 310.308594 315.761719 308.398438 316 306.488281 316 L 68.398438 316 C 66.785156 316 65.234375 315.820312 63.683594 315.523438 C 63.382812 315.464844 63.085938 315.402344 62.847656 315.34375 C 61.53125 315.105469 60.277344 314.6875 59.023438 314.210938 C 58.488281 313.972656 57.949219 313.734375 57.410156 313.492188 C 57.292969 313.433594 57.171875 313.375 57.054688 313.316406 L 38.660156 339.214844 L 200.3125 339.214844 C 203.296875 339.214844 205.6875 341.660156 205.6875 344.585938 C 205.6875 347.570312 203.296875 349.957031 200.3125 349.957031 L 33.644531 349.957031 L 33.644531 357.296875 C 33.644531 360.9375 36.628906 363.921875 40.273438 363.921875 Z M 40.273438 363.921875 " fill-opacity="1" fill-rule="nonzero"/></g><g fill="#97d0dc" fill-opacity="1"><g transform="translate(145.11039, 258.041789)"><g><path d="M 4.1875 -8.234375 C 4.1875 -8.046875 4.128906 -7.882812 4.015625 -7.75 C 3.898438 -7.625 3.765625 -7.519531 3.609375 -7.4375 C 3.472656 -7.34375 3.328125 -7.25 3.171875 -7.15625 C 3.023438 -7.0625 2.890625 -6.953125 2.765625 -6.828125 C 2.640625 -6.703125 2.535156 -6.566406 2.453125 -6.421875 C 2.378906 -6.273438 2.34375 -6.109375 2.34375 -5.921875 C 2.34375 -5.753906 2.378906 -5.601562 2.453125 -5.46875 C 2.535156 -5.34375 2.632812 -5.210938 2.75 -5.078125 C 2.863281 -4.953125 2.988281 -4.820312 3.125 -4.6875 C 3.257812 -4.550781 3.382812 -4.394531 3.5 -4.21875 C 3.613281 -4.050781 3.707031 -3.863281 3.78125 -3.65625 C 3.863281 -3.445312 3.90625 -3.203125 3.90625 -2.921875 C 3.90625 -2.722656 3.863281 -2.5 3.78125 -2.25 C 3.695312 -2.007812 3.582031 -1.765625 3.4375 -1.515625 C 3.300781 -1.265625 3.132812 -1.019531 2.9375 -0.78125 C 2.75 -0.550781 2.546875 -0.34375 2.328125 -0.15625 C 2.117188 0.03125 1.894531 0.175781 1.65625 0.28125 C 1.425781 0.394531 1.203125 0.453125 0.984375 0.453125 C 0.742188 0.453125 0.53125 0.382812 0.34375 0.25 C 0.15625 0.125 0.0625 -0.0703125 0.0625 -0.34375 C 0.0625 -0.519531 0.101562 -0.679688 0.1875 -0.828125 C 0.269531 -0.984375 0.375 -1.128906 0.5 -1.265625 C 0.625 -1.410156 0.765625 -1.550781 0.921875 -1.6875 C 1.078125 -1.820312 1.21875 -1.953125 1.34375 -2.078125 C 1.46875 -2.210938 1.570312 -2.351562 1.65625 -2.5 C 1.738281 -2.644531 1.78125 -2.800781 1.78125 -2.96875 C 1.78125 -3.195312 1.695312 -3.425781 1.53125 -3.65625 C 1.375 -3.894531 1.195312 -4.140625 1 -4.390625 C 0.8125 -4.648438 0.632812 -4.910156 0.46875 -5.171875 C 0.3125 -5.441406 0.234375 -5.710938 0.234375 -5.984375 C 0.234375 -6.328125 0.320312 -6.679688 0.5 -7.046875 C 0.6875 -7.421875 0.921875 -7.757812 1.203125 -8.0625 C 1.484375 -8.375 1.796875 -8.628906 2.140625 -8.828125 C 2.492188 -9.035156 2.84375 -9.140625 3.1875 -9.140625 C 3.457031 -9.140625 3.691406 -9.054688 3.890625 -8.890625 C 4.085938 -8.734375 4.1875 -8.515625 4.1875 -8.234375 Z M 4.1875 -8.234375 "/></g></g><g transform="translate(149.352577, 258.041789)"><g><path d="M 2.28125 -8.1875 C 2.28125 -8.070312 2.25 -7.972656 2.1875 -7.890625 C 2.132812 -7.804688 2.0625 -7.726562 1.96875 -7.65625 C 1.875 -7.59375 1.769531 -7.539062 1.65625 -7.5 C 1.550781 -7.46875 1.453125 -7.453125 1.359375 -7.453125 C 1.203125 -7.453125 1.066406 -7.488281 0.953125 -7.5625 C 0.835938 -7.644531 0.78125 -7.769531 0.78125 -7.9375 C 0.78125 -8.050781 0.804688 -8.148438 0.859375 -8.234375 C 0.921875 -8.328125 0.992188 -8.40625 1.078125 -8.46875 C 1.160156 -8.53125 1.253906 -8.578125 1.359375 -8.609375 C 1.472656 -8.640625 1.582031 -8.65625 1.6875 -8.65625 C 1.832031 -8.65625 1.96875 -8.617188 2.09375 -8.546875 C 2.21875 -8.472656 2.28125 -8.351562 2.28125 -8.1875 Z M 2.375 -4.203125 C 2.375 -4.085938 2.375 -3.96875 2.375 -3.84375 C 2.375 -3.726562 2.375 -3.613281 2.375 -3.5 C 2.363281 -3.375 2.359375 -3.195312 2.359375 -2.96875 C 2.359375 -2.75 2.347656 -2.507812 2.328125 -2.25 C 2.316406 -1.988281 2.289062 -1.722656 2.25 -1.453125 C 2.21875 -1.191406 2.160156 -0.953125 2.078125 -0.734375 C 2.003906 -0.515625 1.898438 -0.335938 1.765625 -0.203125 C 1.640625 -0.0664062 1.484375 0.00390625 1.296875 0.015625 C 1.140625 0.0234375 1.007812 -0.03125 0.90625 -0.15625 C 0.8125 -0.289062 0.726562 -0.457031 0.65625 -0.65625 C 0.59375 -0.851562 0.546875 -1.070312 0.515625 -1.3125 C 0.484375 -1.5625 0.457031 -1.800781 0.4375 -2.03125 C 0.425781 -2.257812 0.421875 -2.472656 0.421875 -2.671875 C 0.421875 -2.867188 0.421875 -3.015625 0.421875 -3.109375 C 0.421875 -3.234375 0.421875 -3.410156 0.421875 -3.640625 C 0.421875 -3.867188 0.425781 -4.113281 0.4375 -4.375 C 0.457031 -4.644531 0.488281 -4.914062 0.53125 -5.1875 C 0.570312 -5.46875 0.632812 -5.71875 0.71875 -5.9375 C 0.800781 -6.164062 0.910156 -6.347656 1.046875 -6.484375 C 1.179688 -6.628906 1.347656 -6.703125 1.546875 -6.703125 C 1.753906 -6.703125 1.910156 -6.597656 2.015625 -6.390625 C 2.128906 -6.179688 2.210938 -5.9375 2.265625 -5.65625 C 2.328125 -5.375 2.359375 -5.09375 2.359375 -4.8125 C 2.367188 -4.53125 2.375 -4.328125 2.375 -4.203125 Z M 2.375 -4.203125 "/></g></g><g transform="translate(152.211952, 258.041789)"><g><path d="M 3.78125 -6.453125 C 3.78125 -6.222656 3.703125 -6.050781 3.546875 -5.9375 C 3.398438 -5.832031 3.234375 -5.726562 3.046875 -5.625 C 2.859375 -5.53125 2.6875 -5.414062 2.53125 -5.28125 C 2.382812 -5.15625 2.3125 -4.957031 2.3125 -4.6875 C 2.3125 -4.550781 2.34375 -4.429688 2.40625 -4.328125 C 2.476562 -4.222656 2.5625 -4.128906 2.65625 -4.046875 C 2.75 -3.960938 2.851562 -3.878906 2.96875 -3.796875 C 3.09375 -3.710938 3.203125 -3.613281 3.296875 -3.5 C 3.398438 -3.394531 3.484375 -3.265625 3.546875 -3.109375 C 3.609375 -2.953125 3.640625 -2.757812 3.640625 -2.53125 C 3.640625 -2.207031 3.554688 -1.882812 3.390625 -1.5625 C 3.222656 -1.25 3.007812 -0.96875 2.75 -0.71875 C 2.488281 -0.476562 2.191406 -0.28125 1.859375 -0.125 C 1.535156 0.0195312 1.210938 0.09375 0.890625 0.09375 C 0.753906 0.09375 0.617188 0.0820312 0.484375 0.0625 C 0.359375 0.0390625 0.238281 0.00390625 0.125 -0.046875 C 0.0195312 -0.0976562 -0.0625 -0.171875 -0.125 -0.265625 C -0.195312 -0.367188 -0.234375 -0.5 -0.234375 -0.65625 C -0.234375 -0.875 -0.1875 -1.039062 -0.09375 -1.15625 C -0.0078125 -1.28125 0.09375 -1.378906 0.21875 -1.453125 C 0.351562 -1.523438 0.492188 -1.578125 0.640625 -1.609375 C 0.796875 -1.648438 0.941406 -1.703125 1.078125 -1.765625 C 1.210938 -1.828125 1.320312 -1.90625 1.40625 -2 C 1.488281 -2.09375 1.53125 -2.222656 1.53125 -2.390625 C 1.53125 -2.554688 1.46875 -2.726562 1.34375 -2.90625 C 1.21875 -3.082031 1.078125 -3.269531 0.921875 -3.46875 C 0.765625 -3.664062 0.617188 -3.875 0.484375 -4.09375 C 0.359375 -4.320312 0.296875 -4.578125 0.296875 -4.859375 C 0.296875 -5.191406 0.363281 -5.5 0.5 -5.78125 C 0.632812 -6.070312 0.816406 -6.320312 1.046875 -6.53125 C 1.273438 -6.738281 1.535156 -6.898438 1.828125 -7.015625 C 2.128906 -7.140625 2.445312 -7.203125 2.78125 -7.203125 C 2.90625 -7.203125 3.023438 -7.191406 3.140625 -7.171875 C 3.265625 -7.148438 3.375 -7.109375 3.46875 -7.046875 C 3.5625 -6.992188 3.632812 -6.914062 3.6875 -6.8125 C 3.75 -6.71875 3.78125 -6.597656 3.78125 -6.453125 Z M 3.78125 -6.453125 "/></g></g><g transform="translate(156.114296, 258.041789)"><g><path d="M 3.078125 0.421875 C 2.523438 0.421875 2.09375 0.347656 1.78125 0.203125 C 1.476562 0.0546875 1.25 -0.144531 1.09375 -0.40625 C 0.945312 -0.675781 0.859375 -1 0.828125 -1.375 C 0.796875 -1.75 0.78125 -2.164062 0.78125 -2.625 C 0.78125 -2.988281 0.789062 -3.359375 0.8125 -3.734375 C 0.832031 -4.109375 0.867188 -4.503906 0.921875 -4.921875 C 0.804688 -4.921875 0.71875 -4.914062 0.65625 -4.90625 C 0.59375 -4.90625 0.539062 -4.90625 0.5 -4.90625 C 0.25 -4.90625 0.0351562 -4.957031 -0.140625 -5.0625 C -0.328125 -5.175781 -0.421875 -5.347656 -0.421875 -5.578125 C -0.421875 -5.722656 -0.367188 -5.847656 -0.265625 -5.953125 C -0.160156 -6.066406 -0.0234375 -6.160156 0.140625 -6.234375 C 0.304688 -6.316406 0.484375 -6.378906 0.671875 -6.421875 C 0.867188 -6.472656 1.050781 -6.503906 1.21875 -6.515625 C 1.21875 -6.734375 1.234375 -6.972656 1.265625 -7.234375 C 1.296875 -7.503906 1.351562 -7.753906 1.4375 -7.984375 C 1.519531 -8.210938 1.628906 -8.40625 1.765625 -8.5625 C 1.910156 -8.71875 2.09375 -8.796875 2.3125 -8.796875 C 2.4375 -8.796875 2.546875 -8.757812 2.640625 -8.6875 C 2.742188 -8.613281 2.828125 -8.519531 2.890625 -8.40625 C 2.953125 -8.289062 3 -8.160156 3.03125 -8.015625 C 3.0625 -7.878906 3.078125 -7.75 3.078125 -7.625 C 3.078125 -7.46875 3.0625 -7.304688 3.03125 -7.140625 C 3.007812 -6.972656 2.96875 -6.769531 2.90625 -6.53125 C 3.039062 -6.539062 3.128906 -6.546875 3.171875 -6.546875 C 3.222656 -6.554688 3.269531 -6.5625 3.3125 -6.5625 C 3.4375 -6.5625 3.570312 -6.550781 3.71875 -6.53125 C 3.863281 -6.507812 3.992188 -6.46875 4.109375 -6.40625 C 4.234375 -6.351562 4.332031 -6.28125 4.40625 -6.1875 C 4.488281 -6.101562 4.53125 -6 4.53125 -5.875 C 4.53125 -5.726562 4.472656 -5.597656 4.359375 -5.484375 C 4.253906 -5.378906 4.113281 -5.285156 3.9375 -5.203125 C 3.769531 -5.128906 3.585938 -5.070312 3.390625 -5.03125 C 3.191406 -4.988281 3.007812 -4.960938 2.84375 -4.953125 C 2.789062 -4.628906 2.753906 -4.332031 2.734375 -4.0625 C 2.710938 -3.789062 2.691406 -3.519531 2.671875 -3.25 C 2.660156 -3.113281 2.644531 -2.976562 2.625 -2.84375 C 2.613281 -2.707031 2.609375 -2.566406 2.609375 -2.421875 C 2.609375 -2.328125 2.613281 -2.207031 2.625 -2.0625 C 2.632812 -1.925781 2.660156 -1.796875 2.703125 -1.671875 C 2.753906 -1.546875 2.828125 -1.4375 2.921875 -1.34375 C 3.023438 -1.257812 3.171875 -1.21875 3.359375 -1.21875 C 3.460938 -1.21875 3.570312 -1.226562 3.6875 -1.25 C 3.8125 -1.269531 3.929688 -1.28125 4.046875 -1.28125 C 4.242188 -1.28125 4.390625 -1.207031 4.484375 -1.0625 C 4.578125 -0.925781 4.625 -0.75 4.625 -0.53125 C 4.625 -0.363281 4.570312 -0.21875 4.46875 -0.09375 C 4.375 0.0195312 4.25 0.113281 4.09375 0.1875 C 3.945312 0.269531 3.78125 0.328125 3.59375 0.359375 C 3.414062 0.398438 3.242188 0.421875 3.078125 0.421875 Z M 3.078125 0.421875 "/></g></g><g transform="translate(160.614295, 258.041789)"><g><path d="M 5.265625 -2.09375 C 5.265625 -1.820312 5.179688 -1.554688 5.015625 -1.296875 C 4.847656 -1.046875 4.632812 -0.820312 4.375 -0.625 C 4.125 -0.425781 3.851562 -0.265625 3.5625 -0.140625 C 3.269531 -0.0234375 3.003906 0.03125 2.765625 0.03125 C 2.347656 0.03125 1.976562 -0.0703125 1.65625 -0.28125 C 1.332031 -0.488281 1.0625 -0.75 0.84375 -1.0625 C 0.625 -1.382812 0.457031 -1.738281 0.34375 -2.125 C 0.226562 -2.507812 0.171875 -2.890625 0.171875 -3.265625 C 0.171875 -3.648438 0.222656 -4.066406 0.328125 -4.515625 C 0.441406 -4.960938 0.609375 -5.375 0.828125 -5.75 C 1.054688 -6.125 1.335938 -6.4375 1.671875 -6.6875 C 2.015625 -6.9375 2.421875 -7.0625 2.890625 -7.0625 C 3.160156 -7.0625 3.414062 -7.015625 3.65625 -6.921875 C 3.894531 -6.828125 4.101562 -6.695312 4.28125 -6.53125 C 4.46875 -6.375 4.613281 -6.179688 4.71875 -5.953125 C 4.832031 -5.722656 4.890625 -5.46875 4.890625 -5.1875 C 4.890625 -4.820312 4.8125 -4.476562 4.65625 -4.15625 C 4.5 -3.84375 4.289062 -3.566406 4.03125 -3.328125 C 3.769531 -3.097656 3.472656 -2.910156 3.140625 -2.765625 C 2.804688 -2.617188 2.460938 -2.535156 2.109375 -2.515625 C 2.140625 -2.296875 2.226562 -2.132812 2.375 -2.03125 C 2.53125 -1.925781 2.71875 -1.875 2.9375 -1.875 C 3.09375 -1.875 3.242188 -1.910156 3.390625 -1.984375 C 3.535156 -2.066406 3.675781 -2.15625 3.8125 -2.25 C 3.957031 -2.351562 4.097656 -2.441406 4.234375 -2.515625 C 4.367188 -2.597656 4.507812 -2.640625 4.65625 -2.640625 C 4.8125 -2.640625 4.953125 -2.585938 5.078125 -2.484375 C 5.203125 -2.378906 5.265625 -2.25 5.265625 -2.09375 Z M 3.359375 -4.953125 C 3.359375 -5.054688 3.332031 -5.160156 3.28125 -5.265625 C 3.226562 -5.378906 3.144531 -5.4375 3.03125 -5.4375 C 2.851562 -5.4375 2.707031 -5.390625 2.59375 -5.296875 C 2.476562 -5.210938 2.378906 -5.101562 2.296875 -4.96875 C 2.222656 -4.832031 2.160156 -4.6875 2.109375 -4.53125 C 2.066406 -4.375 2.046875 -4.226562 2.046875 -4.09375 C 2.148438 -4.113281 2.273438 -4.144531 2.421875 -4.1875 C 2.578125 -4.226562 2.722656 -4.28125 2.859375 -4.34375 C 3.003906 -4.40625 3.125 -4.488281 3.21875 -4.59375 C 3.3125 -4.695312 3.359375 -4.816406 3.359375 -4.953125 Z M 3.359375 -4.953125 "/></g></g><g transform="translate(165.993201, 258.041789)"><g><path d="M 7.46875 -3.875 C 7.46875 -3.71875 7.46875 -3.515625 7.46875 -3.265625 C 7.46875 -3.015625 7.460938 -2.738281 7.453125 -2.4375 C 7.441406 -2.144531 7.414062 -1.847656 7.375 -1.546875 C 7.332031 -1.242188 7.269531 -0.96875 7.1875 -0.71875 C 7.101562 -0.476562 7 -0.28125 6.875 -0.125 C 6.75 0.03125 6.59375 0.109375 6.40625 0.109375 C 6.226562 0.109375 6.09375 0.0351562 6 -0.109375 C 5.914062 -0.253906 5.851562 -0.425781 5.8125 -0.625 C 5.769531 -0.820312 5.75 -1.019531 5.75 -1.21875 C 5.75 -1.425781 5.75 -1.585938 5.75 -1.703125 C 5.75 -2.054688 5.757812 -2.398438 5.78125 -2.734375 C 5.800781 -3.066406 5.8125 -3.410156 5.8125 -3.765625 C 5.8125 -3.804688 5.8125 -3.875 5.8125 -3.96875 C 5.8125 -4.070312 5.800781 -4.175781 5.78125 -4.28125 C 5.769531 -4.382812 5.742188 -4.472656 5.703125 -4.546875 C 5.671875 -4.628906 5.625 -4.671875 5.5625 -4.671875 C 5.414062 -4.671875 5.300781 -4.597656 5.21875 -4.453125 C 5.132812 -4.304688 5.0625 -4.132812 5 -3.9375 C 4.945312 -3.738281 4.910156 -3.546875 4.890625 -3.359375 C 4.867188 -3.171875 4.851562 -3.03125 4.84375 -2.9375 C 4.820312 -2.832031 4.804688 -2.675781 4.796875 -2.46875 C 4.785156 -2.269531 4.769531 -2.046875 4.75 -1.796875 C 4.726562 -1.554688 4.695312 -1.3125 4.65625 -1.0625 C 4.613281 -0.8125 4.554688 -0.582031 4.484375 -0.375 C 4.421875 -0.164062 4.335938 0.00390625 4.234375 0.140625 C 4.140625 0.273438 4.019531 0.34375 3.875 0.34375 C 3.6875 0.34375 3.539062 0.257812 3.4375 0.09375 C 3.332031 -0.0703125 3.253906 -0.265625 3.203125 -0.484375 C 3.160156 -0.703125 3.132812 -0.921875 3.125 -1.140625 C 3.113281 -1.367188 3.109375 -1.546875 3.109375 -1.671875 C 3.109375 -1.804688 3.109375 -1.9375 3.109375 -2.0625 C 3.117188 -2.1875 3.125 -2.316406 3.125 -2.453125 C 3.125 -2.503906 3.125 -2.59375 3.125 -2.71875 C 3.125 -2.84375 3.117188 -2.976562 3.109375 -3.125 C 3.109375 -3.28125 3.101562 -3.441406 3.09375 -3.609375 C 3.082031 -3.773438 3.0625 -3.925781 3.03125 -4.0625 C 3.007812 -4.195312 2.972656 -4.304688 2.921875 -4.390625 C 2.878906 -4.484375 2.828125 -4.53125 2.765625 -4.53125 C 2.660156 -4.53125 2.566406 -4.460938 2.484375 -4.328125 C 2.398438 -4.203125 2.328125 -4.050781 2.265625 -3.875 C 2.203125 -3.695312 2.148438 -3.519531 2.109375 -3.34375 C 2.078125 -3.175781 2.0625 -3.054688 2.0625 -2.984375 L 2.0625 -2.90625 C 2.0625 -2.53125 2.082031 -2.160156 2.125 -1.796875 C 2.175781 -1.441406 2.203125 -1.078125 2.203125 -0.703125 C 2.203125 -0.484375 2.128906 -0.28125 1.984375 -0.09375 C 1.847656 0.0820312 1.65625 0.171875 1.40625 0.171875 C 1.226562 0.171875 1.078125 0.101562 0.953125 -0.03125 C 0.835938 -0.164062 0.738281 -0.34375 0.65625 -0.5625 C 0.582031 -0.78125 0.523438 -1.019531 0.484375 -1.28125 C 0.441406 -1.539062 0.410156 -1.796875 0.390625 -2.046875 C 0.378906 -2.304688 0.367188 -2.539062 0.359375 -2.75 C 0.359375 -2.957031 0.359375 -3.113281 0.359375 -3.21875 C 0.359375 -3.332031 0.359375 -3.5 0.359375 -3.71875 C 0.359375 -3.945312 0.363281 -4.191406 0.375 -4.453125 C 0.382812 -4.722656 0.40625 -5 0.4375 -5.28125 C 0.46875 -5.5625 0.515625 -5.8125 0.578125 -6.03125 C 0.648438 -6.257812 0.742188 -6.445312 0.859375 -6.59375 C 0.972656 -6.738281 1.117188 -6.8125 1.296875 -6.8125 C 1.503906 -6.8125 1.671875 -6.753906 1.796875 -6.640625 C 1.929688 -6.535156 2 -6.375 2 -6.15625 C 2 -6.101562 1.992188 -6.050781 1.984375 -6 C 1.984375 -5.957031 1.976562 -5.921875 1.96875 -5.890625 C 2.050781 -6.015625 2.15625 -6.140625 2.28125 -6.265625 C 2.40625 -6.390625 2.539062 -6.503906 2.6875 -6.609375 C 2.832031 -6.722656 2.988281 -6.8125 3.15625 -6.875 C 3.320312 -6.9375 3.484375 -6.96875 3.640625 -6.96875 C 3.796875 -6.96875 3.9375 -6.925781 4.0625 -6.84375 C 4.1875 -6.757812 4.296875 -6.648438 4.390625 -6.515625 C 4.484375 -6.390625 4.5625 -6.253906 4.625 -6.109375 C 4.6875 -5.960938 4.734375 -5.820312 4.765625 -5.6875 C 4.835938 -5.820312 4.929688 -5.960938 5.046875 -6.109375 C 5.160156 -6.253906 5.28125 -6.378906 5.40625 -6.484375 C 5.539062 -6.597656 5.6875 -6.691406 5.84375 -6.765625 C 6.007812 -6.835938 6.179688 -6.875 6.359375 -6.875 C 6.515625 -6.875 6.648438 -6.8125 6.765625 -6.6875 C 6.890625 -6.570312 6.992188 -6.421875 7.078125 -6.234375 C 7.160156 -6.054688 7.222656 -5.851562 7.265625 -5.625 C 7.316406 -5.394531 7.359375 -5.164062 7.390625 -4.9375 C 7.421875 -4.71875 7.441406 -4.507812 7.453125 -4.3125 C 7.460938 -4.125 7.46875 -3.976562 7.46875 -3.875 Z M 7.46875 -3.875 "/></g></g><g transform="translate(173.879919, 258.041789)"><g/></g><g transform="translate(176.704138, 258.041789)"><g><path d="M 5.984375 -6.703125 C 5.984375 -6.054688 5.96875 -5.40625 5.9375 -4.75 C 5.90625 -4.101562 5.863281 -3.453125 5.8125 -2.796875 C 5.800781 -2.679688 5.789062 -2.523438 5.78125 -2.328125 C 5.78125 -2.128906 5.765625 -1.914062 5.734375 -1.6875 C 5.710938 -1.457031 5.679688 -1.222656 5.640625 -0.984375 C 5.609375 -0.753906 5.550781 -0.539062 5.46875 -0.34375 C 5.382812 -0.15625 5.273438 0 5.140625 0.125 C 5.015625 0.25 4.859375 0.3125 4.671875 0.3125 C 4.515625 0.3125 4.367188 0.273438 4.234375 0.203125 C 4.109375 0.128906 4 0.0351562 3.90625 -0.078125 C 3.820312 -0.191406 3.753906 -0.320312 3.703125 -0.46875 C 3.660156 -0.613281 3.640625 -0.765625 3.640625 -0.921875 C 3.640625 -1.171875 3.644531 -1.425781 3.65625 -1.6875 C 3.675781 -1.957031 3.703125 -2.21875 3.734375 -2.46875 L 2.578125 -2.359375 C 2.554688 -2.148438 2.53125 -1.90625 2.5 -1.625 C 2.476562 -1.34375 2.425781 -1.066406 2.34375 -0.796875 C 2.257812 -0.535156 2.132812 -0.3125 1.96875 -0.125 C 1.800781 0.0625 1.578125 0.15625 1.296875 0.15625 C 1.109375 0.15625 0.957031 0.113281 0.84375 0.03125 C 0.726562 -0.0507812 0.632812 -0.15625 0.5625 -0.28125 C 0.488281 -0.414062 0.4375 -0.5625 0.40625 -0.71875 C 0.375 -0.875 0.359375 -1.019531 0.359375 -1.15625 C 0.359375 -1.625 0.378906 -2.09375 0.421875 -2.5625 C 0.460938 -3.03125 0.488281 -3.5 0.5 -3.96875 C 0.519531 -4.457031 0.523438 -4.945312 0.515625 -5.4375 C 0.515625 -5.9375 0.523438 -6.4375 0.546875 -6.9375 C 0.546875 -7.101562 0.546875 -7.296875 0.546875 -7.515625 C 0.554688 -7.734375 0.585938 -7.9375 0.640625 -8.125 C 0.691406 -8.320312 0.773438 -8.484375 0.890625 -8.609375 C 1.015625 -8.742188 1.195312 -8.8125 1.4375 -8.8125 C 1.78125 -8.8125 2.035156 -8.722656 2.203125 -8.546875 C 2.378906 -8.367188 2.5 -8.148438 2.5625 -7.890625 C 2.632812 -7.628906 2.671875 -7.351562 2.671875 -7.0625 C 2.671875 -6.769531 2.671875 -6.503906 2.671875 -6.265625 C 2.671875 -5.953125 2.660156 -5.644531 2.640625 -5.34375 C 2.628906 -5.050781 2.617188 -4.75 2.609375 -4.4375 L 3.859375 -4.625 C 3.867188 -5.007812 3.875 -5.390625 3.875 -5.765625 C 3.882812 -6.140625 3.898438 -6.515625 3.921875 -6.890625 C 3.929688 -7.066406 3.941406 -7.253906 3.953125 -7.453125 C 3.960938 -7.660156 3.992188 -7.847656 4.046875 -8.015625 C 4.097656 -8.191406 4.1875 -8.335938 4.3125 -8.453125 C 4.445312 -8.566406 4.644531 -8.625 4.90625 -8.625 C 5.125 -8.625 5.300781 -8.5625 5.4375 -8.4375 C 5.570312 -8.3125 5.679688 -8.160156 5.765625 -7.984375 C 5.847656 -7.804688 5.90625 -7.613281 5.9375 -7.40625 C 5.96875 -7.207031 5.984375 -7.023438 5.984375 -6.859375 Z M 5.984375 -6.703125 "/></g></g><g transform="translate(183.102575, 258.041789)"><g><path d="M 5.265625 -2.09375 C 5.265625 -1.820312 5.179688 -1.554688 5.015625 -1.296875 C 4.847656 -1.046875 4.632812 -0.820312 4.375 -0.625 C 4.125 -0.425781 3.851562 -0.265625 3.5625 -0.140625 C 3.269531 -0.0234375 3.003906 0.03125 2.765625 0.03125 C 2.347656 0.03125 1.976562 -0.0703125 1.65625 -0.28125 C 1.332031 -0.488281 1.0625 -0.75 0.84375 -1.0625 C 0.625 -1.382812 0.457031 -1.738281 0.34375 -2.125 C 0.226562 -2.507812 0.171875 -2.890625 0.171875 -3.265625 C 0.171875 -3.648438 0.222656 -4.066406 0.328125 -4.515625 C 0.441406 -4.960938 0.609375 -5.375 0.828125 -5.75 C 1.054688 -6.125 1.335938 -6.4375 1.671875 -6.6875 C 2.015625 -6.9375 2.421875 -7.0625 2.890625 -7.0625 C 3.160156 -7.0625 3.414062 -7.015625 3.65625 -6.921875 C 3.894531 -6.828125 4.101562 -6.695312 4.28125 -6.53125 C 4.46875 -6.375 4.613281 -6.179688 4.71875 -5.953125 C 4.832031 -5.722656 4.890625 -5.46875 4.890625 -5.1875 C 4.890625 -4.820312 4.8125 -4.476562 4.65625 -4.15625 C 4.5 -3.84375 4.289062 -3.566406 4.03125 -3.328125 C 3.769531 -3.097656 3.472656 -2.910156 3.140625 -2.765625 C 2.804688 -2.617188 2.460938 -2.535156 2.109375 -2.515625 C 2.140625 -2.296875 2.226562 -2.132812 2.375 -2.03125 C 2.53125 -1.925781 2.71875 -1.875 2.9375 -1.875 C 3.09375 -1.875 3.242188 -1.910156 3.390625 -1.984375 C 3.535156 -2.066406 3.675781 -2.15625 3.8125 -2.25 C 3.957031 -2.351562 4.097656 -2.441406 4.234375 -2.515625 C 4.367188 -2.597656 4.507812 -2.640625 4.65625 -2.640625 C 4.8125 -2.640625 4.953125 -2.585938 5.078125 -2.484375 C 5.203125 -2.378906 5.265625 -2.25 5.265625 -2.09375 Z M 3.359375 -4.953125 C 3.359375 -5.054688 3.332031 -5.160156 3.28125 -5.265625 C 3.226562 -5.378906 3.144531 -5.4375 3.03125 -5.4375 C 2.851562 -5.4375 2.707031 -5.390625 2.59375 -5.296875 C 2.476562 -5.210938 2.378906 -5.101562 2.296875 -4.96875 C 2.222656 -4.832031 2.160156 -4.6875 2.109375 -4.53125 C 2.066406 -4.375 2.046875 -4.226562 2.046875 -4.09375 C 2.148438 -4.113281 2.273438 -4.144531 2.421875 -4.1875 C 2.578125 -4.226562 2.722656 -4.28125 2.859375 -4.34375 C 3.003906 -4.40625 3.125 -4.488281 3.21875 -4.59375 C 3.3125 -4.695312 3.359375 -4.816406 3.359375 -4.953125 Z M 3.359375 -4.953125 "/></g></g><g transform="translate(188.481481, 258.041789)"><g><path d="M 2.546875 -7.109375 C 2.546875 -6.679688 2.523438 -6.253906 2.484375 -5.828125 C 2.453125 -5.398438 2.4375 -4.972656 2.4375 -4.546875 C 2.4375 -3.992188 2.453125 -3.4375 2.484375 -2.875 C 2.523438 -2.320312 2.546875 -1.765625 2.546875 -1.203125 C 2.546875 -1.066406 2.535156 -0.910156 2.515625 -0.734375 C 2.503906 -0.554688 2.46875 -0.394531 2.40625 -0.25 C 2.351562 -0.101562 2.265625 0.0195312 2.140625 0.125 C 2.023438 0.226562 1.867188 0.28125 1.671875 0.28125 C 1.484375 0.28125 1.320312 0.1875 1.1875 0 C 1.050781 -0.175781 0.9375 -0.40625 0.84375 -0.6875 C 0.757812 -0.976562 0.6875 -1.300781 0.625 -1.65625 C 0.570312 -2.007812 0.53125 -2.347656 0.5 -2.671875 C 0.46875 -3.003906 0.445312 -3.3125 0.4375 -3.59375 C 0.425781 -3.875 0.421875 -4.078125 0.421875 -4.203125 C 0.421875 -4.359375 0.425781 -4.578125 0.4375 -4.859375 C 0.445312 -5.140625 0.472656 -5.441406 0.515625 -5.765625 C 0.554688 -6.097656 0.609375 -6.429688 0.671875 -6.765625 C 0.742188 -7.109375 0.832031 -7.414062 0.9375 -7.6875 C 1.050781 -7.96875 1.179688 -8.195312 1.328125 -8.375 C 1.484375 -8.550781 1.664062 -8.640625 1.875 -8.640625 C 2.050781 -8.640625 2.179688 -8.582031 2.265625 -8.46875 C 2.359375 -8.351562 2.421875 -8.210938 2.453125 -8.046875 C 2.492188 -7.890625 2.519531 -7.722656 2.53125 -7.546875 C 2.539062 -7.378906 2.546875 -7.234375 2.546875 -7.109375 Z M 2.546875 -7.109375 "/></g></g><g transform="translate(191.563512, 258.041789)"><g><path d="M 5.71875 -3.5 C 5.71875 -3.15625 5.679688 -2.773438 5.609375 -2.359375 C 5.535156 -1.953125 5.410156 -1.570312 5.234375 -1.21875 C 5.054688 -0.863281 4.820312 -0.566406 4.53125 -0.328125 C 4.25 -0.0976562 3.894531 0.015625 3.46875 0.015625 C 3.363281 0.015625 3.25 0.0078125 3.125 0 C 3.007812 -0.0195312 2.898438 -0.0507812 2.796875 -0.09375 C 2.691406 -0.132812 2.59375 -0.1875 2.5 -0.25 C 2.414062 -0.320312 2.351562 -0.410156 2.3125 -0.515625 L 2.203125 1.171875 C 2.191406 1.347656 2.1875 1.5625 2.1875 1.8125 C 2.1875 2.0625 2.15625 2.300781 2.09375 2.53125 C 2.03125 2.757812 1.929688 2.953125 1.796875 3.109375 C 1.660156 3.273438 1.460938 3.359375 1.203125 3.359375 C 1.054688 3.359375 0.929688 3.28125 0.828125 3.125 C 0.734375 2.96875 0.65625 2.769531 0.59375 2.53125 C 0.53125 2.300781 0.484375 2.039062 0.453125 1.75 C 0.421875 1.46875 0.398438 1.191406 0.390625 0.921875 C 0.390625 0.660156 0.390625 0.421875 0.390625 0.203125 C 0.390625 -0.015625 0.390625 -0.175781 0.390625 -0.28125 C 0.390625 -0.800781 0.382812 -1.320312 0.375 -1.84375 C 0.363281 -2.363281 0.359375 -2.882812 0.359375 -3.40625 C 0.359375 -3.5 0.359375 -3.644531 0.359375 -3.84375 C 0.359375 -4.050781 0.363281 -4.269531 0.375 -4.5 C 0.394531 -4.738281 0.421875 -4.984375 0.453125 -5.234375 C 0.492188 -5.484375 0.550781 -5.707031 0.625 -5.90625 C 0.695312 -6.113281 0.785156 -6.28125 0.890625 -6.40625 C 1.003906 -6.539062 1.140625 -6.609375 1.296875 -6.609375 C 1.390625 -6.609375 1.476562 -6.578125 1.5625 -6.515625 C 1.644531 -6.460938 1.710938 -6.390625 1.765625 -6.296875 C 1.828125 -6.210938 1.878906 -6.117188 1.921875 -6.015625 C 1.960938 -5.910156 1.992188 -5.816406 2.015625 -5.734375 C 2.253906 -6.003906 2.53125 -6.207031 2.84375 -6.34375 C 3.164062 -6.488281 3.507812 -6.5625 3.875 -6.5625 C 4.25 -6.5625 4.550781 -6.457031 4.78125 -6.25 C 5.019531 -6.039062 5.207031 -5.78125 5.34375 -5.46875 C 5.488281 -5.15625 5.585938 -4.816406 5.640625 -4.453125 C 5.691406 -4.097656 5.71875 -3.78125 5.71875 -3.5 Z M 4.046875 -3.59375 C 4.046875 -3.707031 4.035156 -3.820312 4.015625 -3.9375 C 3.992188 -4.0625 3.957031 -4.175781 3.90625 -4.28125 C 3.851562 -4.382812 3.78125 -4.46875 3.6875 -4.53125 C 3.59375 -4.601562 3.476562 -4.640625 3.34375 -4.640625 C 3.15625 -4.640625 2.957031 -4.578125 2.75 -4.453125 C 2.539062 -4.335938 2.382812 -4.203125 2.28125 -4.046875 C 2.25 -3.984375 2.226562 -3.878906 2.21875 -3.734375 C 2.207031 -3.597656 2.203125 -3.492188 2.203125 -3.421875 C 2.203125 -3.367188 2.203125 -3.296875 2.203125 -3.203125 C 2.210938 -3.117188 2.21875 -3.03125 2.21875 -2.9375 C 2.226562 -2.84375 2.238281 -2.75 2.25 -2.65625 C 2.269531 -2.570312 2.289062 -2.507812 2.3125 -2.46875 C 2.332031 -2.394531 2.378906 -2.328125 2.453125 -2.265625 C 2.535156 -2.210938 2.625 -2.160156 2.71875 -2.109375 C 2.8125 -2.066406 2.90625 -2.03125 3 -2 C 3.101562 -1.976562 3.191406 -1.96875 3.265625 -1.96875 C 3.421875 -1.96875 3.550781 -2.03125 3.65625 -2.15625 C 3.757812 -2.28125 3.835938 -2.425781 3.890625 -2.59375 C 3.953125 -2.769531 3.992188 -2.945312 4.015625 -3.125 C 4.035156 -3.3125 4.046875 -3.46875 4.046875 -3.59375 Z M 4.046875 -3.59375 "/></g></g><g transform="translate(197.645543, 258.041789)"><g><path d="M 5.40625 -7.71875 C 5.40625 -7.144531 5.382812 -6.578125 5.34375 -6.015625 C 5.300781 -5.453125 5.28125 -4.882812 5.28125 -4.3125 C 5.28125 -3.851562 5.289062 -3.394531 5.3125 -2.9375 C 5.34375 -2.488281 5.359375 -2.035156 5.359375 -1.578125 C 5.359375 -1.453125 5.351562 -1.300781 5.34375 -1.125 C 5.332031 -0.945312 5.304688 -0.773438 5.265625 -0.609375 C 5.222656 -0.441406 5.148438 -0.300781 5.046875 -0.1875 C 4.953125 -0.0703125 4.816406 -0.015625 4.640625 -0.015625 C 4.410156 -0.015625 4.21875 -0.101562 4.0625 -0.28125 C 3.90625 -0.457031 3.8125 -0.65625 3.78125 -0.875 C 3.625 -0.59375 3.40625 -0.351562 3.125 -0.15625 C 2.84375 0.0390625 2.539062 0.140625 2.21875 0.140625 C 1.863281 0.140625 1.554688 0.0195312 1.296875 -0.21875 C 1.046875 -0.46875 0.835938 -0.765625 0.671875 -1.109375 C 0.503906 -1.453125 0.378906 -1.8125 0.296875 -2.1875 C 0.210938 -2.5625 0.171875 -2.882812 0.171875 -3.15625 C 0.171875 -3.351562 0.179688 -3.578125 0.203125 -3.828125 C 0.234375 -4.078125 0.273438 -4.328125 0.328125 -4.578125 C 0.390625 -4.835938 0.46875 -5.085938 0.5625 -5.328125 C 0.65625 -5.578125 0.773438 -5.800781 0.921875 -6 C 1.066406 -6.195312 1.238281 -6.351562 1.4375 -6.46875 C 1.632812 -6.582031 1.863281 -6.640625 2.125 -6.640625 C 2.40625 -6.640625 2.671875 -6.554688 2.921875 -6.390625 C 3.179688 -6.234375 3.378906 -6.035156 3.515625 -5.796875 L 3.625 -7.65625 C 3.632812 -7.800781 3.644531 -7.972656 3.65625 -8.171875 C 3.675781 -8.367188 3.707031 -8.554688 3.75 -8.734375 C 3.800781 -8.921875 3.878906 -9.078125 3.984375 -9.203125 C 4.097656 -9.328125 4.265625 -9.390625 4.484375 -9.390625 C 4.703125 -9.390625 4.875 -9.332031 5 -9.21875 C 5.125 -9.113281 5.21875 -8.976562 5.28125 -8.8125 C 5.34375 -8.644531 5.378906 -8.460938 5.390625 -8.265625 C 5.398438 -8.066406 5.40625 -7.882812 5.40625 -7.71875 Z M 3.5 -2.515625 C 3.5 -2.691406 3.492188 -2.863281 3.484375 -3.03125 C 3.472656 -3.207031 3.472656 -3.382812 3.484375 -3.5625 C 3.429688 -3.664062 3.375 -3.773438 3.3125 -3.890625 C 3.25 -4.015625 3.171875 -4.128906 3.078125 -4.234375 C 2.992188 -4.335938 2.894531 -4.425781 2.78125 -4.5 C 2.675781 -4.570312 2.5625 -4.609375 2.4375 -4.609375 C 2.300781 -4.609375 2.1875 -4.5625 2.09375 -4.46875 C 2.007812 -4.382812 1.945312 -4.28125 1.90625 -4.15625 C 1.875 -4.039062 1.847656 -3.910156 1.828125 -3.765625 C 1.816406 -3.628906 1.8125 -3.507812 1.8125 -3.40625 C 1.8125 -3.3125 1.816406 -3.171875 1.828125 -2.984375 C 1.847656 -2.804688 1.878906 -2.625 1.921875 -2.4375 C 1.972656 -2.25 2.035156 -2.082031 2.109375 -1.9375 C 2.191406 -1.800781 2.296875 -1.734375 2.421875 -1.734375 C 2.523438 -1.734375 2.628906 -1.753906 2.734375 -1.796875 C 2.835938 -1.835938 2.929688 -1.890625 3.015625 -1.953125 C 3.109375 -2.023438 3.195312 -2.101562 3.28125 -2.1875 C 3.363281 -2.269531 3.4375 -2.347656 3.5 -2.421875 Z M 3.5 -2.515625 "/></g></g><g transform="translate(203.469761, 258.041789)"><g><path d="M 5.265625 -2.09375 C 5.265625 -1.820312 5.179688 -1.554688 5.015625 -1.296875 C 4.847656 -1.046875 4.632812 -0.820312 4.375 -0.625 C 4.125 -0.425781 3.851562 -0.265625 3.5625 -0.140625 C 3.269531 -0.0234375 3.003906 0.03125 2.765625 0.03125 C 2.347656 0.03125 1.976562 -0.0703125 1.65625 -0.28125 C 1.332031 -0.488281 1.0625 -0.75 0.84375 -1.0625 C 0.625 -1.382812 0.457031 -1.738281 0.34375 -2.125 C 0.226562 -2.507812 0.171875 -2.890625 0.171875 -3.265625 C 0.171875 -3.648438 0.222656 -4.066406 0.328125 -4.515625 C 0.441406 -4.960938 0.609375 -5.375 0.828125 -5.75 C 1.054688 -6.125 1.335938 -6.4375 1.671875 -6.6875 C 2.015625 -6.9375 2.421875 -7.0625 2.890625 -7.0625 C 3.160156 -7.0625 3.414062 -7.015625 3.65625 -6.921875 C 3.894531 -6.828125 4.101562 -6.695312 4.28125 -6.53125 C 4.46875 -6.375 4.613281 -6.179688 4.71875 -5.953125 C 4.832031 -5.722656 4.890625 -5.46875 4.890625 -5.1875 C 4.890625 -4.820312 4.8125 -4.476562 4.65625 -4.15625 C 4.5 -3.84375 4.289062 -3.566406 4.03125 -3.328125 C 3.769531 -3.097656 3.472656 -2.910156 3.140625 -2.765625 C 2.804688 -2.617188 2.460938 -2.535156 2.109375 -2.515625 C 2.140625 -2.296875 2.226562 -2.132812 2.375 -2.03125 C 2.53125 -1.925781 2.71875 -1.875 2.9375 -1.875 C 3.09375 -1.875 3.242188 -1.910156 3.390625 -1.984375 C 3.535156 -2.066406 3.675781 -2.15625 3.8125 -2.25 C 3.957031 -2.351562 4.097656 -2.441406 4.234375 -2.515625 C 4.367188 -2.597656 4.507812 -2.640625 4.65625 -2.640625 C 4.8125 -2.640625 4.953125 -2.585938 5.078125 -2.484375 C 5.203125 -2.378906 5.265625 -2.25 5.265625 -2.09375 Z M 3.359375 -4.953125 C 3.359375 -5.054688 3.332031 -5.160156 3.28125 -5.265625 C 3.226562 -5.378906 3.144531 -5.4375 3.03125 -5.4375 C 2.851562 -5.4375 2.707031 -5.390625 2.59375 -5.296875 C 2.476562 -5.210938 2.378906 -5.101562 2.296875 -4.96875 C 2.222656 -4.832031 2.160156 -4.6875 2.109375 -4.53125 C 2.066406 -4.375 2.046875 -4.226562 2.046875 -4.09375 C 2.148438 -4.113281 2.273438 -4.144531 2.421875 -4.1875 C 2.578125 -4.226562 2.722656 -4.28125 2.859375 -4.34375 C 3.003906 -4.40625 3.125 -4.488281 3.21875 -4.59375 C 3.3125 -4.695312 3.359375 -4.816406 3.359375 -4.953125 Z M 3.359375 -4.953125 "/></g></g><g transform="translate(208.848667, 258.041789)"><g><path d="M 3.78125 -6.453125 C 3.78125 -6.222656 3.703125 -6.050781 3.546875 -5.9375 C 3.398438 -5.832031 3.234375 -5.726562 3.046875 -5.625 C 2.859375 -5.53125 2.6875 -5.414062 2.53125 -5.28125 C 2.382812 -5.15625 2.3125 -4.957031 2.3125 -4.6875 C 2.3125 -4.550781 2.34375 -4.429688 2.40625 -4.328125 C 2.476562 -4.222656 2.5625 -4.128906 2.65625 -4.046875 C 2.75 -3.960938 2.851562 -3.878906 2.96875 -3.796875 C 3.09375 -3.710938 3.203125 -3.613281 3.296875 -3.5 C 3.398438 -3.394531 3.484375 -3.265625 3.546875 -3.109375 C 3.609375 -2.953125 3.640625 -2.757812 3.640625 -2.53125 C 3.640625 -2.207031 3.554688 -1.882812 3.390625 -1.5625 C 3.222656 -1.25 3.007812 -0.96875 2.75 -0.71875 C 2.488281 -0.476562 2.191406 -0.28125 1.859375 -0.125 C 1.535156 0.0195312 1.210938 0.09375 0.890625 0.09375 C 0.753906 0.09375 0.617188 0.0820312 0.484375 0.0625 C 0.359375 0.0390625 0.238281 0.00390625 0.125 -0.046875 C 0.0195312 -0.0976562 -0.0625 -0.171875 -0.125 -0.265625 C -0.195312 -0.367188 -0.234375 -0.5 -0.234375 -0.65625 C -0.234375 -0.875 -0.1875 -1.039062 -0.09375 -1.15625 C -0.0078125 -1.28125 0.09375 -1.378906 0.21875 -1.453125 C 0.351562 -1.523438 0.492188 -1.578125 0.640625 -1.609375 C 0.796875 -1.648438 0.941406 -1.703125 1.078125 -1.765625 C 1.210938 -1.828125 1.320312 -1.90625 1.40625 -2 C 1.488281 -2.09375 1.53125 -2.222656 1.53125 -2.390625 C 1.53125 -2.554688 1.46875 -2.726562 1.34375 -2.90625 C 1.21875 -3.082031 1.078125 -3.269531 0.921875 -3.46875 C 0.765625 -3.664062 0.617188 -3.875 0.484375 -4.09375 C 0.359375 -4.320312 0.296875 -4.578125 0.296875 -4.859375 C 0.296875 -5.191406 0.363281 -5.5 0.5 -5.78125 C 0.632812 -6.070312 0.816406 -6.320312 1.046875 -6.53125 C 1.273438 -6.738281 1.535156 -6.898438 1.828125 -7.015625 C 2.128906 -7.140625 2.445312 -7.203125 2.78125 -7.203125 C 2.90625 -7.203125 3.023438 -7.191406 3.140625 -7.171875 C 3.265625 -7.148438 3.375 -7.109375 3.46875 -7.046875 C 3.5625 -6.992188 3.632812 -6.914062 3.6875 -6.8125 C 3.75 -6.71875 3.78125 -6.597656 3.78125 -6.453125 Z M 3.78125 -6.453125 "/></g></g><g transform="translate(212.751011, 258.041789)"><g><path d="M 5.5625 -6.3125 C 5.5625 -6.09375 5.503906 -5.867188 5.390625 -5.640625 C 5.273438 -5.410156 5.132812 -5.179688 4.96875 -4.953125 C 4.8125 -4.734375 4.644531 -4.523438 4.46875 -4.328125 C 4.289062 -4.128906 4.140625 -3.945312 4.015625 -3.78125 C 4.117188 -3.613281 4.253906 -3.382812 4.421875 -3.09375 C 4.585938 -2.8125 4.742188 -2.507812 4.890625 -2.1875 C 5.035156 -1.875 5.160156 -1.5625 5.265625 -1.25 C 5.367188 -0.945312 5.421875 -0.695312 5.421875 -0.5 C 5.421875 -0.332031 5.367188 -0.175781 5.265625 -0.03125 C 5.171875 0.101562 5.035156 0.171875 4.859375 0.171875 C 4.722656 0.171875 4.585938 0.113281 4.453125 0 C 4.316406 -0.113281 4.175781 -0.265625 4.03125 -0.453125 C 3.894531 -0.640625 3.765625 -0.84375 3.640625 -1.0625 C 3.515625 -1.289062 3.398438 -1.515625 3.296875 -1.734375 C 3.191406 -1.953125 3.097656 -2.15625 3.015625 -2.34375 C 2.929688 -2.539062 2.867188 -2.695312 2.828125 -2.8125 C 2.722656 -2.707031 2.613281 -2.625 2.5 -2.5625 C 2.382812 -2.5 2.273438 -2.421875 2.171875 -2.328125 C 2.171875 -2.171875 2.164062 -1.941406 2.15625 -1.640625 C 2.144531 -1.347656 2.109375 -1.054688 2.046875 -0.765625 C 1.984375 -0.472656 1.882812 -0.21875 1.75 0 C 1.625 0.207031 1.429688 0.3125 1.171875 0.3125 C 0.972656 0.3125 0.816406 0.21875 0.703125 0.03125 C 0.597656 -0.144531 0.519531 -0.351562 0.46875 -0.59375 C 0.414062 -0.84375 0.382812 -1.09375 0.375 -1.34375 C 0.363281 -1.601562 0.359375 -1.800781 0.359375 -1.9375 C 0.359375 -2.507812 0.375 -3.082031 0.40625 -3.65625 C 0.4375 -4.238281 0.457031 -4.820312 0.46875 -5.40625 C 0.46875 -5.539062 0.46875 -5.710938 0.46875 -5.921875 C 0.476562 -6.140625 0.492188 -6.375 0.515625 -6.625 C 0.535156 -6.875 0.566406 -7.125 0.609375 -7.375 C 0.660156 -7.632812 0.726562 -7.867188 0.8125 -8.078125 C 0.90625 -8.285156 1.019531 -8.453125 1.15625 -8.578125 C 1.289062 -8.710938 1.457031 -8.78125 1.65625 -8.78125 C 1.789062 -8.78125 1.90625 -8.726562 2 -8.625 C 2.101562 -8.519531 2.179688 -8.382812 2.234375 -8.21875 C 2.296875 -8.050781 2.34375 -7.863281 2.375 -7.65625 C 2.40625 -7.457031 2.425781 -7.257812 2.4375 -7.0625 C 2.445312 -6.863281 2.453125 -6.675781 2.453125 -6.5 C 2.453125 -6.332031 2.453125 -6.195312 2.453125 -6.09375 C 2.453125 -6.019531 2.445312 -5.914062 2.4375 -5.78125 C 2.4375 -5.644531 2.429688 -5.503906 2.421875 -5.359375 C 2.421875 -5.210938 2.421875 -5.078125 2.421875 -4.953125 C 2.421875 -4.828125 2.429688 -4.734375 2.453125 -4.671875 C 2.503906 -4.671875 2.582031 -4.722656 2.6875 -4.828125 C 2.800781 -4.941406 2.929688 -5.078125 3.078125 -5.234375 C 3.222656 -5.398438 3.378906 -5.570312 3.546875 -5.75 C 3.710938 -5.9375 3.882812 -6.113281 4.0625 -6.28125 C 4.238281 -6.445312 4.410156 -6.582031 4.578125 -6.6875 C 4.753906 -6.789062 4.914062 -6.84375 5.0625 -6.84375 C 5.21875 -6.84375 5.335938 -6.785156 5.421875 -6.671875 C 5.515625 -6.566406 5.5625 -6.445312 5.5625 -6.3125 Z M 5.5625 -6.3125 "/></g></g><g transform="translate(218.364292, 258.041789)"><g/></g><g transform="translate(221.18851, 258.041789)"><g><path d="M 4.40625 -7.953125 C 4.40625 -7.804688 4.367188 -7.675781 4.296875 -7.5625 C 4.234375 -7.445312 4.144531 -7.347656 4.03125 -7.265625 C 3.925781 -7.179688 3.804688 -7.109375 3.671875 -7.046875 C 3.546875 -6.992188 3.421875 -6.957031 3.296875 -6.9375 C 3.273438 -6.050781 3.238281 -5.195312 3.1875 -4.375 C 3.144531 -3.5625 3.066406 -2.71875 2.953125 -1.84375 L 3.03125 -1.84375 C 3.15625 -1.84375 3.273438 -1.828125 3.390625 -1.796875 C 3.515625 -1.773438 3.625 -1.726562 3.71875 -1.65625 C 3.820312 -1.59375 3.898438 -1.507812 3.953125 -1.40625 C 4.015625 -1.3125 4.046875 -1.195312 4.046875 -1.0625 C 4.046875 -0.875 3.988281 -0.710938 3.875 -0.578125 C 3.757812 -0.453125 3.609375 -0.34375 3.421875 -0.25 C 3.242188 -0.15625 3.039062 -0.078125 2.8125 -0.015625 C 2.582031 0.046875 2.351562 0.09375 2.125 0.125 C 1.90625 0.164062 1.691406 0.191406 1.484375 0.203125 C 1.285156 0.222656 1.125 0.234375 1 0.234375 C 0.90625 0.234375 0.789062 0.226562 0.65625 0.21875 C 0.519531 0.21875 0.390625 0.195312 0.265625 0.15625 C 0.140625 0.113281 0.0351562 0.0546875 -0.046875 -0.015625 C -0.128906 -0.0976562 -0.171875 -0.207031 -0.171875 -0.34375 C -0.171875 -0.507812 -0.132812 -0.65625 -0.0625 -0.78125 C 0 -0.90625 0.0820312 -1.019531 0.1875 -1.125 C 0.300781 -1.226562 0.425781 -1.3125 0.5625 -1.375 C 0.695312 -1.4375 0.832031 -1.484375 0.96875 -1.515625 C 1.03125 -1.941406 1.082031 -2.367188 1.125 -2.796875 C 1.175781 -3.222656 1.207031 -3.65625 1.21875 -4.09375 C 1.238281 -4.539062 1.253906 -4.976562 1.265625 -5.40625 C 1.285156 -5.84375 1.300781 -6.28125 1.3125 -6.71875 C 1.257812 -6.707031 1.207031 -6.695312 1.15625 -6.6875 C 1.113281 -6.6875 1.070312 -6.6875 1.03125 -6.6875 C 0.925781 -6.6875 0.8125 -6.695312 0.6875 -6.71875 C 0.5625 -6.75 0.441406 -6.789062 0.328125 -6.84375 C 0.222656 -6.90625 0.128906 -6.976562 0.046875 -7.0625 C -0.0234375 -7.15625 -0.0625 -7.265625 -0.0625 -7.390625 C -0.0625 -7.660156 0.046875 -7.878906 0.265625 -8.046875 C 0.492188 -8.222656 0.757812 -8.359375 1.0625 -8.453125 C 1.375 -8.546875 1.691406 -8.609375 2.015625 -8.640625 C 2.335938 -8.679688 2.597656 -8.703125 2.796875 -8.703125 C 2.898438 -8.703125 3.039062 -8.691406 3.21875 -8.671875 C 3.40625 -8.660156 3.582031 -8.625 3.75 -8.5625 C 3.925781 -8.507812 4.078125 -8.4375 4.203125 -8.34375 C 4.335938 -8.25 4.40625 -8.117188 4.40625 -7.953125 Z M 4.40625 -7.953125 "/></g></g><g transform="translate(225.40726, 258.041789)"><g><path d="M 5.421875 -8 C 5.421875 -7.8125 5.34375 -7.632812 5.1875 -7.46875 C 5.039062 -7.3125 4.859375 -7.171875 4.640625 -7.046875 C 4.429688 -6.929688 4.210938 -6.832031 3.984375 -6.75 C 3.753906 -6.675781 3.566406 -6.625 3.421875 -6.59375 C 3.359375 -5.988281 3.304688 -5.382812 3.265625 -4.78125 C 3.234375 -4.1875 3.21875 -3.585938 3.21875 -2.984375 C 3.21875 -2.671875 3.222656 -2.359375 3.234375 -2.046875 C 3.253906 -1.734375 3.265625 -1.421875 3.265625 -1.109375 C 3.265625 -0.960938 3.25 -0.804688 3.21875 -0.640625 C 3.195312 -0.472656 3.148438 -0.3125 3.078125 -0.15625 C 3.015625 -0.0078125 2.925781 0.109375 2.8125 0.203125 C 2.695312 0.304688 2.550781 0.359375 2.375 0.359375 C 2.175781 0.359375 2.015625 0.300781 1.890625 0.1875 C 1.773438 0.0820312 1.679688 -0.0507812 1.609375 -0.21875 C 1.546875 -0.382812 1.5 -0.554688 1.46875 -0.734375 C 1.445312 -0.921875 1.4375 -1.09375 1.4375 -1.25 C 1.425781 -1.71875 1.414062 -2.1875 1.40625 -2.65625 C 1.394531 -3.125 1.390625 -3.597656 1.390625 -4.078125 C 1.390625 -4.472656 1.390625 -4.863281 1.390625 -5.25 C 1.398438 -5.632812 1.40625 -6.023438 1.40625 -6.421875 C 1.300781 -6.410156 1.191406 -6.398438 1.078125 -6.390625 C 0.960938 -6.378906 0.847656 -6.375 0.734375 -6.375 C 0.640625 -6.375 0.515625 -6.382812 0.359375 -6.40625 C 0.203125 -6.425781 0.0546875 -6.460938 -0.078125 -6.515625 C -0.222656 -6.566406 -0.34375 -6.632812 -0.4375 -6.71875 C -0.539062 -6.8125 -0.59375 -6.925781 -0.59375 -7.0625 C -0.59375 -7.300781 -0.5 -7.507812 -0.3125 -7.6875 C -0.132812 -7.863281 0.09375 -8.015625 0.375 -8.140625 C 0.664062 -8.265625 0.984375 -8.375 1.328125 -8.46875 C 1.679688 -8.5625 2.023438 -8.628906 2.359375 -8.671875 C 2.703125 -8.722656 3.015625 -8.757812 3.296875 -8.78125 C 3.585938 -8.8125 3.8125 -8.828125 3.96875 -8.828125 C 4.113281 -8.828125 4.269531 -8.820312 4.4375 -8.8125 C 4.601562 -8.800781 4.757812 -8.765625 4.90625 -8.703125 C 5.0625 -8.648438 5.1875 -8.566406 5.28125 -8.453125 C 5.375 -8.347656 5.421875 -8.195312 5.421875 -8 Z M 5.421875 -8 "/></g></g></g></svg>