<svg xmlns="http://www.w3.org/2000/svg" xmlns:xlink="http://www.w3.org/1999/xlink" width="500" zoomAndPan="magnify" viewBox="0 0 375 374.999991" height="500" preserveAspectRatio="xMidYMid meet" version="1.0"><defs><g/><clipPath id="d1f3e370fc"><path d="M 22 67.558594 L 142 67.558594 L 142 187 L 22 187 Z M 22 67.558594 " clip-rule="nonzero"/></clipPath></defs><path fill="#3d96d9" d="M 146.875 191.476562 L 217.300781 150.867188 L 247.214844 133.621094 C 248.078125 118.828125 256.136719 104.742188 269.941406 96.78125 C 284.085938 88.625 300.789062 88.898438 314.21875 96.042969 L 306.71875 100.363281 L 280.816406 115.300781 L 280.816406 143.101562 L 292.871094 150.050781 L 304.921875 157 L 330.824219 142.0625 L 338.324219 137.742188 C 337.800781 152.925781 329.691406 167.507812 315.542969 175.664062 C 301.734375 183.628906 285.492188 183.554688 272.238281 176.902344 L 242.324219 194.152344 L 171.898438 234.761719 L 141.984375 252.011719 C 141.121094 266.800781 133.0625 280.886719 119.253906 288.847656 C 105.109375 297.003906 88.410156 296.730469 74.980469 289.589844 L 82.480469 285.265625 L 108.382812 270.328125 L 108.382812 242.53125 L 96.328125 235.578125 L 84.273438 228.632812 L 58.375 243.566406 L 50.875 247.890625 C 51.398438 232.703125 59.507812 218.121094 73.65625 209.964844 C 87.460938 202.003906 103.707031 202.074219 116.960938 208.726562 Z M 146.875 191.476562 " fill-opacity="1" fill-rule="evenodd"/><path fill="#f5874f" d="M 218.765625 88.566406 C 219.75 90.03125 220.578125 91.574219 221.25 93.160156 L 227.722656 91.621094 C 228.707031 91.390625 229.707031 92.003906 229.9375 92.988281 L 231.183594 98.214844 C 231.417969 99.199219 230.804688 100.199219 229.820312 100.429688 L 223.339844 101.96875 C 223.457031 103.707031 223.40625 105.453125 223.191406 107.183594 L 229.570312 109.085938 C 230.542969 109.375 231.097656 110.40625 230.808594 111.375 L 229.265625 116.527344 C 228.976562 117.496094 227.945312 118.050781 226.976562 117.761719 L 220.605469 115.859375 C 219.84375 117.40625 218.929688 118.894531 217.859375 120.304688 L 222.429688 125.132812 C 223.125 125.867188 223.09375 127.039062 222.355469 127.734375 L 218.441406 131.425781 C 217.707031 132.121094 216.535156 132.085938 215.839844 131.351562 L 211.269531 126.519531 C 209.800781 127.503906 208.261719 128.328125 206.671875 129 L 208.210938 135.464844 C 208.445312 136.449219 207.828125 137.445312 206.84375 137.679688 L 201.609375 138.921875 C 200.625 139.15625 199.625 138.542969 199.390625 137.558594 L 197.851562 131.085938 C 196.109375 131.203125 194.363281 131.152344 192.632812 130.9375 L 190.722656 137.3125 C 190.433594 138.28125 189.402344 138.835938 188.433594 138.546875 L 183.277344 137.007812 C 182.304688 136.71875 181.75 135.6875 182.039062 134.71875 L 183.941406 128.355469 C 182.394531 127.59375 180.902344 126.683594 179.492188 125.617188 L 174.65625 130.179688 C 173.921875 130.875 172.75 130.839844 172.054688 130.105469 L 168.359375 126.195312 C 167.664062 125.460938 167.695312 124.289062 168.433594 123.597656 L 173.269531 119.03125 C 172.285156 117.566406 171.457031 116.027344 170.785156 114.441406 L 164.3125 115.976562 C 163.328125 116.210938 162.332031 115.597656 162.097656 114.613281 L 160.851562 109.382812 C 160.617188 108.398438 161.230469 107.402344 162.21875 107.167969 L 168.695312 105.632812 C 168.578125 103.894531 168.628906 102.148438 168.84375 100.417969 L 162.464844 98.515625 C 161.496094 98.226562 160.9375 97.195312 161.226562 96.226562 L 162.769531 91.074219 C 163.058594 90.105469 164.089844 89.550781 165.058594 89.839844 L 171.429688 91.742188 C 172.191406 90.191406 173.105469 88.707031 174.175781 87.296875 L 169.605469 82.46875 C 168.910156 81.730469 168.945312 80.5625 169.679688 79.867188 L 173.59375 76.175781 C 174.328125 75.480469 175.5 75.515625 176.195312 76.25 L 180.765625 81.082031 C 182.234375 80.09375 183.773438 79.269531 185.363281 78.601562 L 183.824219 72.136719 C 183.589844 71.152344 184.207031 70.15625 185.191406 69.921875 L 190.429688 68.679688 C 191.414062 68.445312 192.410156 69.058594 192.644531 70.042969 L 194.183594 76.511719 C 195.925781 76.398438 197.671875 76.445312 199.402344 76.660156 L 201.3125 70.289062 C 201.601562 69.320312 202.632812 68.765625 203.601562 69.054688 L 208.761719 70.59375 C 209.730469 70.882812 210.285156 71.910156 209.996094 72.878906 L 208.09375 79.246094 C 209.640625 80.003906 211.132812 80.917969 212.539062 81.988281 L 217.378906 77.421875 C 218.117188 76.726562 219.285156 76.761719 219.980469 77.496094 L 223.679688 81.402344 C 224.371094 82.140625 224.339844 83.308594 223.601562 84.003906 Z M 209.300781 91.269531 C 216.230469 98.59375 215.902344 110.144531 208.566406 117.066406 C 201.230469 123.988281 189.664062 123.660156 182.734375 116.332031 C 175.804688 109.003906 176.132812 97.457031 183.472656 90.535156 C 190.808594 83.613281 202.371094 83.941406 209.300781 91.269531 Z M 209.300781 91.269531 " fill-opacity="1" fill-rule="evenodd"/><g clip-path="url(#d1f3e370fc)"><path fill="#ffc738" d="M 120.015625 101.472656 C 121.679688 103.941406 123.070312 106.535156 124.203125 109.210938 L 135.113281 106.621094 C 136.773438 106.226562 138.453125 107.261719 138.847656 108.917969 L 140.945312 117.734375 C 141.339844 119.390625 140.304688 121.070312 138.644531 121.464844 L 127.726562 124.054688 C 127.921875 126.984375 127.835938 129.929688 127.476562 132.84375 L 138.226562 136.050781 C 139.863281 136.539062 140.800781 138.277344 140.3125 139.910156 L 137.714844 148.589844 C 137.226562 150.222656 135.488281 151.160156 133.855469 150.671875 L 123.113281 147.46875 C 121.835938 150.074219 120.292969 152.582031 118.492188 154.953125 L 126.191406 163.097656 C 127.363281 164.335938 127.308594 166.308594 126.066406 167.476562 L 119.472656 173.699219 C 118.230469 174.871094 116.257812 174.8125 115.085938 173.574219 L 107.382812 165.429688 C 104.910156 167.089844 102.316406 168.480469 99.636719 169.613281 L 102.230469 180.507812 C 102.625 182.164062 101.589844 183.84375 99.925781 184.238281 L 91.101562 186.335938 C 89.441406 186.726562 87.761719 185.691406 87.363281 184.035156 L 84.769531 173.132812 C 81.835938 173.324219 78.890625 173.242188 75.972656 172.882812 L 72.761719 183.617188 C 72.269531 185.253906 70.535156 186.1875 68.898438 185.703125 L 60.207031 183.109375 C 58.570312 182.621094 57.632812 180.882812 58.121094 179.253906 L 61.328125 168.523438 C 58.71875 167.246094 56.207031 165.707031 53.832031 163.90625 L 45.683594 171.597656 C 44.441406 172.769531 42.464844 172.710938 41.292969 171.472656 L 35.066406 164.886719 C 33.894531 163.648438 33.949219 161.675781 35.191406 160.503906 L 43.34375 152.8125 C 41.683594 150.34375 40.289062 147.75 39.160156 145.078125 L 28.25 147.664062 C 26.589844 148.058594 24.90625 147.027344 24.511719 145.367188 L 22.414062 136.554688 C 22.019531 134.894531 23.054688 133.214844 24.714844 132.820312 L 35.632812 130.230469 C 35.4375 127.300781 35.523438 124.355469 35.886719 121.441406 L 25.132812 118.234375 C 23.496094 117.746094 22.558594 116.011719 23.046875 114.378906 L 25.644531 105.699219 C 26.132812 104.0625 27.871094 103.125 29.507812 103.613281 L 40.246094 106.820312 C 41.527344 104.210938 43.066406 101.703125 44.867188 99.332031 L 37.167969 91.191406 C 35.996094 89.949219 36.054688 87.980469 37.292969 86.808594 L 43.890625 80.585938 C 45.128906 79.417969 47.101562 79.472656 48.273438 80.714844 L 55.976562 88.855469 C 58.449219 87.195312 61.046875 85.800781 63.722656 84.671875 L 61.132812 73.78125 C 60.738281 72.121094 61.773438 70.441406 63.433594 70.046875 L 72.257812 67.953125 C 73.917969 67.558594 75.601562 68.59375 75.996094 70.25 L 78.589844 81.15625 C 81.523438 80.960938 84.46875 81.046875 87.386719 81.40625 L 90.601562 70.667969 C 91.089844 69.035156 92.824219 68.097656 94.460938 68.585938 L 103.152344 71.179688 C 104.789062 71.664062 105.726562 73.402344 105.238281 75.035156 L 102.03125 85.765625 C 104.640625 87.042969 107.152344 88.582031 109.523438 90.378906 L 117.679688 82.6875 C 118.917969 81.515625 120.894531 81.574219 122.066406 82.8125 L 128.292969 89.398438 C 129.464844 90.636719 129.410156 92.609375 128.171875 93.78125 Z M 104.066406 106.023438 C 115.746094 118.371094 115.1875 137.839844 102.824219 149.5 C 90.460938 161.164062 70.972656 160.609375 59.292969 148.261719 C 47.617188 135.914062 48.171875 116.449219 60.535156 104.785156 C 72.898438 93.125 92.386719 93.675781 104.066406 106.023438 Z M 104.066406 106.023438 " fill-opacity="1" fill-rule="evenodd"/></g><path fill="#ffc738" d="M 341.6875 228.609375 C 343.367188 231.097656 344.773438 233.710938 345.910156 236.410156 L 356.914062 233.800781 C 358.589844 233.402344 360.285156 234.445312 360.683594 236.117188 L 362.796875 245.007812 C 363.195312 246.679688 362.152344 248.375 360.476562 248.769531 L 349.464844 251.382812 C 349.664062 254.339844 349.578125 257.308594 349.210938 260.246094 L 360.054688 263.484375 C 361.707031 263.976562 362.652344 265.722656 362.160156 267.371094 L 359.539062 276.125 C 359.046875 277.773438 357.296875 278.71875 355.644531 278.226562 L 344.8125 274.996094 C 343.523438 277.625 341.96875 280.15625 340.152344 282.546875 L 347.917969 290.757812 C 349.101562 292.007812 349.042969 293.996094 347.792969 295.175781 L 341.140625 301.449219 C 339.890625 302.632812 337.898438 302.574219 336.714844 301.324219 L 328.949219 293.113281 C 326.457031 294.785156 323.835938 296.191406 321.136719 297.328125 L 323.75 308.316406 C 324.148438 309.988281 323.101562 311.683594 321.429688 312.082031 L 312.527344 314.195312 C 310.851562 314.589844 309.15625 313.546875 308.761719 311.875 L 306.144531 300.878906 C 303.183594 301.074219 300.210938 300.992188 297.269531 300.625 L 294.03125 311.457031 C 293.535156 313.101562 291.785156 314.050781 290.136719 313.558594 L 281.367188 310.941406 C 279.71875 310.449219 278.773438 308.699219 279.265625 307.050781 L 282.503906 296.234375 C 279.871094 294.945312 277.335938 293.390625 274.941406 291.578125 L 266.71875 299.332031 C 265.46875 300.511719 263.480469 300.457031 262.296875 299.207031 L 256.011719 292.5625 C 254.832031 291.3125 254.886719 289.328125 256.140625 288.144531 L 264.363281 280.386719 C 262.6875 277.898438 261.28125 275.28125 260.140625 272.585938 L 249.136719 275.195312 C 247.464844 275.59375 245.769531 274.550781 245.371094 272.875 L 243.253906 263.988281 C 242.855469 262.316406 243.902344 260.621094 245.578125 260.222656 L 256.585938 257.609375 C 256.390625 254.65625 256.476562 251.6875 256.839844 248.75 L 245.996094 245.511719 C 244.347656 245.019531 243.402344 243.269531 243.894531 241.621094 L 246.511719 232.867188 C 247.003906 231.21875 248.757812 230.277344 250.40625 230.769531 L 261.238281 234 C 262.53125 231.371094 264.085938 228.839844 265.898438 226.449219 L 258.132812 218.238281 C 256.953125 216.988281 257.007812 215 258.261719 213.820312 L 264.910156 207.542969 C 266.164062 206.363281 268.15625 206.421875 269.335938 207.671875 L 277.101562 215.882812 C 279.597656 214.207031 282.214844 212.804688 284.914062 211.664062 L 282.300781 200.679688 C 281.902344 199.003906 282.949219 197.3125 284.625 196.914062 L 293.523438 194.800781 C 295.199219 194.40625 296.894531 195.449219 297.292969 197.121094 L 299.910156 208.117188 C 302.867188 207.921875 305.839844 208.007812 308.78125 208.371094 L 312.023438 197.539062 C 312.515625 195.890625 314.269531 194.945312 315.917969 195.4375 L 324.683594 198.054688 C 326.332031 198.546875 327.277344 200.296875 326.785156 201.945312 L 323.550781 212.765625 C 326.183594 214.054688 328.714844 215.605469 331.109375 217.421875 L 339.332031 209.664062 C 340.585938 208.484375 342.574219 208.539062 343.757812 209.789062 L 350.039062 216.429688 C 351.222656 217.679688 351.164062 219.667969 349.914062 220.847656 Z M 325.601562 233.199219 C 337.382812 245.652344 336.820312 265.28125 324.351562 277.046875 C 311.882812 288.808594 292.226562 288.25 280.449219 275.796875 C 268.671875 263.34375 269.230469 243.710938 281.699219 231.949219 C 294.167969 220.1875 313.824219 220.746094 325.601562 233.199219 Z M 325.601562 233.199219 " fill-opacity="1" fill-rule="evenodd"/><path fill="#f5874f" d="M 208.4375 268.554688 C 209.402344 269.988281 210.210938 271.496094 210.867188 273.046875 L 217.203125 271.542969 C 218.164062 271.3125 219.144531 271.914062 219.371094 272.878906 L 220.589844 277.996094 C 220.820312 278.960938 220.21875 279.933594 219.253906 280.164062 L 212.914062 281.667969 C 213.027344 283.371094 212.976562 285.078125 212.769531 286.769531 L 219.011719 288.632812 C 219.960938 288.917969 220.503906 289.925781 220.222656 290.875 L 218.714844 295.914062 C 218.429688 296.863281 217.421875 297.40625 216.472656 297.121094 L 210.234375 295.261719 C 209.492188 296.777344 208.597656 298.234375 207.550781 299.609375 L 212.019531 304.335938 C 212.703125 305.058594 212.671875 306.203125 211.949219 306.882812 L 208.121094 310.492188 C 207.398438 311.175781 206.253906 311.140625 205.574219 310.421875 L 201.101562 305.695312 C 199.664062 306.65625 198.15625 307.464844 196.601562 308.121094 L 198.109375 314.449219 C 198.335938 315.410156 197.734375 316.386719 196.769531 316.613281 L 191.644531 317.832031 C 190.679688 318.0625 189.707031 317.460938 189.476562 316.496094 L 187.96875 310.164062 C 186.265625 310.277344 184.554688 310.230469 182.859375 310.019531 L 180.996094 316.253906 C 180.710938 317.203125 179.703125 317.746094 178.753906 317.464844 L 173.707031 315.957031 C 172.757812 315.675781 172.210938 314.667969 172.496094 313.71875 L 174.359375 307.492188 C 172.84375 306.746094 171.382812 305.851562 170.003906 304.808594 L 165.273438 309.273438 C 164.550781 309.953125 163.40625 309.921875 162.726562 309.203125 L 159.109375 305.378906 C 158.425781 304.65625 158.460938 303.511719 159.179688 302.832031 L 163.914062 298.367188 C 162.949219 296.933594 162.140625 295.425781 161.484375 293.875 L 155.148438 295.378906 C 154.183594 295.605469 153.207031 295.007812 152.980469 294.042969 L 151.761719 288.925781 C 151.53125 287.960938 152.132812 286.984375 153.097656 286.757812 L 159.4375 285.253906 C 159.324219 283.550781 159.371094 281.84375 159.582031 280.148438 L 153.339844 278.289062 C 152.390625 278.003906 151.84375 276.996094 152.128906 276.046875 L 153.636719 271.007812 C 153.921875 270.058594 154.929688 269.515625 155.878906 269.796875 L 162.113281 271.660156 C 162.859375 270.144531 163.753906 268.6875 164.800781 267.3125 L 160.328125 262.585938 C 159.648438 261.863281 159.679688 260.71875 160.402344 260.039062 L 164.230469 256.425781 C 164.949219 255.746094 166.097656 255.78125 166.777344 256.5 L 171.25 261.226562 C 172.683594 260.261719 174.195312 259.457031 175.746094 258.800781 L 174.242188 252.472656 C 174.015625 251.511719 174.613281 250.535156 175.582031 250.304688 L 180.703125 249.089844 C 181.667969 248.859375 182.644531 249.460938 182.875 250.425781 L 184.378906 256.757812 C 186.085938 256.644531 187.796875 256.691406 189.488281 256.902344 L 191.355469 250.667969 C 191.636719 249.71875 192.648438 249.175781 193.597656 249.457031 L 198.644531 250.960938 C 199.59375 251.246094 200.140625 252.253906 199.855469 253.203125 L 197.992188 259.433594 C 199.507812 260.175781 200.964844 261.070312 202.34375 262.113281 L 207.078125 257.648438 C 207.796875 256.96875 208.945312 257 209.625 257.71875 L 213.242188 261.542969 C 213.925781 262.265625 213.890625 263.40625 213.171875 264.085938 Z M 199.171875 271.199219 C 205.953125 278.367188 205.632812 289.671875 198.453125 296.441406 C 191.273438 303.214844 179.957031 302.894531 173.175781 295.722656 C 166.394531 288.554688 166.71875 277.25 173.898438 270.480469 C 181.074219 263.707031 192.394531 264.027344 199.171875 271.199219 Z M 199.171875 271.199219 " fill-opacity="1" fill-rule="evenodd"/><g fill="#ffffff" fill-opacity="1"><g transform="translate(159.333311, 215.279421)"><g><path d="M -0.59375 -10.46875 C -0.488281 -10.28125 -0.453125 -10.085938 -0.484375 -9.890625 C -0.523438 -9.691406 -0.601562 -9.515625 -0.71875 -9.359375 C -0.800781 -9.191406 -0.882812 -9.015625 -0.96875 -8.828125 C -1.050781 -8.648438 -1.117188 -8.460938 -1.171875 -8.265625 C -1.234375 -8.078125 -1.257812 -7.890625 -1.25 -7.703125 C -1.25 -7.515625 -1.195312 -7.332031 -1.09375 -7.15625 C -0.988281 -6.988281 -0.859375 -6.859375 -0.703125 -6.765625 C -0.554688 -6.679688 -0.390625 -6.609375 -0.203125 -6.546875 C -0.0234375 -6.492188 0.164062 -6.4375 0.375 -6.375 C 0.59375 -6.320312 0.804688 -6.242188 1.015625 -6.140625 C 1.222656 -6.046875 1.425781 -5.914062 1.625 -5.75 C 1.820312 -5.59375 2 -5.375 2.15625 -5.09375 C 2.269531 -4.90625 2.359375 -4.664062 2.421875 -4.375 C 2.484375 -4.082031 2.515625 -3.773438 2.515625 -3.453125 C 2.515625 -3.128906 2.488281 -2.796875 2.4375 -2.453125 C 2.382812 -2.117188 2.304688 -1.796875 2.203125 -1.484375 C 2.097656 -1.179688 1.960938 -0.90625 1.796875 -0.65625 C 1.628906 -0.414062 1.441406 -0.234375 1.234375 -0.109375 C 0.992188 0.0234375 0.738281 0.078125 0.46875 0.046875 C 0.207031 0.0234375 0 -0.113281 -0.15625 -0.375 C -0.25 -0.539062 -0.296875 -0.722656 -0.296875 -0.921875 C -0.296875 -1.128906 -0.273438 -1.332031 -0.234375 -1.53125 C -0.191406 -1.738281 -0.132812 -1.953125 -0.0625 -2.171875 C 0.0078125 -2.390625 0.0664062 -2.597656 0.109375 -2.796875 C 0.160156 -3.003906 0.179688 -3.203125 0.171875 -3.390625 C 0.171875 -3.585938 0.128906 -3.765625 0.046875 -3.921875 C -0.0859375 -4.140625 -0.296875 -4.320312 -0.578125 -4.46875 C -0.867188 -4.613281 -1.179688 -4.753906 -1.515625 -4.890625 C -1.859375 -5.023438 -2.179688 -5.175781 -2.484375 -5.34375 C -2.796875 -5.519531 -3.03125 -5.742188 -3.1875 -6.015625 C -3.382812 -6.347656 -3.5 -6.742188 -3.53125 -7.203125 C -3.570312 -7.671875 -3.539062 -8.132812 -3.4375 -8.59375 C -3.332031 -9.0625 -3.164062 -9.492188 -2.9375 -9.890625 C -2.707031 -10.296875 -2.425781 -10.597656 -2.09375 -10.796875 C -1.832031 -10.941406 -1.554688 -10.988281 -1.265625 -10.9375 C -0.972656 -10.894531 -0.75 -10.738281 -0.59375 -10.46875 Z M -0.59375 -10.46875 "/></g></g></g><g fill="#ffffff" fill-opacity="1"><g transform="translate(163.492446, 212.855557)"><g><path d="M -2.4375 -9.328125 C -2.375 -9.222656 -2.347656 -9.109375 -2.359375 -8.984375 C -2.367188 -8.867188 -2.394531 -8.75 -2.4375 -8.625 C -2.488281 -8.507812 -2.5625 -8.40625 -2.65625 -8.3125 C -2.75 -8.21875 -2.835938 -8.144531 -2.921875 -8.09375 C -3.078125 -8 -3.234375 -7.957031 -3.390625 -7.96875 C -3.554688 -7.976562 -3.691406 -8.066406 -3.796875 -8.234375 C -3.859375 -8.335938 -3.882812 -8.453125 -3.875 -8.578125 C -3.863281 -8.703125 -3.832031 -8.816406 -3.78125 -8.921875 C -3.726562 -9.023438 -3.65625 -9.125 -3.5625 -9.21875 C -3.46875 -9.3125 -3.375 -9.390625 -3.28125 -9.453125 C -3.132812 -9.535156 -2.984375 -9.578125 -2.828125 -9.578125 C -2.671875 -9.585938 -2.539062 -9.503906 -2.4375 -9.328125 Z M -0.078125 -5.484375 C -0.015625 -5.367188 0.0507812 -5.253906 0.125 -5.140625 C 0.195312 -5.023438 0.265625 -4.910156 0.328125 -4.796875 C 0.390625 -4.648438 0.484375 -4.46875 0.609375 -4.25 C 0.734375 -4.039062 0.863281 -3.804688 1 -3.546875 C 1.132812 -3.285156 1.257812 -3.015625 1.375 -2.734375 C 1.488281 -2.453125 1.570312 -2.179688 1.625 -1.921875 C 1.675781 -1.660156 1.675781 -1.425781 1.625 -1.21875 C 1.570312 -1.007812 1.457031 -0.84375 1.28125 -0.71875 C 1.132812 -0.625 0.972656 -0.609375 0.796875 -0.671875 C 0.628906 -0.742188 0.453125 -0.859375 0.265625 -1.015625 C 0.0859375 -1.179688 -0.0820312 -1.375 -0.25 -1.59375 C -0.425781 -1.8125 -0.582031 -2.03125 -0.71875 -2.25 C -0.863281 -2.46875 -0.988281 -2.671875 -1.09375 -2.859375 C -1.207031 -3.054688 -1.296875 -3.203125 -1.359375 -3.296875 C -1.421875 -3.410156 -1.519531 -3.582031 -1.65625 -3.8125 C -1.789062 -4.050781 -1.925781 -4.300781 -2.0625 -4.5625 C -2.207031 -4.820312 -2.335938 -5.097656 -2.453125 -5.390625 C -2.566406 -5.691406 -2.644531 -5.972656 -2.6875 -6.234375 C -2.738281 -6.503906 -2.738281 -6.742188 -2.6875 -6.953125 C -2.632812 -7.171875 -2.507812 -7.335938 -2.3125 -7.453125 C -2.101562 -7.578125 -1.882812 -7.566406 -1.65625 -7.421875 C -1.4375 -7.273438 -1.21875 -7.078125 -1 -6.828125 C -0.78125 -6.585938 -0.585938 -6.332031 -0.421875 -6.0625 C -0.265625 -5.800781 -0.148438 -5.609375 -0.078125 -5.484375 Z M -0.078125 -5.484375 "/></g></g></g><g fill="#ffffff" fill-opacity="1"><g transform="translate(166.295841, 211.221792)"><g><path d="M 0.03125 -8.46875 C 0.15625 -8.257812 0.175781 -8.054688 0.09375 -7.859375 C 0.0078125 -7.671875 -0.09375 -7.472656 -0.21875 -7.265625 C -0.351562 -7.066406 -0.457031 -6.859375 -0.53125 -6.640625 C -0.601562 -6.429688 -0.566406 -6.195312 -0.421875 -5.9375 C -0.335938 -5.789062 -0.234375 -5.6875 -0.109375 -5.625 C 0.00390625 -5.5625 0.132812 -5.515625 0.28125 -5.484375 C 0.425781 -5.460938 0.582031 -5.441406 0.75 -5.421875 C 0.914062 -5.410156 1.078125 -5.378906 1.234375 -5.328125 C 1.390625 -5.273438 1.546875 -5.191406 1.703125 -5.078125 C 1.859375 -4.960938 2 -4.789062 2.125 -4.5625 C 2.3125 -4.238281 2.410156 -3.875 2.421875 -3.46875 C 2.441406 -3.0625 2.394531 -2.660156 2.28125 -2.265625 C 2.164062 -1.878906 1.988281 -1.519531 1.75 -1.1875 C 1.519531 -0.851562 1.25 -0.597656 0.9375 -0.421875 C 0.800781 -0.335938 0.660156 -0.265625 0.515625 -0.203125 C 0.378906 -0.148438 0.238281 -0.117188 0.09375 -0.109375 C -0.0390625 -0.109375 -0.171875 -0.132812 -0.296875 -0.1875 C -0.421875 -0.25 -0.523438 -0.351562 -0.609375 -0.5 C -0.734375 -0.71875 -0.785156 -0.910156 -0.765625 -1.078125 C -0.742188 -1.253906 -0.6875 -1.414062 -0.59375 -1.5625 C -0.507812 -1.707031 -0.40625 -1.835938 -0.28125 -1.953125 C -0.15625 -2.078125 -0.046875 -2.207031 0.046875 -2.34375 C 0.140625 -2.488281 0.203125 -2.628906 0.234375 -2.765625 C 0.273438 -2.898438 0.242188 -3.050781 0.140625 -3.21875 C 0.046875 -3.382812 -0.113281 -3.515625 -0.34375 -3.609375 C -0.570312 -3.710938 -0.816406 -3.816406 -1.078125 -3.921875 C -1.347656 -4.023438 -1.613281 -4.148438 -1.875 -4.296875 C -2.132812 -4.453125 -2.34375 -4.664062 -2.5 -4.9375 C -2.6875 -5.257812 -2.789062 -5.597656 -2.8125 -5.953125 C -2.84375 -6.316406 -2.804688 -6.664062 -2.703125 -7 C -2.597656 -7.332031 -2.4375 -7.644531 -2.21875 -7.9375 C -2 -8.238281 -1.722656 -8.484375 -1.390625 -8.671875 C -1.273438 -8.734375 -1.148438 -8.785156 -1.015625 -8.828125 C -0.878906 -8.878906 -0.75 -8.898438 -0.625 -8.890625 C -0.507812 -8.890625 -0.390625 -8.859375 -0.265625 -8.796875 C -0.148438 -8.734375 -0.0507812 -8.625 0.03125 -8.46875 Z M 0.03125 -8.46875 "/></g></g></g><g fill="#ffffff" fill-opacity="1"><g transform="translate(170.121785, 208.992105)"><g><path d="M 3.28125 -1.34375 C 2.738281 -1.03125 2.269531 -0.851562 1.875 -0.8125 C 1.476562 -0.78125 1.128906 -0.851562 0.828125 -1.03125 C 0.523438 -1.207031 0.25 -1.46875 0 -1.8125 C -0.238281 -2.164062 -0.488281 -2.566406 -0.75 -3.015625 C -0.957031 -3.378906 -1.15625 -3.75 -1.34375 -4.125 C -1.53125 -4.507812 -1.722656 -4.914062 -1.921875 -5.34375 C -2.015625 -5.289062 -2.09375 -5.242188 -2.15625 -5.203125 C -2.226562 -5.160156 -2.28125 -5.128906 -2.3125 -5.109375 C -2.5625 -4.960938 -2.804688 -4.890625 -3.046875 -4.890625 C -3.296875 -4.890625 -3.484375 -5 -3.609375 -5.21875 C -3.691406 -5.363281 -3.710938 -5.519531 -3.671875 -5.6875 C -3.628906 -5.851562 -3.550781 -6.019531 -3.4375 -6.1875 C -3.320312 -6.363281 -3.179688 -6.53125 -3.015625 -6.6875 C -2.859375 -6.84375 -2.691406 -6.976562 -2.515625 -7.09375 C -2.640625 -7.300781 -2.765625 -7.546875 -2.890625 -7.828125 C -3.015625 -8.109375 -3.101562 -8.382812 -3.15625 -8.65625 C -3.207031 -8.925781 -3.207031 -9.179688 -3.15625 -9.421875 C -3.113281 -9.660156 -2.984375 -9.84375 -2.765625 -9.96875 C -2.648438 -10.03125 -2.519531 -10.050781 -2.375 -10.03125 C -2.238281 -10.007812 -2.109375 -9.960938 -1.984375 -9.890625 C -1.859375 -9.828125 -1.738281 -9.734375 -1.625 -9.609375 C -1.507812 -9.484375 -1.414062 -9.359375 -1.34375 -9.234375 C -1.25 -9.066406 -1.164062 -8.898438 -1.09375 -8.734375 C -1.03125 -8.566406 -0.960938 -8.34375 -0.890625 -8.0625 C -0.765625 -8.15625 -0.675781 -8.21875 -0.625 -8.25 C -0.582031 -8.28125 -0.546875 -8.304688 -0.515625 -8.328125 C -0.378906 -8.398438 -0.234375 -8.46875 -0.078125 -8.53125 C 0.0664062 -8.59375 0.210938 -8.628906 0.359375 -8.640625 C 0.515625 -8.660156 0.65625 -8.644531 0.78125 -8.59375 C 0.914062 -8.550781 1.019531 -8.472656 1.09375 -8.359375 C 1.175781 -8.210938 1.191406 -8.050781 1.140625 -7.875 C 1.097656 -7.707031 1.015625 -7.535156 0.890625 -7.359375 C 0.765625 -7.179688 0.613281 -7.015625 0.4375 -6.859375 C 0.269531 -6.710938 0.109375 -6.582031 -0.046875 -6.46875 C 0.0976562 -6.125 0.234375 -5.816406 0.359375 -5.546875 C 0.492188 -5.273438 0.628906 -5 0.765625 -4.71875 C 0.828125 -4.570312 0.890625 -4.429688 0.953125 -4.296875 C 1.015625 -4.160156 1.085938 -4.019531 1.171875 -3.875 C 1.234375 -3.78125 1.304688 -3.664062 1.390625 -3.53125 C 1.484375 -3.40625 1.585938 -3.289062 1.703125 -3.1875 C 1.828125 -3.09375 1.960938 -3.03125 2.109375 -3 C 2.253906 -2.976562 2.414062 -3.019531 2.59375 -3.125 C 2.6875 -3.175781 2.785156 -3.242188 2.890625 -3.328125 C 3.003906 -3.410156 3.117188 -3.488281 3.234375 -3.5625 C 3.429688 -3.675781 3.613281 -3.691406 3.78125 -3.609375 C 3.957031 -3.523438 4.109375 -3.375 4.234375 -3.15625 C 4.328125 -2.988281 4.359375 -2.816406 4.328125 -2.640625 C 4.296875 -2.472656 4.226562 -2.3125 4.125 -2.15625 C 4.03125 -2 3.90625 -1.847656 3.75 -1.703125 C 3.59375 -1.554688 3.4375 -1.4375 3.28125 -1.34375 Z M 3.28125 -1.34375 "/></g></g></g><g fill="#ffffff" fill-opacity="1"><g transform="translate(174.533685, 206.420935)"><g><path d="M 3.953125 -5.046875 C 4.109375 -4.785156 4.175781 -4.484375 4.15625 -4.140625 C 4.144531 -3.796875 4.070312 -3.453125 3.9375 -3.109375 C 3.800781 -2.773438 3.625 -2.460938 3.40625 -2.171875 C 3.195312 -1.878906 2.976562 -1.664062 2.75 -1.53125 C 2.34375 -1.300781 1.914062 -1.195312 1.46875 -1.21875 C 1.019531 -1.238281 0.597656 -1.34375 0.203125 -1.53125 C -0.179688 -1.71875 -0.539062 -1.96875 -0.875 -2.28125 C -1.207031 -2.601562 -1.476562 -2.945312 -1.6875 -3.3125 C -1.90625 -3.6875 -2.085938 -4.125 -2.234375 -4.625 C -2.378906 -5.125 -2.453125 -5.617188 -2.453125 -6.109375 C -2.460938 -6.609375 -2.367188 -7.078125 -2.171875 -7.515625 C -1.984375 -7.953125 -1.660156 -8.304688 -1.203125 -8.578125 C -0.941406 -8.722656 -0.664062 -8.820312 -0.375 -8.875 C -0.0820312 -8.925781 0.195312 -8.921875 0.46875 -8.859375 C 0.738281 -8.804688 0.992188 -8.703125 1.234375 -8.546875 C 1.472656 -8.390625 1.671875 -8.171875 1.828125 -7.890625 C 2.035156 -7.523438 2.15625 -7.140625 2.1875 -6.734375 C 2.21875 -6.335938 2.171875 -5.945312 2.046875 -5.5625 C 1.929688 -5.1875 1.75 -4.832031 1.5 -4.5 C 1.257812 -4.175781 0.96875 -3.898438 0.625 -3.671875 C 0.789062 -3.472656 0.976562 -3.367188 1.1875 -3.359375 C 1.394531 -3.347656 1.601562 -3.398438 1.8125 -3.515625 C 1.96875 -3.609375 2.09375 -3.734375 2.1875 -3.890625 C 2.28125 -4.046875 2.367188 -4.210938 2.453125 -4.390625 C 2.535156 -4.578125 2.617188 -4.75 2.703125 -4.90625 C 2.796875 -5.0625 2.910156 -5.175781 3.046875 -5.25 C 3.203125 -5.34375 3.367188 -5.367188 3.546875 -5.328125 C 3.734375 -5.296875 3.867188 -5.203125 3.953125 -5.046875 Z M 0.46875 -6.78125 C 0.40625 -6.882812 0.3125 -6.972656 0.1875 -7.046875 C 0.0703125 -7.117188 -0.0351562 -7.125 -0.140625 -7.0625 C -0.304688 -6.957031 -0.421875 -6.828125 -0.484375 -6.671875 C -0.554688 -6.523438 -0.585938 -6.363281 -0.578125 -6.1875 C -0.578125 -6.007812 -0.550781 -5.832031 -0.5 -5.65625 C -0.457031 -5.476562 -0.40625 -5.320312 -0.34375 -5.1875 C -0.25 -5.269531 -0.132812 -5.367188 0 -5.484375 C 0.125 -5.609375 0.234375 -5.742188 0.328125 -5.890625 C 0.421875 -6.035156 0.484375 -6.1875 0.515625 -6.34375 C 0.554688 -6.5 0.539062 -6.644531 0.46875 -6.78125 Z M 0.46875 -6.78125 "/></g></g></g><g fill="#ffffff" fill-opacity="1"><g transform="translate(179.807285, 203.347582)"><g><path d="M 5.109375 -8.0625 C 5.191406 -7.914062 5.304688 -7.71875 5.453125 -7.46875 C 5.597656 -7.21875 5.75 -6.941406 5.90625 -6.640625 C 6.070312 -6.347656 6.21875 -6.039062 6.34375 -5.71875 C 6.476562 -5.394531 6.570312 -5.085938 6.625 -4.796875 C 6.6875 -4.515625 6.703125 -4.265625 6.671875 -4.046875 C 6.640625 -3.828125 6.53125 -3.660156 6.34375 -3.546875 C 6.164062 -3.453125 5.992188 -3.453125 5.828125 -3.546875 C 5.660156 -3.640625 5.5 -3.765625 5.34375 -3.921875 C 5.195312 -4.085938 5.0625 -4.269531 4.9375 -4.46875 C 4.8125 -4.675781 4.71875 -4.832031 4.65625 -4.9375 C 4.445312 -5.289062 4.257812 -5.632812 4.09375 -5.96875 C 3.9375 -6.3125 3.757812 -6.65625 3.5625 -7 C 3.53125 -7.039062 3.484375 -7.109375 3.421875 -7.203125 C 3.367188 -7.304688 3.304688 -7.40625 3.234375 -7.5 C 3.160156 -7.59375 3.082031 -7.664062 3 -7.71875 C 2.914062 -7.78125 2.84375 -7.789062 2.78125 -7.75 C 2.632812 -7.664062 2.5625 -7.523438 2.5625 -7.328125 C 2.570312 -7.140625 2.601562 -6.9375 2.65625 -6.71875 C 2.71875 -6.5 2.789062 -6.289062 2.875 -6.09375 C 2.96875 -5.894531 3.035156 -5.742188 3.078125 -5.640625 C 3.109375 -5.535156 3.175781 -5.378906 3.28125 -5.171875 C 3.382812 -4.972656 3.492188 -4.75 3.609375 -4.5 C 3.734375 -4.25 3.847656 -3.984375 3.953125 -3.703125 C 4.066406 -3.421875 4.148438 -3.160156 4.203125 -2.921875 C 4.253906 -2.679688 4.269531 -2.46875 4.25 -2.28125 C 4.226562 -2.09375 4.144531 -1.953125 4 -1.859375 C 3.8125 -1.753906 3.617188 -1.753906 3.421875 -1.859375 C 3.222656 -1.972656 3.035156 -2.125 2.859375 -2.3125 C 2.691406 -2.5 2.539062 -2.695312 2.40625 -2.90625 C 2.269531 -3.125 2.164062 -3.296875 2.09375 -3.421875 C 2.019531 -3.554688 1.945312 -3.6875 1.875 -3.8125 C 1.800781 -3.9375 1.726562 -4.0625 1.65625 -4.1875 C 1.625 -4.238281 1.570312 -4.320312 1.5 -4.4375 C 1.4375 -4.5625 1.359375 -4.695312 1.265625 -4.84375 C 1.171875 -5 1.070312 -5.148438 0.96875 -5.296875 C 0.863281 -5.453125 0.757812 -5.59375 0.65625 -5.71875 C 0.550781 -5.84375 0.453125 -5.929688 0.359375 -5.984375 C 0.265625 -6.046875 0.1875 -6.054688 0.125 -6.015625 C 0.0195312 -5.960938 -0.0351562 -5.847656 -0.046875 -5.671875 C -0.0546875 -5.492188 -0.0390625 -5.300781 0 -5.09375 C 0.0507812 -4.882812 0.109375 -4.6875 0.171875 -4.5 C 0.234375 -4.3125 0.285156 -4.179688 0.328125 -4.109375 L 0.375 -4.03125 C 0.582031 -3.664062 0.8125 -3.316406 1.0625 -2.984375 C 1.3125 -2.660156 1.539062 -2.316406 1.75 -1.953125 C 1.875 -1.734375 1.921875 -1.492188 1.890625 -1.234375 C 1.859375 -0.972656 1.722656 -0.769531 1.484375 -0.625 C 1.316406 -0.53125 1.128906 -0.515625 0.921875 -0.578125 C 0.722656 -0.648438 0.523438 -0.769531 0.328125 -0.9375 C 0.128906 -1.101562 -0.0625 -1.300781 -0.25 -1.53125 C -0.4375 -1.769531 -0.613281 -2.007812 -0.78125 -2.25 C -0.945312 -2.488281 -1.09375 -2.707031 -1.21875 -2.90625 C -1.34375 -3.101562 -1.429688 -3.25 -1.484375 -3.34375 C -1.554688 -3.46875 -1.65625 -3.640625 -1.78125 -3.859375 C -1.914062 -4.078125 -2.050781 -4.316406 -2.1875 -4.578125 C -2.332031 -4.847656 -2.46875 -5.128906 -2.59375 -5.421875 C -2.71875 -5.722656 -2.8125 -6 -2.875 -6.25 C -2.9375 -6.507812 -2.953125 -6.742188 -2.921875 -6.953125 C -2.890625 -7.171875 -2.785156 -7.332031 -2.609375 -7.4375 C -2.410156 -7.550781 -2.21875 -7.585938 -2.03125 -7.546875 C -1.84375 -7.515625 -1.6875 -7.390625 -1.5625 -7.171875 C -1.539062 -7.128906 -1.519531 -7.082031 -1.5 -7.03125 C -1.476562 -6.988281 -1.453125 -6.941406 -1.421875 -6.890625 C -1.421875 -7.066406 -1.390625 -7.253906 -1.328125 -7.453125 C -1.273438 -7.648438 -1.210938 -7.835938 -1.140625 -8.015625 C -1.066406 -8.203125 -0.96875 -8.375 -0.84375 -8.53125 C -0.71875 -8.695312 -0.570312 -8.828125 -0.40625 -8.921875 C -0.25 -9.015625 -0.0859375 -9.054688 0.078125 -9.046875 C 0.242188 -9.035156 0.410156 -8.988281 0.578125 -8.90625 C 0.742188 -8.832031 0.898438 -8.738281 1.046875 -8.625 C 1.191406 -8.519531 1.316406 -8.410156 1.421875 -8.296875 C 1.410156 -8.472656 1.414062 -8.664062 1.4375 -8.875 C 1.46875 -9.082031 1.519531 -9.273438 1.59375 -9.453125 C 1.664062 -9.640625 1.757812 -9.8125 1.875 -9.96875 C 2 -10.132812 2.144531 -10.269531 2.3125 -10.375 C 2.46875 -10.457031 2.632812 -10.472656 2.8125 -10.421875 C 3 -10.378906 3.1875 -10.289062 3.375 -10.15625 C 3.570312 -10.03125 3.753906 -9.867188 3.921875 -9.671875 C 4.097656 -9.472656 4.265625 -9.269531 4.421875 -9.0625 C 4.578125 -8.863281 4.710938 -8.671875 4.828125 -8.484375 C 4.941406 -8.304688 5.035156 -8.164062 5.109375 -8.0625 Z M 5.109375 -8.0625 "/></g></g></g><g fill="#ffffff" fill-opacity="1"><g transform="translate(187.539599, 198.841337)"><g/></g></g><g fill="#ffffff" fill-opacity="1"><g transform="translate(190.308526, 197.22766)"><g><path d="M 2.03125 -10 C 2.40625 -9.351562 2.757812 -8.703125 3.09375 -8.046875 C 3.4375 -7.390625 3.769531 -6.726562 4.09375 -6.0625 C 4.164062 -5.945312 4.253906 -5.785156 4.359375 -5.578125 C 4.460938 -5.378906 4.566406 -5.160156 4.671875 -4.921875 C 4.785156 -4.691406 4.890625 -4.445312 4.984375 -4.1875 C 5.078125 -3.9375 5.132812 -3.691406 5.15625 -3.453125 C 5.1875 -3.210938 5.171875 -3 5.109375 -2.8125 C 5.054688 -2.625 4.941406 -2.476562 4.765625 -2.375 C 4.597656 -2.28125 4.429688 -2.226562 4.265625 -2.21875 C 4.109375 -2.21875 3.953125 -2.25 3.796875 -2.3125 C 3.648438 -2.375 3.507812 -2.457031 3.375 -2.5625 C 3.25 -2.675781 3.144531 -2.8125 3.0625 -2.96875 C 2.90625 -3.226562 2.757812 -3.488281 2.625 -3.75 C 2.488281 -4.019531 2.363281 -4.296875 2.25 -4.578125 L 1.1875 -3.78125 C 1.28125 -3.570312 1.394531 -3.316406 1.53125 -3.015625 C 1.664062 -2.722656 1.765625 -2.425781 1.828125 -2.125 C 1.898438 -1.820312 1.910156 -1.53125 1.859375 -1.25 C 1.804688 -0.96875 1.640625 -0.742188 1.359375 -0.578125 C 1.179688 -0.472656 1.007812 -0.429688 0.84375 -0.453125 C 0.675781 -0.472656 0.519531 -0.523438 0.375 -0.609375 C 0.238281 -0.691406 0.109375 -0.800781 -0.015625 -0.9375 C -0.140625 -1.070312 -0.238281 -1.207031 -0.3125 -1.34375 C -0.582031 -1.800781 -0.828125 -2.269531 -1.046875 -2.75 C -1.273438 -3.238281 -1.515625 -3.71875 -1.765625 -4.1875 C -2.035156 -4.664062 -2.316406 -5.148438 -2.609375 -5.640625 C -2.898438 -6.128906 -3.175781 -6.617188 -3.4375 -7.109375 C -3.519531 -7.273438 -3.625 -7.46875 -3.75 -7.6875 C -3.875 -7.90625 -3.960938 -8.117188 -4.015625 -8.328125 C -4.078125 -8.546875 -4.085938 -8.753906 -4.046875 -8.953125 C -4.003906 -9.148438 -3.859375 -9.320312 -3.609375 -9.46875 C -3.285156 -9.65625 -2.988281 -9.710938 -2.71875 -9.640625 C -2.445312 -9.566406 -2.203125 -9.421875 -1.984375 -9.203125 C -1.765625 -8.992188 -1.570312 -8.742188 -1.40625 -8.453125 C -1.238281 -8.171875 -1.09375 -7.914062 -0.96875 -7.6875 C -0.78125 -7.382812 -0.609375 -7.078125 -0.453125 -6.765625 C -0.296875 -6.460938 -0.144531 -6.15625 0 -5.84375 L 1.140625 -6.734375 C 0.929688 -7.117188 0.722656 -7.492188 0.515625 -7.859375 C 0.304688 -8.234375 0.101562 -8.617188 -0.09375 -9.015625 C -0.1875 -9.179688 -0.285156 -9.367188 -0.390625 -9.578125 C -0.492188 -9.785156 -0.566406 -9.988281 -0.609375 -10.1875 C -0.660156 -10.382812 -0.65625 -10.578125 -0.59375 -10.765625 C -0.539062 -10.953125 -0.382812 -11.117188 -0.125 -11.265625 C 0.0820312 -11.390625 0.289062 -11.425781 0.5 -11.375 C 0.707031 -11.332031 0.898438 -11.242188 1.078125 -11.109375 C 1.265625 -10.984375 1.429688 -10.832031 1.578125 -10.65625 C 1.722656 -10.476562 1.84375 -10.304688 1.9375 -10.140625 Z M 2.03125 -10 "/></g></g></g><g fill="#ffffff" fill-opacity="1"><g transform="translate(196.581696, 193.571777)"><g><path d="M 3.953125 -5.046875 C 4.109375 -4.785156 4.175781 -4.484375 4.15625 -4.140625 C 4.144531 -3.796875 4.070312 -3.453125 3.9375 -3.109375 C 3.800781 -2.773438 3.625 -2.460938 3.40625 -2.171875 C 3.195312 -1.878906 2.976562 -1.664062 2.75 -1.53125 C 2.34375 -1.300781 1.914062 -1.195312 1.46875 -1.21875 C 1.019531 -1.238281 0.597656 -1.34375 0.203125 -1.53125 C -0.179688 -1.71875 -0.539062 -1.96875 -0.875 -2.28125 C -1.207031 -2.601562 -1.476562 -2.945312 -1.6875 -3.3125 C -1.90625 -3.6875 -2.085938 -4.125 -2.234375 -4.625 C -2.378906 -5.125 -2.453125 -5.617188 -2.453125 -6.109375 C -2.460938 -6.609375 -2.367188 -7.078125 -2.171875 -7.515625 C -1.984375 -7.953125 -1.660156 -8.304688 -1.203125 -8.578125 C -0.941406 -8.722656 -0.664062 -8.820312 -0.375 -8.875 C -0.0820312 -8.925781 0.195312 -8.921875 0.46875 -8.859375 C 0.738281 -8.804688 0.992188 -8.703125 1.234375 -8.546875 C 1.472656 -8.390625 1.671875 -8.171875 1.828125 -7.890625 C 2.035156 -7.523438 2.15625 -7.140625 2.1875 -6.734375 C 2.21875 -6.335938 2.171875 -5.945312 2.046875 -5.5625 C 1.929688 -5.1875 1.75 -4.832031 1.5 -4.5 C 1.257812 -4.175781 0.96875 -3.898438 0.625 -3.671875 C 0.789062 -3.472656 0.976562 -3.367188 1.1875 -3.359375 C 1.394531 -3.347656 1.601562 -3.398438 1.8125 -3.515625 C 1.96875 -3.609375 2.09375 -3.734375 2.1875 -3.890625 C 2.28125 -4.046875 2.367188 -4.210938 2.453125 -4.390625 C 2.535156 -4.578125 2.617188 -4.75 2.703125 -4.90625 C 2.796875 -5.0625 2.910156 -5.175781 3.046875 -5.25 C 3.203125 -5.34375 3.367188 -5.367188 3.546875 -5.328125 C 3.734375 -5.296875 3.867188 -5.203125 3.953125 -5.046875 Z M 0.46875 -6.78125 C 0.40625 -6.882812 0.3125 -6.972656 0.1875 -7.046875 C 0.0703125 -7.117188 -0.0351562 -7.125 -0.140625 -7.0625 C -0.304688 -6.957031 -0.421875 -6.828125 -0.484375 -6.671875 C -0.554688 -6.523438 -0.585938 -6.363281 -0.578125 -6.1875 C -0.578125 -6.007812 -0.550781 -5.832031 -0.5 -5.65625 C -0.457031 -5.476562 -0.40625 -5.320312 -0.34375 -5.1875 C -0.25 -5.269531 -0.132812 -5.367188 0 -5.484375 C 0.125 -5.609375 0.234375 -5.742188 0.328125 -5.890625 C 0.421875 -6.035156 0.484375 -6.1875 0.515625 -6.34375 C 0.554688 -6.5 0.539062 -6.644531 0.46875 -6.78125 Z M 0.46875 -6.78125 "/></g></g></g><g fill="#ffffff" fill-opacity="1"><g transform="translate(201.855295, 190.498424)"><g><path d="M -1.5625 -8.421875 C -1.320312 -8.003906 -1.097656 -7.578125 -0.890625 -7.140625 C -0.679688 -6.703125 -0.453125 -6.269531 -0.203125 -5.84375 C 0.109375 -5.300781 0.441406 -4.769531 0.796875 -4.25 C 1.148438 -3.726562 1.488281 -3.191406 1.8125 -2.640625 C 1.894531 -2.492188 1.972656 -2.328125 2.046875 -2.140625 C 2.128906 -1.960938 2.1875 -1.785156 2.21875 -1.609375 C 2.25 -1.441406 2.234375 -1.273438 2.171875 -1.109375 C 2.117188 -0.941406 1.992188 -0.800781 1.796875 -0.6875 C 1.609375 -0.582031 1.394531 -0.578125 1.15625 -0.671875 C 0.925781 -0.773438 0.6875 -0.941406 0.4375 -1.171875 C 0.1875 -1.398438 -0.0664062 -1.671875 -0.328125 -1.984375 C -0.585938 -2.296875 -0.820312 -2.609375 -1.03125 -2.921875 C -1.25 -3.234375 -1.441406 -3.519531 -1.609375 -3.78125 C -1.785156 -4.039062 -1.910156 -4.238281 -1.984375 -4.375 C -2.066406 -4.519531 -2.179688 -4.734375 -2.328125 -5.015625 C -2.484375 -5.296875 -2.632812 -5.609375 -2.78125 -5.953125 C -2.9375 -6.296875 -3.078125 -6.648438 -3.203125 -7.015625 C -3.335938 -7.390625 -3.429688 -7.742188 -3.484375 -8.078125 C -3.535156 -8.410156 -3.535156 -8.707031 -3.484375 -8.96875 C -3.429688 -9.238281 -3.300781 -9.429688 -3.09375 -9.546875 C -2.925781 -9.648438 -2.765625 -9.671875 -2.609375 -9.609375 C -2.460938 -9.546875 -2.320312 -9.445312 -2.1875 -9.3125 C -2.0625 -9.175781 -1.941406 -9.023438 -1.828125 -8.859375 C -1.722656 -8.691406 -1.632812 -8.546875 -1.5625 -8.421875 Z M -1.5625 -8.421875 "/></g></g></g><g fill="#ffffff" fill-opacity="1"><g transform="translate(204.876987, 188.73744)"><g><path d="M 3.609375 -6.6875 C 3.804688 -6.351562 3.984375 -5.960938 4.140625 -5.515625 C 4.304688 -5.078125 4.40625 -4.632812 4.4375 -4.1875 C 4.46875 -3.738281 4.410156 -3.316406 4.265625 -2.921875 C 4.117188 -2.535156 3.835938 -2.21875 3.421875 -1.96875 C 3.304688 -1.90625 3.1875 -1.847656 3.0625 -1.796875 C 2.9375 -1.753906 2.8125 -1.722656 2.6875 -1.703125 C 2.5625 -1.679688 2.4375 -1.675781 2.3125 -1.6875 C 2.1875 -1.695312 2.070312 -1.742188 1.96875 -1.828125 L 2.828125 -0.125 C 2.921875 0.0703125 3.035156 0.289062 3.171875 0.53125 C 3.316406 0.769531 3.425781 1.019531 3.5 1.28125 C 3.570312 1.539062 3.585938 1.789062 3.546875 2.03125 C 3.503906 2.269531 3.359375 2.460938 3.109375 2.609375 C 2.960938 2.691406 2.789062 2.679688 2.59375 2.578125 C 2.40625 2.484375 2.21875 2.335938 2.03125 2.140625 C 1.84375 1.941406 1.648438 1.710938 1.453125 1.453125 C 1.253906 1.191406 1.070312 0.929688 0.90625 0.671875 C 0.75 0.421875 0.609375 0.191406 0.484375 -0.015625 C 0.359375 -0.234375 0.269531 -0.390625 0.21875 -0.484375 C -0.0820312 -1.003906 -0.382812 -1.515625 -0.6875 -2.015625 C -1 -2.523438 -1.304688 -3.035156 -1.609375 -3.546875 C -1.660156 -3.640625 -1.742188 -3.78125 -1.859375 -3.96875 C -1.972656 -4.164062 -2.085938 -4.382812 -2.203125 -4.625 C -2.316406 -4.875 -2.425781 -5.128906 -2.53125 -5.390625 C -2.644531 -5.660156 -2.722656 -5.914062 -2.765625 -6.15625 C -2.816406 -6.40625 -2.820312 -6.625 -2.78125 -6.8125 C -2.75 -7 -2.660156 -7.132812 -2.515625 -7.21875 C -2.410156 -7.28125 -2.300781 -7.304688 -2.1875 -7.296875 C -2.082031 -7.285156 -1.972656 -7.25 -1.859375 -7.1875 C -1.753906 -7.132812 -1.648438 -7.070312 -1.546875 -7 C -1.453125 -6.925781 -1.367188 -6.847656 -1.296875 -6.765625 C -1.222656 -7.171875 -1.066406 -7.535156 -0.828125 -7.859375 C -0.597656 -8.179688 -0.304688 -8.441406 0.046875 -8.640625 C 0.410156 -8.859375 0.769531 -8.929688 1.125 -8.859375 C 1.476562 -8.785156 1.8125 -8.632812 2.125 -8.40625 C 2.4375 -8.1875 2.71875 -7.914062 2.96875 -7.59375 C 3.226562 -7.269531 3.441406 -6.96875 3.609375 -6.6875 Z M 1.921875 -5.828125 C 1.859375 -5.941406 1.78125 -6.050781 1.6875 -6.15625 C 1.601562 -6.269531 1.5 -6.363281 1.375 -6.4375 C 1.257812 -6.507812 1.140625 -6.550781 1.015625 -6.5625 C 0.890625 -6.570312 0.757812 -6.535156 0.625 -6.453125 C 0.4375 -6.347656 0.273438 -6.175781 0.140625 -5.9375 C 0.00390625 -5.707031 -0.0664062 -5.488281 -0.078125 -5.28125 C -0.078125 -5.195312 -0.0390625 -5.082031 0.03125 -4.9375 C 0.101562 -4.789062 0.160156 -4.6875 0.203125 -4.625 C 0.234375 -4.570312 0.273438 -4.5 0.328125 -4.40625 C 0.390625 -4.320312 0.453125 -4.234375 0.515625 -4.140625 C 0.578125 -4.054688 0.632812 -3.972656 0.6875 -3.890625 C 0.75 -3.816406 0.804688 -3.769531 0.859375 -3.75 C 0.921875 -3.6875 1.003906 -3.644531 1.109375 -3.625 C 1.222656 -3.613281 1.335938 -3.613281 1.453125 -3.625 C 1.578125 -3.632812 1.691406 -3.65625 1.796875 -3.6875 C 1.910156 -3.71875 2.003906 -3.753906 2.078125 -3.796875 C 2.234375 -3.890625 2.320312 -4.023438 2.34375 -4.203125 C 2.375 -4.378906 2.367188 -4.570312 2.328125 -4.78125 C 2.296875 -4.988281 2.234375 -5.1875 2.140625 -5.375 C 2.054688 -5.5625 1.984375 -5.710938 1.921875 -5.828125 Z M 1.921875 -5.828125 "/></g></g></g><g fill="#ffffff" fill-opacity="1"><g transform="translate(210.839946, 185.262342)"><g><path d="M 0.90625 -10.65625 C 1.226562 -10.09375 1.523438 -9.523438 1.796875 -8.953125 C 2.078125 -8.378906 2.378906 -7.804688 2.703125 -7.234375 C 2.972656 -6.785156 3.25 -6.347656 3.53125 -5.921875 C 3.8125 -5.492188 4.085938 -5.050781 4.359375 -4.59375 C 4.429688 -4.46875 4.507812 -4.316406 4.59375 -4.140625 C 4.6875 -3.972656 4.757812 -3.789062 4.8125 -3.59375 C 4.875 -3.40625 4.882812 -3.226562 4.84375 -3.0625 C 4.8125 -2.90625 4.707031 -2.773438 4.53125 -2.671875 C 4.3125 -2.535156 4.070312 -2.507812 3.8125 -2.59375 C 3.5625 -2.675781 3.359375 -2.8125 3.203125 -3 C 3.222656 -2.644531 3.148438 -2.289062 2.984375 -1.9375 C 2.816406 -1.582031 2.570312 -1.3125 2.25 -1.125 C 1.90625 -0.925781 1.535156 -0.875 1.140625 -0.96875 C 0.753906 -1.0625 0.382812 -1.226562 0.03125 -1.46875 C -0.320312 -1.71875 -0.644531 -2 -0.9375 -2.3125 C -1.238281 -2.632812 -1.46875 -2.929688 -1.625 -3.203125 C -1.738281 -3.390625 -1.851562 -3.613281 -1.96875 -3.875 C -2.09375 -4.132812 -2.195312 -4.40625 -2.28125 -4.6875 C -2.375 -4.976562 -2.445312 -5.269531 -2.5 -5.5625 C -2.550781 -5.863281 -2.554688 -6.148438 -2.515625 -6.421875 C -2.484375 -6.691406 -2.40625 -6.9375 -2.28125 -7.15625 C -2.15625 -7.382812 -1.96875 -7.578125 -1.71875 -7.734375 C -1.4375 -7.890625 -1.125 -7.957031 -0.78125 -7.9375 C -0.4375 -7.925781 -0.132812 -7.84375 0.125 -7.6875 L -0.828125 -9.5625 C -0.898438 -9.71875 -0.984375 -9.894531 -1.078125 -10.09375 C -1.179688 -10.300781 -1.257812 -10.507812 -1.3125 -10.71875 C -1.375 -10.925781 -1.382812 -11.117188 -1.34375 -11.296875 C -1.300781 -11.484375 -1.175781 -11.640625 -0.96875 -11.765625 C -0.75 -11.890625 -0.546875 -11.9375 -0.359375 -11.90625 C -0.171875 -11.875 -0.00390625 -11.789062 0.140625 -11.65625 C 0.296875 -11.519531 0.4375 -11.359375 0.5625 -11.171875 C 0.6875 -10.992188 0.800781 -10.820312 0.90625 -10.65625 Z M 1.984375 -4.453125 C 1.878906 -4.640625 1.773438 -4.8125 1.671875 -4.96875 C 1.578125 -5.125 1.484375 -5.296875 1.390625 -5.484375 C 1.273438 -5.554688 1.148438 -5.632812 1.015625 -5.71875 C 0.890625 -5.800781 0.753906 -5.867188 0.609375 -5.921875 C 0.460938 -5.972656 0.3125 -6 0.15625 -6 C 0.0078125 -6.007812 -0.125 -5.976562 -0.25 -5.90625 C -0.382812 -5.832031 -0.46875 -5.726562 -0.5 -5.59375 C -0.53125 -5.457031 -0.53125 -5.320312 -0.5 -5.1875 C -0.46875 -5.050781 -0.414062 -4.90625 -0.34375 -4.75 C -0.28125 -4.601562 -0.222656 -4.476562 -0.171875 -4.375 C -0.117188 -4.289062 -0.0351562 -4.160156 0.078125 -3.984375 C 0.203125 -3.816406 0.335938 -3.65625 0.484375 -3.5 C 0.640625 -3.34375 0.796875 -3.21875 0.953125 -3.125 C 1.117188 -3.03125 1.265625 -3.019531 1.390625 -3.09375 C 1.492188 -3.144531 1.582031 -3.21875 1.65625 -3.3125 C 1.726562 -3.414062 1.785156 -3.523438 1.828125 -3.640625 C 1.878906 -3.765625 1.921875 -3.890625 1.953125 -4.015625 C 1.984375 -4.140625 2.015625 -4.253906 2.046875 -4.359375 Z M 1.984375 -4.453125 "/></g></g></g><g fill="#ffffff" fill-opacity="1"><g transform="translate(216.550139, 181.934551)"><g><path d="M 3.953125 -5.046875 C 4.109375 -4.785156 4.175781 -4.484375 4.15625 -4.140625 C 4.144531 -3.796875 4.070312 -3.453125 3.9375 -3.109375 C 3.800781 -2.773438 3.625 -2.460938 3.40625 -2.171875 C 3.195312 -1.878906 2.976562 -1.664062 2.75 -1.53125 C 2.34375 -1.300781 1.914062 -1.195312 1.46875 -1.21875 C 1.019531 -1.238281 0.597656 -1.34375 0.203125 -1.53125 C -0.179688 -1.71875 -0.539062 -1.96875 -0.875 -2.28125 C -1.207031 -2.601562 -1.476562 -2.945312 -1.6875 -3.3125 C -1.90625 -3.6875 -2.085938 -4.125 -2.234375 -4.625 C -2.378906 -5.125 -2.453125 -5.617188 -2.453125 -6.109375 C -2.460938 -6.609375 -2.367188 -7.078125 -2.171875 -7.515625 C -1.984375 -7.953125 -1.660156 -8.304688 -1.203125 -8.578125 C -0.941406 -8.722656 -0.664062 -8.820312 -0.375 -8.875 C -0.0820312 -8.925781 0.195312 -8.921875 0.46875 -8.859375 C 0.738281 -8.804688 0.992188 -8.703125 1.234375 -8.546875 C 1.472656 -8.390625 1.671875 -8.171875 1.828125 -7.890625 C 2.035156 -7.523438 2.15625 -7.140625 2.1875 -6.734375 C 2.21875 -6.335938 2.171875 -5.945312 2.046875 -5.5625 C 1.929688 -5.1875 1.75 -4.832031 1.5 -4.5 C 1.257812 -4.175781 0.96875 -3.898438 0.625 -3.671875 C 0.789062 -3.472656 0.976562 -3.367188 1.1875 -3.359375 C 1.394531 -3.347656 1.601562 -3.398438 1.8125 -3.515625 C 1.96875 -3.609375 2.09375 -3.734375 2.1875 -3.890625 C 2.28125 -4.046875 2.367188 -4.210938 2.453125 -4.390625 C 2.535156 -4.578125 2.617188 -4.75 2.703125 -4.90625 C 2.796875 -5.0625 2.910156 -5.175781 3.046875 -5.25 C 3.203125 -5.34375 3.367188 -5.367188 3.546875 -5.328125 C 3.734375 -5.296875 3.867188 -5.203125 3.953125 -5.046875 Z M 0.46875 -6.78125 C 0.40625 -6.882812 0.3125 -6.972656 0.1875 -7.046875 C 0.0703125 -7.117188 -0.0351562 -7.125 -0.140625 -7.0625 C -0.304688 -6.957031 -0.421875 -6.828125 -0.484375 -6.671875 C -0.554688 -6.523438 -0.585938 -6.363281 -0.578125 -6.1875 C -0.578125 -6.007812 -0.550781 -5.832031 -0.5 -5.65625 C -0.457031 -5.476562 -0.40625 -5.320312 -0.34375 -5.1875 C -0.25 -5.269531 -0.132812 -5.367188 0 -5.484375 C 0.125 -5.609375 0.234375 -5.742188 0.328125 -5.890625 C 0.421875 -6.035156 0.484375 -6.1875 0.515625 -6.34375 C 0.554688 -6.5 0.539062 -6.644531 0.46875 -6.78125 Z M 0.46875 -6.78125 "/></g></g></g><g fill="#ffffff" fill-opacity="1"><g transform="translate(221.823738, 178.861198)"><g><path d="M 0.03125 -8.46875 C 0.15625 -8.257812 0.175781 -8.054688 0.09375 -7.859375 C 0.0078125 -7.671875 -0.09375 -7.472656 -0.21875 -7.265625 C -0.351562 -7.066406 -0.457031 -6.859375 -0.53125 -6.640625 C -0.601562 -6.429688 -0.566406 -6.195312 -0.421875 -5.9375 C -0.335938 -5.789062 -0.234375 -5.6875 -0.109375 -5.625 C 0.00390625 -5.5625 0.132812 -5.515625 0.28125 -5.484375 C 0.425781 -5.460938 0.582031 -5.441406 0.75 -5.421875 C 0.914062 -5.410156 1.078125 -5.378906 1.234375 -5.328125 C 1.390625 -5.273438 1.546875 -5.191406 1.703125 -5.078125 C 1.859375 -4.960938 2 -4.789062 2.125 -4.5625 C 2.3125 -4.238281 2.410156 -3.875 2.421875 -3.46875 C 2.441406 -3.0625 2.394531 -2.660156 2.28125 -2.265625 C 2.164062 -1.878906 1.988281 -1.519531 1.75 -1.1875 C 1.519531 -0.851562 1.25 -0.597656 0.9375 -0.421875 C 0.800781 -0.335938 0.660156 -0.265625 0.515625 -0.203125 C 0.378906 -0.148438 0.238281 -0.117188 0.09375 -0.109375 C -0.0390625 -0.109375 -0.171875 -0.132812 -0.296875 -0.1875 C -0.421875 -0.25 -0.523438 -0.351562 -0.609375 -0.5 C -0.734375 -0.71875 -0.785156 -0.910156 -0.765625 -1.078125 C -0.742188 -1.253906 -0.6875 -1.414062 -0.59375 -1.5625 C -0.507812 -1.707031 -0.40625 -1.835938 -0.28125 -1.953125 C -0.15625 -2.078125 -0.046875 -2.207031 0.046875 -2.34375 C 0.140625 -2.488281 0.203125 -2.628906 0.234375 -2.765625 C 0.273438 -2.898438 0.242188 -3.050781 0.140625 -3.21875 C 0.046875 -3.382812 -0.113281 -3.515625 -0.34375 -3.609375 C -0.570312 -3.710938 -0.816406 -3.816406 -1.078125 -3.921875 C -1.347656 -4.023438 -1.613281 -4.148438 -1.875 -4.296875 C -2.132812 -4.453125 -2.34375 -4.664062 -2.5 -4.9375 C -2.6875 -5.257812 -2.789062 -5.597656 -2.8125 -5.953125 C -2.84375 -6.316406 -2.804688 -6.664062 -2.703125 -7 C -2.597656 -7.332031 -2.4375 -7.644531 -2.21875 -7.9375 C -2 -8.238281 -1.722656 -8.484375 -1.390625 -8.671875 C -1.273438 -8.734375 -1.148438 -8.785156 -1.015625 -8.828125 C -0.878906 -8.878906 -0.75 -8.898438 -0.625 -8.890625 C -0.507812 -8.890625 -0.390625 -8.859375 -0.265625 -8.796875 C -0.148438 -8.734375 -0.0507812 -8.625 0.03125 -8.46875 Z M 0.03125 -8.46875 "/></g></g></g><g fill="#ffffff" fill-opacity="1"><g transform="translate(225.649683, 176.631511)"><g><path d="M 1.84375 -9.359375 C 1.96875 -9.140625 2.035156 -8.890625 2.046875 -8.609375 C 2.066406 -8.328125 2.0625 -8.023438 2.03125 -7.703125 C 2.007812 -7.390625 1.96875 -7.085938 1.90625 -6.796875 C 1.84375 -6.503906 1.796875 -6.242188 1.765625 -6.015625 C 1.972656 -5.898438 2.238281 -5.75 2.5625 -5.5625 C 2.882812 -5.382812 3.210938 -5.175781 3.546875 -4.9375 C 3.878906 -4.707031 4.179688 -4.472656 4.453125 -4.234375 C 4.722656 -3.992188 4.914062 -3.773438 5.03125 -3.578125 C 5.125 -3.421875 5.160156 -3.242188 5.140625 -3.046875 C 5.117188 -2.859375 5.023438 -2.71875 4.859375 -2.625 C 4.722656 -2.539062 4.550781 -2.515625 4.34375 -2.546875 C 4.144531 -2.578125 3.925781 -2.644531 3.6875 -2.75 C 3.445312 -2.851562 3.203125 -2.976562 2.953125 -3.125 C 2.710938 -3.269531 2.472656 -3.421875 2.234375 -3.578125 C 2.003906 -3.742188 1.789062 -3.894531 1.59375 -4.03125 C 1.40625 -4.175781 1.257812 -4.285156 1.15625 -4.359375 C 1.125 -4.210938 1.066406 -4.070312 0.984375 -3.9375 C 0.910156 -3.8125 0.851562 -3.675781 0.8125 -3.53125 C 0.894531 -3.375 1.015625 -3.144531 1.171875 -2.84375 C 1.328125 -2.539062 1.457031 -2.226562 1.5625 -1.90625 C 1.675781 -1.59375 1.726562 -1.289062 1.71875 -1 C 1.71875 -0.71875 1.585938 -0.503906 1.328125 -0.359375 C 1.128906 -0.242188 0.921875 -0.242188 0.703125 -0.359375 C 0.492188 -0.484375 0.289062 -0.648438 0.09375 -0.859375 C -0.09375 -1.066406 -0.257812 -1.289062 -0.40625 -1.53125 C -0.5625 -1.78125 -0.679688 -1.972656 -0.765625 -2.109375 C -1.097656 -2.671875 -1.410156 -3.242188 -1.703125 -3.828125 C -1.992188 -4.421875 -2.304688 -5.003906 -2.640625 -5.578125 C -2.710938 -5.703125 -2.804688 -5.867188 -2.921875 -6.078125 C -3.046875 -6.296875 -3.164062 -6.53125 -3.28125 -6.78125 C -3.394531 -7.039062 -3.503906 -7.3125 -3.609375 -7.59375 C -3.710938 -7.875 -3.78125 -8.140625 -3.8125 -8.390625 C -3.84375 -8.648438 -3.828125 -8.878906 -3.765625 -9.078125 C -3.703125 -9.285156 -3.578125 -9.441406 -3.390625 -9.546875 C -3.253906 -9.628906 -3.109375 -9.644531 -2.953125 -9.59375 C -2.796875 -9.550781 -2.644531 -9.460938 -2.5 -9.328125 C -2.351562 -9.203125 -2.207031 -9.046875 -2.0625 -8.859375 C -1.914062 -8.679688 -1.773438 -8.5 -1.640625 -8.3125 C -1.515625 -8.125 -1.40625 -7.945312 -1.3125 -7.78125 C -1.21875 -7.613281 -1.140625 -7.484375 -1.078125 -7.390625 C -1.035156 -7.316406 -0.976562 -7.207031 -0.90625 -7.0625 C -0.832031 -6.925781 -0.753906 -6.785156 -0.671875 -6.640625 C -0.597656 -6.492188 -0.523438 -6.359375 -0.453125 -6.234375 C -0.378906 -6.117188 -0.316406 -6.039062 -0.265625 -6 C -0.210938 -6.03125 -0.160156 -6.128906 -0.109375 -6.296875 C -0.0664062 -6.460938 -0.0234375 -6.664062 0.015625 -6.90625 C 0.0546875 -7.144531 0.109375 -7.398438 0.171875 -7.671875 C 0.234375 -7.953125 0.300781 -8.222656 0.375 -8.484375 C 0.457031 -8.742188 0.554688 -8.972656 0.671875 -9.171875 C 0.785156 -9.367188 0.914062 -9.507812 1.0625 -9.59375 C 1.21875 -9.6875 1.367188 -9.703125 1.515625 -9.640625 C 1.660156 -9.585938 1.769531 -9.492188 1.84375 -9.359375 Z M 1.84375 -9.359375 "/></g></g></g><g fill="#ffffff" fill-opacity="1"><g transform="translate(231.153069, 173.424243)"><g/></g></g><g fill="#ffffff" fill-opacity="1"><g transform="translate(233.921995, 171.810566)"><g><path d="M -0.234375 -10.3125 C -0.148438 -10.175781 -0.101562 -10.03125 -0.09375 -9.875 C -0.09375 -9.71875 -0.117188 -9.566406 -0.171875 -9.421875 C -0.234375 -9.285156 -0.3125 -9.148438 -0.40625 -9.015625 C -0.507812 -8.890625 -0.625 -8.773438 -0.75 -8.671875 C -0.238281 -7.816406 0.222656 -6.96875 0.640625 -6.125 C 1.054688 -5.289062 1.460938 -4.414062 1.859375 -3.5 L 1.921875 -3.546875 C 2.035156 -3.609375 2.160156 -3.660156 2.296875 -3.703125 C 2.441406 -3.753906 2.578125 -3.769531 2.703125 -3.75 C 2.835938 -3.738281 2.960938 -3.703125 3.078125 -3.640625 C 3.191406 -3.578125 3.285156 -3.484375 3.359375 -3.359375 C 3.460938 -3.171875 3.492188 -2.976562 3.453125 -2.78125 C 3.421875 -2.582031 3.34375 -2.382812 3.21875 -2.1875 C 3.09375 -2 2.9375 -1.8125 2.75 -1.625 C 2.570312 -1.4375 2.378906 -1.253906 2.171875 -1.078125 C 1.960938 -0.910156 1.765625 -0.757812 1.578125 -0.625 C 1.390625 -0.5 1.234375 -0.398438 1.109375 -0.328125 C 1.023438 -0.273438 0.910156 -0.210938 0.765625 -0.140625 C 0.628906 -0.078125 0.488281 -0.03125 0.34375 0 C 0.207031 0.03125 0.078125 0.03125 -0.046875 0 C -0.179688 -0.0195312 -0.289062 -0.0976562 -0.375 -0.234375 C -0.46875 -0.390625 -0.515625 -0.550781 -0.515625 -0.71875 C -0.523438 -0.882812 -0.503906 -1.046875 -0.453125 -1.203125 C -0.410156 -1.367188 -0.335938 -1.519531 -0.234375 -1.65625 C -0.128906 -1.800781 -0.0195312 -1.929688 0.09375 -2.046875 C -0.09375 -2.503906 -0.285156 -2.953125 -0.484375 -3.390625 C -0.691406 -3.835938 -0.910156 -4.28125 -1.140625 -4.71875 C -1.378906 -5.15625 -1.613281 -5.585938 -1.84375 -6.015625 C -2.082031 -6.453125 -2.320312 -6.894531 -2.5625 -7.34375 C -2.601562 -7.300781 -2.644531 -7.265625 -2.6875 -7.234375 C -2.738281 -7.203125 -2.78125 -7.175781 -2.8125 -7.15625 C -2.925781 -7.09375 -3.046875 -7.035156 -3.171875 -6.984375 C -3.304688 -6.929688 -3.445312 -6.898438 -3.59375 -6.890625 C -3.738281 -6.890625 -3.867188 -6.910156 -3.984375 -6.953125 C -4.097656 -7.003906 -4.191406 -7.09375 -4.265625 -7.21875 C -4.421875 -7.476562 -4.441406 -7.753906 -4.328125 -8.046875 C -4.210938 -8.347656 -4.023438 -8.628906 -3.765625 -8.890625 C -3.515625 -9.160156 -3.242188 -9.40625 -2.953125 -9.625 C -2.671875 -9.84375 -2.429688 -10.007812 -2.234375 -10.125 C -2.117188 -10.1875 -1.96875 -10.257812 -1.78125 -10.34375 C -1.601562 -10.4375 -1.414062 -10.503906 -1.21875 -10.546875 C -1.019531 -10.597656 -0.828125 -10.613281 -0.640625 -10.59375 C -0.460938 -10.570312 -0.328125 -10.476562 -0.234375 -10.3125 Z M -0.234375 -10.3125 "/></g></g></g><g fill="#ffffff" fill-opacity="1"><g transform="translate(238.058152, 169.400093)"><g><path d="M 0.734375 -10.953125 C 0.847656 -10.753906 0.878906 -10.535156 0.828125 -10.296875 C 0.773438 -10.054688 0.675781 -9.8125 0.53125 -9.5625 C 0.382812 -9.320312 0.222656 -9.097656 0.046875 -8.890625 C -0.128906 -8.679688 -0.28125 -8.523438 -0.40625 -8.421875 C -0.125 -7.796875 0.164062 -7.179688 0.46875 -6.578125 C 0.78125 -5.972656 1.109375 -5.367188 1.453125 -4.765625 C 1.628906 -4.453125 1.816406 -4.144531 2.015625 -3.84375 C 2.222656 -3.550781 2.414062 -3.253906 2.59375 -2.953125 C 2.664062 -2.816406 2.734375 -2.65625 2.796875 -2.46875 C 2.867188 -2.289062 2.910156 -2.109375 2.921875 -1.921875 C 2.941406 -1.742188 2.925781 -1.570312 2.875 -1.40625 C 2.820312 -1.25 2.707031 -1.117188 2.53125 -1.015625 C 2.332031 -0.898438 2.140625 -0.859375 1.953125 -0.890625 C 1.773438 -0.921875 1.609375 -1 1.453125 -1.125 C 1.296875 -1.25 1.15625 -1.394531 1.03125 -1.5625 C 0.90625 -1.738281 0.800781 -1.898438 0.71875 -2.046875 C 0.425781 -2.492188 0.140625 -2.945312 -0.140625 -3.40625 C -0.421875 -3.863281 -0.695312 -4.328125 -0.96875 -4.796875 C -1.195312 -5.191406 -1.414062 -5.570312 -1.625 -5.9375 C -1.84375 -6.3125 -2.066406 -6.695312 -2.296875 -7.09375 C -2.390625 -7.019531 -2.488281 -6.945312 -2.59375 -6.875 C -2.695312 -6.800781 -2.804688 -6.734375 -2.921875 -6.671875 C -3.015625 -6.617188 -3.144531 -6.554688 -3.3125 -6.484375 C -3.476562 -6.421875 -3.640625 -6.375 -3.796875 -6.34375 C -3.960938 -6.3125 -4.117188 -6.304688 -4.265625 -6.328125 C -4.421875 -6.359375 -4.535156 -6.441406 -4.609375 -6.578125 C -4.742188 -6.816406 -4.773438 -7.070312 -4.703125 -7.34375 C -4.628906 -7.625 -4.488281 -7.910156 -4.28125 -8.203125 C -4.070312 -8.492188 -3.820312 -8.78125 -3.53125 -9.0625 C -3.238281 -9.351562 -2.9375 -9.617188 -2.625 -9.859375 C -2.320312 -10.097656 -2.039062 -10.3125 -1.78125 -10.5 C -1.519531 -10.6875 -1.3125 -10.828125 -1.15625 -10.921875 C -1.007812 -11.003906 -0.847656 -11.085938 -0.671875 -11.171875 C -0.503906 -11.265625 -0.332031 -11.328125 -0.15625 -11.359375 C 0.0078125 -11.390625 0.171875 -11.375 0.328125 -11.3125 C 0.484375 -11.257812 0.617188 -11.140625 0.734375 -10.953125 Z M 0.734375 -10.953125 "/></g></g></g></svg>